<svg xmlns="http://www.w3.org/2000/svg" width="100%" height="100%" viewBox="0 0 21 23" fill="currentColor">
  <path fill-rule="evenodd" clip-rule="evenodd" d="M14.337 2.40226C15.2936 2.95454 15.6213 4.17772 15.069 5.13431C14.7322 5.71776 14.1457 6.06517 13.5224 6.12336C13.4457 6.13053 13.4073 6.13411 13.3806 6.14478C13.3546 6.15515 13.337 6.16643 13.3167 6.18573C13.2958 6.20561 13.2792 6.23434 13.2461 6.2918L11.988 8.4708C11.932 8.56781 11.904 8.61631 11.9015 8.66426C11.8993 8.70644 11.9105 8.74823 11.9335 8.78365C11.9596 8.82392 12.0081 8.85192 12.1051 8.90793L12.9178 9.37711C12.972 9.40843 12.9992 9.42409 13.0281 9.43082C13.0537 9.43678 13.0802 9.43764 13.1062 9.43333C13.1355 9.42846 13.1636 9.41457 13.2197 9.38679L15.8564 8.082C15.9201 8.05049 15.9519 8.03473 15.974 8.01362C15.9955 7.9931 16.0081 7.97491 16.0198 7.9476C16.0318 7.9195 16.0359 7.87841 16.0442 7.79624C16.0717 7.52386 16.1553 7.25281 16.3011 7.00033C16.8534 6.04375 18.0766 5.716 19.0331 6.26828C19.9897 6.82057 20.3175 8.04375 19.7652 9.00033C19.2417 9.90699 18.1156 10.2487 17.185 9.81171C17.12 9.7812 17.0875 9.76594 17.0608 9.76137C17.0349 9.75693 17.0152 9.75713 16.9893 9.76208C16.9627 9.76719 16.935 9.78088 16.8796 9.80826L15.6836 10.3994C15.5095 10.4855 15.4224 10.5286 15.3923 10.5886C15.3662 10.6409 15.3642 10.702 15.3869 10.7559C15.413 10.8177 15.4972 10.8663 15.6654 10.9634L18.0707 12.3521C18.2318 12.4452 18.3124 12.4917 18.3387 12.5519C18.3617 12.6044 18.361 12.6642 18.3369 12.7162C18.3092 12.7758 18.2276 12.8205 18.0644 12.9099L10.0548 17.2972C10.0153 17.3189 9.99554 17.3297 9.97907 17.3441C9.96447 17.3569 9.9518 17.3717 9.94147 17.3882C9.92983 17.4067 9.92226 17.4279 9.90712 17.4703L8.16068 22.3605C8.11636 22.4846 8.0942 22.5467 8.05314 22.5814C8.01713 22.6119 7.97149 22.6287 7.9243 22.6288C7.87052 22.6289 7.81345 22.5959 7.69932 22.53L0.224594 18.2145C0.110482 18.1486 0.0534262 18.1157 0.026619 18.0691C0.00309995 18.0282 -0.00520092 17.9802 0.00318366 17.9338C0.0127405 17.8809 0.0553854 17.8307 0.140675 17.7302L3.50183 13.7721C3.53095 13.7378 3.54551 13.7207 3.55574 13.7013C3.5648 13.6842 3.57132 13.6658 3.57509 13.6468C3.57934 13.6253 3.57884 13.6028 3.57783 13.5578L3.37332 4.42799C3.36916 4.242 3.36707 4.149 3.40487 4.09523C3.43782 4.04835 3.4893 4.01785 3.54625 4.01148C3.61157 4.00417 3.69213 4.05068 3.85324 4.14369L6.25858 5.53242C6.42681 5.62955 6.51093 5.67811 6.57755 5.6698C6.63558 5.66256 6.68754 5.63029 6.71974 5.58147C6.75671 5.52543 6.75044 5.42851 6.73791 5.23465L6.65188 3.90326C6.64789 3.8416 6.6459 3.81077 6.63701 3.78516C6.6284 3.76033 6.6187 3.74314 6.6019 3.72292C6.58458 3.70207 6.55513 3.68156 6.49622 3.64055C5.65243 3.05313 5.38533 1.90699 5.90878 1.00033C6.46107 0.0437486 7.68425 -0.284002 8.64083 0.268283C9.59742 0.820568 9.92517 2.04375 9.37289 3.00033C9.22705 3.25292 9.03376 3.4605 8.81137 3.62031C8.74433 3.66848 8.71082 3.69257 8.69245 3.71704C8.67461 3.74079 8.66512 3.76086 8.65807 3.78973C8.65082 3.81945 8.65311 3.85493 8.65768 3.92588L8.84681 6.86216C8.85083 6.92465 8.85284 6.9559 8.86329 6.98371C8.87253 7.00832 8.88653 7.03088 8.9045 7.05007C8.9248 7.07176 8.95191 7.08741 9.00614 7.11872L9.81883 7.58793C9.91584 7.64393 9.96434 7.67194 10.0123 7.67445C10.0545 7.67666 10.0963 7.66546 10.1317 7.64246C10.172 7.61631 10.2 7.5678 10.256 7.4708L11.514 5.2918C11.5472 5.23434 11.5638 5.20561 11.5705 5.1776C11.5771 5.15039 11.5781 5.12951 11.5741 5.10181C11.5699 5.07329 11.5539 5.03828 11.5217 4.96824C11.2604 4.39934 11.2681 3.71776 11.6049 3.13431C12.1572 2.17772 13.3804 1.84997 14.337 2.40226ZM3.21688 17.1969C3.13161 17.2974 3.08897 17.3476 3.07942 17.4005C3.07104 17.4469 3.07934 17.4948 3.10286 17.5357C3.12967 17.5823 3.18672 17.6153 3.30082 17.6812L6.62315 19.5993C6.73726 19.6652 6.79431 19.6981 6.84808 19.698C6.89526 19.6979 6.94089 19.6812 6.97691 19.6507C7.01796 19.616 7.04014 19.554 7.08448 19.4299L7.89191 17.171C7.92387 17.0815 7.93985 17.0368 7.93673 16.9946C7.93398 16.9574 7.92086 16.9217 7.89887 16.8915C7.87393 16.8573 7.83282 16.8336 7.75058 16.7861L5.17339 15.2982C5.09116 15.2507 5.05004 15.227 5.00795 15.2225C4.97084 15.2185 4.93336 15.225 4.89975 15.2412C4.86163 15.2596 4.8309 15.2958 4.76945 15.3682L3.21688 17.1969ZM5.56606 13.0379C5.56753 13.1035 5.56827 13.1363 5.5783 13.1656C5.58719 13.1916 5.60131 13.2154 5.6198 13.2357C5.64069 13.2586 5.66912 13.275 5.72598 13.3078L9.19799 15.3124C9.25486 15.3452 9.28329 15.3616 9.31355 15.3683C9.34034 15.3742 9.36805 15.3745 9.39496 15.3692C9.42537 15.3632 9.45416 15.3475 9.51174 15.3159L13.986 12.8646C14.1492 12.7753 14.2308 12.7306 14.2584 12.6709C14.2826 12.619 14.2832 12.5591 14.2603 12.5066C14.2339 12.4464 14.1534 12.3999 13.9923 12.3069L5.9317 7.65309C5.77058 7.56007 5.69003 7.51356 5.62471 7.52087C5.56776 7.52725 5.51627 7.55774 5.48332 7.60463C5.44553 7.6584 5.44761 7.7514 5.45178 7.93739L5.56606 13.0379Z" fill="currentColor"/>
</svg>