<svg xmlns="http://www.w3.org/2000/svg" width="100%" height="100%" viewBox="0 0 24 22" fill="currentColor">
  <path d="M11.5796 0.0447723C11.8569 -0.0149137 12.144 -0.0149345 12.4214 0.0447723C13.3041 0.23481 13.9163 1.32878 15.1411 3.51548L22.4448 16.5555C23.6223 18.6577 24.2119 19.7089 23.9321 20.5477C23.844 20.8118 23.7015 21.0546 23.5141 21.2606C22.9191 21.9146 21.7137 21.9149 19.3042 21.9149H4.69675C2.28722 21.9149 1.08186 21.9146 0.486789 21.2606C0.299424 21.0546 0.156935 20.8118 0.0688207 20.5477C-0.210973 19.7089 0.377731 18.6576 1.55515 16.5555L8.85984 3.51548C10.0846 1.32878 10.6968 0.23481 11.5796 0.0447723ZM12.1489 16.0516C11.717 16.0516 11.5009 16.0512 11.3471 16.1571C11.2872 16.1984 11.2352 16.2505 11.1938 16.3104C11.0878 16.4642 11.0874 16.6803 11.0874 17.1122C11.0874 17.544 11.0878 17.7601 11.1938 17.9139C11.2352 17.9739 11.2871 18.0259 11.3471 18.0672C11.5009 18.1732 11.7169 18.1737 12.1489 18.1737C12.5808 18.1737 12.7969 18.1732 12.9507 18.0672C13.0106 18.0259 13.0626 17.9739 13.104 17.9139C13.21 17.7601 13.2104 17.544 13.2104 17.1122C13.2104 16.6803 13.21 16.4642 13.104 16.3104C13.0626 16.2504 13.0106 16.1984 12.9507 16.1571C12.7969 16.0511 12.5808 16.0516 12.1489 16.0516ZM11.8452 7.55649C11.2415 7.55649 10.9392 7.55677 10.7612 7.7479C10.5834 7.93904 10.6049 8.24065 10.6479 8.84262L11.0112 13.9256C11.045 14.3993 11.0622 14.6363 11.2046 14.7909C11.225 14.8129 11.2475 14.8336 11.271 14.8524C11.4353 14.9837 11.6728 14.9842 12.1479 14.9842C12.6232 14.9842 12.8615 14.9838 13.0259 14.8524C13.0492 14.8337 13.071 14.8128 13.0913 14.7909C13.2339 14.6363 13.2508 14.3995 13.2846 13.9256L13.6479 8.84262C13.6909 8.24046 13.7126 7.93903 13.5346 7.7479C13.3567 7.55686 13.055 7.55649 12.4516 7.55649H11.8452Z" fill="currentColor" />
</svg>