<svg xmlns="http://www.w3.org/2000/svg" width="100%" height="100%" viewBox="0 0 12 10" fill="currentColor">
  <path d="M4.66504 10C4.45354 10 4.34779 10 4.2588 9.95192C4.16982 9.90385 4.11185 9.8154 3.99592 9.6385L0.457061 4.2385C0.0993465 3.69266 -0.0795108 3.41974 0.0338735 3.20987C0.147258 3 0.473564 3 1.12618 3H1.86671C2.07172 3 2.17422 3 2.26132 3.04556C2.34842 3.09111 2.40689 3.17531 2.52382 3.3437L5.27789 7.30975C5.30806 7.3532 5.3576 7.37911 5.4105 7.37911C5.47291 7.37911 5.52973 7.34314 5.55643 7.28674L8.78902 0.457722C8.89431 0.235272 8.94696 0.124048 9.04494 0.062024C9.14293 0 9.26598 0 9.5121 0H10.3495C10.9302 0 11.2206 0 11.3378 0.189882C11.455 0.379764 11.3249 0.639344 11.0647 1.1585L6.8539 9.55851C6.74622 9.77333 6.69237 9.88074 6.59578 9.94037C6.49918 10 6.37903 10 6.13873 10H4.66504Z" fill="currentColor"/>
</svg>