<svg xmlns="http://www.w3.org/2000/svg" width="100%" height="100%" viewBox="0 0 14 14" fill="currentColor">
  <path d="M12.995 7.52837C12.9054 7.36647 12.8381 7.20457 12.8307 7.04018C12.8132 6.81602 12.9253 6.58687 13.0423 6.3901C14.4018 4.09363 14.2001 2.0562 13.0846 0.927896C11.9617 -0.205393 9.91494 -0.417106 7.60677 0.950313C7.41006 1.06738 7.18099 1.17697 6.9569 1.16203C6.79505 1.15455 6.63071 1.0873 6.46887 0.997637C1.83758 -1.80694 -1.77283 1.7349 0.926266 6.35025C1.04329 6.54203 1.17277 6.76869 1.17526 6.98041V7.02026C1.17526 7.22201 1.05823 7.43123 0.951166 7.61056C-0.43324 9.94688 -0.199185 12.0167 0.968595 13.1301C2.10401 14.2135 4.11837 14.3929 6.38919 13.0479C6.68549 12.8586 7.03408 12.754 7.36276 12.9208C11.9592 15.84 15.9232 12.3629 12.9975 7.52837H12.995ZM6.99922 9.76257C6.1402 8.55456 5.4455 7.85715 4.23539 6.99784C5.44301 6.13853 6.1402 5.44362 6.99922 4.23311C7.85825 5.44113 8.55295 6.13853 9.76306 6.99784C8.55544 7.85715 7.85825 8.55207 6.99922 9.76257Z" fill="currentColor"/>
</svg>