<svg xmlns="http://www.w3.org/2000/svg" width="100%" height="100%" viewBox="0 0 18 22" fill="currentColor">
  <path fill-rule="evenodd" clip-rule="evenodd" d="M18 21.68C18 21.792 18 21.848 17.9782 21.8908C17.959 21.9284 17.9284 21.959 17.8908 21.9782C17.848 22 17.792 22 17.68 22H4L3.79395 21.9951C1.68056 21.8879 1.01004e-06 20.14 1.01004e-06 18V7.40039C1.00947e-06 6.29681 -0.000973493 5.40857 0.0576182 4.69141C0.117156 3.9627 0.243265 3.32266 0.544923 2.73047C1.02429 1.78966 1.78966 1.02429 2.73047 0.544923C3.32266 0.243265 3.9627 0.117156 4.69141 0.0576182C5.40857 -0.000973504 6.29681 1.00951e-06 7.40039 1.01007e-06H17.68C17.792 1.01007e-06 17.848 1.01007e-06 17.8908 0.0217997C17.9284 0.0409744 17.959 0.0715705 17.9782 0.109203C18 0.151985 18 0.207991 18 0.320001V21.68ZM4 16C2.89543 16 2 16.8954 2 18C2 19.1046 2.89543 20 4 20H15.68C15.792 20 15.848 20 15.8908 19.9782C15.9284 19.959 15.959 19.9284 15.9782 19.8908C16 19.848 16 19.792 16 19.68V16.32C16 16.208 16 16.152 15.9782 16.1092C15.959 16.0716 15.9284 16.041 15.8908 16.0218C15.848 16 15.792 16 15.68 16H4ZM7.40039 2C6.26396 2 5.47129 2.00041 4.85449 2.05078C4.24933 2.10023 3.90105 2.19296 3.6377 2.32715C3.07347 2.61472 2.61472 3.07347 2.32715 3.6377C2.19296 3.90105 2.10023 4.24933 2.05078 4.85449C2.00041 5.47129 2 6.26396 2 7.40039V14.5361C2.58845 14.1956 3.27125 14 4 14H15.68C15.792 14 15.848 14 15.8908 13.9782C15.9284 13.959 15.959 13.9284 15.9782 13.8908C16 13.848 16 13.792 16 13.68V2.32C16 2.20799 16 2.15199 15.9782 2.1092C15.959 2.07157 15.9284 2.04097 15.8908 2.0218C15.848 2 15.792 2 15.68 2H7.40039Z" fill="currentColor"/>
</svg>