<svg xmlns="http://www.w3.org/2000/svg" width="13" height="14" viewBox="0 0 13 14" fill="none">
  <path d="M4.26043 0.0331121C4.4765 -0.0824374 4.75496 0.111896 5.31155 0.499645L6.15718 1.08858C6.37386 1.23953 6.48269 1.31492 6.60569 1.31633C6.72876 1.31767 6.83922 1.24489 7.05913 1.09861L7.85043 0.571882C8.40286 0.204431 8.67938 0.0208591 8.89167 0.137455C9.10392 0.254072 9.10345 0.589522 9.10308 1.26014V2.3738C9.10283 2.83928 9.10274 3.07205 9.25127 3.1955C9.39997 3.31891 9.6249 3.27247 10.0742 3.17945L10.8843 3.0119C11.5943 2.86487 11.9493 2.7916 12.1033 2.99585C12.2572 3.20027 12.0951 3.5292 11.7694 4.18676L11.639 4.44962C11.4846 4.76123 11.4073 4.91735 11.4474 5.06866C11.4875 5.21977 11.6314 5.3152 11.9186 5.50609L12.0559 5.59739C12.7111 6.03286 13.0386 6.25075 12.9964 6.51441C12.954 6.77814 12.5746 6.87896 11.8168 7.08027L11.4167 7.18661C10.8446 7.33859 10.5586 7.41498 10.4763 7.57991C10.4351 7.66251 10.4225 7.75708 10.4407 7.84779C10.4773 8.02885 10.7339 8.17949 11.2458 8.47986L11.4355 8.59123C11.7414 8.77073 11.8948 8.86068 11.9492 8.95944C12.0316 9.10935 12.0134 9.29524 11.9038 9.42597C11.8315 9.51214 11.6644 9.57023 11.3298 9.68583C11.1815 9.73707 11.1074 9.76302 11.0532 9.80622C10.9712 9.87156 10.9168 9.96635 10.902 10.0711C10.8923 10.1404 10.9081 10.2188 10.9386 10.3751C11.0072 10.7273 11.0412 10.9035 11.0038 11.0102C10.947 11.1718 10.7973 11.2806 10.6284 11.2831C10.5169 11.2847 10.3637 11.1948 10.0574 11.0152L8.55381 10.1333C7.98301 9.79854 7.69724 9.63118 7.49183 9.75907C7.28639 9.88736 7.30412 10.222 7.34068 10.8908L7.46318 13.1321C7.48542 13.5391 7.49696 13.743 7.37723 13.8716C7.25749 14 7.05629 14 6.65508 14H6.34291C5.94208 14 5.74148 13.9998 5.62175 13.8716C5.50202 13.743 5.51255 13.5391 5.53481 13.1321L5.65731 10.8938C5.69389 10.2251 5.71257 9.89038 5.50715 9.76208C5.30175 9.63379 5.01619 9.80153 4.44517 10.1363L2.94456 11.0162C2.63892 11.1954 2.48587 11.2845 2.37454 11.2831C2.20547 11.2807 2.05589 11.1719 1.99914 11.0102C1.96181 10.9036 1.99572 10.7271 2.06435 10.3751C2.09473 10.2193 2.10964 10.1413 2.09991 10.0721C2.08518 9.96743 2.03158 9.87258 1.94975 9.80722C1.8956 9.76404 1.82132 9.73811 1.67314 9.68683C1.33768 9.57074 1.16948 9.51249 1.0972 9.42597C0.988166 9.29539 0.970723 9.11003 1.05274 8.96044C1.10712 8.86135 1.25994 8.77109 1.56645 8.59123L1.75612 8.47986C2.26751 8.17977 2.52359 8.02972 2.56027 7.84879C2.57854 7.75792 2.566 7.66262 2.5247 7.57991C2.44218 7.41525 2.1558 7.33961 1.58423 7.18762L1.18216 7.08027C0.424944 6.87891 0.0459522 6.77806 0.003601 6.51441C-0.0384863 6.25084 0.289162 6.0327 0.944075 5.59739L1.08139 5.50609C1.36878 5.31507 1.51345 5.21986 1.5536 5.06866C1.59364 4.91737 1.51626 4.76111 1.36195 4.44962L1.21673 4.15766C0.896472 3.51116 0.736686 3.18766 0.887765 2.98381C1.03888 2.77993 1.38951 2.84703 2.09003 2.9808L3.08583 3.17042C3.52983 3.2552 3.7516 3.29766 3.89787 3.17443C4.04415 3.05118 4.04408 2.82172 4.04408 2.36277V1.17687C4.04408 0.491471 4.04437 0.148684 4.26043 0.0331121Z" fill="#E7905E" style="fill:#E7905E;fill:color(display-p3 0.9059 0.5647 0.3686);fill-opacity:1;"/>
</svg>