<svg xmlns="http://www.w3.org/2000/svg" width="100%" height="100%" viewBox="0 0 20 18" fill="currentColor">
  <path d="M14.7367 0C13.0088 0 11.4814 0.885449 10.5237 2.2518C10.2578 2.6311 10.1249 2.82075 10 2.82077C9.87519 2.82079 9.74218 2.63116 9.47617 2.25191C8.51775 0.885495 6.98852 0 5.26333 0C2.35667 0 0 2.50227 0 5.5875C0 9.33478 2.67605 11.7612 8.9604 17.1151C9.45708 17.5382 9.70542 17.7498 9.99999 17.7498C10.2946 17.7498 10.5429 17.5382 11.0396 17.1151C17.324 11.7616 20 9.33801 20 5.5875C20 2.50227 17.6433 0 14.7367 0Z" fill="currentColor"/>
</svg>