<svg xmlns="http://www.w3.org/2000/svg" width="26" height="26" viewBox="0 0 26 26" fill="none">
  <path d="M25.0866 10.1858H24.0664V10.1332H12.6665V15.1998H19.825C18.7806 18.1492 15.9744 20.2664 12.6665 20.2664C8.46946 20.2664 5.0666 16.8636 5.0666 12.6665C5.0666 8.46946 8.46946 5.0666 12.6665 5.0666C14.6038 5.0666 16.3664 5.79746 17.7084 6.99128L21.2911 3.40856C19.0289 1.30022 16.0029 0 12.6665 0C5.67143 0 0 5.67143 0 12.6665C0 19.6616 5.67143 25.333 12.6665 25.333C19.6616 25.333 25.333 19.6616 25.333 12.6665C25.333 11.8172 25.2456 10.9882 25.0866 10.1858Z" fill="#FFC107" style="fill:#FFC107;fill:color(display-p3 1.0000 0.7569 0.0275);fill-opacity:1;"/>
  <path d="M1.46021 6.77186L5.62179 9.82385C6.74784 7.03595 9.47494 5.06758 12.6663 5.06758C14.6036 5.06758 16.3662 5.79844 17.7082 6.99225L21.2909 3.40953C19.0287 1.30119 16.0026 0.000976562 12.6663 0.000976562C7.80106 0.000976562 3.58184 2.74771 1.46021 6.77186Z" fill="#FF3D00" style="fill:#FF3D00;fill:color(display-p3 1.0000 0.2392 0.0000);fill-opacity:1;"/>
  <path d="M12.666 25.3334C15.9378 25.3334 18.9106 24.0813 21.1583 22.0452L17.238 18.7278C15.9235 19.7274 14.3174 20.2681 12.666 20.2668C9.37145 20.2668 6.57405 18.166 5.5202 15.2344L1.38965 18.4168C3.48596 22.5189 7.74317 25.3334 12.666 25.3334Z" fill="#4CAF50" />
  <path d="M25.0864 10.1854H24.0661V10.1328H12.6663V15.1994H19.8247C19.3252 16.6031 18.4253 17.8297 17.2363 18.7277L17.2382 18.7264L21.1585 22.0438C20.8811 22.2958 25.3328 18.9994 25.3328 12.6661C25.3328 11.8168 25.2454 10.9878 25.0864 10.1854Z" fill="#1976D2" />
</svg>