<svg xmlns="http://www.w3.org/2000/svg" width="100%" height="100%" viewBox="0 0 16 22" fill="currentColor">
<path fill-rule="evenodd" clip-rule="evenodd" d="M8.38543 4.55539C8.38543 3.4616 7.53313 2.57491 6.48179 2.5749C5.43043 2.5749 4.57814 3.46159 4.57814 4.55539V12.9151L3.31276 11.46C2.64444 10.6915 1.5189 10.5898 0.733056 11.2266L0.653738 11.295C-0.142991 12.0146 -0.226894 13.2836 0.487045 14.1104L4.52717 21.315C4.75378 21.7191 5.16902 21.9683 5.61871 21.97L13.5074 22C14.7465 22.0047 15.7633 20.9808 15.7992 19.6922L16 12.4773C16 11.3836 15.1477 10.4969 14.0964 10.4969C13.8736 10.4969 13.6605 10.5385 13.4618 10.6116V10.4969C13.4618 9.40307 12.6095 8.51638 11.5582 8.51637C11.2184 8.51637 10.8999 8.60999 10.6237 8.77231C10.2855 8.22198 9.69438 7.85621 9.01998 7.8562C8.79725 7.8562 8.58407 7.89783 8.38543 7.97096V4.55539ZM5.84724 4.55539C5.84724 4.19079 6.13133 3.89522 6.48179 3.89522C6.83223 3.89523 7.11633 4.19079 7.11633 4.55539V12.4773C7.11633 12.8419 7.40043 13.1375 7.75088 13.1375C8.10133 13.1375 8.38543 12.8419 8.38543 12.4773V9.83669C8.38543 9.4721 8.66953 9.17653 9.01998 9.17653C9.37042 9.17654 9.65452 9.4721 9.65452 9.83669V12.4773C9.65452 12.8419 9.93862 13.1375 10.2891 13.1375C10.6395 13.1375 10.9236 12.8419 10.9236 12.4773V10.4969C10.9236 10.1323 11.2077 9.83669 11.5582 9.83669C11.9086 9.83671 12.1927 10.1323 12.1927 10.4969V12.4773C12.1927 12.8419 12.4768 13.1375 12.8273 13.1375C13.1777 13.1375 13.4618 12.8419 13.4618 12.4773C13.4618 12.1128 13.7459 11.8172 14.0964 11.8172C14.4468 11.8172 14.7309 12.1128 14.7309 12.4773L14.507 19.4069C14.484 20.1205 13.9197 20.6858 13.2334 20.6828L6.09532 20.652C5.82762 20.6508 5.58017 20.5035 5.44359 20.264L1.43143 13.2278C1.18625 12.9438 1.2238 12.5031 1.51323 12.2685C1.77469 12.0566 2.1491 12.0902 2.37148 12.3458L3.84067 14.0357C4.25343 14.5105 4.95195 14.564 5.42712 14.1573C5.69312 13.9296 5.84724 13.59 5.84724 13.2317V4.55539Z" fill="currentColor"/>
<path d="M9.70846 4.55539C9.70846 2.69594 8.25981 1.18881 6.47251 1.18881C4.68521 1.18881 3.23656 2.69594 3.23656 4.55539C3.23656 4.88352 2.98063 5.14979 2.66522 5.14979C2.34982 5.14979 2.09388 4.88352 2.09388 4.55539C2.09388 2.03966 4.0544 0 6.47251 0C8.89062 0 10.8511 2.03966 10.8511 4.55539C10.8511 4.88352 10.5952 5.14979 10.2798 5.14979C9.96439 5.14979 9.70846 4.88352 9.70846 4.55539Z" fill="currentColor"/>
</svg>