<svg xmlns="http://www.w3.org/2000/svg" width="100%" height="100%" viewBox="0 0 21 22" fill="currentColor">
<path d="M10.3716 21.8C10.1452 21.8 9.93985 21.7916 9.74445 21.7745L9.73526 21.7737C9.60844 21.7673 9.47742 21.7547 9.35099 21.7429C9.15406 21.7243 8.95024 21.7052 8.74412 21.7052C8.64183 21.7052 8.54758 21.7098 8.45601 21.7193C8.25104 21.7406 8.09549 21.7501 7.95067 21.7501C7.64034 21.7501 7.38902 21.7026 7.18213 21.6051L7.17868 21.6036C6.46876 21.282 6.42853 21.1454 6.2044 20.3881L6.18524 20.3238C6.11322 20.0825 6.05383 19.8283 6.10441 19.5999L6.10632 19.5904C6.16302 19.2768 6.24808 18.8647 6.40056 18.4552C6.59097 17.9266 6.82506 17.3184 7.12581 16.7936C7.16642 16.7206 7.21546 16.6429 7.26718 16.5604C7.40243 16.3453 7.54188 16.1231 7.5913 15.9111C7.65031 15.6786 7.58441 15.529 7.51851 15.4449C7.45223 15.36 7.32312 15.2588 7.08443 15.2588C6.93846 15.2588 6.77181 15.2984 6.6266 15.3677C6.50937 15.4236 6.37911 15.5058 6.23888 15.6116C6.14693 15.6828 6.07107 15.7532 5.9979 15.8217C5.91897 15.8951 5.84427 15.9648 5.75462 16.031C5.46114 16.23 5.22476 16.3811 4.98875 16.5204L4.98186 16.5246L4.97496 16.5291C4.55851 16.8123 4.09761 17.068 3.65242 17.3154C3.57312 17.3595 3.49419 17.4033 3.41565 17.4471C3.2034 17.554 2.9946 17.6811 2.79308 17.8037C2.51416 17.9734 2.22567 18.1488 1.93833 18.2634C1.83642 18.3049 1.73068 18.3254 1.62226 18.3254C1.33989 18.3254 1.06405 18.1789 0.9357 17.9608C0.828808 17.7793 0.835321 17.5727 0.953706 17.3622C1.0311 17.2321 1.16366 17.1217 1.28204 17.0284C1.57436 16.8024 1.92186 16.5421 2.26399 16.337C2.47279 16.211 2.69538 16.1132 2.93062 16.0101C3.17505 15.9027 3.42753 15.792 3.66698 15.6458C3.94053 15.4997 4.20757 15.3296 4.50602 15.1112C4.747 14.9509 5.00944 14.7527 5.14124 14.495C5.23165 14.3371 5.23587 14.1491 5.15158 13.9896C5.05963 13.8157 4.87573 13.6992 4.67153 13.6844C4.64701 13.6821 4.62172 13.681 4.59682 13.681C4.47767 13.681 4.37039 13.7057 4.27193 13.7327L4.26427 13.7346L4.25699 13.7373C3.56315 13.9721 2.76243 14.2225 2.03794 14.2225C1.69007 14.2225 1.38855 14.1628 1.14144 14.0448C0.688586 13.7948 0.349522 13.4058 0.185162 12.948C0.0376602 12.4331 -0.0247888 11.7515 0.00892602 11.0269C0.0326796 10.5988 0.14685 10.2037 0.267917 9.78512L0.295502 9.68959C0.321171 9.6013 0.347223 9.51149 0.372892 9.42129C0.535336 8.85501 0.703144 8.26932 0.987421 7.74756L0.98972 7.74337C1.39276 6.96892 2.04446 6.57618 2.92717 6.57618C3.20302 6.57618 3.50339 6.61461 3.81908 6.69035C4.00336 6.73335 4.18879 6.79424 4.36848 6.85323C4.54701 6.91184 4.73168 6.97235 4.91941 7.01763C5.17878 7.08575 5.3918 7.11049 5.61707 7.13675L5.64964 7.14056C5.93736 7.18318 6.2362 7.24026 6.52507 7.29583C6.66338 7.32247 6.80131 7.34873 6.93885 7.37384C7.17792 7.42294 7.41928 7.48345 7.65299 7.54167C8.025 7.63453 8.40965 7.73082 8.80734 7.78866C9.30042 7.88228 9.81456 7.92985 10.3352 7.92985C10.8114 7.92985 11.2969 7.89027 11.7785 7.81188C12.0761 7.77877 12.3577 7.73843 12.6393 7.68819C12.8635 7.65661 13.0677 7.59686 13.265 7.53863C13.4282 7.49068 13.5826 7.44539 13.7431 7.41685C13.8653 7.3982 13.9879 7.37993 14.1105 7.36205C14.7522 7.26728 15.4158 7.16948 16.0598 6.98757L16.066 6.98567C16.9525 6.71166 17.5824 6.5895 18.1084 6.5895C18.8689 6.5895 19.8118 6.81631 20.3589 8.58443C20.4171 8.77281 20.4558 8.96461 20.4972 9.16784C20.5106 9.23406 20.524 9.30066 20.5382 9.36649C20.5953 9.64393 20.6826 9.91108 20.7669 10.1691C20.7995 10.2692 20.8336 10.3731 20.865 10.4751L20.8661 10.4793C21.0619 11.1685 21.0412 12.1774 20.8155 12.9313L20.8136 12.9381C20.6133 13.6814 19.9612 14.1902 19.1524 14.2343C19.1229 14.2355 19.0903 14.2362 19.0574 14.2362C18.5758 14.2362 18.0674 14.0962 17.5759 13.9603L17.5234 13.9459L17.5161 13.9443C17.4697 13.9344 17.3996 13.9146 17.3188 13.8918C17.0736 13.8229 16.738 13.7289 16.4529 13.7289C15.9196 13.7289 15.8173 14.0635 15.7982 14.2073L15.7928 14.2461L15.7993 14.2849C15.8844 14.7797 16.364 15.0541 16.7495 15.2748C16.8422 15.3277 16.9295 15.3779 17.005 15.427L17.0096 15.4301L17.0146 15.4331C17.2943 15.5979 17.5939 15.7433 17.8839 15.8841C18.1513 16.0139 18.4042 16.1364 18.6417 16.2726C18.7337 16.3351 18.8271 16.3967 18.9202 16.4584C19.2877 16.7012 19.6351 16.9303 19.9282 17.2225C20.1282 17.4589 20.1811 17.7123 20.0773 17.9361C19.9662 18.1759 19.6961 18.3307 19.3892 18.3307C19.3252 18.3307 19.2601 18.3243 19.1949 18.3113C18.8501 18.2345 18.431 17.9612 18.2053 17.8143L18.1954 17.8082C18.0839 17.7428 17.9743 17.675 17.8682 17.6096C17.6728 17.4889 17.4705 17.3645 17.2529 17.2496L17.2464 17.2465C16.6801 16.9672 16.0606 16.5851 15.297 16.0451C15.1913 15.9701 15.0944 15.8875 14.9921 15.8004C14.8216 15.6554 14.6454 15.5054 14.4224 15.3882C14.2937 15.322 14.0914 15.2523 13.9044 15.2523C13.7056 15.2523 13.5879 15.3304 13.524 15.3958C13.4627 15.459 13.3906 15.5724 13.3971 15.7547V15.7615L13.3979 15.7684C13.4205 16.0249 13.5577 16.2414 13.7033 16.4705C13.7197 16.4968 13.7366 16.5231 13.7534 16.5501C13.9442 16.8515 14.1822 17.2458 14.3369 17.6313C14.4297 17.8558 14.4936 18.0929 14.5615 18.3441C14.6208 18.5633 14.6821 18.7901 14.7637 19.007C14.948 19.5371 14.9837 19.9668 14.8729 20.32L14.8714 20.3253L14.8699 20.331C14.7798 20.6705 14.6588 20.9445 14.5005 21.1686C14.2584 21.4191 13.9086 21.6032 13.4876 21.7026C13.3765 21.7288 13.2619 21.741 13.1267 21.741C12.9914 21.741 12.8612 21.7292 12.7205 21.7167C12.5738 21.7037 12.4221 21.69 12.2643 21.69C12.2282 21.69 12.1918 21.6908 12.1554 21.6923H12.1501L11.9777 21.7071C11.4493 21.7524 10.903 21.7989 10.3728 21.7989L10.3716 21.8ZM9.25904 20.3717C9.45864 20.3717 9.65902 20.3927 9.87127 20.4151C10.0456 20.4334 10.2257 20.4524 10.4076 20.4589C10.4456 20.4604 10.4866 20.4612 10.5283 20.4612C10.7463 20.4612 10.9605 20.4383 11.1678 20.4159C11.3731 20.3938 11.5666 20.3729 11.762 20.3729H11.8022C11.8183 20.3721 11.8348 20.3721 11.852 20.3721C11.9271 20.3721 12.0141 20.3778 12.106 20.3835C12.2137 20.3904 12.3252 20.3976 12.4393 20.3976C12.6121 20.3976 13.1378 20.3976 13.3676 19.9539L13.3719 19.9455L13.3799 19.9272L13.3814 19.9227C13.5213 19.5607 13.3477 19.1737 13.1945 18.8323C13.1435 18.7182 13.0949 18.6108 13.0669 18.521L13.0646 18.5134L13.0619 18.5062C13.024 18.4069 12.9884 18.3053 12.9539 18.2071C12.8926 18.0328 12.8294 17.8528 12.7504 17.6762C12.6677 17.4897 12.5742 17.307 12.4842 17.1304C12.4585 17.0798 12.4324 17.0292 12.4072 16.9786L12.4029 16.9706C12.2872 16.7598 12.2022 16.5931 12.1091 16.3948L12.1041 16.3845C12.0804 16.3389 12.057 16.2959 12.034 16.2536C11.9639 16.1238 11.9033 16.012 11.8578 15.886L11.8555 15.8803C11.834 15.8247 11.8129 15.7673 11.7919 15.7086C11.6907 15.4285 11.5758 15.1112 11.3306 14.8638C11.1053 14.6286 10.8145 14.4988 10.5118 14.4988C10.303 14.4988 10.095 14.5616 9.90996 14.6804C9.44217 14.9426 9.30731 15.3403 9.2395 15.6976C9.22915 15.7296 9.20923 15.7673 9.17782 15.8122C9.09008 15.9408 9.04104 16.069 8.99353 16.1927C8.97974 16.2289 8.96557 16.2654 8.95062 16.3016L8.94794 16.3088C8.90503 16.4218 8.83147 16.5406 8.7537 16.6665C8.69585 16.7601 8.63608 16.8568 8.58474 16.9577C8.5629 17.0003 8.53915 17.0475 8.51425 17.0958C8.42919 17.2633 8.33303 17.4532 8.24031 17.6115L8.23687 17.6179C8.15258 17.7725 8.09856 17.9361 8.05105 18.0807C8.03841 18.1192 8.02577 18.1572 8.01312 18.1945C7.98554 18.2733 7.96025 18.3528 7.93535 18.4301C7.89589 18.553 7.85489 18.6801 7.80317 18.8152L7.78095 18.8689C7.69743 19.0706 7.6028 19.2993 7.59016 19.5486C7.57368 19.7879 7.63498 19.9832 7.77214 20.1301C7.99741 20.3706 8.36138 20.3984 8.61577 20.3984C8.73952 20.3984 8.86251 20.3911 8.97093 20.3843C9.02227 20.3812 9.07131 20.3782 9.1169 20.3763C9.16517 20.3736 9.21191 20.3725 9.26019 20.3725L9.25904 20.3717ZM12.5796 10.1817C12.7098 10.3811 12.9106 10.5455 13.0876 10.6905L13.109 10.708L13.1171 10.7137C13.2784 10.8267 13.4148 10.9481 13.5592 11.076C13.5868 11.1004 13.6485 11.1548 13.6485 11.1548L13.6542 11.1593C13.8964 11.3492 14.1971 11.4969 14.4875 11.6392C14.5565 11.6731 14.6243 11.7062 14.6894 11.7393L14.6959 11.7428C14.8262 11.804 14.9599 11.8889 15.089 11.9707C15.1331 11.9989 15.1767 12.0263 15.2193 12.0525L15.225 12.056C15.4825 12.2051 15.6982 12.3224 15.9763 12.4441L15.9859 12.4483L15.9959 12.4517C16.0859 12.483 16.1786 12.5172 16.2683 12.5503C16.5836 12.6672 16.9096 12.7878 17.2652 12.8293H17.2694C17.3667 12.8395 17.4789 12.8601 17.5877 12.8803C17.6896 12.8993 17.795 12.9187 17.8923 12.9297L17.9 12.9305C17.9337 12.9335 17.9655 12.9366 17.9965 12.9396C18.0793 12.9476 18.1574 12.9556 18.239 12.9556C18.3984 12.9556 18.5387 12.924 18.6808 12.8559C19.0896 12.6599 19.3796 12.3178 19.4773 11.9171L19.4792 11.9094C19.6079 11.4079 19.5781 10.8499 19.393 10.2955C19.3022 9.96589 19.1697 9.61424 19.0095 9.27782C18.9379 9.12179 18.8394 8.95738 18.7084 8.77623C18.4061 8.299 17.99 8.03641 17.5356 8.03641C17.5004 8.03641 17.4644 8.03793 17.4287 8.04136C17.2012 8.05963 16.9935 8.13536 16.7928 8.20843C16.7039 8.24078 16.62 8.2716 16.5372 8.29596C16.384 8.33516 16.2476 8.34619 16.1273 8.35571L16.1051 8.35761C15.8058 8.36712 15.5258 8.42954 15.2902 8.49005C14.7296 8.59584 14.1599 8.72942 13.6573 8.8474C13.6013 8.86148 13.5481 8.87328 13.4945 8.88546C13.3021 8.92884 13.1029 8.97375 12.9106 9.06775C12.6815 9.17507 12.5229 9.35127 12.4635 9.56439C12.4068 9.76761 12.4481 9.98682 12.5796 10.1817ZM1.40464 11.3892C1.40617 11.9106 1.68087 12.5743 2.28238 12.8038C2.46321 12.8738 2.66358 12.908 2.89384 12.908C2.99307 12.908 3.09881 12.9016 3.21681 12.8886H3.22141C3.27351 12.8814 3.326 12.8738 3.37772 12.8662C3.46891 12.8529 3.55549 12.8407 3.64169 12.8323C4.0298 12.7943 4.38074 12.658 4.73589 12.51L4.74202 12.5073L4.74815 12.5043C4.96385 12.4008 5.17955 12.2934 5.38797 12.1892C5.6255 12.0708 5.87108 11.9483 6.11705 11.8318L6.12241 11.8291C6.22969 11.7755 6.34501 11.7226 6.45611 11.6716C6.67411 11.5719 6.89939 11.4684 7.09899 11.3432L7.10436 11.3397C7.235 11.2533 7.35032 11.1609 7.46219 11.0714C7.52962 11.0174 7.59935 10.9618 7.67214 10.9078L7.67981 10.9021C7.73689 10.8598 7.80049 10.8161 7.86792 10.77C8.03458 10.6562 8.2066 10.5383 8.35449 10.386C8.6039 10.1394 8.70006 9.82964 8.61807 9.53546C8.5334 9.23139 8.27326 8.9981 7.92117 8.91133C7.7844 8.87442 7.64494 8.86376 7.51047 8.85349C7.41967 8.84664 7.3258 8.83941 7.23347 8.82418C7.14497 8.80934 7.05455 8.7964 6.96758 8.78384C6.83809 8.7652 6.71549 8.74769 6.59404 8.72371C6.35688 8.67538 6.11322 8.61449 5.87798 8.5555C5.70979 8.51326 5.53585 8.46988 5.36383 8.43068C5.18989 8.3911 5.03664 8.3793 4.88837 8.36789C4.83359 8.3637 4.77842 8.35951 4.72057 8.3538C4.61214 8.34315 4.50142 8.3127 4.37346 8.27731L4.33093 8.26551C4.30143 8.25448 4.2727 8.24382 4.24396 8.23316C4.00451 8.14411 3.77847 8.05963 3.51411 8.05963C3.3555 8.05963 3.1988 8.09007 3.03521 8.15248C2.27969 8.44172 1.93756 9.21465 1.72417 9.85742C1.56709 10.2677 1.38549 10.8644 1.40464 11.3892Z" fill="currentColor"/>
<path d="M13.9711 3.53793C13.9305 2.72123 13.9075 2.4202 13.4542 1.70246C13.0899 1.13008 12.6696 0.53754 12.0911 0.193888C11.39 -0.214461 11.2417 0.277612 10.5678 0.263912C10.2935 0.254398 9.87318 -0.00781289 9.59695 0.000179014C9.04487 0.0271993 8.54988 0.451912 8.18514 0.837427C7.80126 1.26404 7.52158 1.77476 7.2894 2.30908C7.19669 2.53171 7.1396 2.72961 7.11164 2.94691C7.07332 3.19732 7.03386 3.40207 7.02428 3.64183V3.64829C6.99057 4.18413 7.19056 4.55366 7.51315 4.97038C7.87558 5.48491 8.34414 5.72162 8.94296 5.84911C9.98735 6.15166 11.1574 6.20114 12.2129 5.86243C12.5926 5.75283 12.937 5.59604 13.219 5.31137C13.5611 4.96772 13.9017 4.55214 13.9665 4.06502C13.9856 3.89186 13.9776 3.70804 13.9711 3.53793Z" fill="currentColor"/>
</svg>