<svg xmlns="http://www.w3.org/2000/svg" width="100%" height="100%" viewBox="0 0 16 14" fill="currentColor">
  <path d="M8 0C14.8571 0 15.9543 1 16 7C15.9543 13 14.8571 14 8 14C1.14286 14 0.0457143 13 0 7C0.0457143 1 1.14286 3.47695e-08 8 0ZM4.7998 8C4.42281 8 4.23432 8.00005 4.11719 8.11719C4.00005 8.23432 4 8.42281 4 8.7998V9.2002C4 9.57719 4.00005 9.76568 4.11719 9.88281C4.23432 9.99995 4.42281 10 4.7998 10H7.2002C7.57719 10 7.76568 9.99995 7.88281 9.88281C7.99995 9.76568 8 9.57719 8 9.2002V8.7998C8 8.42281 7.99995 8.23432 7.88281 8.11719C7.76568 8.00005 7.57719 8 7.2002 8H4.7998ZM4.7998 4C4.42281 4 4.23432 4.00005 4.11719 4.11719C4.00005 4.23432 4 4.42281 4 4.7998V5.2002C4 5.57719 4.00005 5.76568 4.11719 5.88281C4.23432 5.99995 4.42281 6 4.7998 6H11.2002C11.5772 6 11.7657 5.99995 11.8828 5.88281C11.9999 5.76568 12 5.57719 12 5.2002V4.7998C12 4.42281 11.9999 4.23432 11.8828 4.11719C11.7657 4.00005 11.5772 4 11.2002 4H4.7998Z" fill="currentColor" />
</svg>