<svg xmlns="http://www.w3.org/2000/svg" width="100%" height="100%" viewBox="0 0 22 20" fill="currentColor">
  <path d="M15.2627 1C18.4751 1 21 3.71729 21 6.9668C21 8.92242 20.2751 10.5081 18.876 12.1729C17.5149 13.7923 15.4474 15.5649 12.6748 17.8984C12.448 18.0893 12.2082 18.2932 11.9844 18.4385C11.7373 18.5989 11.4121 18.7549 11 18.7549C10.5879 18.7549 10.2627 18.5989 10.0156 18.4385C9.79184 18.2932 9.55196 18.0893 9.3252 17.8984C6.55236 15.5646 4.48414 13.7917 3.12305 12.1719C1.7241 10.507 1.00003 8.92108 1 6.9668C1 3.71729 3.52488 1 6.7373 1C8.44235 1.00009 9.95817 1.77777 10.999 2.98633C12.0393 1.77727 13.5552 1.00009 15.2627 1Z" fill="currentColor" stroke="currentColor" stroke-width="2"/>
</svg>