<svg xmlns="http://www.w3.org/2000/svg" width="100%" height="100%" viewBox="0 0 16 17" fill="currentColor">
<path fill-rule="evenodd" clip-rule="evenodd" d="M7.99487 0C11.3085 0.000125948 13.9949 2.68637 13.9949 6C13.9949 7.82451 13.1794 9.4576 11.8942 10.5579C11.7789 10.6565 11.7213 10.7059 11.728 10.7593C11.7347 10.8126 11.8022 10.846 11.9372 10.9129C14.2027 12.034 15.8252 14.0988 15.9824 16.5999C15.9938 16.7825 15.9996 16.8738 15.9403 16.9369C15.8811 17 15.7857 17 15.5949 17H14.3949C14.2107 17 14.1187 17 14.0615 16.9482C14.0043 16.8964 13.9946 16.7977 13.9752 16.6005C13.7334 14.1411 11.2818 12.0001 7.99487 12C4.70786 12 2.25628 14.141 2.0145 16.6005C1.99511 16.7977 1.98541 16.8964 1.92824 16.9482C1.87108 17 1.77901 17 1.59487 17H0.394873C0.204073 17 0.108673 17 0.0494278 16.9369C-0.00981708 16.8738 -0.00408402 16.7825 0.00738211 16.5999C0.164429 14.0989 1.78574 12.0332 4.05078 10.9118C4.18573 10.845 4.2532 10.8116 4.25987 10.7583C4.26654 10.7049 4.20896 10.6556 4.09379 10.5569C2.80936 9.45664 1.99487 7.82392 1.99487 6C1.99487 2.68629 4.68116 0 7.99487 0ZM7.99487 2C5.78573 2 3.99487 3.79086 3.99487 6C3.99487 8.14011 5.67532 9.888 7.78882 9.99512L7.99487 10L8.20093 9.99512C10.3142 9.88777 11.9949 8.13996 11.9949 6C11.9949 3.79094 10.2039 2.00013 7.99487 2Z" fill="currentColor"/>
</svg>