<svg xmlns="http://www.w3.org/2000/svg" width="100%" height="100%" viewBox="0 0 12 12" fill="none">
<path d="M5.99993 -4.98019e-05C6.27996 -4.9275e-05 6.41997 -4.93593e-05 6.53039 0.0457677C6.67715 0.106667 6.79376 0.223295 6.85464 0.370066C6.90045 0.480488 6.90043 0.620501 6.90039 0.900529L6.89995 4.13941C6.89991 4.47549 6.89988 4.64352 6.96527 4.77189C7.02279 4.8848 7.11458 4.9766 7.22749 5.03414C7.35584 5.09954 7.52388 5.09954 7.85995 5.09954H11.0996C11.3796 5.09954 11.5196 5.09954 11.63 5.14535C11.7768 5.20624 11.8934 5.32285 11.9543 5.4696C12.0001 5.58001 12.0001 5.72001 12.0001 6C12.0001 6.27999 12.0001 6.41999 11.9543 6.5304C11.8934 6.67715 11.7768 6.79376 11.63 6.85465C11.5196 6.90046 11.3796 6.90046 11.0996 6.90046L7.85995 6.90046C7.52388 6.90046 7.35584 6.90046 7.22749 6.96586C7.11458 7.0234 7.02279 7.1152 6.96527 7.22811C6.89988 7.35648 6.89991 7.52451 6.89995 7.86059L6.90039 11.0995C6.90043 11.3795 6.90045 11.5195 6.85464 11.6299C6.79376 11.7767 6.67715 11.8933 6.53039 11.9542C6.41997 12 6.27996 12 5.99993 12C5.71997 12 5.57999 12 5.4696 11.9542C5.32285 11.8934 5.20625 11.7768 5.14535 11.63C5.09953 11.5197 5.09951 11.3797 5.09948 11.0997L5.09904 7.86033C5.09899 7.52434 5.09897 7.35634 5.03357 7.22801C4.97604 7.11513 4.88425 7.02336 4.77136 6.96584C4.64302 6.90046 4.47503 6.90046 4.13904 6.90046L0.90046 6.90046C0.620468 6.90046 0.480472 6.90046 0.370064 6.85465C0.223313 6.79376 0.106704 6.67715 0.0458145 6.5304C5.13522e-06 6.41999 5.15103e-06 6.27999 5.15103e-06 6C5.15103e-06 5.72001 5.13522e-06 5.58001 0.0458145 5.4696C0.106704 5.32285 0.223313 5.20624 0.370064 5.14535C0.480472 5.09954 0.620468 5.09954 0.900461 5.09954H4.13904C4.47503 5.09954 4.64302 5.09954 4.77136 5.03416C4.88425 4.97664 4.97604 4.88487 5.03357 4.77199C5.09897 4.64366 5.09899 4.47566 5.09904 4.13967L5.09948 0.900284C5.09951 0.620325 5.09953 0.480346 5.14535 0.369953C5.20625 0.223221 5.32285 0.106631 5.4696 0.0457522C5.57999 -4.95543e-05 5.71997 -4.98651e-05 5.99993 -4.98019e-05Z" fill="currentColor" />
</svg>