<svg xmlns="http://www.w3.org/2000/svg" width="96" height="18" viewBox="0 0 96 18" fill="none">
  <mask id="path-1-outside-1_1030_19" maskUnits="userSpaceOnUse" x="-0.840088" y="-0.839844" width="97" height="18" fill="black">
    <rect fill="white" x="-0.840088" y="-0.839844" width="97" height="18"/>
    <path d="M0.159912 6.92616H7.99691V4.39316H9.11891V6.92616H15.8509V7.86116H0.159912V6.92616ZM2.64191 15.6982C3.25391 15.5508 3.86025 15.3922 4.46091 15.2222C5.07291 15.0522 5.68491 14.8482 6.29691 14.6102C6.92025 14.3835 7.55491 14.1172 8.20091 13.8112C8.84691 13.4938 9.52125 13.1198 10.2239 12.6892C10.3146 12.6438 10.3542 12.5928 10.3429 12.5362C10.3429 12.4682 10.2976 12.4342 10.2069 12.4342H3.71291V11.4992H11.3629C11.5442 11.4992 11.6916 11.5502 11.8049 11.6522C11.9182 11.7428 11.9806 11.8788 11.9919 12.0602C12.0146 12.3095 11.9806 12.5078 11.8899 12.6552C11.8106 12.7912 11.6746 12.9215 11.4819 13.0462C10.8246 13.5108 10.1672 13.9302 9.50991 14.3042C8.86391 14.6668 8.19525 14.9955 7.50391 15.2902C6.81258 15.5848 6.09291 15.8455 5.34491 16.0722C4.59691 16.2988 3.79791 16.4972 2.94791 16.6672L2.64191 15.6982ZM9.91791 15.2732L10.3429 14.3212L14.0999 15.5622L13.7429 16.5312L9.91791 15.2732ZM10.5469 10.7852C10.1502 10.7512 9.74225 10.7058 9.32291 10.6492C8.90358 10.5812 8.48425 10.5018 8.06491 10.4112C7.64558 10.3205 7.23758 10.2185 6.84091 10.1052C6.44425 9.98049 6.07025 9.85016 5.71891 9.71416L6.05891 8.76216C6.78425 9.02282 7.56625 9.24382 8.40491 9.42516C9.24358 9.60649 10.0482 9.73682 10.8189 9.81616L10.5469 10.7852ZM4.97091 5.63416C5.10691 5.31682 5.22591 5.03349 5.32791 4.78416C5.42991 4.52349 5.51491 4.29116 5.58291 4.08716C5.66225 3.88316 5.72458 3.69049 5.76991 3.50916C5.81525 3.32782 5.84925 3.15216 5.87191 2.98216C5.89458 2.78949 5.87758 2.65916 5.82091 2.59116C5.76425 2.51182 5.66791 2.47216 5.53191 2.47216H2.28491V1.50316H5.97391C6.83525 1.50316 7.18091 2.00182 7.01091 2.99916C6.96558 3.24849 6.91458 3.48082 6.85791 3.69616C6.81258 3.90016 6.75025 4.10982 6.67091 4.32516C6.59158 4.54049 6.50091 4.77849 6.39891 5.03916C6.29691 5.28849 6.17225 5.58316 6.02491 5.92316L4.97091 5.63416ZM11.2439 5.63416C11.3799 5.31682 11.4989 5.03349 11.6009 4.78416C11.7029 4.52349 11.7879 4.29116 11.8559 4.08716C11.9239 3.88316 11.9806 3.69049 12.0259 3.50916C12.0712 3.32782 12.1109 3.15216 12.1449 2.98216C12.1676 2.78949 12.1449 2.65916 12.0769 2.59116C12.0202 2.51182 11.9296 2.47216 11.8049 2.47216H7.94591V1.50316H12.2299C13.1026 1.50316 13.4539 2.00182 13.2839 2.99916C13.2386 3.24849 13.1876 3.48082 13.1309 3.69616C13.0856 3.90016 13.0232 4.10982 12.9439 4.32516C12.8646 4.54049 12.7739 4.77849 12.6719 5.03916C12.5699 5.28849 12.4452 5.58316 12.2979 5.92316L11.2439 5.63416Z"/>
    <path d="M27.1769 0.160156H28.2989V7.43616L31.9879 7.13016L32.0729 8.25216L28.2989 8.57516V16.5822H27.1769V0.160156ZM19.5949 11.7032C18.9716 11.6012 18.5522 11.3915 18.3369 11.0742C18.1329 10.7455 18.0309 10.2752 18.0309 9.66316V6.09316H19.2209V9.66316C19.2209 9.95782 19.2662 10.2015 19.3569 10.3942C19.4476 10.5755 19.6232 10.6945 19.8839 10.7512C20.1559 10.7965 20.5016 10.7965 20.9209 10.7512C21.3402 10.6945 21.8162 10.5982 22.3489 10.4622C22.8816 10.3262 23.4596 10.1448 24.0829 9.91816C24.7176 9.69149 25.3806 9.43082 26.0719 9.13616L26.3609 10.0202C24.8876 10.6322 23.5899 11.0968 22.4679 11.4142C21.3572 11.7315 20.3996 11.8278 19.5949 11.7032ZM16.6199 4.12116H24.8479V5.15816H16.6199V4.12116Z"/>
    <path d="M33.0119 2.28516H34.1339L34.2699 4.61416H38.7749V2.16616H39.8969V4.78416C39.8969 5.26016 39.8175 5.72482 39.6589 6.17816C39.5115 6.62016 39.2509 7.08482 38.8769 7.57216C39.1489 7.57216 39.4322 7.56082 39.7269 7.53816C40.0215 7.51549 40.3389 7.48149 40.6789 7.43616L40.7469 8.37116C40.3502 8.42782 39.9762 8.46749 39.6249 8.49016C39.2735 8.50149 38.9505 8.50716 38.6559 8.50716H35.2729V7.57216H37.6189C37.9475 7.17549 38.1912 6.81282 38.3499 6.48416C38.5199 6.14416 38.6332 5.83249 38.6899 5.54916H34.3209L34.5249 8.94916H33.4029L33.0119 2.28516ZM39.3189 16.9052C38.6729 16.8712 38.1912 16.7692 37.8739 16.5992C37.5679 16.4292 37.3865 16.1288 37.3299 15.6982C37.3072 15.5508 37.3185 15.3638 37.3639 15.1372C37.4092 14.9105 37.4999 14.7122 37.6359 14.5422H38.7409C38.6275 14.6895 38.5482 14.8312 38.5029 14.9672C38.4575 15.1145 38.4349 15.2335 38.4349 15.3242C38.4349 15.4942 38.4802 15.6302 38.5709 15.7322C38.6729 15.8342 38.8655 15.9022 39.1489 15.9362C39.5115 15.9815 39.9252 16.0042 40.3899 16.0042C40.8545 16.0042 41.3419 15.9872 41.8519 15.9532C42.3619 15.9305 42.8832 15.8908 43.4159 15.8342C43.9485 15.7888 44.4699 15.7322 44.9799 15.6642L45.0819 16.6162C44.5039 16.6842 43.9315 16.7408 43.3649 16.7862C42.8095 16.8428 42.2769 16.8825 41.7669 16.9052C41.2682 16.9278 40.8092 16.9392 40.3899 16.9392C39.9705 16.9392 39.6135 16.9278 39.3189 16.9052ZM36.1569 12.9272H42.3279C42.4525 12.6892 42.5432 12.4625 42.5999 12.2472C42.6679 12.0205 42.7132 11.8108 42.7359 11.6182C42.7585 11.4368 42.7189 11.3178 42.6169 11.2612C42.5149 11.1932 42.3675 11.1592 42.1749 11.1592H36.6669V10.1902H42.7019C43.1439 10.1902 43.4669 10.2638 43.6709 10.4112C43.8862 10.5585 43.9825 10.8135 43.9599 11.1762C43.9372 11.4708 43.8862 11.7768 43.8069 12.0942C43.7275 12.4115 43.6312 12.6892 43.5179 12.9272H44.7079V13.8622H36.1569V12.9272ZM42.9909 0.160156H44.1129V5.70216L47.8019 5.39616L47.8869 6.51816L44.1129 6.84116V9.01716H42.9909V0.160156Z"/>
    <path d="M61.4102 8.21816L59.4042 8.38816L59.3022 7.36816L61.4102 7.18116V0.891156H62.4982V15.6132H61.4102V8.21816ZM55.6642 12.5022C55.3695 12.5022 55.0805 12.4852 54.7972 12.4512C54.5252 12.4172 54.2702 12.3492 54.0322 12.2472C53.8055 12.1338 53.6015 11.9865 53.4202 11.8052C53.2502 11.6125 53.1199 11.3688 53.0292 11.0742C52.9272 10.7455 52.8932 10.4112 52.9272 10.0712C52.9612 9.71982 53.0462 9.36282 53.1822 9.00016H54.3042C54.1569 9.39682 54.0662 9.73682 54.0322 10.0202C53.9982 10.2922 54.0265 10.5585 54.1172 10.8192C54.2759 11.2725 54.6612 11.5162 55.2732 11.5502C55.8285 11.5728 56.5142 11.4708 57.3302 11.2442C58.1462 11.0175 58.9962 10.7398 59.8802 10.4112L60.2032 11.3122C59.3645 11.6408 58.5485 11.9185 57.7552 12.1452C56.9732 12.3718 56.2762 12.4908 55.6642 12.5022ZM51.6182 7.31716H56.4972C56.6559 6.99982 56.7692 6.68249 56.8372 6.36516C56.9052 6.03649 56.9505 5.70782 56.9732 5.37916C56.9845 5.22049 56.9562 5.11282 56.8882 5.05616C56.8202 4.99949 56.7069 4.97116 56.5482 4.97116H52.2642V4.00216H57.0922C57.4775 4.00216 57.7552 4.07582 57.9252 4.22316C58.0952 4.35916 58.1745 4.59716 58.1632 4.93716C58.1405 5.36782 58.0895 5.78149 58.0102 6.17816C57.9422 6.57482 57.8289 6.95449 57.6702 7.31716H58.8772V8.25216H51.6182V7.31716ZM64.5042 0.160156H65.6262V16.6502H64.5042V0.160156Z"/>
    <path d="M67.5172 10.9722C68.8545 9.83882 70.0275 8.62049 71.0362 7.31716C72.0562 6.00249 72.9005 4.63116 73.5692 3.20316L74.6402 3.69616C73.9489 5.18082 73.0648 6.60882 71.9882 7.98016C70.9115 9.35149 69.6648 10.6378 68.2482 11.8392L67.5172 10.9722ZM72.8722 8.16716L73.5862 7.36816L77.3942 10.8362L76.6292 11.6692L72.8722 8.16716ZM79.5022 0.160156H80.6242V16.5822H79.5022V0.160156Z"/>
    <path d="M83.2755 11.0742C83.7402 11.0628 84.1935 11.0515 84.6355 11.0402C85.0888 11.0175 85.5365 10.9892 85.9785 10.9552L85.4685 5.97416H86.5225L87.0155 10.8702C87.3555 10.8362 87.6842 10.8022 88.0015 10.7682C88.3302 10.7342 88.6532 10.6945 88.9705 10.6492L89.5485 5.90616H90.5855L90.0585 10.4792C90.5798 10.3885 91.0955 10.2922 91.6055 10.1902C92.1155 10.0768 92.6368 9.95216 93.1695 9.81616L93.3395 10.7682C91.7528 11.1648 90.1435 11.4652 88.5115 11.6692C86.8908 11.8732 85.1682 12.0035 83.3435 12.0602L83.2755 11.0742ZM83.8875 4.05316H92.3195V5.03916H83.8875V4.05316ZM94.4275 0.160156H95.5495V16.5992H94.4275V0.160156Z"/>
  </mask>
  <path d="M0.159912 6.92616H7.99691V4.39316H9.11891V6.92616H15.8509V7.86116H0.159912V6.92616ZM2.64191 15.6982C3.25391 15.5508 3.86025 15.3922 4.46091 15.2222C5.07291 15.0522 5.68491 14.8482 6.29691 14.6102C6.92025 14.3835 7.55491 14.1172 8.20091 13.8112C8.84691 13.4938 9.52125 13.1198 10.2239 12.6892C10.3146 12.6438 10.3542 12.5928 10.3429 12.5362C10.3429 12.4682 10.2976 12.4342 10.2069 12.4342H3.71291V11.4992H11.3629C11.5442 11.4992 11.6916 11.5502 11.8049 11.6522C11.9182 11.7428 11.9806 11.8788 11.9919 12.0602C12.0146 12.3095 11.9806 12.5078 11.8899 12.6552C11.8106 12.7912 11.6746 12.9215 11.4819 13.0462C10.8246 13.5108 10.1672 13.9302 9.50991 14.3042C8.86391 14.6668 8.19525 14.9955 7.50391 15.2902C6.81258 15.5848 6.09291 15.8455 5.34491 16.0722C4.59691 16.2988 3.79791 16.4972 2.94791 16.6672L2.64191 15.6982ZM9.91791 15.2732L10.3429 14.3212L14.0999 15.5622L13.7429 16.5312L9.91791 15.2732ZM10.5469 10.7852C10.1502 10.7512 9.74225 10.7058 9.32291 10.6492C8.90358 10.5812 8.48425 10.5018 8.06491 10.4112C7.64558 10.3205 7.23758 10.2185 6.84091 10.1052C6.44425 9.98049 6.07025 9.85016 5.71891 9.71416L6.05891 8.76216C6.78425 9.02282 7.56625 9.24382 8.40491 9.42516C9.24358 9.60649 10.0482 9.73682 10.8189 9.81616L10.5469 10.7852ZM4.97091 5.63416C5.10691 5.31682 5.22591 5.03349 5.32791 4.78416C5.42991 4.52349 5.51491 4.29116 5.58291 4.08716C5.66225 3.88316 5.72458 3.69049 5.76991 3.50916C5.81525 3.32782 5.84925 3.15216 5.87191 2.98216C5.89458 2.78949 5.87758 2.65916 5.82091 2.59116C5.76425 2.51182 5.66791 2.47216 5.53191 2.47216H2.28491V1.50316H5.97391C6.83525 1.50316 7.18091 2.00182 7.01091 2.99916C6.96558 3.24849 6.91458 3.48082 6.85791 3.69616C6.81258 3.90016 6.75025 4.10982 6.67091 4.32516C6.59158 4.54049 6.50091 4.77849 6.39891 5.03916C6.29691 5.28849 6.17225 5.58316 6.02491 5.92316L4.97091 5.63416ZM11.2439 5.63416C11.3799 5.31682 11.4989 5.03349 11.6009 4.78416C11.7029 4.52349 11.7879 4.29116 11.8559 4.08716C11.9239 3.88316 11.9806 3.69049 12.0259 3.50916C12.0712 3.32782 12.1109 3.15216 12.1449 2.98216C12.1676 2.78949 12.1449 2.65916 12.0769 2.59116C12.0202 2.51182 11.9296 2.47216 11.8049 2.47216H7.94591V1.50316H12.2299C13.1026 1.50316 13.4539 2.00182 13.2839 2.99916C13.2386 3.24849 13.1876 3.48082 13.1309 3.69616C13.0856 3.90016 13.0232 4.10982 12.9439 4.32516C12.8646 4.54049 12.7739 4.77849 12.6719 5.03916C12.5699 5.28849 12.4452 5.58316 12.2979 5.92316L11.2439 5.63416Z" fill="#607472" style="fill:#607472;fill:color(display-p3 0.3765 0.4549 0.4471);fill-opacity:1;"/>
  <path d="M27.1769 0.160156H28.2989V7.43616L31.9879 7.13016L32.0729 8.25216L28.2989 8.57516V16.5822H27.1769V0.160156ZM19.5949 11.7032C18.9716 11.6012 18.5522 11.3915 18.3369 11.0742C18.1329 10.7455 18.0309 10.2752 18.0309 9.66316V6.09316H19.2209V9.66316C19.2209 9.95782 19.2662 10.2015 19.3569 10.3942C19.4476 10.5755 19.6232 10.6945 19.8839 10.7512C20.1559 10.7965 20.5016 10.7965 20.9209 10.7512C21.3402 10.6945 21.8162 10.5982 22.3489 10.4622C22.8816 10.3262 23.4596 10.1448 24.0829 9.91816C24.7176 9.69149 25.3806 9.43082 26.0719 9.13616L26.3609 10.0202C24.8876 10.6322 23.5899 11.0968 22.4679 11.4142C21.3572 11.7315 20.3996 11.8278 19.5949 11.7032ZM16.6199 4.12116H24.8479V5.15816H16.6199V4.12116Z" fill="#607472" style="fill:#607472;fill:color(display-p3 0.3765 0.4549 0.4471);fill-opacity:1;"/>
  <path d="M33.0119 2.28516H34.1339L34.2699 4.61416H38.7749V2.16616H39.8969V4.78416C39.8969 5.26016 39.8175 5.72482 39.6589 6.17816C39.5115 6.62016 39.2509 7.08482 38.8769 7.57216C39.1489 7.57216 39.4322 7.56082 39.7269 7.53816C40.0215 7.51549 40.3389 7.48149 40.6789 7.43616L40.7469 8.37116C40.3502 8.42782 39.9762 8.46749 39.6249 8.49016C39.2735 8.50149 38.9505 8.50716 38.6559 8.50716H35.2729V7.57216H37.6189C37.9475 7.17549 38.1912 6.81282 38.3499 6.48416C38.5199 6.14416 38.6332 5.83249 38.6899 5.54916H34.3209L34.5249 8.94916H33.4029L33.0119 2.28516ZM39.3189 16.9052C38.6729 16.8712 38.1912 16.7692 37.8739 16.5992C37.5679 16.4292 37.3865 16.1288 37.3299 15.6982C37.3072 15.5508 37.3185 15.3638 37.3639 15.1372C37.4092 14.9105 37.4999 14.7122 37.6359 14.5422H38.7409C38.6275 14.6895 38.5482 14.8312 38.5029 14.9672C38.4575 15.1145 38.4349 15.2335 38.4349 15.3242C38.4349 15.4942 38.4802 15.6302 38.5709 15.7322C38.6729 15.8342 38.8655 15.9022 39.1489 15.9362C39.5115 15.9815 39.9252 16.0042 40.3899 16.0042C40.8545 16.0042 41.3419 15.9872 41.8519 15.9532C42.3619 15.9305 42.8832 15.8908 43.4159 15.8342C43.9485 15.7888 44.4699 15.7322 44.9799 15.6642L45.0819 16.6162C44.5039 16.6842 43.9315 16.7408 43.3649 16.7862C42.8095 16.8428 42.2769 16.8825 41.7669 16.9052C41.2682 16.9278 40.8092 16.9392 40.3899 16.9392C39.9705 16.9392 39.6135 16.9278 39.3189 16.9052ZM36.1569 12.9272H42.3279C42.4525 12.6892 42.5432 12.4625 42.5999 12.2472C42.6679 12.0205 42.7132 11.8108 42.7359 11.6182C42.7585 11.4368 42.7189 11.3178 42.6169 11.2612C42.5149 11.1932 42.3675 11.1592 42.1749 11.1592H36.6669V10.1902H42.7019C43.1439 10.1902 43.4669 10.2638 43.6709 10.4112C43.8862 10.5585 43.9825 10.8135 43.9599 11.1762C43.9372 11.4708 43.8862 11.7768 43.8069 12.0942C43.7275 12.4115 43.6312 12.6892 43.5179 12.9272H44.7079V13.8622H36.1569V12.9272ZM42.9909 0.160156H44.1129V5.70216L47.8019 5.39616L47.8869 6.51816L44.1129 6.84116V9.01716H42.9909V0.160156Z" fill="#607472" style="fill:#607472;fill:color(display-p3 0.3765 0.4549 0.4471);fill-opacity:1;"/>
  <path d="M61.4102 8.21816L59.4042 8.38816L59.3022 7.36816L61.4102 7.18116V0.891156H62.4982V15.6132H61.4102V8.21816ZM55.6642 12.5022C55.3695 12.5022 55.0805 12.4852 54.7972 12.4512C54.5252 12.4172 54.2702 12.3492 54.0322 12.2472C53.8055 12.1338 53.6015 11.9865 53.4202 11.8052C53.2502 11.6125 53.1199 11.3688 53.0292 11.0742C52.9272 10.7455 52.8932 10.4112 52.9272 10.0712C52.9612 9.71982 53.0462 9.36282 53.1822 9.00016H54.3042C54.1569 9.39682 54.0662 9.73682 54.0322 10.0202C53.9982 10.2922 54.0265 10.5585 54.1172 10.8192C54.2759 11.2725 54.6612 11.5162 55.2732 11.5502C55.8285 11.5728 56.5142 11.4708 57.3302 11.2442C58.1462 11.0175 58.9962 10.7398 59.8802 10.4112L60.2032 11.3122C59.3645 11.6408 58.5485 11.9185 57.7552 12.1452C56.9732 12.3718 56.2762 12.4908 55.6642 12.5022ZM51.6182 7.31716H56.4972C56.6559 6.99982 56.7692 6.68249 56.8372 6.36516C56.9052 6.03649 56.9505 5.70782 56.9732 5.37916C56.9845 5.22049 56.9562 5.11282 56.8882 5.05616C56.8202 4.99949 56.7069 4.97116 56.5482 4.97116H52.2642V4.00216H57.0922C57.4775 4.00216 57.7552 4.07582 57.9252 4.22316C58.0952 4.35916 58.1745 4.59716 58.1632 4.93716C58.1405 5.36782 58.0895 5.78149 58.0102 6.17816C57.9422 6.57482 57.8289 6.95449 57.6702 7.31716H58.8772V8.25216H51.6182V7.31716ZM64.5042 0.160156H65.6262V16.6502H64.5042V0.160156Z" fill="#607472" style="fill:#607472;fill:color(display-p3 0.3765 0.4549 0.4471);fill-opacity:1;"/>
  <path d="M67.5172 10.9722C68.8545 9.83882 70.0275 8.62049 71.0362 7.31716C72.0562 6.00249 72.9005 4.63116 73.5692 3.20316L74.6402 3.69616C73.9489 5.18082 73.0648 6.60882 71.9882 7.98016C70.9115 9.35149 69.6648 10.6378 68.2482 11.8392L67.5172 10.9722ZM72.8722 8.16716L73.5862 7.36816L77.3942 10.8362L76.6292 11.6692L72.8722 8.16716ZM79.5022 0.160156H80.6242V16.5822H79.5022V0.160156Z" fill="#607472" style="fill:#607472;fill:color(display-p3 0.3765 0.4549 0.4471);fill-opacity:1;"/>
  <path d="M83.2755 11.0742C83.7402 11.0628 84.1935 11.0515 84.6355 11.0402C85.0888 11.0175 85.5365 10.9892 85.9785 10.9552L85.4685 5.97416H86.5225L87.0155 10.8702C87.3555 10.8362 87.6842 10.8022 88.0015 10.7682C88.3302 10.7342 88.6532 10.6945 88.9705 10.6492L89.5485 5.90616H90.5855L90.0585 10.4792C90.5798 10.3885 91.0955 10.2922 91.6055 10.1902C92.1155 10.0768 92.6368 9.95216 93.1695 9.81616L93.3395 10.7682C91.7528 11.1648 90.1435 11.4652 88.5115 11.6692C86.8908 11.8732 85.1682 12.0035 83.3435 12.0602L83.2755 11.0742ZM83.8875 4.05316H92.3195V5.03916H83.8875V4.05316ZM94.4275 0.160156H95.5495V16.5992H94.4275V0.160156Z" fill="#607472" style="fill:#607472;fill:color(display-p3 0.3765 0.4549 0.4471);fill-opacity:1;"/>
  <path d="M0.159912 6.92616H7.99691V4.39316H9.11891V6.92616H15.8509V7.86116H0.159912V6.92616ZM2.64191 15.6982C3.25391 15.5508 3.86025 15.3922 4.46091 15.2222C5.07291 15.0522 5.68491 14.8482 6.29691 14.6102C6.92025 14.3835 7.55491 14.1172 8.20091 13.8112C8.84691 13.4938 9.52125 13.1198 10.2239 12.6892C10.3146 12.6438 10.3542 12.5928 10.3429 12.5362C10.3429 12.4682 10.2976 12.4342 10.2069 12.4342H3.71291V11.4992H11.3629C11.5442 11.4992 11.6916 11.5502 11.8049 11.6522C11.9182 11.7428 11.9806 11.8788 11.9919 12.0602C12.0146 12.3095 11.9806 12.5078 11.8899 12.6552C11.8106 12.7912 11.6746 12.9215 11.4819 13.0462C10.8246 13.5108 10.1672 13.9302 9.50991 14.3042C8.86391 14.6668 8.19525 14.9955 7.50391 15.2902C6.81258 15.5848 6.09291 15.8455 5.34491 16.0722C4.59691 16.2988 3.79791 16.4972 2.94791 16.6672L2.64191 15.6982ZM9.91791 15.2732L10.3429 14.3212L14.0999 15.5622L13.7429 16.5312L9.91791 15.2732ZM10.5469 10.7852C10.1502 10.7512 9.74225 10.7058 9.32291 10.6492C8.90358 10.5812 8.48425 10.5018 8.06491 10.4112C7.64558 10.3205 7.23758 10.2185 6.84091 10.1052C6.44425 9.98049 6.07025 9.85016 5.71891 9.71416L6.05891 8.76216C6.78425 9.02282 7.56625 9.24382 8.40491 9.42516C9.24358 9.60649 10.0482 9.73682 10.8189 9.81616L10.5469 10.7852ZM4.97091 5.63416C5.10691 5.31682 5.22591 5.03349 5.32791 4.78416C5.42991 4.52349 5.51491 4.29116 5.58291 4.08716C5.66225 3.88316 5.72458 3.69049 5.76991 3.50916C5.81525 3.32782 5.84925 3.15216 5.87191 2.98216C5.89458 2.78949 5.87758 2.65916 5.82091 2.59116C5.76425 2.51182 5.66791 2.47216 5.53191 2.47216H2.28491V1.50316H5.97391C6.83525 1.50316 7.18091 2.00182 7.01091 2.99916C6.96558 3.24849 6.91458 3.48082 6.85791 3.69616C6.81258 3.90016 6.75025 4.10982 6.67091 4.32516C6.59158 4.54049 6.50091 4.77849 6.39891 5.03916C6.29691 5.28849 6.17225 5.58316 6.02491 5.92316L4.97091 5.63416ZM11.2439 5.63416C11.3799 5.31682 11.4989 5.03349 11.6009 4.78416C11.7029 4.52349 11.7879 4.29116 11.8559 4.08716C11.9239 3.88316 11.9806 3.69049 12.0259 3.50916C12.0712 3.32782 12.1109 3.15216 12.1449 2.98216C12.1676 2.78949 12.1449 2.65916 12.0769 2.59116C12.0202 2.51182 11.9296 2.47216 11.8049 2.47216H7.94591V1.50316H12.2299C13.1026 1.50316 13.4539 2.00182 13.2839 2.99916C13.2386 3.24849 13.1876 3.48082 13.1309 3.69616C13.0856 3.90016 13.0232 4.10982 12.9439 4.32516C12.8646 4.54049 12.7739 4.77849 12.6719 5.03916C12.5699 5.28849 12.4452 5.58316 12.2979 5.92316L11.2439 5.63416Z" stroke="#607472" style="stroke:#607472;stroke:color(display-p3 0.3765 0.4549 0.4471);stroke-opacity:1;" stroke-width="0.32" mask="url(#path-1-outside-1_1030_19)"/>
  <path d="M27.1769 0.160156H28.2989V7.43616L31.9879 7.13016L32.0729 8.25216L28.2989 8.57516V16.5822H27.1769V0.160156ZM19.5949 11.7032C18.9716 11.6012 18.5522 11.3915 18.3369 11.0742C18.1329 10.7455 18.0309 10.2752 18.0309 9.66316V6.09316H19.2209V9.66316C19.2209 9.95782 19.2662 10.2015 19.3569 10.3942C19.4476 10.5755 19.6232 10.6945 19.8839 10.7512C20.1559 10.7965 20.5016 10.7965 20.9209 10.7512C21.3402 10.6945 21.8162 10.5982 22.3489 10.4622C22.8816 10.3262 23.4596 10.1448 24.0829 9.91816C24.7176 9.69149 25.3806 9.43082 26.0719 9.13616L26.3609 10.0202C24.8876 10.6322 23.5899 11.0968 22.4679 11.4142C21.3572 11.7315 20.3996 11.8278 19.5949 11.7032ZM16.6199 4.12116H24.8479V5.15816H16.6199V4.12116Z" stroke="#607472" style="stroke:#607472;stroke:color(display-p3 0.3765 0.4549 0.4471);stroke-opacity:1;" stroke-width="0.32" mask="url(#path-1-outside-1_1030_19)"/>
  <path d="M33.0119 2.28516H34.1339L34.2699 4.61416H38.7749V2.16616H39.8969V4.78416C39.8969 5.26016 39.8175 5.72482 39.6589 6.17816C39.5115 6.62016 39.2509 7.08482 38.8769 7.57216C39.1489 7.57216 39.4322 7.56082 39.7269 7.53816C40.0215 7.51549 40.3389 7.48149 40.6789 7.43616L40.7469 8.37116C40.3502 8.42782 39.9762 8.46749 39.6249 8.49016C39.2735 8.50149 38.9505 8.50716 38.6559 8.50716H35.2729V7.57216H37.6189C37.9475 7.17549 38.1912 6.81282 38.3499 6.48416C38.5199 6.14416 38.6332 5.83249 38.6899 5.54916H34.3209L34.5249 8.94916H33.4029L33.0119 2.28516ZM39.3189 16.9052C38.6729 16.8712 38.1912 16.7692 37.8739 16.5992C37.5679 16.4292 37.3865 16.1288 37.3299 15.6982C37.3072 15.5508 37.3185 15.3638 37.3639 15.1372C37.4092 14.9105 37.4999 14.7122 37.6359 14.5422H38.7409C38.6275 14.6895 38.5482 14.8312 38.5029 14.9672C38.4575 15.1145 38.4349 15.2335 38.4349 15.3242C38.4349 15.4942 38.4802 15.6302 38.5709 15.7322C38.6729 15.8342 38.8655 15.9022 39.1489 15.9362C39.5115 15.9815 39.9252 16.0042 40.3899 16.0042C40.8545 16.0042 41.3419 15.9872 41.8519 15.9532C42.3619 15.9305 42.8832 15.8908 43.4159 15.8342C43.9485 15.7888 44.4699 15.7322 44.9799 15.6642L45.0819 16.6162C44.5039 16.6842 43.9315 16.7408 43.3649 16.7862C42.8095 16.8428 42.2769 16.8825 41.7669 16.9052C41.2682 16.9278 40.8092 16.9392 40.3899 16.9392C39.9705 16.9392 39.6135 16.9278 39.3189 16.9052ZM36.1569 12.9272H42.3279C42.4525 12.6892 42.5432 12.4625 42.5999 12.2472C42.6679 12.0205 42.7132 11.8108 42.7359 11.6182C42.7585 11.4368 42.7189 11.3178 42.6169 11.2612C42.5149 11.1932 42.3675 11.1592 42.1749 11.1592H36.6669V10.1902H42.7019C43.1439 10.1902 43.4669 10.2638 43.6709 10.4112C43.8862 10.5585 43.9825 10.8135 43.9599 11.1762C43.9372 11.4708 43.8862 11.7768 43.8069 12.0942C43.7275 12.4115 43.6312 12.6892 43.5179 12.9272H44.7079V13.8622H36.1569V12.9272ZM42.9909 0.160156H44.1129V5.70216L47.8019 5.39616L47.8869 6.51816L44.1129 6.84116V9.01716H42.9909V0.160156Z" stroke="#607472" style="stroke:#607472;stroke:color(display-p3 0.3765 0.4549 0.4471);stroke-opacity:1;" stroke-width="0.32" mask="url(#path-1-outside-1_1030_19)"/>
  <path d="M61.4102 8.21816L59.4042 8.38816L59.3022 7.36816L61.4102 7.18116V0.891156H62.4982V15.6132H61.4102V8.21816ZM55.6642 12.5022C55.3695 12.5022 55.0805 12.4852 54.7972 12.4512C54.5252 12.4172 54.2702 12.3492 54.0322 12.2472C53.8055 12.1338 53.6015 11.9865 53.4202 11.8052C53.2502 11.6125 53.1199 11.3688 53.0292 11.0742C52.9272 10.7455 52.8932 10.4112 52.9272 10.0712C52.9612 9.71982 53.0462 9.36282 53.1822 9.00016H54.3042C54.1569 9.39682 54.0662 9.73682 54.0322 10.0202C53.9982 10.2922 54.0265 10.5585 54.1172 10.8192C54.2759 11.2725 54.6612 11.5162 55.2732 11.5502C55.8285 11.5728 56.5142 11.4708 57.3302 11.2442C58.1462 11.0175 58.9962 10.7398 59.8802 10.4112L60.2032 11.3122C59.3645 11.6408 58.5485 11.9185 57.7552 12.1452C56.9732 12.3718 56.2762 12.4908 55.6642 12.5022ZM51.6182 7.31716H56.4972C56.6559 6.99982 56.7692 6.68249 56.8372 6.36516C56.9052 6.03649 56.9505 5.70782 56.9732 5.37916C56.9845 5.22049 56.9562 5.11282 56.8882 5.05616C56.8202 4.99949 56.7069 4.97116 56.5482 4.97116H52.2642V4.00216H57.0922C57.4775 4.00216 57.7552 4.07582 57.9252 4.22316C58.0952 4.35916 58.1745 4.59716 58.1632 4.93716C58.1405 5.36782 58.0895 5.78149 58.0102 6.17816C57.9422 6.57482 57.8289 6.95449 57.6702 7.31716H58.8772V8.25216H51.6182V7.31716ZM64.5042 0.160156H65.6262V16.6502H64.5042V0.160156Z" stroke="#607472" style="stroke:#607472;stroke:color(display-p3 0.3765 0.4549 0.4471);stroke-opacity:1;" stroke-width="0.32" mask="url(#path-1-outside-1_1030_19)"/>
  <path d="M67.5172 10.9722C68.8545 9.83882 70.0275 8.62049 71.0362 7.31716C72.0562 6.00249 72.9005 4.63116 73.5692 3.20316L74.6402 3.69616C73.9489 5.18082 73.0648 6.60882 71.9882 7.98016C70.9115 9.35149 69.6648 10.6378 68.2482 11.8392L67.5172 10.9722ZM72.8722 8.16716L73.5862 7.36816L77.3942 10.8362L76.6292 11.6692L72.8722 8.16716ZM79.5022 0.160156H80.6242V16.5822H79.5022V0.160156Z" stroke="#607472" style="stroke:#607472;stroke:color(display-p3 0.3765 0.4549 0.4471);stroke-opacity:1;" stroke-width="0.32" mask="url(#path-1-outside-1_1030_19)"/>
  <path d="M83.2755 11.0742C83.7402 11.0628 84.1935 11.0515 84.6355 11.0402C85.0888 11.0175 85.5365 10.9892 85.9785 10.9552L85.4685 5.97416H86.5225L87.0155 10.8702C87.3555 10.8362 87.6842 10.8022 88.0015 10.7682C88.3302 10.7342 88.6532 10.6945 88.9705 10.6492L89.5485 5.90616H90.5855L90.0585 10.4792C90.5798 10.3885 91.0955 10.2922 91.6055 10.1902C92.1155 10.0768 92.6368 9.95216 93.1695 9.81616L93.3395 10.7682C91.7528 11.1648 90.1435 11.4652 88.5115 11.6692C86.8908 11.8732 85.1682 12.0035 83.3435 12.0602L83.2755 11.0742ZM83.8875 4.05316H92.3195V5.03916H83.8875V4.05316ZM94.4275 0.160156H95.5495V16.5992H94.4275V0.160156Z" stroke="#607472" style="stroke:#607472;stroke:color(display-p3 0.3765 0.4549 0.4471);stroke-opacity:1;" stroke-width="0.32" mask="url(#path-1-outside-1_1030_19)"/>
</svg>