<svg xmlns="http://www.w3.org/2000/svg" width="19" height="19" viewBox="0 0 19 19" fill="none">
  <path fill-rule="evenodd" clip-rule="evenodd" d="M2.34315 2.34315C5.46734 -0.781049 10.5327 -0.781049 13.6569 2.34315C16.5937 5.27996 16.7674 9.92999 14.1828 13.0725C14.1163 13.1534 14.1202 13.2722 14.1942 13.3462L18.1821 17.3341C18.2602 17.4122 18.2602 17.5388 18.1821 17.6169L17.3338 18.4652C17.2557 18.5433 17.1291 18.5433 17.051 18.4652L13.029 14.4433C12.9577 14.3719 12.8443 14.3653 12.7633 14.4255C9.63121 16.7536 5.18492 16.4986 2.34315 13.6569C-0.781049 10.5327 -0.781049 5.46734 2.34315 2.34315ZM3.47424 3.47424C0.974885 5.9736 0.974885 10.0264 3.47424 12.5258C5.9736 15.0251 10.0264 15.0251 12.5258 12.5258C15.0251 10.0264 15.0251 5.9736 12.5258 3.47424C10.0264 0.974885 5.9736 0.974885 3.47424 3.47424Z" fill="#808789" style="fill:#808789;fill:color(display-p3 0.5020 0.5294 0.5373);fill-opacity:1;"/>
</svg>