<svg xmlns="http://www.w3.org/2000/svg" width="13" height="15" viewBox="0 0 13 15" fill="none">
  <path d="M6.04233 0C6.22955 0.000125915 6.37194 0.171124 6.65659 0.512695L10.3851 4.98633C10.858 5.55387 11.0944 5.83805 10.9867 6.06836C10.8788 6.2987 10.5088 6.29883 9.76987 6.29883H8.77627C8.40094 6.29883 8.21328 6.29883 8.15973 6.41526C8.10618 6.53169 8.22831 6.67417 8.47257 6.95914L11.4339 10.4141C11.9224 10.984 12.166 11.2691 12.0589 11.502C11.9518 11.7348 11.577 11.7354 10.8265 11.7354H8.41547C8.21208 11.7354 8.11039 11.7354 8.05097 11.7999C7.99155 11.8645 7.99998 11.9658 8.01685 12.1685L8.14389 13.6953C8.17768 14.1005 8.19514 14.3034 8.07651 14.4326C7.95767 14.5618 7.75385 14.5615 7.34702 14.5615H4.73666C4.33011 14.5615 4.12695 14.5617 4.00815 14.4326C3.88931 14.3035 3.906 14.1007 3.93979 13.6953L4.06683 12.1685C4.0837 11.9658 4.09213 11.8645 4.03271 11.7999C3.97329 11.7354 3.8716 11.7354 3.66821 11.7354H1.25815C0.507485 11.7354 0.131849 11.7348 0.0247498 11.502C-0.0820284 11.2691 0.162395 10.9838 0.650726 10.4141L3.61209 6.95914C3.85635 6.67417 3.97848 6.53169 3.92493 6.41526C3.87138 6.29883 3.68371 6.29883 3.30838 6.29883H2.31381C1.57499 6.29883 1.20589 6.29866 1.09799 6.06836C0.990107 5.83802 1.22651 5.55398 1.69955 4.98633L5.42709 0.512695C5.71191 0.170914 5.85498 0 6.04233 0Z" fill="#78918F" style="fill:#78918F;fill:color(display-p3 0.4706 0.5686 0.5608);fill-opacity:1;"/>
</svg>