<svg xmlns="http://www.w3.org/2000/svg" width="100%" height="100%" viewBox="0 0 12 12" fill="none">
<path d="M4.92411 1.52121C5.23689 0.669931 5.39328 0.244294 5.61192 0.109802C5.84993 -0.0366006 6.15007 -0.0366006 6.38808 0.109802C6.60672 0.244294 6.76311 0.669931 7.07589 1.52121C7.39303 2.38433 7.5516 2.81589 7.7969 3.18278C8.06682 3.5865 8.4135 3.93318 8.81722 4.2031C9.18411 4.4484 9.61567 4.60697 10.4788 4.92411C11.3301 5.23689 11.7557 5.39328 11.8902 5.61192C12.0366 5.84993 12.0366 6.15007 11.8902 6.38808C11.7557 6.60672 11.3301 6.76311 10.4788 7.07589C9.61567 7.39303 9.18411 7.5516 8.81722 7.7969C8.4135 8.06682 8.06682 8.4135 7.7969 8.81722C7.5516 9.18411 7.39303 9.61567 7.07589 10.4788C6.76311 11.3301 6.60672 11.7557 6.38808 11.8902C6.15007 12.0366 5.84993 12.0366 5.61192 11.8902C5.39328 11.7557 5.23689 11.3301 4.92411 10.4788C4.60697 9.61567 4.4484 9.18411 4.2031 8.81722C3.93318 8.4135 3.5865 8.06682 3.18278 7.7969C2.81589 7.5516 2.38433 7.39303 1.52121 7.07589C0.669931 6.76311 0.244294 6.60672 0.109802 6.38808C-0.0366006 6.15007 -0.0366006 5.84993 0.109802 5.61192C0.244294 5.39328 0.669931 5.23689 1.52121 4.92411C2.38433 4.60697 2.81589 4.4484 3.18278 4.2031C3.5865 3.93318 3.93318 3.5865 4.2031 3.18278C4.4484 2.81589 4.60697 2.38433 4.92411 1.52121Z" fill="currentColor"/>
</svg>