<svg xmlns="http://www.w3.org/2000/svg" width="15" height="15" viewBox="0 0 15 15" fill="none">
  <path d="M7.39885 0C7.58741 0 7.68169 0 7.74027 0.0585786C7.79885 0.117157 7.79885 0.211438 7.79885 0.4V2.8C7.79885 2.98856 7.79885 3.08284 7.74027 3.14142C7.68169 3.2 7.58741 3.2 7.39885 3.2H6.79885C6.61029 3.2 6.51601 3.2 6.45743 3.14142C6.39885 3.08284 6.39885 2.98856 6.39885 2.8V0.4C6.39885 0.211438 6.39885 0.117157 6.45743 0.0585786C6.51601 0 6.61029 0 6.79885 0H7.39885Z" fill="#FFC132" style="fill:#FFC132;fill:color(display-p3 1.0000 0.7587 0.1955);fill-opacity:1;"/>
  <path d="M7.39885 11C7.58741 11 7.68169 11 7.74027 11.0586C7.79885 11.1172 7.79885 11.2114 7.79885 11.4V13.8C7.79885 13.9886 7.79885 14.0828 7.74027 14.1414C7.68169 14.2 7.58741 14.2 7.39885 14.2H6.79885C6.61029 14.2 6.51601 14.2 6.45743 14.1414C6.39885 14.0828 6.39885 13.9886 6.39885 13.8V11.4C6.39885 11.2114 6.39885 11.1172 6.45743 11.0586C6.51601 11 6.61029 11 6.79885 11H7.39885Z" fill="#FFC132" style="fill:#FFC132;fill:color(display-p3 1.0000 0.7587 0.1955);fill-opacity:1;"/>
  <path d="M14.2 7.3999C14.2 7.58846 14.2 7.68275 14.1414 7.74132C14.0828 7.7999 13.9886 7.7999 13.8 7.7999L11.4 7.7999C11.2114 7.7999 11.1172 7.7999 11.0586 7.74132C11 7.68274 11 7.58846 11 7.3999L11 6.7999C11 6.61134 11 6.51706 11.0586 6.45848C11.1172 6.3999 11.2114 6.3999 11.4 6.3999L13.8 6.3999C13.9886 6.3999 14.0828 6.3999 14.1414 6.45848C14.2 6.51706 14.2 6.61134 14.2 6.7999L14.2 7.3999Z" fill="#FFC132" style="fill:#FFC132;fill:color(display-p3 1.0000 0.7587 0.1955);fill-opacity:1;"/>
  <path d="M3.2 7.3999C3.2 7.58846 3.2 7.68275 3.14142 7.74132C3.08284 7.7999 2.98856 7.7999 2.8 7.7999L0.399997 7.7999C0.211435 7.7999 0.117154 7.7999 0.0585758 7.74132C-2.9171e-06 7.68274 -2.91298e-06 7.58846 -2.90473e-06 7.3999L-2.87851e-06 6.7999C-2.87027e-06 6.61134 -2.86614e-06 6.51706 0.0585759 6.45848C0.117154 6.3999 0.211435 6.3999 0.399997 6.3999L2.8 6.3999C2.98856 6.3999 3.08284 6.3999 3.14142 6.45848C3.2 6.51706 3.2 6.61134 3.2 6.7999L3.2 7.3999Z" fill="#FFC132" style="fill:#FFC132;fill:color(display-p3 1.0000 0.7587 0.1955);fill-opacity:1;"/>
  <path d="M11.908 12.3326C11.7746 12.4659 11.708 12.5326 11.6251 12.5326C11.5423 12.5326 11.4756 12.4659 11.3423 12.3326L9.64522 10.6355C9.51188 10.5022 9.44522 10.4355 9.44522 10.3527C9.44522 10.2699 9.51188 10.2032 9.64522 10.0699L10.0695 9.64559C10.2028 9.51226 10.2695 9.44559 10.3523 9.44559C10.4352 9.44559 10.5018 9.51226 10.6352 9.64559L12.3322 11.3426C12.4656 11.476 12.5322 11.5426 12.5322 11.6255C12.5322 11.7083 12.4656 11.775 12.3322 11.9083L11.908 12.3326Z" fill="#FFC132" style="fill:#FFC132;fill:color(display-p3 1.0000 0.7587 0.1955);fill-opacity:1;"/>
  <path d="M4.12979 4.55428C3.99646 4.68761 3.92979 4.75427 3.84695 4.75427C3.76411 4.75427 3.69744 4.68761 3.56411 4.55427L1.86705 2.85722C1.73372 2.72389 1.66705 2.65722 1.66705 2.57438C1.66705 2.49153 1.73372 2.42487 1.86705 2.29153L2.29131 1.86727C2.42465 1.73394 2.49131 1.66727 2.57416 1.66727C2.657 1.66727 2.72367 1.73394 2.857 1.86727L4.55406 3.56433C4.68739 3.69766 4.75406 3.76433 4.75406 3.84717C4.75406 3.93001 4.68739 3.99668 4.55406 4.13001L4.12979 4.55428Z" fill="#FFC132" style="fill:#FFC132;fill:color(display-p3 1.0000 0.7587 0.1955);fill-opacity:1;"/>
  <path d="M1.86652 11.9091C1.73318 11.7758 1.66652 11.7091 1.66652 11.6263C1.66652 11.5434 1.73318 11.4768 1.86652 11.3434L3.56357 9.64636C3.69691 9.51303 3.76357 9.44636 3.84642 9.44636C3.92926 9.44636 3.99592 9.51303 4.12926 9.64636L4.55352 10.0706C4.68686 10.204 4.75352 10.2706 4.75352 10.3535C4.75352 10.4363 4.68686 10.503 4.55352 10.6363L2.85647 12.3334C2.72313 12.4667 2.65647 12.5334 2.57362 12.5334C2.49078 12.5334 2.42411 12.4667 2.29078 12.3334L1.86652 11.9091Z" fill="#FFC132" style="fill:#FFC132;fill:color(display-p3 1.0000 0.7587 0.1955);fill-opacity:1;"/>
  <path d="M9.64468 4.13078C9.51135 3.99745 9.44468 3.93078 9.44468 3.84794C9.44468 3.7651 9.51135 3.69843 9.64468 3.5651L11.3417 1.86804C11.4751 1.73471 11.5417 1.66804 11.6246 1.66804C11.7074 1.66804 11.7741 1.73471 11.9074 1.86804L12.3317 2.29231C12.465 2.42564 12.5317 2.49231 12.5317 2.57515C12.5317 2.65799 12.465 2.72466 12.3317 2.85799L10.6346 4.55505C10.5013 4.68838 10.4346 4.75505 10.3518 4.75505C10.2689 4.75505 10.2023 4.68838 10.0689 4.55505L9.64468 4.13078Z" fill="#FFC132" style="fill:#FFC132;fill:color(display-p3 1.0000 0.7587 0.1955);fill-opacity:1;"/>
  <circle cx="7.09767" cy="7.1001" r="3" fill="#FFC132" style="fill:#FFC132;fill:color(display-p3 1.0000 0.7587 0.1955);fill-opacity:1;"/>
</svg>