<svg xmlns="http://www.w3.org/2000/svg" width="81" height="98" viewBox="0 0 81 98" fill="none">
  <path d="M85.0346 45.6302C85.0346 45.6302 43.9607 38.1496 46.5748 98.4951" stroke="url(#paint0_linear_513_5564)" style="" stroke-width="8" stroke-miterlimit="10"/>
  <path d="M16.624 75.4136C16.0678 74.8667 15.1223 74.6072 14.3158 74.4125C-4.94655 69.3698 -4.76116 50.5524 14.8164 45.7414C15.4838 45.556 16.0863 45.3057 16.5313 44.8979C17.1616 44.351 17.4768 43.4611 17.69 42.6361C20.165 32.9585 26.1161 28.129 32.058 28.1569C37.9628 28.1847 43.8583 33.0142 46.3147 42.6361C46.5279 43.4611 46.8338 44.3602 47.4734 44.8979C47.9184 45.3057 48.5302 45.556 49.1883 45.7414C69.6094 50.7656 68.3302 70.3431 48.5487 74.7648C47.2417 75.2004 46.6021 76.3869 46.3147 77.6662C43.8768 87.1768 38.0925 92.0063 32.2619 92.1454C26.2552 92.2844 20.1928 87.4642 17.69 77.6662C17.5046 76.906 17.2543 76.0625 16.7259 75.5249L16.624 75.4229V75.4136Z" fill="#D8D2FC" style="fill:#D8D2FC;fill:color(display-p3 0.8471 0.8235 0.9882);fill-opacity:1;"/>
  <path d="M25.2095 56.212C25.0431 54.6694 24.9598 53.8982 25.366 53.492C25.7722 53.0858 26.5434 53.169 28.086 53.3355C30.8053 53.6289 33.2076 53.6289 35.9269 53.3355C37.4694 53.169 38.2407 53.0858 38.6469 53.492C39.053 53.8982 38.9698 54.6694 38.8033 56.212C38.5099 58.9313 38.5099 61.3336 38.8033 64.0529C38.9698 65.5954 39.053 66.3667 38.6469 66.7728C38.2407 67.179 37.4694 67.0958 35.9269 66.9293C33.2076 66.6359 30.8053 66.6359 28.086 66.9293C26.5434 67.0958 25.7722 67.179 25.366 66.7728C24.9598 66.3667 25.0431 65.5954 25.2095 64.0529C25.503 61.3336 25.503 58.9313 25.2095 56.212Z" fill="#E7F1FF" style="fill:#E7F1FF;fill:color(display-p3 0.9071 0.9442 1.0000);fill-opacity:1;"/>
  <path d="M42.2726 25.9786C42.2726 25.1907 41.7813 24.3564 41.3457 23.6334C31.2881 6.4474 44.7291 -6.7248 61.9707 3.71285C62.5732 4.04656 63.1757 4.29684 63.7875 4.32465C64.6218 4.38954 65.4746 3.9724 66.2069 3.53673C74.8092 -1.55232 82.4288 -0.7644 86.6002 3.4533C90.753 7.64319 91.5038 15.2258 86.4426 23.7817C86.0069 24.514 85.5991 25.3668 85.6547 26.2011C85.6825 26.8036 85.9328 27.4154 86.2665 28.0179C97.1583 46.0104 82.4103 58.9508 65.2892 48.0868C64.0563 47.4657 62.7679 47.855 61.6648 48.5595C53.2201 53.5651 45.7117 52.8884 41.4847 48.8654C37.1372 44.7219 36.2659 37.0188 41.4198 28.3238C41.8184 27.6564 42.2448 26.8778 42.2541 26.1269V25.9786H42.2726Z" fill="#D8D2FC" style="fill:#D8D2FC;fill:color(display-p3 0.8471 0.8235 0.9882);fill-opacity:1;"/>
  <path d="M61.9223 18.4617C62.8942 17.2561 63.3802 16.6533 63.9542 16.6533C64.5282 16.6533 65.0139 17.2558 65.9852 18.4608C67.706 20.5957 69.4078 22.2998 71.5444 24.0222C72.7501 24.9941 73.3529 25.48 73.3529 26.054C73.3529 26.6281 72.7504 27.1137 71.5453 28.085C69.4105 29.8058 67.7063 31.5077 65.984 33.6443C65.0121 34.8499 64.5261 35.4528 63.9521 35.4527C63.3781 35.4527 62.8924 34.8502 61.9211 33.6452C60.2003 31.5104 58.4985 29.8062 56.3619 28.0838C55.1562 27.1119 54.5534 26.626 54.5534 26.052C54.5534 25.478 55.1559 24.9923 56.361 24.021C58.4958 22.3002 60.2 20.5984 61.9223 18.4617Z" fill="#E7F1FF" style="fill:#E7F1FF;fill:color(display-p3 0.9071 0.9442 1.0000);fill-opacity:1;"/>
  <defs>
    <linearGradient id="paint0_linear_513_5564" x1="65.7449" y1="45.335" x2="65.7449" y2="98.4951" gradientUnits="userSpaceOnUse">
      <stop stop-color="#87C89E" style="stop-color:#87C89E;stop-color:color(display-p3 0.5279 0.7830 0.6212);stop-opacity:1;"/>
      <stop offset="1" stop-color="#80B694" style="stop-color:#80B694;stop-color:color(display-p3 0.5037 0.7143 0.5807);stop-opacity:1;"/>
    </linearGradient>
  </defs>
</svg>