<svg xmlns="http://www.w3.org/2000/svg" width="96" height="17" viewBox="0 0 96 17" fill="none" stroke-width="inherit">
  <mask id="path-1-outside-1_957_5809" maskUnits="userSpaceOnUse" x="-0.899902" y="-0.899902" width="97" height="18" fill="black">
    <rect fill="white" x="-0.899902" y="-0.899902" width="97" height="18"/>
    <path d="M0.100098 6.8661H7.9371V4.3331H9.0591V6.8661H15.7911V7.8011H0.100098V6.8661ZM2.5821 15.6381C3.1941 15.4908 3.80043 15.3321 4.4011 15.1621C5.0131 14.9921 5.6251 14.7881 6.2371 14.5501C6.86043 14.3234 7.4951 14.0571 8.1411 13.7511C8.7871 13.4338 9.46143 13.0598 10.1641 12.6291C10.2548 12.5838 10.2944 12.5328 10.2831 12.4761C10.2831 12.4081 10.2378 12.3741 10.1471 12.3741H3.6531V11.4391H11.3031C11.4844 11.4391 11.6318 11.4901 11.7451 11.5921C11.8584 11.6828 11.9208 11.8188 11.9321 12.0001C11.9548 12.2494 11.9208 12.4478 11.8301 12.5951C11.7508 12.7311 11.6148 12.8614 11.4221 12.9861C10.7648 13.4508 10.1074 13.8701 9.4501 14.2441C8.8041 14.6068 8.13543 14.9354 7.4441 15.2301C6.75276 15.5248 6.0331 15.7854 5.2851 16.0121C4.5371 16.2388 3.7381 16.4371 2.8881 16.6071L2.5821 15.6381ZM9.8581 15.2131L10.2831 14.2611L14.0401 15.5021L13.6831 16.4711L9.8581 15.2131ZM10.4871 10.7251C10.0904 10.6911 9.68243 10.6458 9.2631 10.5891C8.84376 10.5211 8.42443 10.4418 8.0051 10.3511C7.58576 10.2604 7.17776 10.1584 6.7811 10.0451C6.38443 9.92043 6.01043 9.7901 5.6591 9.6541L5.9991 8.7021C6.72443 8.96276 7.50643 9.18376 8.3451 9.3651C9.18377 9.54643 9.98843 9.67676 10.7591 9.7561L10.4871 10.7251ZM4.9111 5.5741C5.0471 5.25676 5.1661 4.97343 5.2681 4.7241C5.3701 4.46343 5.4551 4.2311 5.5231 4.0271C5.60243 3.8231 5.66476 3.63043 5.7101 3.4491C5.75543 3.26776 5.78943 3.0921 5.8121 2.9221C5.83476 2.72943 5.81776 2.5991 5.7611 2.5311C5.70443 2.45176 5.6081 2.4121 5.4721 2.4121H2.2251V1.4431H5.9141C6.77543 1.4431 7.1211 1.94176 6.9511 2.9391C6.90577 3.18843 6.85476 3.42076 6.7981 3.6361C6.75276 3.8401 6.69043 4.04976 6.6111 4.2651C6.53176 4.48043 6.4411 4.71843 6.3391 4.9791C6.2371 5.22843 6.11243 5.5231 5.9651 5.8631L4.9111 5.5741ZM11.1841 5.5741C11.3201 5.25676 11.4391 4.97343 11.5411 4.7241C11.6431 4.46343 11.7281 4.2311 11.7961 4.0271C11.8641 3.8231 11.9208 3.63043 11.9661 3.4491C12.0114 3.26776 12.0511 3.0921 12.0851 2.9221C12.1078 2.72943 12.0851 2.5991 12.0171 2.5311C11.9604 2.45176 11.8698 2.4121 11.7451 2.4121H7.8861V1.4431H12.1701C13.0428 1.4431 13.3941 1.94176 13.2241 2.9391C13.1788 3.18843 13.1278 3.42076 13.0711 3.6361C13.0258 3.8401 12.9634 4.04976 12.8841 4.2651C12.8048 4.48043 12.7141 4.71843 12.6121 4.9791C12.5101 5.22843 12.3854 5.5231 12.2381 5.8631L11.1841 5.5741Z"/>
    <path d="M27.1171 0.100098H28.2391V7.3761L31.9281 7.0701L32.0131 8.1921L28.2391 8.5151V16.5221H27.1171V0.100098ZM19.5351 11.6431C18.9117 11.5411 18.4924 11.3314 18.2771 11.0141C18.0731 10.6854 17.9711 10.2151 17.9711 9.6031V6.0331H19.1611V9.6031C19.1611 9.89777 19.2064 10.1414 19.2971 10.3341C19.3877 10.5154 19.5634 10.6344 19.8241 10.6911C20.0961 10.7364 20.4417 10.7364 20.8611 10.6911C21.2804 10.6344 21.7564 10.5381 22.2891 10.4021C22.8217 10.2661 23.3997 10.0848 24.0231 9.8581C24.6577 9.63143 25.3207 9.37076 26.0121 9.0761L26.3011 9.9601C24.8277 10.5721 23.5301 11.0368 22.4081 11.3541C21.2974 11.6714 20.3397 11.7678 19.5351 11.6431ZM16.5601 4.0611H24.7881V5.0981H16.5601V4.0611Z"/>
    <path d="M32.9521 2.2251H34.0741L34.2101 4.5541H38.7151V2.1061H39.8371V4.7241C39.8371 5.2001 39.7577 5.66476 39.5991 6.1181C39.4517 6.5601 39.1911 7.02476 38.8171 7.5121C39.0891 7.5121 39.3724 7.50076 39.6671 7.4781C39.9617 7.45543 40.2791 7.42143 40.6191 7.3761L40.6871 8.3111C40.2904 8.36777 39.9164 8.40743 39.5651 8.4301C39.2137 8.44143 38.8907 8.4471 38.5961 8.4471H35.2131V7.5121H37.5591C37.8877 7.11543 38.1314 6.75276 38.2901 6.4241C38.4601 6.0841 38.5734 5.77243 38.6301 5.4891H34.2611L34.4651 8.8891H33.3431L32.9521 2.2251ZM39.2591 16.8451C38.6131 16.8111 38.1314 16.7091 37.8141 16.5391C37.5081 16.3691 37.3267 16.0688 37.2701 15.6381C37.2474 15.4908 37.2587 15.3038 37.3041 15.0771C37.3494 14.8504 37.4401 14.6521 37.5761 14.4821H38.6811C38.5677 14.6294 38.4884 14.7711 38.4431 14.9071C38.3977 15.0544 38.3751 15.1734 38.3751 15.2641C38.3751 15.4341 38.4204 15.5701 38.5111 15.6721C38.6131 15.7741 38.8057 15.8421 39.0891 15.8761C39.4517 15.9214 39.8654 15.9441 40.3301 15.9441C40.7947 15.9441 41.2821 15.9271 41.7921 15.8931C42.3021 15.8704 42.8234 15.8308 43.3561 15.7741C43.8887 15.7288 44.4101 15.6721 44.9201 15.6041L45.0221 16.5561C44.4441 16.6241 43.8717 16.6808 43.3051 16.7261C42.7497 16.7828 42.2171 16.8224 41.7071 16.8451C41.2084 16.8678 40.7494 16.8791 40.3301 16.8791C39.9107 16.8791 39.5537 16.8678 39.2591 16.8451ZM36.0971 12.8671H42.2681C42.3927 12.6291 42.4834 12.4024 42.5401 12.1871C42.6081 11.9604 42.6534 11.7508 42.6761 11.5581C42.6987 11.3768 42.6591 11.2578 42.5571 11.2011C42.4551 11.1331 42.3077 11.0991 42.1151 11.0991H36.6071V10.1301H42.6421C43.0841 10.1301 43.4071 10.2038 43.6111 10.3511C43.8264 10.4984 43.9227 10.7534 43.9001 11.1161C43.8774 11.4108 43.8264 11.7168 43.7471 12.0341C43.6677 12.3514 43.5714 12.6291 43.4581 12.8671H44.6481V13.8021H36.0971V12.8671ZM42.9311 0.100098H44.0531V5.6421L47.7421 5.3361L47.8271 6.4581L44.0531 6.7811V8.9571H42.9311V0.100098Z"/>
    <path d="M61.3504 8.1581L59.3444 8.3281L59.2424 7.3081L61.3504 7.1211V0.831097H62.4384V15.5531H61.3504V8.1581ZM55.6044 12.4421C55.3097 12.4421 55.0207 12.4251 54.7374 12.3911C54.4654 12.3571 54.2104 12.2891 53.9724 12.1871C53.7457 12.0738 53.5417 11.9264 53.3604 11.7451C53.1904 11.5524 53.06 11.3088 52.9694 11.0141C52.8674 10.6854 52.8334 10.3511 52.8674 10.0111C52.9014 9.65976 52.9864 9.30276 53.1224 8.9401H54.2444C54.097 9.33677 54.0064 9.67676 53.9724 9.9601C53.9384 10.2321 53.9667 10.4984 54.0574 10.7591C54.216 11.2124 54.6014 11.4561 55.2134 11.4901C55.7687 11.5128 56.4544 11.4108 57.2704 11.1841C58.0864 10.9574 58.9364 10.6798 59.8204 10.3511L60.1434 11.2521C59.3047 11.5808 58.4887 11.8584 57.6954 12.0851C56.9134 12.3118 56.2164 12.4308 55.6044 12.4421ZM51.5584 7.2571H56.4374C56.596 6.93976 56.7094 6.62243 56.7774 6.3051C56.8454 5.97643 56.8907 5.64777 56.9134 5.3191C56.9247 5.16043 56.8964 5.05276 56.8284 4.9961C56.7604 4.93943 56.647 4.9111 56.4884 4.9111H52.2044V3.9421H57.0324C57.4177 3.9421 57.6954 4.01576 57.8654 4.1631C58.0354 4.2991 58.1147 4.5371 58.1034 4.8771C58.0807 5.30776 58.0297 5.72143 57.9504 6.1181C57.8824 6.51476 57.769 6.89443 57.6104 7.2571H58.8174V8.1921H51.5584V7.2571ZM64.4444 0.100098H65.5664V16.5901H64.4444V0.100098Z"/>
    <path d="M67.4574 10.9121C68.7947 9.77876 69.9677 8.56043 70.9764 7.2571C71.9964 5.94243 72.8407 4.5711 73.5094 3.1431L74.5804 3.6361C73.889 5.12076 73.005 6.54877 71.9284 7.9201C70.8517 9.29143 69.605 10.5778 68.1884 11.7791L67.4574 10.9121ZM72.8124 8.1071L73.5264 7.3081L77.3344 10.7761L76.5694 11.6091L72.8124 8.1071ZM79.4424 0.100098H80.5644V16.5221H79.4424V0.100098Z"/>
    <path d="M83.2157 11.0141C83.6804 11.0028 84.1337 10.9914 84.5757 10.9801C85.029 10.9574 85.4767 10.9291 85.9187 10.8951L85.4087 5.9141H86.4627L86.9557 10.8101C87.2957 10.7761 87.6244 10.7421 87.9417 10.7081C88.2704 10.6741 88.5934 10.6344 88.9107 10.5891L89.4887 5.8461H90.5257L89.9987 10.4191C90.52 10.3284 91.0357 10.2321 91.5457 10.1301C92.0557 10.0168 92.577 9.8921 93.1097 9.7561L93.2797 10.7081C91.693 11.1048 90.0837 11.4051 88.4517 11.6091C86.831 11.8131 85.1084 11.9434 83.2837 12.0001L83.2157 11.0141ZM83.8277 3.9931H92.2597V4.9791H83.8277V3.9931ZM94.3677 0.100098H95.4897V16.5391H94.3677V0.100098Z"/>
  </mask>
  <path d="M0.100098 6.8661H7.9371V4.3331H9.0591V6.8661H15.7911V7.8011H0.100098V6.8661ZM2.5821 15.6381C3.1941 15.4908 3.80043 15.3321 4.4011 15.1621C5.0131 14.9921 5.6251 14.7881 6.2371 14.5501C6.86043 14.3234 7.4951 14.0571 8.1411 13.7511C8.7871 13.4338 9.46143 13.0598 10.1641 12.6291C10.2548 12.5838 10.2944 12.5328 10.2831 12.4761C10.2831 12.4081 10.2378 12.3741 10.1471 12.3741H3.6531V11.4391H11.3031C11.4844 11.4391 11.6318 11.4901 11.7451 11.5921C11.8584 11.6828 11.9208 11.8188 11.9321 12.0001C11.9548 12.2494 11.9208 12.4478 11.8301 12.5951C11.7508 12.7311 11.6148 12.8614 11.4221 12.9861C10.7648 13.4508 10.1074 13.8701 9.4501 14.2441C8.8041 14.6068 8.13543 14.9354 7.4441 15.2301C6.75276 15.5248 6.0331 15.7854 5.2851 16.0121C4.5371 16.2388 3.7381 16.4371 2.8881 16.6071L2.5821 15.6381ZM9.8581 15.2131L10.2831 14.2611L14.0401 15.5021L13.6831 16.4711L9.8581 15.2131ZM10.4871 10.7251C10.0904 10.6911 9.68243 10.6458 9.2631 10.5891C8.84376 10.5211 8.42443 10.4418 8.0051 10.3511C7.58576 10.2604 7.17776 10.1584 6.7811 10.0451C6.38443 9.92043 6.01043 9.7901 5.6591 9.6541L5.9991 8.7021C6.72443 8.96276 7.50643 9.18376 8.3451 9.3651C9.18377 9.54643 9.98843 9.67676 10.7591 9.7561L10.4871 10.7251ZM4.9111 5.5741C5.0471 5.25676 5.1661 4.97343 5.2681 4.7241C5.3701 4.46343 5.4551 4.2311 5.5231 4.0271C5.60243 3.8231 5.66476 3.63043 5.7101 3.4491C5.75543 3.26776 5.78943 3.0921 5.8121 2.9221C5.83476 2.72943 5.81776 2.5991 5.7611 2.5311C5.70443 2.45176 5.6081 2.4121 5.4721 2.4121H2.2251V1.4431H5.9141C6.77543 1.4431 7.1211 1.94176 6.9511 2.9391C6.90577 3.18843 6.85476 3.42076 6.7981 3.6361C6.75276 3.8401 6.69043 4.04976 6.6111 4.2651C6.53176 4.48043 6.4411 4.71843 6.3391 4.9791C6.2371 5.22843 6.11243 5.5231 5.9651 5.8631L4.9111 5.5741ZM11.1841 5.5741C11.3201 5.25676 11.4391 4.97343 11.5411 4.7241C11.6431 4.46343 11.7281 4.2311 11.7961 4.0271C11.8641 3.8231 11.9208 3.63043 11.9661 3.4491C12.0114 3.26776 12.0511 3.0921 12.0851 2.9221C12.1078 2.72943 12.0851 2.5991 12.0171 2.5311C11.9604 2.45176 11.8698 2.4121 11.7451 2.4121H7.8861V1.4431H12.1701C13.0428 1.4431 13.3941 1.94176 13.2241 2.9391C13.1788 3.18843 13.1278 3.42076 13.0711 3.6361C13.0258 3.8401 12.9634 4.04976 12.8841 4.2651C12.8048 4.48043 12.7141 4.71843 12.6121 4.9791C12.5101 5.22843 12.3854 5.5231 12.2381 5.8631L11.1841 5.5741Z" fill="white" style="fill:white;fill-opacity:1;"/>
  <path d="M27.1171 0.100098H28.2391V7.3761L31.9281 7.0701L32.0131 8.1921L28.2391 8.5151V16.5221H27.1171V0.100098ZM19.5351 11.6431C18.9117 11.5411 18.4924 11.3314 18.2771 11.0141C18.0731 10.6854 17.9711 10.2151 17.9711 9.6031V6.0331H19.1611V9.6031C19.1611 9.89777 19.2064 10.1414 19.2971 10.3341C19.3877 10.5154 19.5634 10.6344 19.8241 10.6911C20.0961 10.7364 20.4417 10.7364 20.8611 10.6911C21.2804 10.6344 21.7564 10.5381 22.2891 10.4021C22.8217 10.2661 23.3997 10.0848 24.0231 9.8581C24.6577 9.63143 25.3207 9.37076 26.0121 9.0761L26.3011 9.9601C24.8277 10.5721 23.5301 11.0368 22.4081 11.3541C21.2974 11.6714 20.3397 11.7678 19.5351 11.6431ZM16.5601 4.0611H24.7881V5.0981H16.5601V4.0611Z" fill="white" style="fill:white;fill-opacity:1;"/>
  <path d="M32.9521 2.2251H34.0741L34.2101 4.5541H38.7151V2.1061H39.8371V4.7241C39.8371 5.2001 39.7577 5.66476 39.5991 6.1181C39.4517 6.5601 39.1911 7.02476 38.8171 7.5121C39.0891 7.5121 39.3724 7.50076 39.6671 7.4781C39.9617 7.45543 40.2791 7.42143 40.6191 7.3761L40.6871 8.3111C40.2904 8.36777 39.9164 8.40743 39.5651 8.4301C39.2137 8.44143 38.8907 8.4471 38.5961 8.4471H35.2131V7.5121H37.5591C37.8877 7.11543 38.1314 6.75276 38.2901 6.4241C38.4601 6.0841 38.5734 5.77243 38.6301 5.4891H34.2611L34.4651 8.8891H33.3431L32.9521 2.2251ZM39.2591 16.8451C38.6131 16.8111 38.1314 16.7091 37.8141 16.5391C37.5081 16.3691 37.3267 16.0688 37.2701 15.6381C37.2474 15.4908 37.2587 15.3038 37.3041 15.0771C37.3494 14.8504 37.4401 14.6521 37.5761 14.4821H38.6811C38.5677 14.6294 38.4884 14.7711 38.4431 14.9071C38.3977 15.0544 38.3751 15.1734 38.3751 15.2641C38.3751 15.4341 38.4204 15.5701 38.5111 15.6721C38.6131 15.7741 38.8057 15.8421 39.0891 15.8761C39.4517 15.9214 39.8654 15.9441 40.3301 15.9441C40.7947 15.9441 41.2821 15.9271 41.7921 15.8931C42.3021 15.8704 42.8234 15.8308 43.3561 15.7741C43.8887 15.7288 44.4101 15.6721 44.9201 15.6041L45.0221 16.5561C44.4441 16.6241 43.8717 16.6808 43.3051 16.7261C42.7497 16.7828 42.2171 16.8224 41.7071 16.8451C41.2084 16.8678 40.7494 16.8791 40.3301 16.8791C39.9107 16.8791 39.5537 16.8678 39.2591 16.8451ZM36.0971 12.8671H42.2681C42.3927 12.6291 42.4834 12.4024 42.5401 12.1871C42.6081 11.9604 42.6534 11.7508 42.6761 11.5581C42.6987 11.3768 42.6591 11.2578 42.5571 11.2011C42.4551 11.1331 42.3077 11.0991 42.1151 11.0991H36.6071V10.1301H42.6421C43.0841 10.1301 43.4071 10.2038 43.6111 10.3511C43.8264 10.4984 43.9227 10.7534 43.9001 11.1161C43.8774 11.4108 43.8264 11.7168 43.7471 12.0341C43.6677 12.3514 43.5714 12.6291 43.4581 12.8671H44.6481V13.8021H36.0971V12.8671ZM42.9311 0.100098H44.0531V5.6421L47.7421 5.3361L47.8271 6.4581L44.0531 6.7811V8.9571H42.9311V0.100098Z" fill="white" style="fill:white;fill-opacity:1;"/>
  <path d="M61.3504 8.1581L59.3444 8.3281L59.2424 7.3081L61.3504 7.1211V0.831097H62.4384V15.5531H61.3504V8.1581ZM55.6044 12.4421C55.3097 12.4421 55.0207 12.4251 54.7374 12.3911C54.4654 12.3571 54.2104 12.2891 53.9724 12.1871C53.7457 12.0738 53.5417 11.9264 53.3604 11.7451C53.1904 11.5524 53.06 11.3088 52.9694 11.0141C52.8674 10.6854 52.8334 10.3511 52.8674 10.0111C52.9014 9.65976 52.9864 9.30276 53.1224 8.9401H54.2444C54.097 9.33677 54.0064 9.67676 53.9724 9.9601C53.9384 10.2321 53.9667 10.4984 54.0574 10.7591C54.216 11.2124 54.6014 11.4561 55.2134 11.4901C55.7687 11.5128 56.4544 11.4108 57.2704 11.1841C58.0864 10.9574 58.9364 10.6798 59.8204 10.3511L60.1434 11.2521C59.3047 11.5808 58.4887 11.8584 57.6954 12.0851C56.9134 12.3118 56.2164 12.4308 55.6044 12.4421ZM51.5584 7.2571H56.4374C56.596 6.93976 56.7094 6.62243 56.7774 6.3051C56.8454 5.97643 56.8907 5.64777 56.9134 5.3191C56.9247 5.16043 56.8964 5.05276 56.8284 4.9961C56.7604 4.93943 56.647 4.9111 56.4884 4.9111H52.2044V3.9421H57.0324C57.4177 3.9421 57.6954 4.01576 57.8654 4.1631C58.0354 4.2991 58.1147 4.5371 58.1034 4.8771C58.0807 5.30776 58.0297 5.72143 57.9504 6.1181C57.8824 6.51476 57.769 6.89443 57.6104 7.2571H58.8174V8.1921H51.5584V7.2571ZM64.4444 0.100098H65.5664V16.5901H64.4444V0.100098Z" fill="white" style="fill:white;fill-opacity:1;"/>
  <path d="M67.4574 10.9121C68.7947 9.77876 69.9677 8.56043 70.9764 7.2571C71.9964 5.94243 72.8407 4.5711 73.5094 3.1431L74.5804 3.6361C73.889 5.12076 73.005 6.54877 71.9284 7.9201C70.8517 9.29143 69.605 10.5778 68.1884 11.7791L67.4574 10.9121ZM72.8124 8.1071L73.5264 7.3081L77.3344 10.7761L76.5694 11.6091L72.8124 8.1071ZM79.4424 0.100098H80.5644V16.5221H79.4424V0.100098Z" fill="white" style="fill:white;fill-opacity:1;"/>
  <path d="M83.2157 11.0141C83.6804 11.0028 84.1337 10.9914 84.5757 10.9801C85.029 10.9574 85.4767 10.9291 85.9187 10.8951L85.4087 5.9141H86.4627L86.9557 10.8101C87.2957 10.7761 87.6244 10.7421 87.9417 10.7081C88.2704 10.6741 88.5934 10.6344 88.9107 10.5891L89.4887 5.8461H90.5257L89.9987 10.4191C90.52 10.3284 91.0357 10.2321 91.5457 10.1301C92.0557 10.0168 92.577 9.8921 93.1097 9.7561L93.2797 10.7081C91.693 11.1048 90.0837 11.4051 88.4517 11.6091C86.831 11.8131 85.1084 11.9434 83.2837 12.0001L83.2157 11.0141ZM83.8277 3.9931H92.2597V4.9791H83.8277V3.9931ZM94.3677 0.100098H95.4897V16.5391H94.3677V0.100098Z" fill="white" style="fill:white;fill-opacity:1;"/>
  <path d="M0.100098 6.8661H7.9371V4.3331H9.0591V6.8661H15.7911V7.8011H0.100098V6.8661ZM2.5821 15.6381C3.1941 15.4908 3.80043 15.3321 4.4011 15.1621C5.0131 14.9921 5.6251 14.7881 6.2371 14.5501C6.86043 14.3234 7.4951 14.0571 8.1411 13.7511C8.7871 13.4338 9.46143 13.0598 10.1641 12.6291C10.2548 12.5838 10.2944 12.5328 10.2831 12.4761C10.2831 12.4081 10.2378 12.3741 10.1471 12.3741H3.6531V11.4391H11.3031C11.4844 11.4391 11.6318 11.4901 11.7451 11.5921C11.8584 11.6828 11.9208 11.8188 11.9321 12.0001C11.9548 12.2494 11.9208 12.4478 11.8301 12.5951C11.7508 12.7311 11.6148 12.8614 11.4221 12.9861C10.7648 13.4508 10.1074 13.8701 9.4501 14.2441C8.8041 14.6068 8.13543 14.9354 7.4441 15.2301C6.75276 15.5248 6.0331 15.7854 5.2851 16.0121C4.5371 16.2388 3.7381 16.4371 2.8881 16.6071L2.5821 15.6381ZM9.8581 15.2131L10.2831 14.2611L14.0401 15.5021L13.6831 16.4711L9.8581 15.2131ZM10.4871 10.7251C10.0904 10.6911 9.68243 10.6458 9.2631 10.5891C8.84376 10.5211 8.42443 10.4418 8.0051 10.3511C7.58576 10.2604 7.17776 10.1584 6.7811 10.0451C6.38443 9.92043 6.01043 9.7901 5.6591 9.6541L5.9991 8.7021C6.72443 8.96276 7.50643 9.18376 8.3451 9.3651C9.18377 9.54643 9.98843 9.67676 10.7591 9.7561L10.4871 10.7251ZM4.9111 5.5741C5.0471 5.25676 5.1661 4.97343 5.2681 4.7241C5.3701 4.46343 5.4551 4.2311 5.5231 4.0271C5.60243 3.8231 5.66476 3.63043 5.7101 3.4491C5.75543 3.26776 5.78943 3.0921 5.8121 2.9221C5.83476 2.72943 5.81776 2.5991 5.7611 2.5311C5.70443 2.45176 5.6081 2.4121 5.4721 2.4121H2.2251V1.4431H5.9141C6.77543 1.4431 7.1211 1.94176 6.9511 2.9391C6.90577 3.18843 6.85476 3.42076 6.7981 3.6361C6.75276 3.8401 6.69043 4.04976 6.6111 4.2651C6.53176 4.48043 6.4411 4.71843 6.3391 4.9791C6.2371 5.22843 6.11243 5.5231 5.9651 5.8631L4.9111 5.5741ZM11.1841 5.5741C11.3201 5.25676 11.4391 4.97343 11.5411 4.7241C11.6431 4.46343 11.7281 4.2311 11.7961 4.0271C11.8641 3.8231 11.9208 3.63043 11.9661 3.4491C12.0114 3.26776 12.0511 3.0921 12.0851 2.9221C12.1078 2.72943 12.0851 2.5991 12.0171 2.5311C11.9604 2.45176 11.8698 2.4121 11.7451 2.4121H7.8861V1.4431H12.1701C13.0428 1.4431 13.3941 1.94176 13.2241 2.9391C13.1788 3.18843 13.1278 3.42076 13.0711 3.6361C13.0258 3.8401 12.9634 4.04976 12.8841 4.2651C12.8048 4.48043 12.7141 4.71843 12.6121 4.9791C12.5101 5.22843 12.3854 5.5231 12.2381 5.8631L11.1841 5.5741Z" stroke="white" style="stroke:white;stroke-opacity:1;" stroke-width="inherit" mask="url(#path-1-outside-1_957_5809)"/>
  <path d="M27.1171 0.100098H28.2391V7.3761L31.9281 7.0701L32.0131 8.1921L28.2391 8.5151V16.5221H27.1171V0.100098ZM19.5351 11.6431C18.9117 11.5411 18.4924 11.3314 18.2771 11.0141C18.0731 10.6854 17.9711 10.2151 17.9711 9.6031V6.0331H19.1611V9.6031C19.1611 9.89777 19.2064 10.1414 19.2971 10.3341C19.3877 10.5154 19.5634 10.6344 19.8241 10.6911C20.0961 10.7364 20.4417 10.7364 20.8611 10.6911C21.2804 10.6344 21.7564 10.5381 22.2891 10.4021C22.8217 10.2661 23.3997 10.0848 24.0231 9.8581C24.6577 9.63143 25.3207 9.37076 26.0121 9.0761L26.3011 9.9601C24.8277 10.5721 23.5301 11.0368 22.4081 11.3541C21.2974 11.6714 20.3397 11.7678 19.5351 11.6431ZM16.5601 4.0611H24.7881V5.0981H16.5601V4.0611Z" stroke="white" style="stroke:white;stroke-opacity:1;" stroke-width="inherit" mask="url(#path-1-outside-1_957_5809)"/>
  <path d="M32.9521 2.2251H34.0741L34.2101 4.5541H38.7151V2.1061H39.8371V4.7241C39.8371 5.2001 39.7577 5.66476 39.5991 6.1181C39.4517 6.5601 39.1911 7.02476 38.8171 7.5121C39.0891 7.5121 39.3724 7.50076 39.6671 7.4781C39.9617 7.45543 40.2791 7.42143 40.6191 7.3761L40.6871 8.3111C40.2904 8.36777 39.9164 8.40743 39.5651 8.4301C39.2137 8.44143 38.8907 8.4471 38.5961 8.4471H35.2131V7.5121H37.5591C37.8877 7.11543 38.1314 6.75276 38.2901 6.4241C38.4601 6.0841 38.5734 5.77243 38.6301 5.4891H34.2611L34.4651 8.8891H33.3431L32.9521 2.2251ZM39.2591 16.8451C38.6131 16.8111 38.1314 16.7091 37.8141 16.5391C37.5081 16.3691 37.3267 16.0688 37.2701 15.6381C37.2474 15.4908 37.2587 15.3038 37.3041 15.0771C37.3494 14.8504 37.4401 14.6521 37.5761 14.4821H38.6811C38.5677 14.6294 38.4884 14.7711 38.4431 14.9071C38.3977 15.0544 38.3751 15.1734 38.3751 15.2641C38.3751 15.4341 38.4204 15.5701 38.5111 15.6721C38.6131 15.7741 38.8057 15.8421 39.0891 15.8761C39.4517 15.9214 39.8654 15.9441 40.3301 15.9441C40.7947 15.9441 41.2821 15.9271 41.7921 15.8931C42.3021 15.8704 42.8234 15.8308 43.3561 15.7741C43.8887 15.7288 44.4101 15.6721 44.9201 15.6041L45.0221 16.5561C44.4441 16.6241 43.8717 16.6808 43.3051 16.7261C42.7497 16.7828 42.2171 16.8224 41.7071 16.8451C41.2084 16.8678 40.7494 16.8791 40.3301 16.8791C39.9107 16.8791 39.5537 16.8678 39.2591 16.8451ZM36.0971 12.8671H42.2681C42.3927 12.6291 42.4834 12.4024 42.5401 12.1871C42.6081 11.9604 42.6534 11.7508 42.6761 11.5581C42.6987 11.3768 42.6591 11.2578 42.5571 11.2011C42.4551 11.1331 42.3077 11.0991 42.1151 11.0991H36.6071V10.1301H42.6421C43.0841 10.1301 43.4071 10.2038 43.6111 10.3511C43.8264 10.4984 43.9227 10.7534 43.9001 11.1161C43.8774 11.4108 43.8264 11.7168 43.7471 12.0341C43.6677 12.3514 43.5714 12.6291 43.4581 12.8671H44.6481V13.8021H36.0971V12.8671ZM42.9311 0.100098H44.0531V5.6421L47.7421 5.3361L47.8271 6.4581L44.0531 6.7811V8.9571H42.9311V0.100098Z" stroke="white" style="stroke:white;stroke-opacity:1;" stroke-width="inherit" mask="url(#path-1-outside-1_957_5809)"/>
  <path d="M61.3504 8.1581L59.3444 8.3281L59.2424 7.3081L61.3504 7.1211V0.831097H62.4384V15.5531H61.3504V8.1581ZM55.6044 12.4421C55.3097 12.4421 55.0207 12.4251 54.7374 12.3911C54.4654 12.3571 54.2104 12.2891 53.9724 12.1871C53.7457 12.0738 53.5417 11.9264 53.3604 11.7451C53.1904 11.5524 53.06 11.3088 52.9694 11.0141C52.8674 10.6854 52.8334 10.3511 52.8674 10.0111C52.9014 9.65976 52.9864 9.30276 53.1224 8.9401H54.2444C54.097 9.33677 54.0064 9.67676 53.9724 9.9601C53.9384 10.2321 53.9667 10.4984 54.0574 10.7591C54.216 11.2124 54.6014 11.4561 55.2134 11.4901C55.7687 11.5128 56.4544 11.4108 57.2704 11.1841C58.0864 10.9574 58.9364 10.6798 59.8204 10.3511L60.1434 11.2521C59.3047 11.5808 58.4887 11.8584 57.6954 12.0851C56.9134 12.3118 56.2164 12.4308 55.6044 12.4421ZM51.5584 7.2571H56.4374C56.596 6.93976 56.7094 6.62243 56.7774 6.3051C56.8454 5.97643 56.8907 5.64777 56.9134 5.3191C56.9247 5.16043 56.8964 5.05276 56.8284 4.9961C56.7604 4.93943 56.647 4.9111 56.4884 4.9111H52.2044V3.9421H57.0324C57.4177 3.9421 57.6954 4.01576 57.8654 4.1631C58.0354 4.2991 58.1147 4.5371 58.1034 4.8771C58.0807 5.30776 58.0297 5.72143 57.9504 6.1181C57.8824 6.51476 57.769 6.89443 57.6104 7.2571H58.8174V8.1921H51.5584V7.2571ZM64.4444 0.100098H65.5664V16.5901H64.4444V0.100098Z" stroke="white" style="stroke:white;stroke-opacity:1;" stroke-width="inherit" mask="url(#path-1-outside-1_957_5809)"/>
  <path d="M67.4574 10.9121C68.7947 9.77876 69.9677 8.56043 70.9764 7.2571C71.9964 5.94243 72.8407 4.5711 73.5094 3.1431L74.5804 3.6361C73.889 5.12076 73.005 6.54877 71.9284 7.9201C70.8517 9.29143 69.605 10.5778 68.1884 11.7791L67.4574 10.9121ZM72.8124 8.1071L73.5264 7.3081L77.3344 10.7761L76.5694 11.6091L72.8124 8.1071ZM79.4424 0.100098H80.5644V16.5221H79.4424V0.100098Z" stroke="white" style="stroke:white;stroke-opacity:1;" stroke-width="inherit" mask="url(#path-1-outside-1_957_5809)"/>
  <path d="M83.2157 11.0141C83.6804 11.0028 84.1337 10.9914 84.5757 10.9801C85.029 10.9574 85.4767 10.9291 85.9187 10.8951L85.4087 5.9141H86.4627L86.9557 10.8101C87.2957 10.7761 87.6244 10.7421 87.9417 10.7081C88.2704 10.6741 88.5934 10.6344 88.9107 10.5891L89.4887 5.8461H90.5257L89.9987 10.4191C90.52 10.3284 91.0357 10.2321 91.5457 10.1301C92.0557 10.0168 92.577 9.8921 93.1097 9.7561L93.2797 10.7081C91.693 11.1048 90.0837 11.4051 88.4517 11.6091C86.831 11.8131 85.1084 11.9434 83.2837 12.0001L83.2157 11.0141ZM83.8277 3.9931H92.2597V4.9791H83.8277V3.9931ZM94.3677 0.100098H95.4897V16.5391H94.3677V0.100098Z" stroke="white" style="stroke:white;stroke-opacity:1;" stroke-width="inherit" mask="url(#path-1-outside-1_957_5809)"/>
</svg>