<svg width="20" height="20" viewBox="0 0 20 20" fill="none" xmlns="http://www.w3.org/2000/svg">
<circle cx="10" cy="10" r="9" stroke="#CACDCE" style="stroke:#CACDCE;stroke:color(display-p3 0.7922 0.8039 0.8078);stroke-opacity:1;" stroke-width="2"/>
<path d="M10.2112 5C10.8149 5 11.1168 5 11.2947 5.19113C11.4727 5.38226 11.4512 5.68334 11.4082 6.2855L11.0712 11.0025C11.0416 11.4177 11.0268 11.6253 10.914 11.7696C10.8751 11.8193 10.8286 11.8626 10.7763 11.8978C10.6244 12 10.4163 12 10 12C9.58374 12 9.37561 12 9.22372 11.8978C9.17135 11.8626 9.12487 11.8193 9.08599 11.7696C8.97324 11.6253 8.95841 11.4177 8.92875 11.0025L8.59182 6.2855C8.54881 5.68334 8.5273 5.38226 8.70527 5.19113C8.88323 5 9.18508 5 9.78877 5H10.2112Z" fill="#CACDCE" style="fill:#CACDCE;fill:color(display-p3 0.7922 0.8039 0.8078);fill-opacity:1;"/>
<path d="M10 13C10.3738 13 10.5608 13 10.7 13.0804C10.7912 13.133 10.867 13.2088 10.9196 13.3C11 13.4392 11 13.6262 11 14C11 14.3738 11 14.5608 10.9196 14.7C10.867 14.7912 10.7912 14.867 10.7 14.9196C10.5608 15 10.3738 15 10 15C9.62615 15 9.43923 15 9.3 14.9196C9.20879 14.867 9.13305 14.7912 9.08038 14.7C9 14.5608 9 14.3738 9 14C9 13.6262 9 13.4392 9.08038 13.3C9.13305 13.2088 9.20879 13.133 9.3 13.0804C9.43923 13 9.62615 13 10 13Z" fill="#CACDCE" style="fill:#CACDCE;fill:color(display-p3 0.7922 0.8039 0.8078);fill-opacity:1;"/>
</svg>
