<svg xmlns="http://www.w3.org/2000/svg" width="14" height="15" viewBox="0 0 14 15" fill="none">
<path d="M3.65446 1.72683C4.03872 1.34257 4.36887 1.01109 4.66228 0.761986C4.96463 0.505306 5.29362 0.277987 5.69743 0.146751C6.29981 -0.048933 6.94857 -0.0489006 7.55095 0.146751C7.95479 0.277966 8.28374 0.505308 8.58611 0.761986C8.87952 1.01108 9.20965 1.34257 9.59392 1.72683L13.0484 5.18129C13.1817 5.31462 13.2484 5.38129 13.2484 5.46413C13.2484 5.54698 13.1817 5.61364 13.0484 5.74698L12.2 6.59535C12.0667 6.72869 12 6.79535 11.9172 6.79535C11.8343 6.79535 11.7677 6.72869 11.6343 6.59535L8.17986 3.14089C7.99831 2.95935 7.90754 2.86858 7.82542 2.86807C7.77198 2.86775 7.71946 2.8895 7.6819 2.92752C7.62419 2.98595 7.62419 3.11499 7.62419 3.37308L7.62419 13.7692C7.62419 13.9578 7.62419 14.0521 7.56561 14.1106C7.50703 14.1692 7.41275 14.1692 7.22419 14.1692H6.02419C5.83563 14.1692 5.74135 14.1692 5.68277 14.1106C5.62419 14.0521 5.62419 13.9578 5.62419 13.7692L5.62419 3.37308C5.62419 3.115 5.62419 2.98595 5.56649 2.92753C5.52892 2.8895 5.4764 2.86774 5.42295 2.86807C5.34084 2.86858 5.25007 2.95935 5.06853 3.14089L1.61407 6.59535C1.48073 6.72869 1.41407 6.79535 1.33122 6.79535C1.24838 6.79535 1.18171 6.72869 1.04838 6.59535L0.200003 5.74698C0.0666694 5.61364 2.74788e-06 5.54698 2.74788e-06 5.46413C2.74788e-06 5.38129 0.0666694 5.31462 0.200003 5.18129L3.65446 1.72683Z" fill="white" style="fill:white;fill-opacity:1;"/>
</svg>