<svg xmlns="http://www.w3.org/2000/svg" width="13" height="14" viewBox="0 0 13 14" fill="none">
  <path d="M7.41068 3.87915C7.41068 4.49493 7.41068 4.80283 7.61066 4.9183C7.81065 5.03377 8.0773 4.87985 8.61062 4.572L11.2824 3.02973C11.609 2.84124 11.7723 2.74699 11.9323 2.78986C12.0923 2.83273 12.1866 2.99598 12.3751 3.32248L12.5749 3.66829C12.7635 3.99498 12.8579 4.15833 12.815 4.31841C12.7721 4.47849 12.6087 4.57277 12.2819 4.76132L9.61118 6.3024C9.07764 6.61026 8.81087 6.7642 8.81084 6.99517C8.81081 7.22614 9.07754 7.38014 9.611 7.68814L12.2812 9.22982C12.6079 9.41841 12.7712 9.5127 12.8141 9.67276C12.8569 9.83282 12.7626 9.99613 12.574 10.3227L12.3743 10.6686C12.1856 10.9951 12.0913 11.1584 11.9313 11.2013C11.7712 11.2441 11.608 11.1498 11.2814 10.9612L8.61079 9.41874C8.07742 9.11068 7.81073 8.95665 7.6107 9.07211C7.41068 9.18758 7.41068 9.49555 7.41068 10.1115V13.2C7.41068 13.5771 7.41068 13.7657 7.29352 13.8828C7.17636 14 6.9878 14 6.61067 14H6.21068C5.83355 14 5.64499 14 5.52783 13.8828C5.41068 13.7657 5.41068 13.5771 5.41068 13.2V10.1142C5.41068 9.49837 5.41068 9.19043 5.21067 9.07497C5.01066 8.9595 4.74398 9.11348 4.21064 9.42145L1.54384 10.9613C1.21728 11.1499 1.054 11.2442 0.893964 11.2013C0.73393 11.1584 0.639633 10.9952 0.451038 10.6686L0.251193 10.3226C0.062589 9.99606 -0.031713 9.83278 0.0111408 9.67274C0.0539946 9.51269 0.21727 9.41838 0.54382 9.22977L3.21294 7.68806C3.74615 7.38008 4.01275 7.22609 4.01272 6.99517C4.01269 6.76425 3.74605 6.61032 3.21277 6.30247L0.543119 4.76137C0.216446 4.57279 0.0531098 4.4785 0.010228 4.31844C-0.0326537 4.15837 0.0616702 3.99505 0.250318 3.66842L0.450099 3.32251C0.638677 2.996 0.732967 2.83274 0.892988 2.78987C1.05301 2.74701 1.21628 2.84126 1.54283 3.02978L4.2107 4.56995C4.74403 4.87784 5.01069 5.03178 5.21068 4.91631C5.41068 4.80084 5.41068 4.49293 5.41068 3.87711V0.8C5.41068 0.422876 5.41068 0.234315 5.52783 0.117157C5.64499 0 5.83355 0 6.21068 0H6.61067C6.9878 0 7.17636 0 7.29352 0.117157C7.41068 0.234315 7.41068 0.422876 7.41068 0.8V3.87915Z" fill="#8F9EFF" style="fill:#8F9EFF;fill:color(display-p3 0.5600 0.6187 1.0000);fill-opacity:1;"/>
</svg>