<svg xmlns="http://www.w3.org/2000/svg" width="100%" height="100%" viewBox="0 0 11 11" fill="currentColor">
  <path d="M10.2876 0.388184C10.4856 0.586169 10.5846 0.685161 10.6303 0.795623C10.691 0.942447 10.691 1.10736 10.6303 1.25418C10.5846 1.36464 10.4856 1.46364 10.2876 1.66162L7.2965 4.65272C7.05889 4.89033 6.94008 5.00914 6.89557 5.14613C6.85642 5.26664 6.85642 5.39645 6.89557 5.51695C6.94008 5.65395 7.05889 5.77276 7.2965 6.01037L10.3022 9.01611C10.5002 9.2141 10.5992 9.31309 10.6449 9.42355C10.7056 9.57038 10.7056 9.73529 10.6449 9.88211C10.5992 9.99257 10.5002 10.0916 10.3022 10.2896C10.1043 10.4875 10.0053 10.5865 9.89481 10.6322C9.74798 10.6929 9.58307 10.6929 9.43625 10.6322C9.32579 10.5865 9.22679 10.4875 9.02881 10.2896L6.02306 7.2838C5.78545 7.04619 5.66665 6.92739 5.52965 6.88287C5.40914 6.84372 5.27933 6.84372 5.15883 6.88287C5.02183 6.92739 4.90303 7.04619 4.66542 7.2838L1.66162 10.2876C1.46364 10.4856 1.36464 10.5846 1.25418 10.6303C1.10736 10.691 0.942447 10.691 0.795623 10.6303C0.685161 10.5846 0.586169 10.4856 0.388184 10.2876C0.190198 10.0896 0.0912059 9.99062 0.0455283 9.88016C-0.0151855 9.73333 -0.0151855 9.56842 0.0455283 9.4216C0.0912059 9.31114 0.190198 9.21215 0.388183 9.01416L3.39198 6.01037C3.62959 5.77276 3.74839 5.65395 3.79291 5.51695C3.83206 5.39645 3.83206 5.26664 3.79291 5.14613C3.74839 5.00914 3.62959 4.89033 3.39198 4.65272L0.402831 1.66357C0.204847 1.46559 0.105854 1.3666 0.0601768 1.25613C-0.000537018 1.10931 -0.000537018 0.9444 0.0601768 0.797576C0.105854 0.687114 0.204847 0.588122 0.402832 0.390137C0.600817 0.192152 0.69981 0.0931591 0.810272 0.0474815C0.957095 -0.0132323 1.12201 -0.0132323 1.26883 0.0474815C1.37929 0.0931591 1.47828 0.192152 1.67627 0.390136L4.66542 3.37928C4.90303 3.61689 5.02183 3.7357 5.15883 3.78021C5.27933 3.81937 5.40914 3.81937 5.52965 3.78021C5.66665 3.7357 5.78545 3.61689 6.02306 3.37928L9.01416 0.388183C9.21215 0.190198 9.31114 0.0912059 9.4216 0.0455283C9.56842 -0.0151855 9.73333 -0.0151855 9.88016 0.0455283C9.99062 0.0912059 10.0896 0.190198 10.2876 0.388184Z" fill="currentColor" />
</svg>