<?xml version="1.0" encoding="UTF-8"?>
<svg id="_레이어_2" data-name="레이어 2" xmlns="http://www.w3.org/2000/svg" xmlns:xlink="http://www.w3.org/1999/xlink" viewBox="0 0 110.31 132.62">
  <defs>
    <style>
      .cls-1 {
        fill: #f2f1f0;
      }

      .cls-2 {
        clip-path: url(#clippath-1);
      }

      .cls-3 {
        fill: #997f6b;
      }

      .cls-4 {
        fill: #eae9e8;
      }

      .cls-5 {
        clip-path: url(#clippath-2);
      }

      .cls-6 {
        fill: none;
        stroke: #b29d8e;
        stroke-linejoin: bevel;
        stroke-width: 4px;
      }

      .cls-7 {
        clip-path: url(#clippath);
      }

      .cls-8 {
        fill: #f7f7f7;
      }
    </style>
    <clipPath id="clippath">
      <path class="cls-1" d="M49.77,85.85c5.88,8.06,14.42,10.93,24.22,4.83,7.47,8.8,16.47,8.68,24.54,2.8,8.06-5.88,10.93-14.42,4.83-24.22,8.8-7.47,8.68-16.47,2.8-24.54-5.88-8.06-14.42-10.93-24.22-4.83-7.47-8.8-16.47-8.68-24.54-2.8s-10.93,14.42-4.83,24.22c-8.8,7.47-8.68,16.47-2.8,24.54Z"/>
    </clipPath>
    <clipPath id="clippath-1">
      <path class="cls-8" d="M12.92,129.42c7.71,4.93,15.97,4.54,22.31-3.94,9.32,5.04,16.98,1.93,21.91-5.78,4.93-7.71,4.54-15.97-3.94-22.31,5.04-9.32,1.93-16.98-5.78-21.91-7.71-4.93-15.97-4.54-22.31,3.94-9.32-5.04-16.98-1.93-21.91,5.78-4.93,7.71-4.54,15.97,3.94,22.31-5.04,9.32-1.93,16.98,5.78,21.91Z"/>
    </clipPath>
    <clipPath id="clippath-2">
      <path class="cls-8" d="M74.06,34.9c0-9.98-5.21-17.33-16.72-18.17C56.5,5.21,49.15,0,39.17,0s-17.33,5.21-18.17,16.72c-11.51.84-16.72,8.19-16.72,18.17s5.21,17.33,16.72,18.17c.84,11.51,8.19,16.72,18.17,16.72s17.33-5.21,18.17-16.72c11.51-.84,16.72-8.19,16.72-18.17Z"/>
    </clipPath>
  </defs>
  <g id="_시안" data-name="시안">
    <g id="_목화" data-name="목화">
      <path class="cls-6" d="M39.17,34.9s4.32,34.77,13.4,93.35l24.4-66.22"/>
      <g id="_목화-2" data-name="목화">
        <path class="cls-3" d="M83.97,35.76c5.08,12.88,13.23,24.07,23.94,32.84.93.76.69,2.25-.42,2.69-12.88,5.08-24.06,13.23-32.84,23.95-.76.93-2.25.69-2.69-.42-5.08-12.88-13.23-24.07-23.95-32.84-.93-.76-.69-2.25.42-2.69,12.88-5.08,24.07-13.23,32.84-23.95.76-.93,2.25-.69,2.69.42Z"/>
        <g>
          <path class="cls-1" d="M49.77,85.85c5.88,8.06,14.42,10.93,24.22,4.83,7.47,8.8,16.47,8.68,24.54,2.8,8.06-5.88,10.93-14.42,4.83-24.22,8.8-7.47,8.68-16.47,2.8-24.54-5.88-8.06-14.42-10.93-24.22-4.83-7.47-8.8-16.47-8.68-24.54-2.8s-10.93,14.42-4.83,24.22c-8.8,7.47-8.68,16.47-2.8,24.54Z"/>
          <g class="cls-7">
            <path class="cls-4" d="M80.93,46.33c-2.14,17.57-1.39,18.59,15.98,21.92-17.56-2.14-18.59-1.39-21.92,15.99,2.14-17.56,1.39-18.59-15.99-21.92,17.57,2.14,18.59,1.39,21.92-15.99Z"/>
          </g>
        </g>
      </g>
      <g id="_목화-3" data-name="목화">
        <path class="cls-3" d="M25.46,75.21c8.63,9.32,19.33,16.16,31.41,20.09,1.05.34,1.34,1.69.54,2.44-9.32,8.63-16.16,19.33-20.09,31.41-.34,1.05-1.69,1.34-2.44.54-8.63-9.32-19.33-16.16-31.42-20.09-1.05-.34-1.34-1.69-.54-2.44,9.32-8.63,16.16-19.33,20.09-31.41.34-1.05,1.69-1.34,2.44-.54Z"/>
        <g>
          <path class="cls-8" d="M12.92,129.42c7.71,4.93,15.97,4.54,22.31-3.94,9.32,5.04,16.98,1.93,21.91-5.78,4.93-7.71,4.54-15.97-3.94-22.31,5.04-9.32,1.93-16.98-5.78-21.91-7.71-4.93-15.97-4.54-22.31,3.94-9.32-5.04-16.98-1.93-21.91,5.78-4.93,7.71-4.54,15.97,3.94,22.31-5.04,9.32-1.93,16.98,5.78,21.91Z"/>
          <g class="cls-2">
            <path class="cls-4" d="M26.39,85.26c4.03,15.73,5.01,16.35,20.97,13.41-15.73,4.03-16.35,5.01-13.41,20.97-4.03-15.73-5.01-16.35-20.97-13.41,15.73-4.03,16.35-5.01,13.41-20.97Z"/>
          </g>
        </g>
      </g>
      <g id="_목화-4" data-name="목화">
        <path class="cls-3" d="M16.92,55.22c3.49-13.4,3.49-27.24,0-40.64-.3-1.16.77-2.23,1.93-1.93,13.4,3.49,27.24,3.49,40.64,0,1.16-.3,2.23.77,1.93,1.93-3.49,13.4-3.49,27.24,0,40.64.3,1.16-.77,2.23-1.93,1.93-13.4-3.49-27.24-3.49-40.64,0-1.16.3-2.23-.77-1.93-1.93Z"/>
        <g>
          <path class="cls-8" d="M74.06,34.9c0-9.98-5.21-17.33-16.72-18.17C56.5,5.21,49.15,0,39.17,0s-17.33,5.21-18.17,16.72c-11.51.84-16.72,8.19-16.72,18.17s5.21,17.33,16.72,18.17c.84,11.51,8.19,16.72,18.17,16.72s17.33-5.21,18.17-16.72c11.51-.84,16.72-8.19,16.72-18.17Z"/>
          <g class="cls-5">
            <path class="cls-4" d="M25.6,48.46c12.08-12.93,12.08-14.2,0-27.13,12.93,12.08,14.2,12.08,27.13,0-12.08,12.93-12.08,14.2,0,27.13-12.93-12.08-14.2-12.08-27.13,0Z"/>
          </g>
        </g>
      </g>
    </g>
  </g>
</svg>