<?xml version="1.0" encoding="UTF-8"?>
<svg id="_레이어_2" data-name="레이어 2" xmlns="http://www.w3.org/2000/svg" xmlns:xlink="http://www.w3.org/1999/xlink" viewBox="0 0 113.58 121.06">
  <defs>
    <style>
      .cls-1 {
        clip-path: url(#clippath-1);
      }

      .cls-2 {
        fill: #95ba9d;
      }

      .cls-3 {
        fill: #7ea582;
      }

      .cls-4 {
        fill: #91ba94;
      }

      .cls-5 {
        fill: #96bd86;
      }

      .cls-6 {
        fill: #6d916f;
      }

      .cls-7 {
        clip-path: url(#clippath);
      }
    </style>
    <clipPath id="clippath">
      <path class="cls-5" d="M55.62,121.06l.1-26.31c-13.21-20.68-33.54-42.68-33.75-42.9l1.45-1.35c.2.22,19.03,20.59,32.31,40.64l.32-83.17h1.98l.32,83.17v3.61s.11,26.31.11,26.31h-2.84Z"/>
    </clipPath>
    <clipPath id="clippath-1">
      <path class="cls-5" d="M56.66,101.43c13.21-20.68,33.54-42.68,33.75-42.9l-1.45-1.35c-.2.22-19.03,20.59-32.31,40.64"/>
    </clipPath>
  </defs>
  <g id="_시안" data-name="시안">
    <g id="_유칼립투스" data-name="유칼립투스">
      <g>
        <path class="cls-5" d="M55.62,121.06l.1-26.31c-13.21-20.68-33.54-42.68-33.75-42.9l1.45-1.35c.2.22,19.03,20.59,32.31,40.64l.32-83.17h1.98l.32,83.17v3.61s.11,26.31.11,26.31h-2.84Z"/>
        <g class="cls-7">
          <path class="cls-5" d="M55.62,121.06l.1-26.31c-13.21-20.68-33.54-42.68-33.75-42.9l1.45-1.35c.2.22,19.03,20.59,32.31,40.64l.32-83.17h1.98l.32,83.17v3.61s.11,26.31.11,26.31h-2.84Z"/>
        </g>
      </g>
      <g>
        <path class="cls-5" d="M56.66,101.43c13.21-20.68,33.54-42.68,33.75-42.9l-1.45-1.35c-.2.22-19.03,20.59-32.31,40.64"/>
        <g class="cls-1">
          <path class="cls-5" d="M56.66,101.43c13.21-20.68,33.54-42.68,33.75-42.9l-1.45-1.35c-.2.22-19.03,20.59-32.31,40.64v3.61Z"/>
        </g>
      </g>
      <path class="cls-3" d="M.04,56.31c.21-3.91-.65-6.47,4.71-10.69,5.26-4.69,9.33-4.71,15.4-5.82,13.65-2.47,21.53,1.78,25.66,9.89,2.53,5.07,1.75,8.76-.37,18.77-.51,2.21-1.12,4.79-2.96,6.15-1.85,1.31-4.92,1.42-7.5,1.49-11.29.1-15.3.09-20.81-2.39C5.15,70.02-.51,64.76.04,56.31Z"/>
      <path class="cls-6" d="M113.02,49.72c-.94-3.61-.61-6.06-6.35-9.05-5.6-3.06-9.37-2.4-15.15-2.32-13.01.19-20.04,3.93-23.27,9.53-2.01,3.41-.92,5.77,2.09,12.38.72,1.51,1.59,3.29,3.57,4.3,1.99,1,5.08,1.22,7.68,1.41,11.39.77,15.45,1.07,20.62-.63,8.43-2.75,13.03-7.57,10.81-15.62Z"/>
      <path class="cls-4" d="M73.12,7.98c-5.01-4.36-7.56-7.98-16.08-7.98s-11.07,3.63-16.08,7.98c-11.24,9.78-12.9,19.33-8.95,28.18,2.4,5.36,6.2,7.39,16.79,13.28,2.44,1.35,5.34,2.96,8.23,2.96s5.8-1.61,8.23-2.96c10.59-5.89,14.39-7.93,16.79-13.28,3.96-8.85,2.3-18.4-8.95-28.18Z"/>
      <path class="cls-2" d="M107.32,70.67c.2-5.81,1.26-9.55-3.44-15.35-4.7-5.8-8.58-5.53-14.31-6.54-12.87-2.25-20.29,1.89-24.12,9.47-2.32,4.59-1.61,8.3.23,18.76.42,2.41.93,5.27,2.53,7.24,1.6,1.97,4.3,3.06,6.56,3.97,9.86,3.96,13.34,5.42,18.31,4.1,8.21-2.19,13.79-8.59,14.24-21.65Z"/>
    </g>
  </g>
</svg>