<?xml version="1.0" encoding="UTF-8"?>
<svg id="_레이어_2" data-name="레이어 2" xmlns="http://www.w3.org/2000/svg" xmlns:xlink="http://www.w3.org/1999/xlink" viewBox="0 0 92.37 205.53">
  <defs>
    <style>
      .cls-1 {
        fill: #e2d0b5;
      }

      .cls-2 {
        fill: #ddc6a6;
      }

      .cls-3 {
        fill: #96bd86;
      }

      .cls-4 {
        fill: #dbc093;
      }

      .cls-5 {
        fill: #d6bb94;
      }

      .cls-6 {
        clip-path: url(#clippath);
      }
    </style>
    <clipPath id="clippath">
      <polyline class="cls-3" points="46.84 74.44 48.83 74.44 49.25 205.52 46.41 205.53"/>
    </clipPath>
  </defs>
  <g id="_시안" data-name="시안">
    <g id="_라그라스" data-name="라그라스">
      <g>
        <polyline class="cls-3" points="46.84 74.44 48.83 74.44 49.25 205.52 46.41 205.53"/>
        <g class="cls-6">
          <polygon class="cls-4" points="46.84 74.44 48.83 74.44 49.25 205.52 46.41 205.53 46.84 74.44"/>
        </g>
      </g>
      <path class="cls-4" d="M47.83,0c-1.24,0-2.55.48-3.64.77-1.16.31-1.63,2.11-2.62,2.71s-1.86,1.07-2.7,1.92-1.88,1.33-2.55,2.34c-.63.95-1.33,1.88-1.86,2.97-.49,1.03-.35,2.32-.76,3.46s-.87,2.11-1.18,3.27-1.28,2.08-1.52,3.25-.2,2.34-.39,3.51-1.15,2.22-1.28,3.39,1.4,2.5,1.3,3.67-1.69,2.25-1.75,3.42-.31,2.37-.33,3.53.29,2.39.29,3.54c0,1.27-.02,2.52,0,3.73.03,1.27.21,2.52.27,3.72.07,1.28.52,2.5.63,3.69.11,1.28.82,2.43.99,3.62.18,1.28-.44,2.63-.2,3.8.27,1.27,1,2.36,1.36,3.49.39,1.24.55,2.5,1.05,3.57.55,1.18.68,2.63,1.37,3.6.75,1.03,2.06,1.67,2.99,2.45s1.75,2.14,2.9,2.65c1.08.48,2.76-.61,4.04-.38,1.15.21,2.27,1.86,3.59,1.86s2.67-.42,3.82-.63c1.28-.23,2.7-.46,3.78-.95,1.15-.52,2.29-1.43,3.24-2.21s1.34-2.2,2.09-3.24c.69-.96,2.16-1.65,2.71-2.82.5-1.07-.13-2.69.25-3.94.35-1.13.24-2.4.5-3.66.24-1.16.09-2.39.26-3.67.17-1.18.86-2.31.97-3.59.11-1.2.37-2.41.44-3.68.06-1.2.49-2.43.52-3.7s-.78-2.45-.78-3.72c0-1.15,1.49-2.35,1.46-3.54s-1.57-2.28-1.63-3.46,1.54-2.46,1.45-3.63-.67-2.32-.8-3.49-.36-2.35-.54-3.5-1.58-2.11-1.82-3.24.76-2.62.46-3.73-.45-2.41-.84-3.49c-.41-1.14-2.02-1.76-2.51-2.79-.52-1.09-.59-2.39-1.22-3.33-.67-1.01-2.17-1.22-2.97-2.03-.84-.85-.81-2.74-1.8-3.34s-2.31-.85-3.47-1.15c-1.09-.29-2.33-1.04-3.57-1.04Z"/>
      <path class="cls-2" d="M10.21,37.17c-1.19.36-2.31,1.2-3.27,1.78-1.03.63-.95,2.49-1.74,3.35s-1.47,1.56-2.03,2.62-1.42,1.82-1.77,2.98c-.33,1.09-.74,2.18-.93,3.38-.18,1.13.33,2.33.26,3.53s-.22,2.27-.19,3.47S-.09,60.64.01,61.83s.48,2.3.64,3.48-.46,2.46-.26,3.62,2.06,1.99,2.3,3.14-.97,2.64-.69,3.77.39,2.36.69,3.48.96,2.21,1.29,3.31c.36,1.22.7,2.42,1.08,3.57.39,1.21.92,2.35,1.33,3.49.43,1.2,1.22,2.24,1.66,3.36.48,1.19,1.49,2.09,1.99,3.18.54,1.17.33,2.65.9,3.7.62,1.14,1.64,1.98,2.3,2.96.73,1.08,1.25,2.24,2.03,3.12.86.97,1.4,2.33,2.35,3.05,1.01.78,2.45,1.01,3.57,1.49s2.29,1.55,3.54,1.71c1.18.15,2.47-1.38,3.76-1.53,1.16-.13,2.71,1.13,3.98.75s2.44-1.17,3.48-1.69c1.16-.59,2.45-1.22,3.35-1.99.96-.82,1.79-2.02,2.46-3.05s.66-2.5,1.07-3.7c.39-1.12,1.6-2.2,1.78-3.48.17-1.17-.9-2.54-.89-3.84.01-1.18-.46-2.37-.57-3.65-.1-1.19-.61-2.32-.8-3.59-.18-1.18.16-2.46-.1-3.72-.24-1.18-.33-2.41-.64-3.65-.29-1.17-.23-2.47-.56-3.69s-1.45-2.13-1.82-3.34c-.33-1.11.76-2.68.39-3.81s-2.16-1.74-2.55-2.85.77-2.8.35-3.89-1.3-2.04-1.77-3.11-1.02-2.15-1.52-3.2-2.12-1.56-2.68-2.58-.02-2.73-.63-3.71-1.12-2.18-1.8-3.1c-.72-.97-2.44-1.11-3.2-1.95-.82-.9-1.25-2.12-2.12-2.84-.93-.77-2.43-.54-3.43-1.09-1.05-.58-1.56-2.39-2.68-2.68s-2.45-.15-3.65-.11c-1.12.04-2.53-.33-3.72.03Z"/>
      <path class="cls-5" d="M81.04,62.27c1.19.36,2.2.47,3.16,1.06,1.03.63,2.89.26,3.68,1.12s1.42,2.09,1.98,3.14.53,2.37.88,3.53c.33,1.09.44,2.28.63,3.48.18,1.13.92,2.27.98,3.47s-.07,2.37-.1,3.57-.81,2.3-.92,3.49.02,2.35-.14,3.52-1.14,2.18-1.34,3.34,1.19,2.63.95,3.78-1.99,1.97-2.27,3.1-.77,2.22-1.07,3.34-.32,2.36-.65,3.46c-.36,1.22-.76,2.38-1.14,3.53-.39,1.21-.66,2.41-1.06,3.55-.43,1.2-.52,2.49-.96,3.61-.48,1.19-.44,2.57-.94,3.66-.54,1.17-1.84,1.91-2.41,2.96-.62,1.14-.87,2.42-1.53,3.41-.73,1.08-1.71,1.88-2.49,2.77-.86.97-2.12,1.31-3.06,2.03-1.01.78-1.7,1.8-2.81,2.28s-2.35.07-3.6.23c-1.18.15-2.35,1.7-3.65,1.55-1.16-.13-2.03-1.89-3.29-2.27s-2.39-.5-3.43-1.03c-1.16-.59-1.93-1.33-2.83-2.11-.96-.82-1.76-1.48-2.44-2.51s-1.76-1.75-2.18-2.96c-.39-1.12.25-2.46.07-3.74-.17-1.17-1.42-2.26-1.43-3.56-.01-1.18-.38-2.48-.28-3.77.1-1.19-.11-2.51.09-3.79.18-1.18.96-2.34,1.22-3.59.24-1.18.69-2.36,1-3.6.29-1.17.97-2.28,1.31-3.51s-.12-2.59.24-3.81c.33-1.11,2.12-1.78,2.49-2.91s-.68-2.7-.28-3.82,2.38-1.61,2.81-2.71.44-2.33.91-3.41.89-2.16,1.39-3.21-.03-2.67.53-3.69,2.3-1.41,2.91-2.39,1.47-1.81,2.15-2.73c.72-.97.48-2.66,1.25-3.5.82-.9,2.07-1.31,2.95-2.04.93-.77,1.37-2.35,2.37-2.89,1.05-.58,2.72.36,3.84.07s2.13-.69,3.33-.65c1.12.04,2.02.78,3.21,1.14Z"/>
      <path class="cls-1" d="M39.73,84.47c-1.23.13-2.49.76-3.54,1.16-1.12.43-1.39,2.28-2.31,2.98s-1.73,1.27-2.47,2.21-1.73,1.53-2.28,2.61c-.52,1.01-1.12,2.01-1.53,3.16-.38,1.08-.1,2.35-.38,3.52s-.63,2.2-.82,3.38-1.04,2.2-1.16,3.39.05,2.35,0,3.54-.9,2.33-.91,3.51,1.66,2.33,1.69,3.51-1.43,2.42-1.37,3.59-.05,2.39.05,3.55.54,2.34.67,3.49c.14,1.26.25,2.51.41,3.71.17,1.26.48,2.48.67,3.67.2,1.26.79,2.42,1.03,3.6.25,1.26,1.08,2.33,1.38,3.49.32,1.25-.15,2.67.22,3.8.4,1.23,1.26,2.24,1.73,3.33.52,1.19.82,2.43,1.43,3.44.67,1.11.96,2.54,1.75,3.43.85.95,2.23,1.44,3.24,2.11s1.97,1.94,3.17,2.32c1.13.36,2.68-.91,3.98-.82,1.16.08,2.46,1.6,3.77,1.46s2.61-.7,3.73-1.04c1.25-.37,2.63-.75,3.66-1.35,1.09-.64,2.12-1.67,2.98-2.55s1.1-2.34,1.73-3.45c.59-1.03,1.97-1.87,2.38-3.1.38-1.12-.43-2.66-.18-3.94.23-1.16-.03-2.41.1-3.7.12-1.18-.18-2.39-.14-3.68.04-1.19.6-2.39.58-3.67-.02-1.2.11-2.43.03-3.71-.07-1.2.22-2.47.11-3.74s-1.04-2.36-1.18-3.62c-.13-1.15,1.23-2.5,1.07-3.68s-1.81-2.1-2-3.27,1.27-2.61,1.05-3.77-.91-2.24-1.17-3.38-.61-2.3-.92-3.42-1.8-1.92-2.16-3.02.48-2.69.05-3.76-.71-2.34-1.21-3.37c-.53-1.09-2.19-1.53-2.8-2.5-.64-1.03-.85-2.31-1.57-3.18-.78-.93-2.29-.97-3.17-1.69-.93-.76-1.1-2.63-2.15-3.12s-2.38-.59-3.57-.77c-1.11-.17-2.43-.78-3.66-.65Z"/>
    </g>
  </g>
</svg>