<?xml version="1.0" encoding="UTF-8"?>
<svg id="_레이어_2" data-name="레이어 2" xmlns="http://www.w3.org/2000/svg" viewBox="0 0 95.12 95.12">
  <defs>
    <style>
      .cls-1 {
        fill: #b3e84d;
      }

      .cls-2 {
        fill: #97c121;
      }

      .cls-3 {
        fill: #b5ed54;
      }

      .cls-4 {
        fill: #afe240;
      }

      .cls-5 {
        fill: #a8e239;
      }
    </style>
  </defs>
  <g id="_시안" data-name="시안">
    <g id="_달리아" data-name="달리아">
      <g>
        <g>
          <path class="cls-5" d="M47.56,0c-7.06,0-13.37,4.51-12.44,14.37.35,3.73,1.51,7.95,5.83,11.96,3.29,3.05,3.96,5.56,5.02,6.94.42.55,1.01.83,1.59.84.58-.01,1.17-.29,1.59-.84,1.06-1.39,1.73-3.89,5.02-6.94,4.32-4.01,5.47-8.23,5.83-11.96.93-9.86-5.38-14.37-12.44-14.37Z"/>
          <path class="cls-5" d="M6.37,23.78c-3.53,6.11-2.78,13.83,6.23,17.96,3.4,1.56,7.64,2.67,13.27.93,4.28-1.32,6.79-.65,8.52-.88.68-.09,1.22-.46,1.52-.96.28-.51.33-1.16.07-1.8-.67-1.61-2.51-3.45-3.5-7.82-1.31-5.75-4.39-8.86-7.44-11.02-8.07-5.74-15.13-2.53-18.66,3.59Z"/>
          <path class="cls-5" d="M6.37,71.34c3.53,6.11,10.59,9.32,18.66,3.59,3.05-2.17,6.13-5.28,7.44-11.02,1-4.37,2.83-6.21,3.5-7.82.26-.63.21-1.29-.07-1.8-.3-.49-.84-.87-1.52-.96-1.73-.23-4.24.45-8.52-.88-5.63-1.74-9.86-.63-13.27.93-9.01,4.12-9.76,11.84-6.23,17.96Z"/>
          <path class="cls-5" d="M47.56,95.12c7.06,0,13.37-4.51,12.44-14.37-.35-3.73-1.51-7.95-5.83-11.96-3.29-3.05-3.96-5.56-5.02-6.94-.42-.55-1.01-.83-1.59-.84-.58.01-1.17.29-1.59.84-1.06,1.39-1.73,3.89-5.02,6.94-4.32,4.01-5.47,8.23-5.83,11.96-.93,9.86,5.38,14.37,12.44,14.37Z"/>
          <path class="cls-5" d="M88.75,71.34c3.53-6.11,2.78-13.83-6.23-17.96-3.4-1.56-7.64-2.67-13.27-.93-4.28,1.32-6.79.65-8.52.88-.68.09-1.22.46-1.52.96-.28.51-.33,1.16-.07,1.8.67,1.61,2.51,3.45,3.5,7.82,1.31,5.75,4.39,8.86,7.44,11.02,8.07,5.74,15.13,2.53,18.66-3.59Z"/>
          <path class="cls-5" d="M88.75,23.78c-3.53-6.11-10.59-9.32-18.66-3.59-3.05,2.17-6.13,5.28-7.44,11.02-1,4.37-2.83,6.21-3.5,7.82-.26.63-.21,1.29.07,1.8.3.49.84.87,1.52.96,1.73.23,4.24-.45,8.52.88,5.63,1.74,9.86.63,13.27-.93,9.01-4.12,9.76-11.84,6.23-17.96Z"/>
        </g>
        <g>
          <path class="cls-4" d="M23.78,6.37c-6.11,3.53-9.32,10.59-3.59,18.66,2.17,3.05,5.28,6.13,11.02,7.44,4.37,1,6.21,2.83,7.82,3.5.63.26,1.29.21,1.8-.07.49-.3.87-.84.96-1.52.23-1.73-.45-4.24.88-8.52,1.74-5.63.63-9.86-.93-13.27-4.12-9.01-11.84-9.76-17.96-6.23Z"/>
          <path class="cls-4" d="M0,47.56c0,7.06,4.51,13.37,14.37,12.44,3.73-.35,7.95-1.51,11.96-5.83,3.05-3.29,5.56-3.96,6.94-5.02.55-.42.83-1.01.84-1.59-.01-.58-.29-1.17-.84-1.59-1.39-1.06-3.89-1.73-6.94-5.02-4.01-4.32-8.23-5.47-11.96-5.83C4.51,34.19,0,40.5,0,47.56Z"/>
          <path class="cls-4" d="M23.78,88.75c6.11,3.53,13.83,2.78,17.96-6.23,1.56-3.4,2.67-7.64.93-13.27-1.32-4.28-.65-6.79-.88-8.52-.09-.68-.46-1.22-.96-1.52-.51-.28-1.16-.33-1.8-.07-1.61.67-3.45,2.51-7.82,3.5-5.75,1.31-8.86,4.39-11.02,7.44-5.74,8.07-2.53,15.13,3.59,18.66Z"/>
          <path class="cls-4" d="M71.34,88.75c6.11-3.53,9.32-10.59,3.59-18.66-2.17-3.05-5.28-6.13-11.02-7.44-4.37-1-6.21-2.83-7.82-3.5-.63-.26-1.29-.21-1.8.07-.49.3-.87.84-.96,1.52-.23,1.73.45,4.24-.88,8.52-1.74,5.63-.63,9.86.93,13.27,4.12,9.01,11.84,9.76,17.96,6.23Z"/>
          <path class="cls-4" d="M95.12,47.56c0-7.06-4.51-13.37-14.37-12.44-3.73.35-7.95,1.51-11.96,5.83-3.05,3.29-5.56,3.96-6.94,5.02-.55.42-.83,1.01-.84,1.59.01.58.29,1.17.84,1.59,1.39,1.06,3.89,1.73,6.94,5.02,4.01,4.32,8.23,5.47,11.96,5.83,9.86.93,14.37-5.38,14.37-12.44Z"/>
          <path class="cls-4" d="M71.34,6.37c-6.11-3.53-13.83-2.78-17.96,6.23-1.56,3.4-2.67,7.64-.93,13.27,1.32,4.28.65,6.79.88,8.52.09.68.46,1.22.96,1.52.51.28,1.16.33,1.8.07,1.61-.67,3.45-2.51,7.82-3.5,5.75-1.31,8.86-4.39,11.02-7.44,5.74-8.07,2.53-15.13-3.59-18.66Z"/>
        </g>
        <g>
          <path class="cls-3" d="M47.56,13.45c-7.06,0-13.37,4.51-12.44,14.37.35,3.73,1.51,7.95,5.83,11.96,3.29,3.05,3.96,5.56,5.02,6.94.42.55,1.01.83,1.59.84.58-.01,1.17-.29,1.59-.84,1.06-1.39,1.73-3.89,5.02-6.94,4.32-4.01,5.47-8.23,5.83-11.96.93-9.86-5.38-14.37-12.44-14.37Z"/>
          <path class="cls-3" d="M18.02,64.62c3.53,6.11,10.59,9.32,18.66,3.59,3.05-2.17,6.13-5.28,7.44-11.02,1-4.37,2.83-6.21,3.5-7.82.26-.63.21-1.29-.07-1.8-.3-.49-.84-.87-1.52-.96-1.73-.23-4.24.45-8.52-.88-5.63-1.74-9.86-.63-13.27.93-9.01,4.12-9.76,11.84-6.23,17.96Z"/>
          <path class="cls-3" d="M77.1,64.62c3.53-6.11,2.78-13.83-6.23-17.96-3.4-1.56-7.64-2.67-13.27-.93-4.28,1.32-6.79.65-8.52.88-.68.09-1.22.46-1.52.96-.28.51-.33,1.16-.07,1.8.67,1.61,2.51,3.45,3.5,7.82,1.31,5.75,4.39,8.86,7.44,11.02,8.07,5.74,15.13,2.53,18.66-3.59Z"/>
        </g>
        <g>
          <path class="cls-1" d="M18.02,30.51c-3.53,6.11-2.78,13.83,6.23,17.96,3.4,1.56,7.64,2.67,13.27.93,4.28-1.32,6.79-.65,8.52-.88.68-.09,1.22-.46,1.52-.96.28-.51.33-1.16.07-1.8-.67-1.61-2.51-3.45-3.5-7.82-1.31-5.75-4.39-8.86-7.44-11.02-8.07-5.74-15.13-2.53-18.66,3.59Z"/>
          <path class="cls-1" d="M47.56,81.67c7.06,0,13.37-4.51,12.44-14.37-.35-3.73-1.51-7.95-5.83-11.96-3.29-3.05-3.96-5.56-5.02-6.94-.42-.55-1.01-.83-1.59-.84-.58.01-1.17.29-1.59.84-1.06,1.39-1.73,3.89-5.02,6.94-4.32,4.01-5.47,8.23-5.83,11.96-.93,9.86,5.38,14.37,12.44,14.37Z"/>
          <path class="cls-1" d="M77.1,30.51c-3.53-6.11-10.59-9.32-18.66-3.59-3.05,2.17-6.13,5.28-7.44,11.02-1,4.37-2.83,6.21-3.5,7.82-.26.63-.21,1.29.07,1.8.3.49.84.87,1.52.96,1.73.23,4.24-.45,8.52.88,5.63,1.74,9.86.63,13.27-.93,9.01-4.12,9.76-11.84,6.23-17.96Z"/>
        </g>
      </g>
      <path class="cls-2" d="M54.32,47.56c0,.68-1.08,1.17-1.28,1.78s.37,1.67,0,2.19-1.55.3-2.08.69-.66,1.57-1.29,1.77-1.41-.67-2.09-.67-1.48.87-2.09.67-.77-1.39-1.29-1.77-1.7-.16-2.08-.69.2-1.56,0-2.19-1.28-1.1-1.28-1.78,1.08-1.17,1.28-1.78-.37-1.67,0-2.19,1.55-.3,2.08-.69.66-1.57,1.29-1.77,1.41.67,2.09.67,1.48-.87,2.09-.67.77,1.39,1.29,1.77,1.7.16,2.08.69-.2,1.56,0,2.19,1.28,1.1,1.28,1.78Z"/>
    </g>
  </g>
</svg>