<svg xmlns="http://www.w3.org/2000/svg" viewBox="0 0 200 200">
  <g fill="black">
    <!-- Layer 1: 14 long filaments with tiny round buds (25.7° intervals) -->
    <g transform="translate(100 100)" opacity="0.48">
      <path d="M-2,0 C-2,-20 -2,-58 -3,-68 C-3,-75 3,-75 3,-68 C2,-58 2,-20 2,0Z" transform="rotate(0)" />
      <path d="M-2,0 C-2,-20 -2,-58 -3,-68 C-3,-75 3,-75 3,-68 C2,-58 2,-20 2,0Z" transform="rotate(25.7)" />
      <path d="M-2,0 C-2,-20 -2,-58 -3,-68 C-3,-75 3,-75 3,-68 C2,-58 2,-20 2,0Z" transform="rotate(51.4)" />
      <path d="M-2,0 C-2,-20 -2,-58 -3,-68 C-3,-75 3,-75 3,-68 C2,-58 2,-20 2,0Z" transform="rotate(77.1)" />
      <path d="M-2,0 C-2,-20 -2,-58 -3,-68 C-3,-75 3,-75 3,-68 C2,-58 2,-20 2,0Z" transform="rotate(102.9)" />
      <path d="M-2,0 C-2,-20 -2,-58 -3,-68 C-3,-75 3,-75 3,-68 C2,-58 2,-20 2,0Z" transform="rotate(128.6)" />
      <path d="M-2,0 C-2,-20 -2,-58 -3,-68 C-3,-75 3,-75 3,-68 C2,-58 2,-20 2,0Z" transform="rotate(154.3)" />
      <path d="M-2,0 C-2,-20 -2,-58 -3,-68 C-3,-75 3,-75 3,-68 C2,-58 2,-20 2,0Z" transform="rotate(180)" />
      <path d="M-2,0 C-2,-20 -2,-58 -3,-68 C-3,-75 3,-75 3,-68 C2,-58 2,-20 2,0Z" transform="rotate(205.7)" />
      <path d="M-2,0 C-2,-20 -2,-58 -3,-68 C-3,-75 3,-75 3,-68 C2,-58 2,-20 2,0Z" transform="rotate(231.4)" />
      <path d="M-2,0 C-2,-20 -2,-58 -3,-68 C-3,-75 3,-75 3,-68 C2,-58 2,-20 2,0Z" transform="rotate(257.1)" />
      <path d="M-2,0 C-2,-20 -2,-58 -3,-68 C-3,-75 3,-75 3,-68 C2,-58 2,-20 2,0Z" transform="rotate(282.9)" />
      <path d="M-2,0 C-2,-20 -2,-58 -3,-68 C-3,-75 3,-75 3,-68 C2,-58 2,-20 2,0Z" transform="rotate(308.6)" />
      <path d="M-2,0 C-2,-20 -2,-58 -3,-68 C-3,-75 3,-75 3,-68 C2,-58 2,-20 2,0Z" transform="rotate(334.3)" />
    </g>
    <!-- Layer 2: 10 medium filaments (36° intervals, offset 13°) -->
    <g transform="translate(100 100)" opacity="0.65">
      <path d="M-2,0 C-2,-16 -2,-46 -3,-55 C-3,-62 3,-62 3,-55 C2,-46 2,-16 2,0Z" transform="rotate(13)" />
      <path d="M-2,0 C-2,-16 -2,-46 -3,-55 C-3,-62 3,-62 3,-55 C2,-46 2,-16 2,0Z" transform="rotate(49)" />
      <path d="M-2,0 C-2,-16 -2,-46 -3,-55 C-3,-62 3,-62 3,-55 C2,-46 2,-16 2,0Z" transform="rotate(85)" />
      <path d="M-2,0 C-2,-16 -2,-46 -3,-55 C-3,-62 3,-62 3,-55 C2,-46 2,-16 2,0Z" transform="rotate(121)" />
      <path d="M-2,0 C-2,-16 -2,-46 -3,-55 C-3,-62 3,-62 3,-55 C2,-46 2,-16 2,0Z" transform="rotate(157)" />
      <path d="M-2,0 C-2,-16 -2,-46 -3,-55 C-3,-62 3,-62 3,-55 C2,-46 2,-16 2,0Z" transform="rotate(193)" />
      <path d="M-2,0 C-2,-16 -2,-46 -3,-55 C-3,-62 3,-62 3,-55 C2,-46 2,-16 2,0Z" transform="rotate(229)" />
      <path d="M-2,0 C-2,-16 -2,-46 -3,-55 C-3,-62 3,-62 3,-55 C2,-46 2,-16 2,0Z" transform="rotate(265)" />
      <path d="M-2,0 C-2,-16 -2,-46 -3,-55 C-3,-62 3,-62 3,-55 C2,-46 2,-16 2,0Z" transform="rotate(301)" />
      <path d="M-2,0 C-2,-16 -2,-46 -3,-55 C-3,-62 3,-62 3,-55 C2,-46 2,-16 2,0Z" transform="rotate(337)" />
    </g>
    <!-- Layer 3: 8 short filaments (45° intervals, offset 6°) -->
    <g transform="translate(100 100)" opacity="0.82">
      <path d="M-1.5,0 C-1.5,-10 -1.5,-32 -2.5,-40 C-2.5,-46 2.5,-46 2.5,-40 C1.5,-32 1.5,-10 1.5,0Z" transform="rotate(6)" />
      <path d="M-1.5,0 C-1.5,-10 -1.5,-32 -2.5,-40 C-2.5,-46 2.5,-46 2.5,-40 C1.5,-32 1.5,-10 1.5,0Z" transform="rotate(51)" />
      <path d="M-1.5,0 C-1.5,-10 -1.5,-32 -2.5,-40 C-2.5,-46 2.5,-46 2.5,-40 C1.5,-32 1.5,-10 1.5,0Z" transform="rotate(96)" />
      <path d="M-1.5,0 C-1.5,-10 -1.5,-32 -2.5,-40 C-2.5,-46 2.5,-46 2.5,-40 C1.5,-32 1.5,-10 1.5,0Z" transform="rotate(141)" />
      <path d="M-1.5,0 C-1.5,-10 -1.5,-32 -2.5,-40 C-2.5,-46 2.5,-46 2.5,-40 C1.5,-32 1.5,-10 1.5,0Z" transform="rotate(186)" />
      <path d="M-1.5,0 C-1.5,-10 -1.5,-32 -2.5,-40 C-2.5,-46 2.5,-46 2.5,-40 C1.5,-32 1.5,-10 1.5,0Z" transform="rotate(231)" />
      <path d="M-1.5,0 C-1.5,-10 -1.5,-32 -2.5,-40 C-2.5,-46 2.5,-46 2.5,-40 C1.5,-32 1.5,-10 1.5,0Z" transform="rotate(276)" />
      <path d="M-1.5,0 C-1.5,-10 -1.5,-32 -2.5,-40 C-2.5,-46 2.5,-46 2.5,-40 C1.5,-32 1.5,-10 1.5,0Z" transform="rotate(321)" />
    </g>
    <!-- Tiny center -->
    <circle cx="100" cy="100" r="4" fill="black" opacity="0.90" />
  </g>
</svg>
