<svg viewBox="0 0 100 100" fill="none" xmlns="http://www.w3.org/2000/svg">
  <path d="M50 85C50 85 45 70 40 65C35 60 20 55 20 50C20 45 35 40 40 35C45 30 50 15 50 15C50 15 55 30 60 35C65 40 80 45 80 50C80 55 65 60 60 65C55 70 50 85 50 85Z" fill="black"/>
  <circle cx="50" cy="50" r="10" fill="black" fill-opacity="0.5"/>
  <path d="M50 15C52 25 58 32 65 35C72 38 85 40 85 50C85 60 72 62 65 65C58 68 52 75 50 85C48 75 42 68 35 65C28 62 15 60 15 50C15 40 28 38 35 35C42 32 48 25 50 15Z" fill="black" fill-opacity="0.8"/>
</svg>
