<svg xmlns="http://www.w3.org/2000/svg" viewBox="0 0 200 200">
  <g fill="black">
    <!-- Outer ruffled petals (16ea, background) -->
    <g transform="translate(100 100)" opacity="0.55">
      <path d="M0,-90 C15,-88 28,-72 25,-55 C22,-40 8,-30 0,-28 C-8,-30 -22,-40 -25,-55 C-28,-72 -15,-88 0,-90Z" transform="rotate(0)" />
      <path d="M0,-90 C15,-88 28,-72 25,-55 C22,-40 8,-30 0,-28 C-8,-30 -22,-40 -25,-55 C-28,-72 -15,-88 0,-90Z" transform="rotate(22.5)" />
      <path d="M0,-90 C15,-88 28,-72 25,-55 C22,-40 8,-30 0,-28 C-8,-30 -22,-40 -25,-55 C-28,-72 -15,-88 0,-90Z" transform="rotate(45)" />
      <path d="M0,-90 C15,-88 28,-72 25,-55 C22,-40 8,-30 0,-28 C-8,-30 -22,-40 -25,-55 C-28,-72 -15,-88 0,-90Z" transform="rotate(67.5)" />
      <path d="M0,-90 C15,-88 28,-72 25,-55 C22,-40 8,-30 0,-28 C-8,-30 -22,-40 -25,-55 C-28,-72 -15,-88 0,-90Z" transform="rotate(90)" />
      <path d="M0,-90 C15,-88 28,-72 25,-55 C22,-40 8,-30 0,-28 C-8,-30 -22,-40 -25,-55 C-28,-72 -15,-88 0,-90Z" transform="rotate(112.5)" />
      <path d="M0,-90 C15,-88 28,-72 25,-55 C22,-40 8,-30 0,-28 C-8,-30 -22,-40 -25,-55 C-28,-72 -15,-88 0,-90Z" transform="rotate(135)" />
      <path d="M0,-90 C15,-88 28,-72 25,-55 C22,-40 8,-30 0,-28 C-8,-30 -22,-40 -25,-55 C-28,-72 -15,-88 0,-90Z" transform="rotate(157.5)" />
      <path d="M0,-90 C15,-88 28,-72 25,-55 C22,-40 8,-30 0,-28 C-8,-30 -22,-40 -25,-55 C-28,-72 -15,-88 0,-90Z" transform="rotate(180)" />
      <path d="M0,-90 C15,-88 28,-72 25,-55 C22,-40 8,-30 0,-28 C-8,-30 -22,-40 -25,-55 C-28,-72 -15,-88 0,-90Z" transform="rotate(202.5)" />
      <path d="M0,-90 C15,-88 28,-72 25,-55 C22,-40 8,-30 0,-28 C-8,-30 -22,-40 -25,-55 C-28,-72 -15,-88 0,-90Z" transform="rotate(225)" />
      <path d="M0,-90 C15,-88 28,-72 25,-55 C22,-40 8,-30 0,-28 C-8,-30 -22,-40 -25,-55 C-28,-72 -15,-88 0,-90Z" transform="rotate(247.5)" />
      <path d="M0,-90 C15,-88 28,-72 25,-55 C22,-40 8,-30 0,-28 C-8,-30 -22,-40 -25,-55 C-28,-72 -15,-88 0,-90Z" transform="rotate(270)" />
      <path d="M0,-90 C15,-88 28,-72 25,-55 C22,-40 8,-30 0,-28 C-8,-30 -22,-40 -25,-55 C-28,-72 -15,-88 0,-90Z" transform="rotate(292.5)" />
      <path d="M0,-90 C15,-88 28,-72 25,-55 C22,-40 8,-30 0,-28 C-8,-30 -22,-40 -25,-55 C-28,-72 -15,-88 0,-90Z" transform="rotate(315)" />
      <path d="M0,-90 C15,-88 28,-72 25,-55 C22,-40 8,-30 0,-28 C-8,-30 -22,-40 -25,-55 C-28,-72 -15,-88 0,-90Z" transform="rotate(337.5)" />
    </g>
    <!-- Middle ruffled petals (12ea, offset 15deg) -->
    <g transform="translate(100 100)" opacity="0.75">
      <path d="M0,-68 C12,-66 22,-54 20,-42 C18,-32 7,-24 0,-22 C-7,-24 -18,-32 -20,-42 C-22,-54 -12,-66 0,-68Z" transform="rotate(0)" />
      <path d="M0,-68 C12,-66 22,-54 20,-42 C18,-32 7,-24 0,-22 C-7,-24 -18,-32 -20,-42 C-22,-54 -12,-66 0,-68Z" transform="rotate(30)" />
      <path d="M0,-68 C12,-66 22,-54 20,-42 C18,-32 7,-24 0,-22 C-7,-24 -18,-32 -20,-42 C-22,-54 -12,-66 0,-68Z" transform="rotate(60)" />
      <path d="M0,-68 C12,-66 22,-54 20,-42 C18,-32 7,-24 0,-22 C-7,-24 -18,-32 -20,-42 C-22,-54 -12,-66 0,-68Z" transform="rotate(90)" />
      <path d="M0,-68 C12,-66 22,-54 20,-42 C18,-32 7,-24 0,-22 C-7,-24 -18,-32 -20,-42 C-22,-54 -12,-66 0,-68Z" transform="rotate(120)" />
      <path d="M0,-68 C12,-66 22,-54 20,-42 C18,-32 7,-24 0,-22 C-7,-24 -18,-32 -20,-42 C-22,-54 -12,-66 0,-68Z" transform="rotate(150)" />
      <path d="M0,-68 C12,-66 22,-54 20,-42 C18,-32 7,-24 0,-22 C-7,-24 -18,-32 -20,-42 C-22,-54 -12,-66 0,-68Z" transform="rotate(180)" />
      <path d="M0,-68 C12,-66 22,-54 20,-42 C18,-32 7,-24 0,-22 C-7,-24 -18,-32 -20,-42 C-22,-54 -12,-66 0,-68Z" transform="rotate(210)" />
      <path d="M0,-68 C12,-66 22,-54 20,-42 C18,-32 7,-24 0,-22 C-7,-24 -18,-32 -20,-42 C-22,-54 -12,-66 0,-68Z" transform="rotate(240)" />
      <path d="M0,-68 C12,-66 22,-54 20,-42 C18,-32 7,-24 0,-22 C-7,-24 -18,-32 -20,-42 C-22,-54 -12,-66 0,-68Z" transform="rotate(270)" />
      <path d="M0,-68 C12,-66 22,-54 20,-42 C18,-32 7,-24 0,-22 C-7,-24 -18,-32 -20,-42 C-22,-54 -12,-66 0,-68Z" transform="rotate(300)" />
      <path d="M0,-68 C12,-66 22,-54 20,-42 C18,-32 7,-24 0,-22 C-7,-24 -18,-32 -20,-42 C-22,-54 -12,-66 0,-68Z" transform="rotate(330)" />
    </g>
    <!-- Inner tight petals (8ea, offset) -->
    <g transform="translate(100 100)" opacity="0.9">
      <path d="M0,-45 C10,-43 16,-34 14,-26 C12,-20 5,-15 0,-14 C-5,-15 -12,-20 -14,-26 C-16,-34 -10,-43 0,-45Z" transform="rotate(0)" />
      <path d="M0,-45 C10,-43 16,-34 14,-26 C12,-20 5,-15 0,-14 C-5,-15 -12,-20 -14,-26 C-16,-34 -10,-43 0,-45Z" transform="rotate(45)" />
      <path d="M0,-45 C10,-43 16,-34 14,-26 C12,-20 5,-15 0,-14 C-5,-15 -12,-20 -14,-26 C-16,-34 -10,-43 0,-45Z" transform="rotate(90)" />
      <path d="M0,-45 C10,-43 16,-34 14,-26 C12,-20 5,-15 0,-14 C-5,-15 -12,-20 -14,-26 C-16,-34 -10,-43 0,-45Z" transform="rotate(135)" />
      <path d="M0,-45 C10,-43 16,-34 14,-26 C12,-20 5,-15 0,-14 C-5,-15 -12,-20 -14,-26 C-16,-34 -10,-43 0,-45Z" transform="rotate(180)" />
      <path d="M0,-45 C10,-43 16,-34 14,-26 C12,-20 5,-15 0,-14 C-5,-15 -12,-20 -14,-26 C-16,-34 -10,-43 0,-45Z" transform="rotate(225)" />
      <path d="M0,-45 C10,-43 16,-34 14,-26 C12,-20 5,-15 0,-14 C-5,-15 -12,-20 -14,-26 C-16,-34 -10,-43 0,-45Z" transform="rotate(270)" />
      <path d="M0,-45 C10,-43 16,-34 14,-26 C12,-20 5,-15 0,-14 C-5,-15 -12,-20 -14,-26 C-16,-34 -10,-43 0,-45Z" transform="rotate(315)" />
    </g>
    <!-- Center -->
    <circle cx="100" cy="100" r="16" fill="black" opacity="1.0" />
    <!-- Highlight -->
    <circle cx="100" cy="100" r="8" fill="white" opacity="0.25" />
  </g>
</svg>
