<svg xmlns="http://www.w3.org/2000/svg" viewBox="0 0 200 200">
  <g fill="black">
    <!-- Layer 1: 16 outer wide bumps (22.5° intervals) — brain-like texture -->
    <g transform="translate(100 100)" opacity="0.62">
      <path d="M-35,0 C-40,-12 -20,-24 0,-26 C20,-24 40,-12 35,0Z" transform="rotate(0)" />
      <path d="M-35,0 C-40,-12 -20,-24 0,-26 C20,-24 40,-12 35,0Z" transform="rotate(22.5)" />
      <path d="M-35,0 C-40,-12 -20,-24 0,-26 C20,-24 40,-12 35,0Z" transform="rotate(45)" />
      <path d="M-35,0 C-40,-12 -20,-24 0,-26 C20,-24 40,-12 35,0Z" transform="rotate(67.5)" />
      <path d="M-35,0 C-40,-12 -20,-24 0,-26 C20,-24 40,-12 35,0Z" transform="rotate(90)" />
      <path d="M-35,0 C-40,-12 -20,-24 0,-26 C20,-24 40,-12 35,0Z" transform="rotate(112.5)" />
      <path d="M-35,0 C-40,-12 -20,-24 0,-26 C20,-24 40,-12 35,0Z" transform="rotate(135)" />
      <path d="M-35,0 C-40,-12 -20,-24 0,-26 C20,-24 40,-12 35,0Z" transform="rotate(157.5)" />
      <path d="M-35,0 C-40,-12 -20,-24 0,-26 C20,-24 40,-12 35,0Z" transform="rotate(180)" />
      <path d="M-35,0 C-40,-12 -20,-24 0,-26 C20,-24 40,-12 35,0Z" transform="rotate(202.5)" />
      <path d="M-35,0 C-40,-12 -20,-24 0,-26 C20,-24 40,-12 35,0Z" transform="rotate(225)" />
      <path d="M-35,0 C-40,-12 -20,-24 0,-26 C20,-24 40,-12 35,0Z" transform="rotate(247.5)" />
      <path d="M-35,0 C-40,-12 -20,-24 0,-26 C20,-24 40,-12 35,0Z" transform="rotate(270)" />
      <path d="M-35,0 C-40,-12 -20,-24 0,-26 C20,-24 40,-12 35,0Z" transform="rotate(292.5)" />
      <path d="M-35,0 C-40,-12 -20,-24 0,-26 C20,-24 40,-12 35,0Z" transform="rotate(315)" />
      <path d="M-35,0 C-40,-12 -20,-24 0,-26 C20,-24 40,-12 35,0Z" transform="rotate(337.5)" />
    </g>
    <!-- Layer 2: 12 medium bumps (30° intervals, offset 15°) -->
    <g transform="translate(100 100)" opacity="0.79">
      <path d="M-27,0 C-31,-14 -14,-28 0,-30 C14,-28 31,-14 27,0Z" transform="rotate(15)" />
      <path d="M-27,0 C-31,-14 -14,-28 0,-30 C14,-28 31,-14 27,0Z" transform="rotate(45)" />
      <path d="M-27,0 C-31,-14 -14,-28 0,-30 C14,-28 31,-14 27,0Z" transform="rotate(75)" />
      <path d="M-27,0 C-31,-14 -14,-28 0,-30 C14,-28 31,-14 27,0Z" transform="rotate(105)" />
      <path d="M-27,0 C-31,-14 -14,-28 0,-30 C14,-28 31,-14 27,0Z" transform="rotate(135)" />
      <path d="M-27,0 C-31,-14 -14,-28 0,-30 C14,-28 31,-14 27,0Z" transform="rotate(165)" />
      <path d="M-27,0 C-31,-14 -14,-28 0,-30 C14,-28 31,-14 27,0Z" transform="rotate(195)" />
      <path d="M-27,0 C-31,-14 -14,-28 0,-30 C14,-28 31,-14 27,0Z" transform="rotate(225)" />
      <path d="M-27,0 C-31,-14 -14,-28 0,-30 C14,-28 31,-14 27,0Z" transform="rotate(255)" />
      <path d="M-27,0 C-31,-14 -14,-28 0,-30 C14,-28 31,-14 27,0Z" transform="rotate(285)" />
      <path d="M-27,0 C-31,-14 -14,-28 0,-30 C14,-28 31,-14 27,0Z" transform="rotate(315)" />
      <path d="M-27,0 C-31,-14 -14,-28 0,-30 C14,-28 31,-14 27,0Z" transform="rotate(345)" />
    </g>
    <!-- Layer 3: 10 inner tight bumps (36° intervals, offset 8°) -->
    <g transform="translate(100 100)" opacity="0.95">
      <path d="M-18,0 C-20,-14 -9,-27 0,-29 C9,-27 20,-14 18,0Z" transform="rotate(8)" />
      <path d="M-18,0 C-20,-14 -9,-27 0,-29 C9,-27 20,-14 18,0Z" transform="rotate(44)" />
      <path d="M-18,0 C-20,-14 -9,-27 0,-29 C9,-27 20,-14 18,0Z" transform="rotate(80)" />
      <path d="M-18,0 C-20,-14 -9,-27 0,-29 C9,-27 20,-14 18,0Z" transform="rotate(116)" />
      <path d="M-18,0 C-20,-14 -9,-27 0,-29 C9,-27 20,-14 18,0Z" transform="rotate(152)" />
      <path d="M-18,0 C-20,-14 -9,-27 0,-29 C9,-27 20,-14 18,0Z" transform="rotate(188)" />
      <path d="M-18,0 C-20,-14 -9,-27 0,-29 C9,-27 20,-14 18,0Z" transform="rotate(224)" />
      <path d="M-18,0 C-20,-14 -9,-27 0,-29 C9,-27 20,-14 18,0Z" transform="rotate(260)" />
      <path d="M-18,0 C-20,-14 -9,-27 0,-29 C9,-27 20,-14 18,0Z" transform="rotate(296)" />
      <path d="M-18,0 C-20,-14 -9,-27 0,-29 C9,-27 20,-14 18,0Z" transform="rotate(332)" />
    </g>
  </g>
</svg>
