<svg xmlns="http://www.w3.org/2000/svg" viewBox="0 0 200 200">
  <g fill="black">
    <!-- Outer 8 bracts (45° intervals) — oval, scale-like -->
    <g transform="translate(100 100)" opacity="0.60">
      <path d="M-16,0 C-22,-8 -16,-40 0,-48 C16,-40 22,-8 16,0Z" transform="rotate(0)" />
      <path d="M-16,0 C-22,-8 -16,-40 0,-48 C16,-40 22,-8 16,0Z" transform="rotate(45)" />
      <path d="M-16,0 C-22,-8 -16,-40 0,-48 C16,-40 22,-8 16,0Z" transform="rotate(90)" />
      <path d="M-16,0 C-22,-8 -16,-40 0,-48 C16,-40 22,-8 16,0Z" transform="rotate(135)" />
      <path d="M-16,0 C-22,-8 -16,-40 0,-48 C16,-40 22,-8 16,0Z" transform="rotate(180)" />
      <path d="M-16,0 C-22,-8 -16,-40 0,-48 C16,-40 22,-8 16,0Z" transform="rotate(225)" />
      <path d="M-16,0 C-22,-8 -16,-40 0,-48 C16,-40 22,-8 16,0Z" transform="rotate(270)" />
      <path d="M-16,0 C-22,-8 -16,-40 0,-48 C16,-40 22,-8 16,0Z" transform="rotate(315)" />
    </g>
    <!-- Middle 8 bracts (22.5° offset) -->
    <g transform="translate(100 100)" opacity="0.76">
      <path d="M-12,0 C-15,-6 -11,-30 0,-36 C11,-30 15,-6 12,0Z" transform="rotate(22.5)" />
      <path d="M-12,0 C-15,-6 -11,-30 0,-36 C11,-30 15,-6 12,0Z" transform="rotate(67.5)" />
      <path d="M-12,0 C-15,-6 -11,-30 0,-36 C11,-30 15,-6 12,0Z" transform="rotate(112.5)" />
      <path d="M-12,0 C-15,-6 -11,-30 0,-36 C11,-30 15,-6 12,0Z" transform="rotate(157.5)" />
      <path d="M-12,0 C-15,-6 -11,-30 0,-36 C11,-30 15,-6 12,0Z" transform="rotate(202.5)" />
      <path d="M-12,0 C-15,-6 -11,-30 0,-36 C11,-30 15,-6 12,0Z" transform="rotate(247.5)" />
      <path d="M-12,0 C-15,-6 -11,-30 0,-36 C11,-30 15,-6 12,0Z" transform="rotate(292.5)" />
      <path d="M-12,0 C-15,-6 -11,-30 0,-36 C11,-30 15,-6 12,0Z" transform="rotate(337.5)" />
    </g>
    <!-- Inner 8 bracts (11° offset) -->
    <g transform="translate(100 100)" opacity="0.90">
      <path d="M-8,0 C-9,-4 -7,-18 0,-22 C7,-18 9,-4 8,0Z" transform="rotate(11)" />
      <path d="M-8,0 C-9,-4 -7,-18 0,-22 C7,-18 9,-4 8,0Z" transform="rotate(56)" />
      <path d="M-8,0 C-9,-4 -7,-18 0,-22 C7,-18 9,-4 8,0Z" transform="rotate(101)" />
      <path d="M-8,0 C-9,-4 -7,-18 0,-22 C7,-18 9,-4 8,0Z" transform="rotate(146)" />
      <path d="M-8,0 C-9,-4 -7,-18 0,-22 C7,-18 9,-4 8,0Z" transform="rotate(191)" />
      <path d="M-8,0 C-9,-4 -7,-18 0,-22 C7,-18 9,-4 8,0Z" transform="rotate(236)" />
      <path d="M-8,0 C-9,-4 -7,-18 0,-22 C7,-18 9,-4 8,0Z" transform="rotate(281)" />
      <path d="M-8,0 C-9,-4 -7,-18 0,-22 C7,-18 9,-4 8,0Z" transform="rotate(326)" />
    </g>
    <!-- Center spike -->
    <circle cx="100" cy="100" r="10" fill="black" opacity="1.0" />
    <circle cx="100" cy="100" r="5"  fill="white" opacity="0.30" />
  </g>
</svg>
