<svg xmlns="http://www.w3.org/2000/svg" viewBox="0 0 200 200">
  <g fill="black">
    <!-- Delphinium: Spiky tall flower - clustered florets with spurs (top view) -->
    <!-- Layer 1: Outer florets with spur-like extensions -->
    <g transform="translate(100 100)" opacity="0.55">
      <path d="M-6,0 C-8,-15 -6,-45 -3,-70 L0,-82 L3,-70 C6,-45 8,-15 6,0 C3,-2 -3,-2 -6,0Z" transform="rotate(0)" />
      <path d="M-6,0 C-8,-15 -6,-45 -3,-70 L0,-82 L3,-70 C6,-45 8,-15 6,0 C3,-2 -3,-2 -6,0Z" transform="rotate(30)" />
      <path d="M-6,0 C-8,-15 -6,-45 -3,-70 L0,-82 L3,-70 C6,-45 8,-15 6,0 C3,-2 -3,-2 -6,0Z" transform="rotate(60)" />
      <path d="M-6,0 C-8,-15 -6,-45 -3,-70 L0,-82 L3,-70 C6,-45 8,-15 6,0 C3,-2 -3,-2 -6,0Z" transform="rotate(90)" />
      <path d="M-6,0 C-8,-15 -6,-45 -3,-70 L0,-82 L3,-70 C6,-45 8,-15 6,0 C3,-2 -3,-2 -6,0Z" transform="rotate(120)" />
      <path d="M-6,0 C-8,-15 -6,-45 -3,-70 L0,-82 L3,-70 C6,-45 8,-15 6,0 C3,-2 -3,-2 -6,0Z" transform="rotate(150)" />
      <path d="M-6,0 C-8,-15 -6,-45 -3,-70 L0,-82 L3,-70 C6,-45 8,-15 6,0 C3,-2 -3,-2 -6,0Z" transform="rotate(180)" />
      <path d="M-6,0 C-8,-15 -6,-45 -3,-70 L0,-82 L3,-70 C6,-45 8,-15 6,0 C3,-2 -3,-2 -6,0Z" transform="rotate(210)" />
      <path d="M-6,0 C-8,-15 -6,-45 -3,-70 L0,-82 L3,-70 C6,-45 8,-15 6,0 C3,-2 -3,-2 -6,0Z" transform="rotate(240)" />
      <path d="M-6,0 C-8,-15 -6,-45 -3,-70 L0,-82 L3,-70 C6,-45 8,-15 6,0 C3,-2 -3,-2 -6,0Z" transform="rotate(270)" />
      <path d="M-6,0 C-8,-15 -6,-45 -3,-70 L0,-82 L3,-70 C6,-45 8,-15 6,0 C3,-2 -3,-2 -6,0Z" transform="rotate(300)" />
      <path d="M-6,0 C-8,-15 -6,-45 -3,-70 L0,-82 L3,-70 C6,-45 8,-15 6,0 C3,-2 -3,-2 -6,0Z" transform="rotate(330)" />
    </g>
    <!-- Layer 2: Middle florets -->
    <g transform="translate(100 100)" opacity="0.75">
      <path d="M-7,0 C-9,-12 -7,-32 -4,-50 L0,-60 L4,-50 C7,-32 9,-12 7,0 C4,-2 -4,-2 -7,0Z" transform="rotate(15)" />
      <path d="M-7,0 C-9,-12 -7,-32 -4,-50 L0,-60 L4,-50 C7,-32 9,-12 7,0 C4,-2 -4,-2 -7,0Z" transform="rotate(45)" />
      <path d="M-7,0 C-9,-12 -7,-32 -4,-50 L0,-60 L4,-50 C7,-32 9,-12 7,0 C4,-2 -4,-2 -7,0Z" transform="rotate(75)" />
      <path d="M-7,0 C-9,-12 -7,-32 -4,-50 L0,-60 L4,-50 C7,-32 9,-12 7,0 C4,-2 -4,-2 -7,0Z" transform="rotate(105)" />
      <path d="M-7,0 C-9,-12 -7,-32 -4,-50 L0,-60 L4,-50 C7,-32 9,-12 7,0 C4,-2 -4,-2 -7,0Z" transform="rotate(135)" />
      <path d="M-7,0 C-9,-12 -7,-32 -4,-50 L0,-60 L4,-50 C7,-32 9,-12 7,0 C4,-2 -4,-2 -7,0Z" transform="rotate(165)" />
      <path d="M-7,0 C-9,-12 -7,-32 -4,-50 L0,-60 L4,-50 C7,-32 9,-12 7,0 C4,-2 -4,-2 -7,0Z" transform="rotate(195)" />
      <path d="M-7,0 C-9,-12 -7,-32 -4,-50 L0,-60 L4,-50 C7,-32 9,-12 7,0 C4,-2 -4,-2 -7,0Z" transform="rotate(225)" />
      <path d="M-7,0 C-9,-12 -7,-32 -4,-50 L0,-60 L4,-50 C7,-32 9,-12 7,0 C4,-2 -4,-2 -7,0Z" transform="rotate(255)" />
      <path d="M-7,0 C-9,-12 -7,-32 -4,-50 L0,-60 L4,-50 C7,-32 9,-12 7,0 C4,-2 -4,-2 -7,0Z" transform="rotate(285)" />
      <path d="M-7,0 C-9,-12 -7,-32 -4,-50 L0,-60 L4,-50 C7,-32 9,-12 7,0 C4,-2 -4,-2 -7,0Z" transform="rotate(315)" />
      <path d="M-7,0 C-9,-12 -7,-32 -4,-50 L0,-60 L4,-50 C7,-32 9,-12 7,0 C4,-2 -4,-2 -7,0Z" transform="rotate(345)" />
    </g>
    <!-- Layer 3: Inner florets -->
    <g transform="translate(100 100)" opacity="0.9">
      <path d="M-6,0 C-7,-8 -6,-22 -3,-34 L0,-40 L3,-34 C6,-22 7,-8 6,0 C3,-1 -3,-1 -6,0Z" transform="rotate(7)" />
      <path d="M-6,0 C-7,-8 -6,-22 -3,-34 L0,-40 L3,-34 C6,-22 7,-8 6,0 C3,-1 -3,-1 -6,0Z" transform="rotate(52)" />
      <path d="M-6,0 C-7,-8 -6,-22 -3,-34 L0,-40 L3,-34 C6,-22 7,-8 6,0 C3,-1 -3,-1 -6,0Z" transform="rotate(97)" />
      <path d="M-6,0 C-7,-8 -6,-22 -3,-34 L0,-40 L3,-34 C6,-22 7,-8 6,0 C3,-1 -3,-1 -6,0Z" transform="rotate(142)" />
      <path d="M-6,0 C-7,-8 -6,-22 -3,-34 L0,-40 L3,-34 C6,-22 7,-8 6,0 C3,-1 -3,-1 -6,0Z" transform="rotate(187)" />
      <path d="M-6,0 C-7,-8 -6,-22 -3,-34 L0,-40 L3,-34 C6,-22 7,-8 6,0 C3,-1 -3,-1 -6,0Z" transform="rotate(232)" />
      <path d="M-6,0 C-7,-8 -6,-22 -3,-34 L0,-40 L3,-34 C6,-22 7,-8 6,0 C3,-1 -3,-1 -6,0Z" transform="rotate(277)" />
      <path d="M-6,0 C-7,-8 -6,-22 -3,-34 L0,-40 L3,-34 C6,-22 7,-8 6,0 C3,-1 -3,-1 -6,0Z" transform="rotate(322)" />
    </g>
    <!-- Center -->
    <circle cx="100" cy="100" r="14" fill="black" opacity="1.0" />
    <circle cx="100" cy="100" r="7" fill="white" opacity="0.28" />
  </g>
</svg>
