<svg xmlns="http://www.w3.org/2000/svg" viewBox="0 0 200 200">
  <g fill="black">
    <!-- Freesia: Tubular trumpet-shaped florets -->
    <!-- Layer 1: Outer trumpet petals (6 petals) -->
    <g transform="translate(100 100)" opacity="0.58">
      <path d="M-14,0 C-18,-12 -16,-40 -10,-62 C-5,-75 0,-80 0,-80 C0,-80 5,-75 10,-62 C16,-40 18,-12 14,0 C8,-4 -8,-4 -14,0Z" transform="rotate(0)" />
      <path d="M-14,0 C-18,-12 -16,-40 -10,-62 C-5,-75 0,-80 0,-80 C0,-80 5,-75 10,-62 C16,-40 18,-12 14,0 C8,-4 -8,-4 -14,0Z" transform="rotate(60)" />
      <path d="M-14,0 C-18,-12 -16,-40 -10,-62 C-5,-75 0,-80 0,-80 C0,-80 5,-75 10,-62 C16,-40 18,-12 14,0 C8,-4 -8,-4 -14,0Z" transform="rotate(120)" />
      <path d="M-14,0 C-18,-12 -16,-40 -10,-62 C-5,-75 0,-80 0,-80 C0,-80 5,-75 10,-62 C16,-40 18,-12 14,0 C8,-4 -8,-4 -14,0Z" transform="rotate(180)" />
      <path d="M-14,0 C-18,-12 -16,-40 -10,-62 C-5,-75 0,-80 0,-80 C0,-80 5,-75 10,-62 C16,-40 18,-12 14,0 C8,-4 -8,-4 -14,0Z" transform="rotate(240)" />
      <path d="M-14,0 C-18,-12 -16,-40 -10,-62 C-5,-75 0,-80 0,-80 C0,-80 5,-75 10,-62 C16,-40 18,-12 14,0 C8,-4 -8,-4 -14,0Z" transform="rotate(300)" />
    </g>
    <!-- Layer 2: Middle petals (6 petals, offset) -->
    <g transform="translate(100 100)" opacity="0.78">
      <path d="M-12,0 C-15,-10 -13,-32 -8,-50 C-4,-60 0,-64 0,-64 C0,-64 4,-60 8,-50 C13,-32 15,-10 12,0 C6,-3 -6,-3 -12,0Z" transform="rotate(30)" />
      <path d="M-12,0 C-15,-10 -13,-32 -8,-50 C-4,-60 0,-64 0,-64 C0,-64 4,-60 8,-50 C13,-32 15,-10 12,0 C6,-3 -6,-3 -12,0Z" transform="rotate(90)" />
      <path d="M-12,0 C-15,-10 -13,-32 -8,-50 C-4,-60 0,-64 0,-64 C0,-64 4,-60 8,-50 C13,-32 15,-10 12,0 C6,-3 -6,-3 -12,0Z" transform="rotate(150)" />
      <path d="M-12,0 C-15,-10 -13,-32 -8,-50 C-4,-60 0,-64 0,-64 C0,-64 4,-60 8,-50 C13,-32 15,-10 12,0 C6,-3 -6,-3 -12,0Z" transform="rotate(210)" />
      <path d="M-12,0 C-15,-10 -13,-32 -8,-50 C-4,-60 0,-64 0,-64 C0,-64 4,-60 8,-50 C13,-32 15,-10 12,0 C6,-3 -6,-3 -12,0Z" transform="rotate(270)" />
      <path d="M-12,0 C-15,-10 -13,-32 -8,-50 C-4,-60 0,-64 0,-64 C0,-64 4,-60 8,-50 C13,-32 15,-10 12,0 C6,-3 -6,-3 -12,0Z" transform="rotate(330)" />
    </g>
    <!-- Layer 3: Inner petals -->
    <g transform="translate(100 100)" opacity="0.92">
      <path d="M-8,0 C-10,-8 -8,-24 -5,-38 C-2,-46 0,-48 0,-48 C0,-48 2,-46 5,-38 C8,-24 10,-8 8,0 C4,-2 -4,-2 -8,0Z" transform="rotate(15)" />
      <path d="M-8,0 C-10,-8 -8,-24 -5,-38 C-2,-46 0,-48 0,-48 C0,-48 2,-46 5,-38 C8,-24 10,-8 8,0 C4,-2 -4,-2 -8,0Z" transform="rotate(75)" />
      <path d="M-8,0 C-10,-8 -8,-24 -5,-38 C-2,-46 0,-48 0,-48 C0,-48 2,-46 5,-38 C8,-24 10,-8 8,0 C4,-2 -4,-2 -8,0Z" transform="rotate(135)" />
      <path d="M-8,0 C-10,-8 -8,-24 -5,-38 C-2,-46 0,-48 0,-48 C0,-48 2,-46 5,-38 C8,-24 10,-8 8,0 C4,-2 -4,-2 -8,0Z" transform="rotate(195)" />
      <path d="M-8,0 C-10,-8 -8,-24 -5,-38 C-2,-46 0,-48 0,-48 C0,-48 2,-46 5,-38 C8,-24 10,-8 8,0 C4,-2 -4,-2 -8,0Z" transform="rotate(255)" />
      <path d="M-8,0 C-10,-8 -8,-24 -5,-38 C-2,-46 0,-48 0,-48 C0,-48 2,-46 5,-38 C8,-24 10,-8 8,0 C4,-2 -4,-2 -8,0Z" transform="rotate(315)" />
    </g>
    <!-- Center -->
    <circle cx="100" cy="100" r="12" fill="black" opacity="1.0" />
    <circle cx="100" cy="100" r="6" fill="white" opacity="0.28" />
  </g>
</svg>
