<svg xmlns="http://www.w3.org/2000/svg" viewBox="0 0 200 200">
  <g fill="black">
    <!-- Gentian: Bell/trumpet shaped flower with 5 petals -->
    <!-- Layer 1: 5 outer bell petals -->
    <g transform="translate(100 100)" opacity="0.6">
      <path d="M-22,0 C-28,-15 -25,-45 -18,-65 C-10,-78 0,-82 0,-82 C0,-82 10,-78 18,-65 C25,-45 28,-15 22,0 C12,-5 -12,-5 -22,0Z" transform="rotate(0)" />
      <path d="M-22,0 C-28,-15 -25,-45 -18,-65 C-10,-78 0,-82 0,-82 C0,-82 10,-78 18,-65 C25,-45 28,-15 22,0 C12,-5 -12,-5 -22,0Z" transform="rotate(72)" />
      <path d="M-22,0 C-28,-15 -25,-45 -18,-65 C-10,-78 0,-82 0,-82 C0,-82 10,-78 18,-65 C25,-45 28,-15 22,0 C12,-5 -12,-5 -22,0Z" transform="rotate(144)" />
      <path d="M-22,0 C-28,-15 -25,-45 -18,-65 C-10,-78 0,-82 0,-82 C0,-82 10,-78 18,-65 C25,-45 28,-15 22,0 C12,-5 -12,-5 -22,0Z" transform="rotate(216)" />
      <path d="M-22,0 C-28,-15 -25,-45 -18,-65 C-10,-78 0,-82 0,-82 C0,-82 10,-78 18,-65 C25,-45 28,-15 22,0 C12,-5 -12,-5 -22,0Z" transform="rotate(288)" />
    </g>
    <!-- Layer 2: Inner bell shape (36° offset) -->
    <g transform="translate(100 100)" opacity="0.8">
      <path d="M-16,0 C-20,-12 -18,-35 -12,-52 C-6,-62 0,-65 0,-65 C0,-65 6,-62 12,-52 C18,-35 20,-12 16,0 C8,-3 -8,-3 -16,0Z" transform="rotate(36)" />
      <path d="M-16,0 C-20,-12 -18,-35 -12,-52 C-6,-62 0,-65 0,-65 C0,-65 6,-62 12,-52 C18,-35 20,-12 16,0 C8,-3 -8,-3 -16,0Z" transform="rotate(108)" />
      <path d="M-16,0 C-20,-12 -18,-35 -12,-52 C-6,-62 0,-65 0,-65 C0,-65 6,-62 12,-52 C18,-35 20,-12 16,0 C8,-3 -8,-3 -16,0Z" transform="rotate(180)" />
      <path d="M-16,0 C-20,-12 -18,-35 -12,-52 C-6,-62 0,-65 0,-65 C0,-65 6,-62 12,-52 C18,-35 20,-12 16,0 C8,-3 -8,-3 -16,0Z" transform="rotate(252)" />
      <path d="M-16,0 C-20,-12 -18,-35 -12,-52 C-6,-62 0,-65 0,-65 C0,-65 6,-62 12,-52 C18,-35 20,-12 16,0 C8,-3 -8,-3 -16,0Z" transform="rotate(324)" />
    </g>
    <!-- Layer 3: Inner core petals -->
    <g transform="translate(100 100)" opacity="0.92">
      <path d="M-10,0 C-12,-8 -10,-25 -6,-38 C-3,-44 0,-46 0,-46 C0,-46 3,-44 6,-38 C10,-25 12,-8 10,0 C5,-2 -5,-2 -10,0Z" transform="rotate(18)" />
      <path d="M-10,0 C-12,-8 -10,-25 -6,-38 C-3,-44 0,-46 0,-46 C0,-46 3,-44 6,-38 C10,-25 12,-8 10,0 C5,-2 -5,-2 -10,0Z" transform="rotate(90)" />
      <path d="M-10,0 C-12,-8 -10,-25 -6,-38 C-3,-44 0,-46 0,-46 C0,-46 3,-44 6,-38 C10,-25 12,-8 10,0 C5,-2 -5,-2 -10,0Z" transform="rotate(162)" />
      <path d="M-10,0 C-12,-8 -10,-25 -6,-38 C-3,-44 0,-46 0,-46 C0,-46 3,-44 6,-38 C10,-25 12,-8 10,0 C5,-2 -5,-2 -10,0Z" transform="rotate(234)" />
      <path d="M-10,0 C-12,-8 -10,-25 -6,-38 C-3,-44 0,-46 0,-46 C0,-46 3,-44 6,-38 C10,-25 12,-8 10,0 C5,-2 -5,-2 -10,0Z" transform="rotate(306)" />
    </g>
    <!-- Center -->
    <circle cx="100" cy="100" r="14" fill="black" opacity="1.0" />
    <circle cx="100" cy="100" r="7" fill="white" opacity="0.28" />
  </g>
</svg>
