<svg xmlns="http://www.w3.org/2000/svg" viewBox="0 0 200 200">
  <g fill="black">
    <!-- Immortelle: Papery, everlasting flower - round clusters -->
    <!-- Layer 1: Outer papery bracts -->
    <g transform="translate(100 100)" opacity="0.55">
      <path d="M-15,0 C-18,-12 -16,-35 -10,-52 C-5,-60 0,-62 0,-62 C0,-62 5,-60 10,-52 C16,-35 18,-12 15,0 C8,-3 -8,-3 -15,0Z" transform="rotate(0)" />
      <path d="M-15,0 C-18,-12 -16,-35 -10,-52 C-5,-60 0,-62 0,-62 C0,-62 5,-60 10,-52 C16,-35 18,-12 15,0 C8,-3 -8,-3 -15,0Z" transform="rotate(30)" />
      <path d="M-15,0 C-18,-12 -16,-35 -10,-52 C-5,-60 0,-62 0,-62 C0,-62 5,-60 10,-52 C16,-35 18,-12 15,0 C8,-3 -8,-3 -15,0Z" transform="rotate(60)" />
      <path d="M-15,0 C-18,-12 -16,-35 -10,-52 C-5,-60 0,-62 0,-62 C0,-62 5,-60 10,-52 C16,-35 18,-12 15,0 C8,-3 -8,-3 -15,0Z" transform="rotate(90)" />
      <path d="M-15,0 C-18,-12 -16,-35 -10,-52 C-5,-60 0,-62 0,-62 C0,-62 5,-60 10,-52 C16,-35 18,-12 15,0 C8,-3 -8,-3 -15,0Z" transform="rotate(120)" />
      <path d="M-15,0 C-18,-12 -16,-35 -10,-52 C-5,-60 0,-62 0,-62 C0,-62 5,-60 10,-52 C16,-35 18,-12 15,0 C8,-3 -8,-3 -15,0Z" transform="rotate(150)" />
      <path d="M-15,0 C-18,-12 -16,-35 -10,-52 C-5,-60 0,-62 0,-62 C0,-62 5,-60 10,-52 C16,-35 18,-12 15,0 C8,-3 -8,-3 -15,0Z" transform="rotate(180)" />
      <path d="M-15,0 C-18,-12 -16,-35 -10,-52 C-5,-60 0,-62 0,-62 C0,-62 5,-60 10,-52 C16,-35 18,-12 15,0 C8,-3 -8,-3 -15,0Z" transform="rotate(210)" />
      <path d="M-15,0 C-18,-12 -16,-35 -10,-52 C-5,-60 0,-62 0,-62 C0,-62 5,-60 10,-52 C16,-35 18,-12 15,0 C8,-3 -8,-3 -15,0Z" transform="rotate(240)" />
      <path d="M-15,0 C-18,-12 -16,-35 -10,-52 C-5,-60 0,-62 0,-62 C0,-62 5,-60 10,-52 C16,-35 18,-12 15,0 C8,-3 -8,-3 -15,0Z" transform="rotate(270)" />
      <path d="M-15,0 C-18,-12 -16,-35 -10,-52 C-5,-60 0,-62 0,-62 C0,-62 5,-60 10,-52 C16,-35 18,-12 15,0 C8,-3 -8,-3 -15,0Z" transform="rotate(300)" />
      <path d="M-15,0 C-18,-12 -16,-35 -10,-52 C-5,-60 0,-62 0,-62 C0,-62 5,-60 10,-52 C16,-35 18,-12 15,0 C8,-3 -8,-3 -15,0Z" transform="rotate(330)" />
    </g>
    <!-- Layer 2: Inner bracts -->
    <g transform="translate(100 100)" opacity="0.78">
      <path d="M-12,0 C-14,-10 -12,-28 -7,-40 C-3,-46 0,-48 0,-48 C0,-48 3,-46 7,-40 C12,-28 14,-10 12,0 C6,-2 -6,-2 -12,0Z" transform="rotate(15)" />
      <path d="M-12,0 C-14,-10 -12,-28 -7,-40 C-3,-46 0,-48 0,-48 C0,-48 3,-46 7,-40 C12,-28 14,-10 12,0 C6,-2 -6,-2 -12,0Z" transform="rotate(55)" />
      <path d="M-12,0 C-14,-10 -12,-28 -7,-40 C-3,-46 0,-48 0,-48 C0,-48 3,-46 7,-40 C12,-28 14,-10 12,0 C6,-2 -6,-2 -12,0Z" transform="rotate(95)" />
      <path d="M-12,0 C-14,-10 -12,-28 -7,-40 C-3,-46 0,-48 0,-48 C0,-48 3,-46 7,-40 C12,-28 14,-10 12,0 C6,-2 -6,-2 -12,0Z" transform="rotate(135)" />
      <path d="M-12,0 C-14,-10 -12,-28 -7,-40 C-3,-46 0,-48 0,-48 C0,-48 3,-46 7,-40 C12,-28 14,-10 12,0 C6,-2 -6,-2 -12,0Z" transform="rotate(175)" />
      <path d="M-12,0 C-14,-10 -12,-28 -7,-40 C-3,-46 0,-48 0,-48 C0,-48 3,-46 7,-40 C12,-28 14,-10 12,0 C6,-2 -6,-2 -12,0Z" transform="rotate(215)" />
      <path d="M-12,0 C-14,-10 -12,-28 -7,-40 C-3,-46 0,-48 0,-48 C0,-48 3,-46 7,-40 C12,-28 14,-10 12,0 C6,-2 -6,-2 -12,0Z" transform="rotate(255)" />
      <path d="M-12,0 C-14,-10 -12,-28 -7,-40 C-3,-46 0,-48 0,-48 C0,-48 3,-46 7,-40 C12,-28 14,-10 12,0 C6,-2 -6,-2 -12,0Z" transform="rotate(295)" />
      <path d="M-12,0 C-14,-10 -12,-28 -7,-40 C-3,-46 0,-48 0,-48 C0,-48 3,-46 7,-40 C12,-28 14,-10 12,0 C6,-2 -6,-2 -12,0Z" transform="rotate(335)" />
    </g>
    <!-- Layer 3: Innermost bracts -->
    <g transform="translate(100 100)" opacity="0.92">
      <path d="M-8,0 C-10,-7 -8,-20 -5,-28 C-2,-32 0,-34 0,-34 C0,-34 2,-32 5,-28 C8,-20 10,-7 8,0 C4,-1 -4,-1 -8,0Z" transform="rotate(5)" />
      <path d="M-8,0 C-10,-7 -8,-20 -5,-28 C-2,-32 0,-34 0,-34 C0,-34 2,-32 5,-28 C8,-20 10,-7 8,0 C4,-1 -4,-1 -8,0Z" transform="rotate(65)" />
      <path d="M-8,0 C-10,-7 -8,-20 -5,-28 C-2,-32 0,-34 0,-34 C0,-34 2,-32 5,-28 C8,-20 10,-7 8,0 C4,-1 -4,-1 -8,0Z" transform="rotate(125)" />
      <path d="M-8,0 C-10,-7 -8,-20 -5,-28 C-2,-32 0,-34 0,-34 C0,-34 2,-32 5,-28 C8,-20 10,-7 8,0 C4,-1 -4,-1 -8,0Z" transform="rotate(185)" />
      <path d="M-8,0 C-10,-7 -8,-20 -5,-28 C-2,-32 0,-34 0,-34 C0,-34 2,-32 5,-28 C8,-20 10,-7 8,0 C4,-1 -4,-1 -8,0Z" transform="rotate(245)" />
      <path d="M-8,0 C-10,-7 -8,-20 -5,-28 C-2,-32 0,-34 0,-34 C0,-34 2,-32 5,-28 C8,-20 10,-7 8,0 C4,-1 -4,-1 -8,0Z" transform="rotate(305)" />
    </g>
    <!-- Center dome -->
    <circle cx="100" cy="100" r="18" fill="black" opacity="1.0" />
    <circle cx="100" cy="100" r="9" fill="white" opacity="0.25" />
  </g>
</svg>
