<svg xmlns="http://www.w3.org/2000/svg" viewBox="0 0 200 200">
  <g fill="black">
    <!-- Short stem below spike -->
    <path fill="black" opacity="0.88"
      d="M98,175 L98,116 L102,116 L102,175Z" />

    <!-- Main flower spike body: thin narrow oval -->
    <path fill="black" opacity="0.68"
      d="M100,118 C95,118 88,105 88,82 C88,59 94,44 100,40 C106,44 112,59 112,82 C112,105 105,118 100,118Z" />

    <!-- Left edge bumps: 14 levels, 5px spacing -->
    <circle cx="86" cy="113" r="3.5" fill="black" opacity="0.75" />
    <circle cx="86" cy="108" r="3.5" fill="black" opacity="0.77" />
    <circle cx="86" cy="103" r="3.5" fill="black" opacity="0.79" />
    <circle cx="86" cy="98"  r="3.5" fill="black" opacity="0.81" />
    <circle cx="86" cy="93"  r="3"   fill="black" opacity="0.83" />
    <circle cx="86" cy="88"  r="3"   fill="black" opacity="0.85" />
    <circle cx="86" cy="83"  r="3"   fill="black" opacity="0.87" />
    <circle cx="87" cy="78"  r="2.5" fill="black" opacity="0.88" />
    <circle cx="87" cy="73"  r="2.5" fill="black" opacity="0.89" />
    <circle cx="88" cy="68"  r="2.5" fill="black" opacity="0.90" />
    <circle cx="88" cy="63"  r="2"   fill="black" opacity="0.91" />
    <circle cx="89" cy="58"  r="2"   fill="black" opacity="0.92" />
    <circle cx="90" cy="53"  r="1.5" fill="black" opacity="0.93" />
    <circle cx="91" cy="48"  r="1.5" fill="black" opacity="0.94" />
    <!-- Right edge bumps: 14 levels -->
    <circle cx="114" cy="113" r="3.5" fill="black" opacity="0.75" />
    <circle cx="114" cy="108" r="3.5" fill="black" opacity="0.77" />
    <circle cx="114" cy="103" r="3.5" fill="black" opacity="0.79" />
    <circle cx="114" cy="98"  r="3.5" fill="black" opacity="0.81" />
    <circle cx="114" cy="93"  r="3"   fill="black" opacity="0.83" />
    <circle cx="114" cy="88"  r="3"   fill="black" opacity="0.85" />
    <circle cx="114" cy="83"  r="3"   fill="black" opacity="0.87" />
    <circle cx="113" cy="78"  r="2.5" fill="black" opacity="0.88" />
    <circle cx="113" cy="73"  r="2.5" fill="black" opacity="0.89" />
    <circle cx="112" cy="68"  r="2.5" fill="black" opacity="0.90" />
    <circle cx="112" cy="63"  r="2"   fill="black" opacity="0.91" />
    <circle cx="111" cy="58"  r="2"   fill="black" opacity="0.92" />
    <circle cx="110" cy="53"  r="1.5" fill="black" opacity="0.93" />
    <circle cx="109" cy="48"  r="1.5" fill="black" opacity="0.94" />

    <!-- Pointed tip -->
    <path fill="black" opacity="0.96"
      d="M98,46 L100,38 L102,46Z" />
  </g>
</svg>
