<svg xmlns="http://www.w3.org/2000/svg" viewBox="0 0 200 200">
  <g fill="black">
    <!-- Background silhouette: cone/panicle shape -->
    <path fill="black" opacity="0.22"
      d="M100,158 C72,158 48,140 44,112 C38,82 54,52 72,38 C82,30 100,26 100,26 C100,26 118,30 128,38 C146,52 162,82 156,112 C152,140 128,158 100,158Z" />

    <!-- 4-petaled flower path used throughout:
         M0,-8 C1,-1 1,-1 8,0 C1,1 1,1 0,8 C-1,1 -1,1 -8,0 C-1,-1 -1,-1 0,-8Z
         Placed at each position via transform="translate(cx cy)" -->

    <!-- Row 1 (y=36) — 1 flower -->
    <path fill="black" opacity="0.92" d="M0,-8 C1,-1 1,-1 8,0 C1,1 1,1 0,8 C-1,1 -1,1 -8,0 C-1,-1 -1,-1 0,-8Z" transform="translate(100 36)" />

    <!-- Row 2 (y=50) — 2 flowers -->
    <path fill="black" opacity="0.90" d="M0,-8 C1,-1 1,-1 8,0 C1,1 1,1 0,8 C-1,1 -1,1 -8,0 C-1,-1 -1,-1 0,-8Z" transform="translate(90 50)" />
    <path fill="black" opacity="0.90" d="M0,-8 C1,-1 1,-1 8,0 C1,1 1,1 0,8 C-1,1 -1,1 -8,0 C-1,-1 -1,-1 0,-8Z" transform="translate(111 50)" />

    <!-- Row 3 (y=64) — 3 flowers -->
    <path fill="black" opacity="0.87" d="M0,-8 C1,-1 1,-1 8,0 C1,1 1,1 0,8 C-1,1 -1,1 -8,0 C-1,-1 -1,-1 0,-8Z" transform="translate(82 64)" />
    <path fill="black" opacity="0.87" d="M0,-8 C1,-1 1,-1 8,0 C1,1 1,1 0,8 C-1,1 -1,1 -8,0 C-1,-1 -1,-1 0,-8Z" transform="translate(100 64)" />
    <path fill="black" opacity="0.87" d="M0,-8 C1,-1 1,-1 8,0 C1,1 1,1 0,8 C-1,1 -1,1 -8,0 C-1,-1 -1,-1 0,-8Z" transform="translate(118 64)" />

    <!-- Row 4 (y=78) — 4 flowers -->
    <path fill="black" opacity="0.84" d="M0,-8 C1,-1 1,-1 8,0 C1,1 1,1 0,8 C-1,1 -1,1 -8,0 C-1,-1 -1,-1 0,-8Z" transform="translate(75 78)" />
    <path fill="black" opacity="0.84" d="M0,-8 C1,-1 1,-1 8,0 C1,1 1,1 0,8 C-1,1 -1,1 -8,0 C-1,-1 -1,-1 0,-8Z" transform="translate(92 78)" />
    <path fill="black" opacity="0.84" d="M0,-8 C1,-1 1,-1 8,0 C1,1 1,1 0,8 C-1,1 -1,1 -8,0 C-1,-1 -1,-1 0,-8Z" transform="translate(109 78)" />
    <path fill="black" opacity="0.84" d="M0,-8 C1,-1 1,-1 8,0 C1,1 1,1 0,8 C-1,1 -1,1 -8,0 C-1,-1 -1,-1 0,-8Z" transform="translate(125 78)" />

    <!-- Row 5 (y=93) — 5 flowers -->
    <path fill="black" opacity="0.81" d="M0,-8 C1,-1 1,-1 8,0 C1,1 1,1 0,8 C-1,1 -1,1 -8,0 C-1,-1 -1,-1 0,-8Z" transform="translate(69 93)" />
    <path fill="black" opacity="0.81" d="M0,-8 C1,-1 1,-1 8,0 C1,1 1,1 0,8 C-1,1 -1,1 -8,0 C-1,-1 -1,-1 0,-8Z" transform="translate(85 93)" />
    <path fill="black" opacity="0.81" d="M0,-8 C1,-1 1,-1 8,0 C1,1 1,1 0,8 C-1,1 -1,1 -8,0 C-1,-1 -1,-1 0,-8Z" transform="translate(100 93)" />
    <path fill="black" opacity="0.81" d="M0,-8 C1,-1 1,-1 8,0 C1,1 1,1 0,8 C-1,1 -1,1 -8,0 C-1,-1 -1,-1 0,-8Z" transform="translate(115 93)" />
    <path fill="black" opacity="0.81" d="M0,-8 C1,-1 1,-1 8,0 C1,1 1,1 0,8 C-1,1 -1,1 -8,0 C-1,-1 -1,-1 0,-8Z" transform="translate(131 93)" />

    <!-- Row 6 (y=108) — 6 flowers -->
    <path fill="black" opacity="0.77" d="M0,-8 C1,-1 1,-1 8,0 C1,1 1,1 0,8 C-1,1 -1,1 -8,0 C-1,-1 -1,-1 0,-8Z" transform="translate(64 108)" />
    <path fill="black" opacity="0.77" d="M0,-8 C1,-1 1,-1 8,0 C1,1 1,1 0,8 C-1,1 -1,1 -8,0 C-1,-1 -1,-1 0,-8Z" transform="translate(79 108)" />
    <path fill="black" opacity="0.77" d="M0,-8 C1,-1 1,-1 8,0 C1,1 1,1 0,8 C-1,1 -1,1 -8,0 C-1,-1 -1,-1 0,-8Z" transform="translate(93 108)" />
    <path fill="black" opacity="0.77" d="M0,-8 C1,-1 1,-1 8,0 C1,1 1,1 0,8 C-1,1 -1,1 -8,0 C-1,-1 -1,-1 0,-8Z" transform="translate(107 108)" />
    <path fill="black" opacity="0.77" d="M0,-8 C1,-1 1,-1 8,0 C1,1 1,1 0,8 C-1,1 -1,1 -8,0 C-1,-1 -1,-1 0,-8Z" transform="translate(121 108)" />
    <path fill="black" opacity="0.77" d="M0,-8 C1,-1 1,-1 8,0 C1,1 1,1 0,8 C-1,1 -1,1 -8,0 C-1,-1 -1,-1 0,-8Z" transform="translate(136 108)" />

    <!-- Row 7 (y=123) — 7 flowers -->
    <path fill="black" opacity="0.73" d="M0,-8 C1,-1 1,-1 8,0 C1,1 1,1 0,8 C-1,1 -1,1 -8,0 C-1,-1 -1,-1 0,-8Z" transform="translate(60 123)" />
    <path fill="black" opacity="0.73" d="M0,-8 C1,-1 1,-1 8,0 C1,1 1,1 0,8 C-1,1 -1,1 -8,0 C-1,-1 -1,-1 0,-8Z" transform="translate(74 123)" />
    <path fill="black" opacity="0.73" d="M0,-8 C1,-1 1,-1 8,0 C1,1 1,1 0,8 C-1,1 -1,1 -8,0 C-1,-1 -1,-1 0,-8Z" transform="translate(87 123)" />
    <path fill="black" opacity="0.73" d="M0,-8 C1,-1 1,-1 8,0 C1,1 1,1 0,8 C-1,1 -1,1 -8,0 C-1,-1 -1,-1 0,-8Z" transform="translate(100 123)" />
    <path fill="black" opacity="0.73" d="M0,-8 C1,-1 1,-1 8,0 C1,1 1,1 0,8 C-1,1 -1,1 -8,0 C-1,-1 -1,-1 0,-8Z" transform="translate(113 123)" />
    <path fill="black" opacity="0.73" d="M0,-8 C1,-1 1,-1 8,0 C1,1 1,1 0,8 C-1,1 -1,1 -8,0 C-1,-1 -1,-1 0,-8Z" transform="translate(127 123)" />
    <path fill="black" opacity="0.73" d="M0,-8 C1,-1 1,-1 8,0 C1,1 1,1 0,8 C-1,1 -1,1 -8,0 C-1,-1 -1,-1 0,-8Z" transform="translate(141 123)" />

    <!-- Row 8 (y=138) — 8 flowers -->
    <path fill="black" opacity="0.68" d="M0,-8 C1,-1 1,-1 8,0 C1,1 1,1 0,8 C-1,1 -1,1 -8,0 C-1,-1 -1,-1 0,-8Z" transform="translate(58 138)" />
    <path fill="black" opacity="0.68" d="M0,-8 C1,-1 1,-1 8,0 C1,1 1,1 0,8 C-1,1 -1,1 -8,0 C-1,-1 -1,-1 0,-8Z" transform="translate(71 138)" />
    <path fill="black" opacity="0.68" d="M0,-8 C1,-1 1,-1 8,0 C1,1 1,1 0,8 C-1,1 -1,1 -8,0 C-1,-1 -1,-1 0,-8Z" transform="translate(84 138)" />
    <path fill="black" opacity="0.68" d="M0,-8 C1,-1 1,-1 8,0 C1,1 1,1 0,8 C-1,1 -1,1 -8,0 C-1,-1 -1,-1 0,-8Z" transform="translate(97 138)" />
    <path fill="black" opacity="0.68" d="M0,-8 C1,-1 1,-1 8,0 C1,1 1,1 0,8 C-1,1 -1,1 -8,0 C-1,-1 -1,-1 0,-8Z" transform="translate(110 138)" />
    <path fill="black" opacity="0.68" d="M0,-8 C1,-1 1,-1 8,0 C1,1 1,1 0,8 C-1,1 -1,1 -8,0 C-1,-1 -1,-1 0,-8Z" transform="translate(123 138)" />
    <path fill="black" opacity="0.68" d="M0,-8 C1,-1 1,-1 8,0 C1,1 1,1 0,8 C-1,1 -1,1 -8,0 C-1,-1 -1,-1 0,-8Z" transform="translate(136 138)" />
    <path fill="black" opacity="0.68" d="M0,-8 C1,-1 1,-1 8,0 C1,1 1,1 0,8 C-1,1 -1,1 -8,0 C-1,-1 -1,-1 0,-8Z" transform="translate(148 138)" />
  </g>
</svg>
