<svg xmlns="http://www.w3.org/2000/svg" viewBox="0 0 200 200">
  <g fill="black">
    <!-- Layer 1: 5 outer ruffled petals (72° intervals) - wavy cup-like shape -->
    <g transform="translate(100 100)" opacity="0.58">
      <path d="M-28,0 C-32,-12 -28,-40 -20,-58 C-12,-72 -4,-78 0,-80 C4,-78 12,-72 20,-58 C28,-40 32,-12 28,0 C20,-4 10,-6 0,-6 C-10,-6 -20,-4 -28,0Z" transform="rotate(0)" />
      <path d="M-28,0 C-32,-12 -28,-40 -20,-58 C-12,-72 -4,-78 0,-80 C4,-78 12,-72 20,-58 C28,-40 32,-12 28,0 C20,-4 10,-6 0,-6 C-10,-6 -20,-4 -28,0Z" transform="rotate(72)" />
      <path d="M-28,0 C-32,-12 -28,-40 -20,-58 C-12,-72 -4,-78 0,-80 C4,-78 12,-72 20,-58 C28,-40 32,-12 28,0 C20,-4 10,-6 0,-6 C-10,-6 -20,-4 -28,0Z" transform="rotate(144)" />
      <path d="M-28,0 C-32,-12 -28,-40 -20,-58 C-12,-72 -4,-78 0,-80 C4,-78 12,-72 20,-58 C28,-40 32,-12 28,0 C20,-4 10,-6 0,-6 C-10,-6 -20,-4 -28,0Z" transform="rotate(216)" />
      <path d="M-28,0 C-32,-12 -28,-40 -20,-58 C-12,-72 -4,-78 0,-80 C4,-78 12,-72 20,-58 C28,-40 32,-12 28,0 C20,-4 10,-6 0,-6 C-10,-6 -20,-4 -28,0Z" transform="rotate(288)" />
    </g>
    <!-- Layer 2: 5 middle petals (72° intervals, offset 36°) -->
    <g transform="translate(100 100)" opacity="0.72">
      <path d="M-22,0 C-26,-10 -22,-32 -14,-48 C-8,-58 -2,-62 0,-64 C2,-62 8,-58 14,-48 C22,-32 26,-10 22,0 C14,-3 7,-5 0,-5 C-7,-5 -14,-3 -22,0Z" transform="rotate(36)" />
      <path d="M-22,0 C-26,-10 -22,-32 -14,-48 C-8,-58 -2,-62 0,-64 C2,-62 8,-58 14,-48 C22,-32 26,-10 22,0 C14,-3 7,-5 0,-5 C-7,-5 -14,-3 -22,0Z" transform="rotate(108)" />
      <path d="M-22,0 C-26,-10 -22,-32 -14,-48 C-8,-58 -2,-62 0,-64 C2,-62 8,-58 14,-48 C22,-32 26,-10 22,0 C14,-3 7,-5 0,-5 C-7,-5 -14,-3 -22,0Z" transform="rotate(180)" />
      <path d="M-22,0 C-26,-10 -22,-32 -14,-48 C-8,-58 -2,-62 0,-64 C2,-62 8,-58 14,-48 C22,-32 26,-10 22,0 C14,-3 7,-5 0,-5 C-7,-5 -14,-3 -22,0Z" transform="rotate(252)" />
      <path d="M-22,0 C-26,-10 -22,-32 -14,-48 C-8,-58 -2,-62 0,-64 C2,-62 8,-58 14,-48 C22,-32 26,-10 22,0 C14,-3 7,-5 0,-5 C-7,-5 -14,-3 -22,0Z" transform="rotate(324)" />
    </g>
    <!-- Layer 3: 6 inner petals (60° intervals, offset 15°) -->
    <g transform="translate(100 100)" opacity="0.85">
      <path d="M-16,0 C-18,-8 -15,-24 -10,-36 C-5,-44 -1,-47 0,-48 C1,-47 5,-44 10,-36 C15,-24 18,-8 16,0 C10,-2 5,-3 0,-3 C-5,-3 -10,-2 -16,0Z" transform="rotate(15)" />
      <path d="M-16,0 C-18,-8 -15,-24 -10,-36 C-5,-44 -1,-47 0,-48 C1,-47 5,-44 10,-36 C15,-24 18,-8 16,0 C10,-2 5,-3 0,-3 C-5,-3 -10,-2 -16,0Z" transform="rotate(75)" />
      <path d="M-16,0 C-18,-8 -15,-24 -10,-36 C-5,-44 -1,-47 0,-48 C1,-47 5,-44 10,-36 C15,-24 18,-8 16,0 C10,-2 5,-3 0,-3 C-5,-3 -10,-2 -16,0Z" transform="rotate(135)" />
      <path d="M-16,0 C-18,-8 -15,-24 -10,-36 C-5,-44 -1,-47 0,-48 C1,-47 5,-44 10,-36 C15,-24 18,-8 16,0 C10,-2 5,-3 0,-3 C-5,-3 -10,-2 -16,0Z" transform="rotate(195)" />
      <path d="M-16,0 C-18,-8 -15,-24 -10,-36 C-5,-44 -1,-47 0,-48 C1,-47 5,-44 10,-36 C15,-24 18,-8 16,0 C10,-2 5,-3 0,-3 C-5,-3 -10,-2 -16,0Z" transform="rotate(255)" />
      <path d="M-16,0 C-18,-8 -15,-24 -10,-36 C-5,-44 -1,-47 0,-48 C1,-47 5,-44 10,-36 C15,-24 18,-8 16,0 C10,-2 5,-3 0,-3 C-5,-3 -10,-2 -16,0Z" transform="rotate(315)" />
    </g>
    <!-- Layer 4: 5 innermost petals (72° intervals, offset 8°) -->
    <g transform="translate(100 100)" opacity="0.95">
      <path d="M-10,0 C-12,-5 -10,-16 -6,-24 C-3,-28 -1,-30 0,-31 C1,-30 3,-28 6,-24 C10,-16 12,-5 10,0 C6,-1 3,-2 0,-2 C-3,-2 -6,-1 -10,0Z" transform="rotate(8)" />
      <path d="M-10,0 C-12,-5 -10,-16 -6,-24 C-3,-28 -1,-30 0,-31 C1,-30 3,-28 6,-24 C10,-16 12,-5 10,0 C6,-1 3,-2 0,-2 C-3,-2 -6,-1 -10,0Z" transform="rotate(80)" />
      <path d="M-10,0 C-12,-5 -10,-16 -6,-24 C-3,-28 -1,-30 0,-31 C1,-30 3,-28 6,-24 C10,-16 12,-5 10,0 C6,-1 3,-2 0,-2 C-3,-2 -6,-1 -10,0Z" transform="rotate(152)" />
      <path d="M-10,0 C-12,-5 -10,-16 -6,-24 C-3,-28 -1,-30 0,-31 C1,-30 3,-28 6,-24 C10,-16 12,-5 10,0 C6,-1 3,-2 0,-2 C-3,-2 -6,-1 -10,0Z" transform="rotate(224)" />
      <path d="M-10,0 C-12,-5 -10,-16 -6,-24 C-3,-28 -1,-30 0,-31 C1,-30 3,-28 6,-24 C10,-16 12,-5 10,0 C6,-1 3,-2 0,-2 C-3,-2 -6,-1 -10,0Z" transform="rotate(296)" />
    </g>
    <!-- Center -->
    <circle cx="100" cy="100" r="12" fill="black" opacity="1.0" />
    <circle cx="100" cy="100" r="6" fill="white" opacity="0.3" />
  </g>
</svg>
