<svg xmlns="http://www.w3.org/2000/svg" viewBox="0 0 512 512">
  <!-- Removed background rect for transparency -->
  <g fill="black" stroke="black" stroke-width="10" stroke-linejoin="round" stroke-linecap="round">
    <!-- Outer petals ring (Semi-transparent) -->
    <g transform="translate(256 256)" opacity="0.6">
      <g>
        <path d="M0-210 C40-210 86-175 86-130 C86-95 52-70 0-70 C-52-70 -86-95 -86-130 C-86-175 -40-210 0-210Z" transform="rotate(0)"/>
        <path d="M0-210 C40-210 86-175 86-130 C86-95 52-70 0-70 C-52-70 -86-95 -86-130 C-86-175 -40-210 0-210Z" transform="rotate(22.5)"/>
        <path d="M0-210 C40-210 86-175 86-130 C86-95 52-70 0-70 C-52-70 -86-95 -86-130 C-86-175 -40-210 0-210Z" transform="rotate(45)"/>
        <path d="M0-210 C40-210 86-175 86-130 C86-95 52-70 0-70 C-52-70 -86-95 -86-130 C-86-175 -40-210 0-210Z" transform="rotate(67.5)"/>
        <path d="M0-210 C40-210 86-175 86-130 C86-95 52-70 0-70 C-52-70 -86-95 -86-130 C-86-175 -40-210 0-210Z" transform="rotate(90)"/>
        <path d="M0-210 C40-210 86-175 86-130 C86-95 52-70 0-70 C-52-70 -86-95 -86-130 C-86-175 -40-210 0-210Z" transform="rotate(112.5)"/>
        <path d="M0-210 C40-210 86-175 86-130 C86-95 52-70 0-70 C-52-70 -86-95 -86-130 C-86-175 -40-210 0-210Z" transform="rotate(135)"/>
        <path d="M0-210 C40-210 86-175 86-130 C86-95 52-70 0-70 C-52-70 -86-95 -86-130 C-86-175 -40-210 0-210Z" transform="rotate(157.5)"/>
        <path d="M0-210 C40-210 86-175 86-130 C86-95 52-70 0-70 C-52-70 -86-95 -86-130 C-86-175 -40-210 0-210Z" transform="rotate(180)"/>
        <path d="M0-210 C40-210 86-175 86-130 C86-95 52-70 0-70 C-52-70 -86-95 -86-130 C-86-175 -40-210 0-210Z" transform="rotate(202.5)"/>
        <path d="M0-210 C40-210 86-175 86-130 C86-95 52-70 0-70 C-52-70 -86-95 -86-130 C-86-175 -40-210 0-210Z" transform="rotate(225)"/>
        <path d="M0-210 C40-210 86-175 86-130 C86-95 52-70 0-70 C-52-70 -86-95 -86-130 C-86-175 -40-210 0-210Z" transform="rotate(247.5)"/>
        <path d="M0-210 C40-210 86-175 86-130 C86-95 52-70 0-70 C-52-70 -86-95 -86-130 C-86-175 -40-210 0-210Z" transform="rotate(270)"/>
        <path d="M0-210 C40-210 86-175 86-130 C86-95 52-70 0-70 C-52-70 -86-95 -86-130 C-86-175 -40-210 0-210Z" transform="rotate(292.5)"/>
        <path d="M0-210 C40-210 86-175 86-130 C86-95 52-70 0-70 C-52-70 -86-95 -86-130 C-86-175 -40-210 0-210Z" transform="rotate(315)"/>
        <path d="M0-210 C40-210 86-175 86-130 C86-95 52-70 0-70 C-52-70 -86-95 -86-130 C-86-175 -40-210 0-210Z" transform="rotate(337.5)"/>
      </g>
      <!-- Middle petals ring (More opaque) -->
      <g transform="scale(0.78)" opacity="0.8">
        <path d="M0-185 C34-185 74-155 74-118 C74-88 45-65 0-65 C-45-65 -74-88 -74-118 C-74-155 -34-185 0-185Z" transform="rotate(0)"/>
        <path d="M0-185 C34-185 74-155 74-118 C74-88 45-65 0-65 C-45-65 -74-88 -74-118 C-74-155 -34-185 0-185Z" transform="rotate(30)"/>
        <path d="M0-185 C34-185 74-155 74-118 C74-88 45-65 0-65 C-45-65 -74-88 -74-118 C-74-155 -34-185 0-185Z" transform="rotate(60)"/>
        <path d="M0-185 C34-185 74-155 74-118 C74-88 45-65 0-65 C-45-65 -74-88 -74-118 C-74-155 -34-185 0-185Z" transform="rotate(90)"/>
        <path d="M0-185 C34-185 74-155 74-118 C74-88 45-65 0-65 C-45-65 -74-88 -74-118 C-74-155 -34-185 0-185Z" transform="rotate(120)"/>
        <path d="M0-185 C34-185 74-155 74-118 C74-88 45-65 0-65 C-45-65 -74-88 -74-118 C-74-155 -34-185 0-185Z" transform="rotate(150)"/>
        <path d="M0-185 C34-185 74-155 74-118 C74-88 45-65 0-65 C-45-65 -74-88 -74-118 C-74-155 -34-185 0-185Z" transform="rotate(180)"/>
        <path d="M0-185 C34-185 74-155 74-118 C74-88 45-65 0-65 C-45-65 -74-88 -74-118 C-74-155 -34-185 0-185Z" transform="rotate(210)"/>
        <path d="M0-185 C34-185 74-155 74-118 C74-88 45-65 0-65 C-45-65 -74-88 -74-118 C-74-155 -34-185 0-185Z" transform="rotate(240)"/>
        <path d="M0-185 C34-185 74-155 74-118 C74-88 45-65 0-65 C-45-65 -74-88 -74-118 C-74-155 -34-185 0-185Z" transform="rotate(270)"/>
        <path d="M0-185 C34-185 74-155 74-118 C74-88 45-65 0-65 C-45-65 -74-88 -74-118 C-74-155 -34-185 0-185Z" transform="rotate(300)"/>
        <path d="M0-185 C34-185 74-155 74-118 C74-88 45-65 0-65 C-45-65 -74-88 -74-118 C-74-155 -34-185 0-185Z" transform="rotate(330)"/>
      </g>
      <!-- Inner petals ring (Full opacity) -->
      <g transform="scale(0.56)" opacity="1.0">
        <path d="M0-170 C28-170 58-146 58-112 C58-85 38-62 0-62 C-38-62 -58-85 -58-112 C-58-146 -28-170 0-170Z" transform="rotate(0)"/>
        <path d="M0-170 C28-170 58-146 58-112 C58-85 38-62 0-62 C-38-62 -58-85 -58-112 C-58-146 -28-170 0-170Z" transform="rotate(45)"/>
        <path d="M0-170 C28-170 58-146 58-112 C58-85 38-62 0-62 C-38-62 -58-85 -58-112 C-58-146 -28-170 0-170Z" transform="rotate(90)"/>
        <path d="M0-170 C28-170 58-146 58-112 C58-85 38-62 0-62 C-38-62 -58-85 -58-112 C-58-146 -28-170 0-170Z" transform="rotate(135)"/>
        <path d="M0-170 C28-170 58-146 58-112 C58-85 38-62 0-62 C-38-62 -58-85 -58-112 C-58-146 -28-170 0-170Z" transform="rotate(180)"/>
        <path d="M0-170 C28-170 58-146 58-112 C58-85 38-62 0-62 C-38-62 -58-85 -58-112 C-58-146 -28-170 0-170Z" transform="rotate(225)"/>
        <path d="M0-170 C28-170 58-146 58-112 C58-85 38-62 0-62 C-38-62 -58-85 -58-112 C-58-146 -28-170 0-170Z" transform="rotate(270)"/>
        <path d="M0-170 C28-170 58-146 58-112 C58-85 38-62 0-62 C-38-62 -58-85 -58-112 C-58-146 -28-170 0-170Z" transform="rotate(315)"/>
      </g>
      <!-- Center (Highlights) -->
      <circle r="54" opacity="0.4"/>
    </g>
  </g>
</svg>
