<svg xmlns="http://www.w3.org/2000/svg" viewBox="0 0 200 200">
  <g fill="black">
    <!-- Layer 1: Outer thin petals (16 petals) -->
    <g transform="translate(100 100)" opacity="0.58">
      <path d="M-5,0 C-6,-20 -5,-50 -3,-70 C0,-75 0,-75 3,-70 C5,-50 6,-20 5,0Z" transform="rotate(0)" />
      <path d="M-5,0 C-6,-20 -5,-50 -3,-70 C0,-75 0,-75 3,-70 C5,-50 6,-20 5,0Z" transform="rotate(22.5)" />
      <path d="M-5,0 C-6,-20 -5,-50 -3,-70 C0,-75 0,-75 3,-70 C5,-50 6,-20 5,0Z" transform="rotate(45)" />
      <path d="M-5,0 C-6,-20 -5,-50 -3,-70 C0,-75 0,-75 3,-70 C5,-50 6,-20 5,0Z" transform="rotate(67.5)" />
      <path d="M-5,0 C-6,-20 -5,-50 -3,-70 C0,-75 0,-75 3,-70 C5,-50 6,-20 5,0Z" transform="rotate(90)" />
      <path d="M-5,0 C-6,-20 -5,-50 -3,-70 C0,-75 0,-75 3,-70 C5,-50 6,-20 5,0Z" transform="rotate(112.5)" />
      <path d="M-5,0 C-6,-20 -5,-50 -3,-70 C0,-75 0,-75 3,-70 C5,-50 6,-20 5,0Z" transform="rotate(135)" />
      <path d="M-5,0 C-6,-20 -5,-50 -3,-70 C0,-75 0,-75 3,-70 C5,-50 6,-20 5,0Z" transform="rotate(157.5)" />
      <path d="M-5,0 C-6,-20 -5,-50 -3,-70 C0,-75 0,-75 3,-70 C5,-50 6,-20 5,0Z" transform="rotate(180)" />
      <path d="M-5,0 C-6,-20 -5,-50 -3,-70 C0,-75 0,-75 3,-70 C5,-50 6,-20 5,0Z" transform="rotate(202.5)" />
      <path d="M-5,0 C-6,-20 -5,-50 -3,-70 C0,-75 0,-75 3,-70 C5,-50 6,-20 5,0Z" transform="rotate(225)" />
      <path d="M-5,0 C-6,-20 -5,-50 -3,-70 C0,-75 0,-75 3,-70 C5,-50 6,-20 5,0Z" transform="rotate(247.5)" />
      <path d="M-5,0 C-6,-20 -5,-50 -3,-70 C0,-75 0,-75 3,-70 C5,-50 6,-20 5,0Z" transform="rotate(270)" />
      <path d="M-5,0 C-6,-20 -5,-50 -3,-70 C0,-75 0,-75 3,-70 C5,-50 6,-20 5,0Z" transform="rotate(292.5)" />
      <path d="M-5,0 C-6,-20 -5,-50 -3,-70 C0,-75 0,-75 3,-70 C5,-50 6,-20 5,0Z" transform="rotate(315)" />
      <path d="M-5,0 C-6,-20 -5,-50 -3,-70 C0,-75 0,-75 3,-70 C5,-50 6,-20 5,0Z" transform="rotate(337.5)" />
    </g>
    <!-- Layer 2: Middle petals (12 petals, offset) -->
    <g transform="translate(100 100)" opacity="0.78">
      <path d="M-5,0 C-6,-15 -5,-35 -3,-50 C0,-54 0,-54 3,-50 C5,-35 6,-15 5,0Z" transform="rotate(11)" />
      <path d="M-5,0 C-6,-15 -5,-35 -3,-50 C0,-54 0,-54 3,-50 C5,-35 6,-15 5,0Z" transform="rotate(41)" />
      <path d="M-5,0 C-6,-15 -5,-35 -3,-50 C0,-54 0,-54 3,-50 C5,-35 6,-15 5,0Z" transform="rotate(71)" />
      <path d="M-5,0 C-6,-15 -5,-35 -3,-50 C0,-54 0,-54 3,-50 C5,-35 6,-15 5,0Z" transform="rotate(101)" />
      <path d="M-5,0 C-6,-15 -5,-35 -3,-50 C0,-54 0,-54 3,-50 C5,-35 6,-15 5,0Z" transform="rotate(131)" />
      <path d="M-5,0 C-6,-15 -5,-35 -3,-50 C0,-54 0,-54 3,-50 C5,-35 6,-15 5,0Z" transform="rotate(161)" />
      <path d="M-5,0 C-6,-15 -5,-35 -3,-50 C0,-54 0,-54 3,-50 C5,-35 6,-15 5,0Z" transform="rotate(191)" />
      <path d="M-5,0 C-6,-15 -5,-35 -3,-50 C0,-54 0,-54 3,-50 C5,-35 6,-15 5,0Z" transform="rotate(221)" />
      <path d="M-5,0 C-6,-15 -5,-35 -3,-50 C0,-54 0,-54 3,-50 C5,-35 6,-15 5,0Z" transform="rotate(251)" />
      <path d="M-5,0 C-6,-15 -5,-35 -3,-50 C0,-54 0,-54 3,-50 C5,-35 6,-15 5,0Z" transform="rotate(281)" />
      <path d="M-5,0 C-6,-15 -5,-35 -3,-50 C0,-54 0,-54 3,-50 C5,-35 6,-15 5,0Z" transform="rotate(311)" />
      <path d="M-5,0 C-6,-15 -5,-35 -3,-50 C0,-54 0,-54 3,-50 C5,-35 6,-15 5,0Z" transform="rotate(341)" />
    </g>
    <!-- Layer 3: Inner petals (8 petals) -->
    <g transform="translate(100 100)" opacity="0.92">
      <path d="M-4,0 C-5,-10 -4,-22 -2,-30 C0,-33 0,-33 2,-30 C4,-22 5,-10 4,0Z" transform="rotate(5)" />
      <path d="M-4,0 C-5,-10 -4,-22 -2,-30 C0,-33 0,-33 2,-30 C4,-22 5,-10 4,0Z" transform="rotate(50)" />
      <path d="M-4,0 C-5,-10 -4,-22 -2,-30 C0,-33 0,-33 2,-30 C4,-22 5,-10 4,0Z" transform="rotate(95)" />
      <path d="M-4,0 C-5,-10 -4,-22 -2,-30 C0,-33 0,-33 2,-30 C4,-22 5,-10 4,0Z" transform="rotate(140)" />
      <path d="M-4,0 C-5,-10 -4,-22 -2,-30 C0,-33 0,-33 2,-30 C4,-22 5,-10 4,0Z" transform="rotate(185)" />
      <path d="M-4,0 C-5,-10 -4,-22 -2,-30 C0,-33 0,-33 2,-30 C4,-22 5,-10 4,0Z" transform="rotate(230)" />
      <path d="M-4,0 C-5,-10 -4,-22 -2,-30 C0,-33 0,-33 2,-30 C4,-22 5,-10 4,0Z" transform="rotate(275)" />
      <path d="M-4,0 C-5,-10 -4,-22 -2,-30 C0,-33 0,-33 2,-30 C4,-22 5,-10 4,0Z" transform="rotate(320)" />
    </g>
    <!-- Center disc -->
    <circle cx="100" cy="100" r="14" fill="black" opacity="1.0" />
    <circle cx="100" cy="100" r="7" fill="white" opacity="0.25" />
  </g>
</svg>
