<svg viewBox="0 0 100 100" fill="none" xmlns="http://www.w3.org/2000/svg">
  <!-- Central connections -->
  <path d="M50 50L20 20M50 50L40 30M50 50L60 15M50 50L80 35M50 50L30 55M50 50L70 65M50 50L50 85M50 50L20 80M50 50L85 80" stroke="black" stroke-width="2" stroke-linecap="round" opacity="0.4"/>
  
  <!-- "Flowers" (dots) with varied opacities for a misty effect -->
  <circle cx="20" cy="20" r="5" fill="black" opacity="0.8"/>
  <circle cx="40" cy="30" r="4" fill="black" opacity="0.6"/>
  <circle cx="60" cy="15" r="6" fill="black" opacity="0.9"/>
  <circle cx="80" cy="35" r="5" fill="black" opacity="0.5"/>
  <circle cx="30" cy="55" r="4" fill="black" opacity="0.7"/>
  <circle cx="70" cy="65" r="5" fill="black" opacity="0.4"/>
  <circle cx="50" cy="85" r="6" fill="black" opacity="0.8"/>
  <circle cx="20" cy="80" r="4" fill="black" opacity="0.6"/>
  <circle cx="85" cy="80" r="5" fill="black" opacity="0.7"/>
</svg>
