<svg viewBox="0 0 100 100" fill="none" xmlns="http://www.w3.org/2000/svg">
  <circle cx="50" cy="50" r="40" fill="black"/>
  <circle cx="50" cy="50" r="30" fill="black" fill-opacity="0.8"/>
  <circle cx="50" cy="50" r="20" fill="black" fill-opacity="0.6"/>
  <circle cx="50" cy="50" r="10" fill="black" fill-opacity="0.4"/>
  <path d="M50 10C55 20 65 25 75 25C85 25 90 30 90 40C90 50 85 55 75 55C65 55 55 60 50 70C45 60 35 55 25 55C15 55 10 50 10 40C10 30 15 25 25 25C35 25 45 20 50 10Z" fill="white" fill-opacity="0.4"/>
</svg>
