<svg xmlns="http://www.w3.org/2000/svg" viewBox="0 0 200 200">
  <g fill="black">
    <!-- Poinsettia: Star-shaped bracts -->
    <!-- Layer 1: Outer pointed bracts (8 bracts) -->
    <g transform="translate(100 100)" opacity="0.58">
      <path d="M-18,0 C-22,-8 -20,-35 -15,-58 C-8,-75 0,-85 0,-85 C0,-85 8,-75 15,-58 C20,-35 22,-8 18,0 C10,-4 -10,-4 -18,0Z" transform="rotate(0)" />
      <path d="M-18,0 C-22,-8 -20,-35 -15,-58 C-8,-75 0,-85 0,-85 C0,-85 8,-75 15,-58 C20,-35 22,-8 18,0 C10,-4 -10,-4 -18,0Z" transform="rotate(45)" />
      <path d="M-18,0 C-22,-8 -20,-35 -15,-58 C-8,-75 0,-85 0,-85 C0,-85 8,-75 15,-58 C20,-35 22,-8 18,0 C10,-4 -10,-4 -18,0Z" transform="rotate(90)" />
      <path d="M-18,0 C-22,-8 -20,-35 -15,-58 C-8,-75 0,-85 0,-85 C0,-85 8,-75 15,-58 C20,-35 22,-8 18,0 C10,-4 -10,-4 -18,0Z" transform="rotate(135)" />
      <path d="M-18,0 C-22,-8 -20,-35 -15,-58 C-8,-75 0,-85 0,-85 C0,-85 8,-75 15,-58 C20,-35 22,-8 18,0 C10,-4 -10,-4 -18,0Z" transform="rotate(180)" />
      <path d="M-18,0 C-22,-8 -20,-35 -15,-58 C-8,-75 0,-85 0,-85 C0,-85 8,-75 15,-58 C20,-35 22,-8 18,0 C10,-4 -10,-4 -18,0Z" transform="rotate(225)" />
      <path d="M-18,0 C-22,-8 -20,-35 -15,-58 C-8,-75 0,-85 0,-85 C0,-85 8,-75 15,-58 C20,-35 22,-8 18,0 C10,-4 -10,-4 -18,0Z" transform="rotate(270)" />
      <path d="M-18,0 C-22,-8 -20,-35 -15,-58 C-8,-75 0,-85 0,-85 C0,-85 8,-75 15,-58 C20,-35 22,-8 18,0 C10,-4 -10,-4 -18,0Z" transform="rotate(315)" />
    </g>
    <!-- Layer 2: Middle bracts (8 bracts, offset) -->
    <g transform="translate(100 100)" opacity="0.75">
      <path d="M-14,0 C-17,-6 -15,-28 -10,-46 C-5,-58 0,-65 0,-65 C0,-65 5,-58 10,-46 C15,-28 17,-6 14,0 C7,-3 -7,-3 -14,0Z" transform="rotate(22.5)" />
      <path d="M-14,0 C-17,-6 -15,-28 -10,-46 C-5,-58 0,-65 0,-65 C0,-65 5,-58 10,-46 C15,-28 17,-6 14,0 C7,-3 -7,-3 -14,0Z" transform="rotate(67.5)" />
      <path d="M-14,0 C-17,-6 -15,-28 -10,-46 C-5,-58 0,-65 0,-65 C0,-65 5,-58 10,-46 C15,-28 17,-6 14,0 C7,-3 -7,-3 -14,0Z" transform="rotate(112.5)" />
      <path d="M-14,0 C-17,-6 -15,-28 -10,-46 C-5,-58 0,-65 0,-65 C0,-65 5,-58 10,-46 C15,-28 17,-6 14,0 C7,-3 -7,-3 -14,0Z" transform="rotate(157.5)" />
      <path d="M-14,0 C-17,-6 -15,-28 -10,-46 C-5,-58 0,-65 0,-65 C0,-65 5,-58 10,-46 C15,-28 17,-6 14,0 C7,-3 -7,-3 -14,0Z" transform="rotate(202.5)" />
      <path d="M-14,0 C-17,-6 -15,-28 -10,-46 C-5,-58 0,-65 0,-65 C0,-65 5,-58 10,-46 C15,-28 17,-6 14,0 C7,-3 -7,-3 -14,0Z" transform="rotate(247.5)" />
      <path d="M-14,0 C-17,-6 -15,-28 -10,-46 C-5,-58 0,-65 0,-65 C0,-65 5,-58 10,-46 C15,-28 17,-6 14,0 C7,-3 -7,-3 -14,0Z" transform="rotate(292.5)" />
      <path d="M-14,0 C-17,-6 -15,-28 -10,-46 C-5,-58 0,-65 0,-65 C0,-65 5,-58 10,-46 C15,-28 17,-6 14,0 C7,-3 -7,-3 -14,0Z" transform="rotate(337.5)" />
    </g>
    <!-- Layer 3: Inner bracts -->
    <g transform="translate(100 100)" opacity="0.9">
      <path d="M-10,0 C-12,-5 -10,-20 -6,-32 C-3,-40 0,-44 0,-44 C0,-44 3,-40 6,-32 C10,-20 12,-5 10,0 C5,-2 -5,-2 -10,0Z" transform="rotate(10)" />
      <path d="M-10,0 C-12,-5 -10,-20 -6,-32 C-3,-40 0,-44 0,-44 C0,-44 3,-40 6,-32 C10,-20 12,-5 10,0 C5,-2 -5,-2 -10,0Z" transform="rotate(70)" />
      <path d="M-10,0 C-12,-5 -10,-20 -6,-32 C-3,-40 0,-44 0,-44 C0,-44 3,-40 6,-32 C10,-20 12,-5 10,0 C5,-2 -5,-2 -10,0Z" transform="rotate(130)" />
      <path d="M-10,0 C-12,-5 -10,-20 -6,-32 C-3,-40 0,-44 0,-44 C0,-44 3,-40 6,-32 C10,-20 12,-5 10,0 C5,-2 -5,-2 -10,0Z" transform="rotate(190)" />
      <path d="M-10,0 C-12,-5 -10,-20 -6,-32 C-3,-40 0,-44 0,-44 C0,-44 3,-40 6,-32 C10,-20 12,-5 10,0 C5,-2 -5,-2 -10,0Z" transform="rotate(250)" />
      <path d="M-10,0 C-12,-5 -10,-20 -6,-32 C-3,-40 0,-44 0,-44 C0,-44 3,-40 6,-32 C10,-20 12,-5 10,0 C5,-2 -5,-2 -10,0Z" transform="rotate(310)" />
    </g>
    <!-- Center cluster -->
    <circle cx="100" cy="100" r="14" fill="black" opacity="1.0" />
    <circle cx="100" cy="100" r="7" fill="white" opacity="0.3" />
  </g>
</svg>
