<svg xmlns="http://www.w3.org/2000/svg" viewBox="0 0 200 200">
  <g fill="black">
    <!-- Pompon: Dense ball of curved petals -->
    <!-- Layer 1: Outer curved petals -->
    <g transform="translate(100 100)" opacity="0.55">
      <path d="M-12,0 C-18,-8 -20,-30 -15,-50 C-10,-60 0,-65 0,-65 C0,-65 10,-60 15,-50 C20,-30 18,-8 12,0 C6,-3 -6,-3 -12,0Z" transform="rotate(0)" />
      <path d="M-12,0 C-18,-8 -20,-30 -15,-50 C-10,-60 0,-65 0,-65 C0,-65 10,-60 15,-50 C20,-30 18,-8 12,0 C6,-3 -6,-3 -12,0Z" transform="rotate(30)" />
      <path d="M-12,0 C-18,-8 -20,-30 -15,-50 C-10,-60 0,-65 0,-65 C0,-65 10,-60 15,-50 C20,-30 18,-8 12,0 C6,-3 -6,-3 -12,0Z" transform="rotate(60)" />
      <path d="M-12,0 C-18,-8 -20,-30 -15,-50 C-10,-60 0,-65 0,-65 C0,-65 10,-60 15,-50 C20,-30 18,-8 12,0 C6,-3 -6,-3 -12,0Z" transform="rotate(90)" />
      <path d="M-12,0 C-18,-8 -20,-30 -15,-50 C-10,-60 0,-65 0,-65 C0,-65 10,-60 15,-50 C20,-30 18,-8 12,0 C6,-3 -6,-3 -12,0Z" transform="rotate(120)" />
      <path d="M-12,0 C-18,-8 -20,-30 -15,-50 C-10,-60 0,-65 0,-65 C0,-65 10,-60 15,-50 C20,-30 18,-8 12,0 C6,-3 -6,-3 -12,0Z" transform="rotate(150)" />
      <path d="M-12,0 C-18,-8 -20,-30 -15,-50 C-10,-60 0,-65 0,-65 C0,-65 10,-60 15,-50 C20,-30 18,-8 12,0 C6,-3 -6,-3 -12,0Z" transform="rotate(180)" />
      <path d="M-12,0 C-18,-8 -20,-30 -15,-50 C-10,-60 0,-65 0,-65 C0,-65 10,-60 15,-50 C20,-30 18,-8 12,0 C6,-3 -6,-3 -12,0Z" transform="rotate(210)" />
      <path d="M-12,0 C-18,-8 -20,-30 -15,-50 C-10,-60 0,-65 0,-65 C0,-65 10,-60 15,-50 C20,-30 18,-8 12,0 C6,-3 -6,-3 -12,0Z" transform="rotate(240)" />
      <path d="M-12,0 C-18,-8 -20,-30 -15,-50 C-10,-60 0,-65 0,-65 C0,-65 10,-60 15,-50 C20,-30 18,-8 12,0 C6,-3 -6,-3 -12,0Z" transform="rotate(270)" />
      <path d="M-12,0 C-18,-8 -20,-30 -15,-50 C-10,-60 0,-65 0,-65 C0,-65 10,-60 15,-50 C20,-30 18,-8 12,0 C6,-3 -6,-3 -12,0Z" transform="rotate(300)" />
      <path d="M-12,0 C-18,-8 -20,-30 -15,-50 C-10,-60 0,-65 0,-65 C0,-65 10,-60 15,-50 C20,-30 18,-8 12,0 C6,-3 -6,-3 -12,0Z" transform="rotate(330)" />
    </g>
    <!-- Layer 2: Middle curved petals -->
    <g transform="translate(100 100)" opacity="0.75">
      <path d="M-10,0 C-14,-6 -16,-22 -12,-38 C-8,-46 0,-50 0,-50 C0,-50 8,-46 12,-38 C16,-22 14,-6 10,0 C5,-2 -5,-2 -10,0Z" transform="rotate(15)" />
      <path d="M-10,0 C-14,-6 -16,-22 -12,-38 C-8,-46 0,-50 0,-50 C0,-50 8,-46 12,-38 C16,-22 14,-6 10,0 C5,-2 -5,-2 -10,0Z" transform="rotate(45)" />
      <path d="M-10,0 C-14,-6 -16,-22 -12,-38 C-8,-46 0,-50 0,-50 C0,-50 8,-46 12,-38 C16,-22 14,-6 10,0 C5,-2 -5,-2 -10,0Z" transform="rotate(75)" />
      <path d="M-10,0 C-14,-6 -16,-22 -12,-38 C-8,-46 0,-50 0,-50 C0,-50 8,-46 12,-38 C16,-22 14,-6 10,0 C5,-2 -5,-2 -10,0Z" transform="rotate(105)" />
      <path d="M-10,0 C-14,-6 -16,-22 -12,-38 C-8,-46 0,-50 0,-50 C0,-50 8,-46 12,-38 C16,-22 14,-6 10,0 C5,-2 -5,-2 -10,0Z" transform="rotate(135)" />
      <path d="M-10,0 C-14,-6 -16,-22 -12,-38 C-8,-46 0,-50 0,-50 C0,-50 8,-46 12,-38 C16,-22 14,-6 10,0 C5,-2 -5,-2 -10,0Z" transform="rotate(165)" />
      <path d="M-10,0 C-14,-6 -16,-22 -12,-38 C-8,-46 0,-50 0,-50 C0,-50 8,-46 12,-38 C16,-22 14,-6 10,0 C5,-2 -5,-2 -10,0Z" transform="rotate(195)" />
      <path d="M-10,0 C-14,-6 -16,-22 -12,-38 C-8,-46 0,-50 0,-50 C0,-50 8,-46 12,-38 C16,-22 14,-6 10,0 C5,-2 -5,-2 -10,0Z" transform="rotate(225)" />
      <path d="M-10,0 C-14,-6 -16,-22 -12,-38 C-8,-46 0,-50 0,-50 C0,-50 8,-46 12,-38 C16,-22 14,-6 10,0 C5,-2 -5,-2 -10,0Z" transform="rotate(255)" />
      <path d="M-10,0 C-14,-6 -16,-22 -12,-38 C-8,-46 0,-50 0,-50 C0,-50 8,-46 12,-38 C16,-22 14,-6 10,0 C5,-2 -5,-2 -10,0Z" transform="rotate(285)" />
      <path d="M-10,0 C-14,-6 -16,-22 -12,-38 C-8,-46 0,-50 0,-50 C0,-50 8,-46 12,-38 C16,-22 14,-6 10,0 C5,-2 -5,-2 -10,0Z" transform="rotate(315)" />
      <path d="M-10,0 C-14,-6 -16,-22 -12,-38 C-8,-46 0,-50 0,-50 C0,-50 8,-46 12,-38 C16,-22 14,-6 10,0 C5,-2 -5,-2 -10,0Z" transform="rotate(345)" />
    </g>
    <!-- Layer 3: Inner tight petals -->
    <g transform="translate(100 100)" opacity="0.9">
      <path d="M-8,0 C-10,-5 -12,-16 -9,-28 C-6,-34 0,-36 0,-36 C0,-36 6,-34 9,-28 C12,-16 10,-5 8,0 C4,-1 -4,-1 -8,0Z" transform="rotate(7)" />
      <path d="M-8,0 C-10,-5 -12,-16 -9,-28 C-6,-34 0,-36 0,-36 C0,-36 6,-34 9,-28 C12,-16 10,-5 8,0 C4,-1 -4,-1 -8,0Z" transform="rotate(52)" />
      <path d="M-8,0 C-10,-5 -12,-16 -9,-28 C-6,-34 0,-36 0,-36 C0,-36 6,-34 9,-28 C12,-16 10,-5 8,0 C4,-1 -4,-1 -8,0Z" transform="rotate(97)" />
      <path d="M-8,0 C-10,-5 -12,-16 -9,-28 C-6,-34 0,-36 0,-36 C0,-36 6,-34 9,-28 C12,-16 10,-5 8,0 C4,-1 -4,-1 -8,0Z" transform="rotate(142)" />
      <path d="M-8,0 C-10,-5 -12,-16 -9,-28 C-6,-34 0,-36 0,-36 C0,-36 6,-34 9,-28 C12,-16 10,-5 8,0 C4,-1 -4,-1 -8,0Z" transform="rotate(187)" />
      <path d="M-8,0 C-10,-5 -12,-16 -9,-28 C-6,-34 0,-36 0,-36 C0,-36 6,-34 9,-28 C12,-16 10,-5 8,0 C4,-1 -4,-1 -8,0Z" transform="rotate(232)" />
      <path d="M-8,0 C-10,-5 -12,-16 -9,-28 C-6,-34 0,-36 0,-36 C0,-36 6,-34 9,-28 C12,-16 10,-5 8,0 C4,-1 -4,-1 -8,0Z" transform="rotate(277)" />
      <path d="M-8,0 C-10,-5 -12,-16 -9,-28 C-6,-34 0,-36 0,-36 C0,-36 6,-34 9,-28 C12,-16 10,-5 8,0 C4,-1 -4,-1 -8,0Z" transform="rotate(322)" />
    </g>
    <!-- Center -->
    <circle cx="100" cy="100" r="16" fill="black" opacity="1.0" />
    <circle cx="100" cy="100" r="8" fill="white" opacity="0.25" />
  </g>
</svg>
