<svg xmlns="http://www.w3.org/2000/svg" viewBox="0 0 200 200">
  <g fill="black">
    <!-- Layer 1: 12 outer rounded petals (30° intervals) -->
    <g transform="translate(100 100)" opacity="0.58">
      <path d="M-18,0 C-22,-10 -20,-44 0,-52 C20,-44 22,-10 18,0Z" transform="rotate(0)" />
      <path d="M-18,0 C-22,-10 -20,-44 0,-52 C20,-44 22,-10 18,0Z" transform="rotate(30)" />
      <path d="M-18,0 C-22,-10 -20,-44 0,-52 C20,-44 22,-10 18,0Z" transform="rotate(60)" />
      <path d="M-18,0 C-22,-10 -20,-44 0,-52 C20,-44 22,-10 18,0Z" transform="rotate(90)" />
      <path d="M-18,0 C-22,-10 -20,-44 0,-52 C20,-44 22,-10 18,0Z" transform="rotate(120)" />
      <path d="M-18,0 C-22,-10 -20,-44 0,-52 C20,-44 22,-10 18,0Z" transform="rotate(150)" />
      <path d="M-18,0 C-22,-10 -20,-44 0,-52 C20,-44 22,-10 18,0Z" transform="rotate(180)" />
      <path d="M-18,0 C-22,-10 -20,-44 0,-52 C20,-44 22,-10 18,0Z" transform="rotate(210)" />
      <path d="M-18,0 C-22,-10 -20,-44 0,-52 C20,-44 22,-10 18,0Z" transform="rotate(240)" />
      <path d="M-18,0 C-22,-10 -20,-44 0,-52 C20,-44 22,-10 18,0Z" transform="rotate(270)" />
      <path d="M-18,0 C-22,-10 -20,-44 0,-52 C20,-44 22,-10 18,0Z" transform="rotate(300)" />
      <path d="M-18,0 C-22,-10 -20,-44 0,-52 C20,-44 22,-10 18,0Z" transform="rotate(330)" />
    </g>
    <!-- Layer 2: 10 petals (36° intervals, offset 15°) -->
    <g transform="translate(100 100)" opacity="0.73">
      <path d="M-14,0 C-17,-8 -15,-36 0,-43 C15,-36 17,-8 14,0Z" transform="rotate(15)" />
      <path d="M-14,0 C-17,-8 -15,-36 0,-43 C15,-36 17,-8 14,0Z" transform="rotate(51)" />
      <path d="M-14,0 C-17,-8 -15,-36 0,-43 C15,-36 17,-8 14,0Z" transform="rotate(87)" />
      <path d="M-14,0 C-17,-8 -15,-36 0,-43 C15,-36 17,-8 14,0Z" transform="rotate(123)" />
      <path d="M-14,0 C-17,-8 -15,-36 0,-43 C15,-36 17,-8 14,0Z" transform="rotate(159)" />
      <path d="M-14,0 C-17,-8 -15,-36 0,-43 C15,-36 17,-8 14,0Z" transform="rotate(195)" />
      <path d="M-14,0 C-17,-8 -15,-36 0,-43 C15,-36 17,-8 14,0Z" transform="rotate(231)" />
      <path d="M-14,0 C-17,-8 -15,-36 0,-43 C15,-36 17,-8 14,0Z" transform="rotate(267)" />
      <path d="M-14,0 C-17,-8 -15,-36 0,-43 C15,-36 17,-8 14,0Z" transform="rotate(303)" />
      <path d="M-14,0 C-17,-8 -15,-36 0,-43 C15,-36 17,-8 14,0Z" transform="rotate(339)" />
    </g>
    <!-- Layer 3: 8 petals (45° intervals, offset 8°) -->
    <g transform="translate(100 100)" opacity="0.87">
      <path d="M-10,0 C-12,-6 -10,-28 0,-34 C10,-28 12,-6 10,0Z" transform="rotate(8)" />
      <path d="M-10,0 C-12,-6 -10,-28 0,-34 C10,-28 12,-6 10,0Z" transform="rotate(53)" />
      <path d="M-10,0 C-12,-6 -10,-28 0,-34 C10,-28 12,-6 10,0Z" transform="rotate(98)" />
      <path d="M-10,0 C-12,-6 -10,-28 0,-34 C10,-28 12,-6 10,0Z" transform="rotate(143)" />
      <path d="M-10,0 C-12,-6 -10,-28 0,-34 C10,-28 12,-6 10,0Z" transform="rotate(188)" />
      <path d="M-10,0 C-12,-6 -10,-28 0,-34 C10,-28 12,-6 10,0Z" transform="rotate(233)" />
      <path d="M-10,0 C-12,-6 -10,-28 0,-34 C10,-28 12,-6 10,0Z" transform="rotate(278)" />
      <path d="M-10,0 C-12,-6 -10,-28 0,-34 C10,-28 12,-6 10,0Z" transform="rotate(323)" />
    </g>
    <!-- Layer 4: 6 innermost petals (60° intervals, offset 4°) -->
    <g transform="translate(100 100)" opacity="0.97">
      <path d="M-7,0 C-8,-4 -7,-18 0,-22 C7,-18 8,-4 7,0Z" transform="rotate(4)" />
      <path d="M-7,0 C-8,-4 -7,-18 0,-22 C7,-18 8,-4 7,0Z" transform="rotate(64)" />
      <path d="M-7,0 C-8,-4 -7,-18 0,-22 C7,-18 8,-4 7,0Z" transform="rotate(124)" />
      <path d="M-7,0 C-8,-4 -7,-18 0,-22 C7,-18 8,-4 7,0Z" transform="rotate(184)" />
      <path d="M-7,0 C-8,-4 -7,-18 0,-22 C7,-18 8,-4 7,0Z" transform="rotate(244)" />
      <path d="M-7,0 C-8,-4 -7,-18 0,-22 C7,-18 8,-4 7,0Z" transform="rotate(304)" />
    </g>
    <!-- Tiny center -->
    <circle cx="100" cy="100" r="10" fill="black" opacity="1.0" />
    <circle cx="100" cy="100" r="5"  fill="white" opacity="0.28" />
  </g>
</svg>
