<svg version="1.1" id="Layer_1" xmlns="http://www.w3.org/2000/svg" xmlns:xlink="http://www.w3.org/1999/xlink" x="0px" y="0px"
	 width="100%" viewBox="0 0 510 454" enable-background="new 0 0 510 454" xml:space="preserve">

<path fill="black" opacity="0.7" stroke="none" 
	d="
M313.080475,66.034775 
	C314.271240,66.589142 315.422821,67.511345 316.658600,67.642891 
	C336.327698,69.736588 354.235626,77.470016 372.321747,84.721275 
	C379.869446,87.747375 387.649658,90.193665 395.875122,93.098152 
	C391.016602,112.391312 393.364349,132.224350 392.981537,152.594345 
	C393.219025,153.784912 393.706635,154.349167 394.461853,154.787476 
	C394.851013,154.506287 394.972534,154.351044 395.094086,154.195801 
	C395.094086,154.195801 395.577026,154.248550 395.425598,154.676468 
	C394.863403,155.681793 394.452667,156.259186 393.759399,157.125610 
	C392.983612,160.173935 392.576294,162.951935 391.981812,165.689285 
	C389.744965,175.988525 388.599091,186.710526 384.906891,196.465027 
	C379.119019,211.755966 369.715149,225.171127 357.311523,235.997162 
	C349.718933,242.624100 341.346252,248.371078 333.193939,254.335602 
	C330.277252,256.469543 326.978882,258.081757 322.680267,260.627686 
	C323.503571,258.394043 323.782532,257.654388 324.049469,256.910431 
	C327.345856,247.723618 331.299652,238.710693 333.788239,229.309906 
	C338.016724,213.336609 341.321991,197.118912 345.295258,180.750275 
	C350.735809,165.626190 347.581055,153.245605 334.454315,143.990829 
	C330.426514,141.151062 326.163452,138.644928 321.864960,135.667572 
	C320.526855,133.000122 319.160217,130.721283 318.166656,128.289978 
	C313.785187,117.567924 307.076355,108.637405 296.792999,103.214081 
	C287.625122,98.379074 277.888519,94.631554 268.476379,90.246452 
	C264.259125,88.281639 260.221283,85.931656 255.799957,83.596947 
	C256.745575,82.545998 257.004669,82.126091 257.375519,81.864967 
	C270.775269,72.429794 285.335358,66.895058 302.069397,67.841187 
	C305.694122,68.046127 309.407776,66.678230 313.080475,66.034775 
z"/>
<path fill="black" opacity="0.8" stroke="none" 
	d="
M420.602173,182.781815 
	C420.824158,183.308655 421.046143,183.835495 420.949036,184.856598 
	C420.610931,186.288589 420.451050,187.248474 420.594513,188.160660 
	C422.376617,199.491760 424.007965,210.851654 426.075378,222.131317 
	C427.950317,232.360748 429.694611,242.691330 432.745789,252.592316 
	C434.079895,256.921417 433.579468,257.949280 429.826080,259.407379 
	C428.222870,260.030182 427.345245,262.520782 426.137878,264.162659 
	C426.137878,264.162628 425.983307,264.078857 425.655823,264.057556 
	C422.956665,263.806641 421.649597,264.616272 422.201019,267.240051 
	C422.201019,267.240051 422.013580,267.060028 421.728638,267.070984 
	C420.390198,268.156616 419.336700,269.231262 418.283173,270.305878 
	C418.283173,270.305878 418.081268,270.174561 417.906586,270.234100 
	C417.535156,270.602661 417.338379,270.911682 417.141602,271.220734 
	C417.141632,271.220734 417.094116,271.096741 416.803467,271.112457 
	C416.025024,271.779877 415.537262,272.431610 415.049500,273.083344 
	C415.049500,273.083344 415.011963,273.006531 414.651611,273.006653 
	C410.807831,275.593536 407.090637,277.928375 403.929626,280.862488 
	C402.066071,282.592224 401.084290,285.271973 399.705933,287.524506 
	C399.705963,287.524506 399.553314,287.637390 399.224060,287.567688 
	C398.849121,287.790924 398.803436,288.083893 398.757751,288.376831 
	C398.757721,288.376831 398.620697,288.598572 398.250183,288.546387 
	C397.799622,288.798737 397.719543,289.103241 397.639465,289.407745 
	C397.639465,289.407745 397.532654,289.520386 397.140137,289.417114 
	C394.573700,291.627899 392.399750,293.941925 390.225800,296.255920 
	C390.225800,296.255920 390.118835,296.147949 389.908112,296.206604 
	C389.500336,296.572998 389.303284,296.880737 389.106232,297.188477 
	C389.106232,297.188477 389.073242,297.078033 388.744934,297.059387 
	C384.562897,298.901245 380.327637,300.339813 379.280090,305.303284 
	C379.280090,305.303284 379.099274,305.119812 378.783203,305.115295 
	C375.190918,305.619019 371.240112,305.322113 371.942108,310.578125 
	C371.942108,310.578125 371.722931,310.782745 371.250061,310.600525 
	C367.938721,312.380859 365.100250,314.343414 362.261810,316.305969 
	C362.261810,316.305969 362.043335,316.289825 361.730957,316.198944 
	C356.458771,317.930328 351.480896,319.707001 346.571136,321.655182 
	C346.145752,321.824005 346.169495,323.124634 345.590515,323.942963 
	C330.283905,328.419708 315.350464,329.406219 300.161133,325.076874 
	C285.076538,320.777344 272.564911,312.684052 260.910095,300.966644 
	C264.123627,300.076630 265.967377,299.383087 267.873688,299.067200 
	C282.140503,296.703003 294.602081,290.431244 305.362274,281.008240 
	C312.230408,274.993622 319.045319,269.308075 328.084686,266.744690 
	C332.038513,265.623474 335.889343,263.770355 339.441467,261.666290 
	C353.193481,253.520447 366.320221,244.588654 377.110596,232.509781 
	C386.683655,221.793579 392.929108,209.420761 396.960693,195.804489 
	C400.230804,184.759888 401.399841,173.430862 401.473785,161.952118 
	C404.259308,162.957336 406.673981,163.946503 409.088623,164.935669 
	C409.088623,164.935669 409.015717,164.984726 409.114685,165.191742 
	C409.496002,165.589996 409.778290,165.781235 410.060577,165.972473 
	C410.060577,165.972488 410.000397,165.994232 410.097534,166.212936 
	C410.479797,166.614365 410.764923,166.797104 411.050049,166.979843 
	C411.050049,166.979843 411.001465,167.001617 411.008240,167.340668 
	C411.712219,168.426300 412.409363,169.172882 413.106537,169.919449 
	C413.106537,169.919449 413.013794,170.000565 413.025421,170.328781 
	C415.558746,174.698608 418.080475,178.740204 420.602173,182.781815 
z"/>
<path fill="black" opacity="0.9" stroke="none" 
	d="
M312.928406,65.725311 
	C309.407776,66.678230 305.694122,68.046127 302.069397,67.841187 
	C285.335358,66.895058 270.775269,72.429794 257.375519,81.864967 
	C257.004669,82.126091 256.745575,82.545998 255.799957,83.596947 
	C260.221283,85.931656 264.259125,88.281639 268.476379,90.246452 
	C277.888519,94.631554 287.625122,98.379074 296.792999,103.214081 
	C307.076355,108.637405 313.785187,117.567924 318.166656,128.289978 
	C319.160217,130.721283 320.526855,133.000122 321.862091,136.094452 
	C322.003540,138.544785 322.004700,140.249756 321.657043,142.021301 
	C321.259491,143.304398 320.997589,144.557617 321.199524,145.731018 
	C322.004883,150.411301 323.832825,155.095627 323.680511,159.725754 
	C323.281250,171.861755 315.905670,179.768524 305.922943,185.516068 
	C298.881836,189.569992 291.565399,193.149414 284.562012,197.264313 
	C271.598480,204.881165 260.747650,214.574966 254.656342,229.103119 
	C252.602295,231.851334 250.855515,234.444244 248.830597,236.833893 
	C248.020279,235.412735 247.488068,234.194855 246.957550,232.598083 
	C246.052063,229.774811 245.608139,227.006058 244.161285,224.939514 
	C235.815750,213.019638 226.389694,202.299759 212.838745,195.800797 
	C205.091812,192.085419 197.506821,187.848526 190.403625,183.028900 
	C183.926132,178.633835 178.226288,173.001434 177.060776,164.621201 
	C176.007477,157.047745 175.695343,149.442993 180.971680,142.364990 
	C179.198929,142.219086 178.102661,142.128860 177.004456,141.664062 
	C176.647003,140.178528 176.291489,139.067581 175.988571,137.610016 
	C177.749557,135.140366 179.756561,133.191742 181.115784,130.864746 
	C187.769699,119.473434 192.829742,106.964401 203.835358,98.668892 
	C212.059616,92.469833 220.390427,86.583397 231.282654,85.893166 
	C235.429245,85.630394 239.510498,84.336922 243.621536,83.513199 
	C243.717697,83.082672 243.813873,82.652145 243.910049,82.221619 
	C239.680893,79.746696 235.576874,77.020096 231.199356,74.843567 
	C217.539322,68.051704 202.946625,66.701797 187.866730,67.684937 
	C187.498474,66.935059 187.234024,66.444336 186.969574,65.953613 
	C190.096100,63.343376 193.222610,60.733139 196.735596,58.473892 
	C198.750931,59.537712 200.379807,60.250534 202.454712,60.975105 
	C213.430222,61.841335 223.886414,62.989349 233.724899,67.295334 
	C239.097900,69.646927 244.570099,71.771904 250.373901,73.995979 
	C256.003540,71.657013 261.250458,69.306671 266.511505,66.988365 
	C276.517639,62.579105 287.230255,61.647720 297.918060,61.342010 
	C300.813354,61.259190 302.196259,60.825592 303.130676,58.379364 
	C306.345886,60.724857 309.561127,63.070347 312.928406,65.725311 
M258.591400,127.603714 
	C262.396057,127.735725 266.211334,127.731667 270.003113,128.028229 
	C277.766602,128.635406 285.488464,129.199860 290.865601,136.236435 
	C299.826294,147.962524 304.264954,160.978104 303.098389,175.799927 
	C303.019684,176.799973 303.511627,177.844940 303.738190,178.869003 
	C304.165894,179.043823 304.593567,179.218658 305.021271,179.393478 
	C306.285980,177.672745 308.111633,176.125565 308.707977,174.198044 
	C310.358704,168.862671 312.181671,163.431320 312.685455,157.923462 
	C313.558044,148.383682 313.914001,138.680176 310.212433,129.510742 
	C308.595184,125.504585 306.132812,121.998009 301.303558,121.239296 
	C294.787720,120.215622 288.306610,118.662086 281.753540,118.255974 
	C271.562378,117.624405 261.219177,117.137581 251.107376,123.025749 
	C245.405197,122.681686 239.703003,122.337624 234.404602,121.444641 
	C252.482681,108.713135 272.776489,108.397545 293.968842,110.755196 
	C290.352997,107.550278 286.646057,104.929153 282.567078,103.171173 
	C273.528503,99.275658 264.360748,95.656731 255.121719,92.262352 
	C252.018967,91.122414 248.417343,90.150391 245.261749,90.607285 
	C239.752518,91.404945 234.158768,92.784294 229.064865,94.991623 
	C222.616425,97.785927 215.290344,100.390289 210.691238,105.283768 
	C194.870117,122.117561 186.099350,141.987808 190.219406,165.772812 
	C191.153748,171.166824 192.213821,176.874725 197.714325,180.950775 
	C196.749084,173.012451 195.402191,165.864212 195.132446,158.675568 
	C194.827408,150.546539 200.115967,142.695541 205.984314,141.904861 
	C204.562698,151.221085 209.163773,157.508163 216.497299,162.210480 
	C220.095993,164.517975 223.833054,166.822891 227.820129,168.264008 
	C234.652191,170.733444 241.729721,172.523727 248.072021,174.411072 
	C241.590714,167.718307 234.473877,161.535110 228.823593,154.219238 
	C222.707474,146.300217 225.751373,133.614639 236.240738,130.908188 
	C243.355728,129.072372 250.738876,128.275909 258.591400,127.603714 
M244.286987,210.609619 
	C246.539963,212.733963 248.792938,214.858307 250.496902,216.464966 
	C262.948303,207.085632 274.757782,197.860077 286.924194,189.132080 
	C296.238678,182.450027 298.234985,178.068527 295.360474,166.758087 
	C294.959564,165.180664 294.250061,163.681686 293.557983,161.806534 
	C281.203552,174.574844 266.666931,180.251923 249.146957,180.996841 
	C232.124130,179.422882 218.099838,171.950912 206.328476,158.915176 
	C205.332397,162.769852 205.049149,166.230621 205.027054,169.693054 
	C204.963882,179.591568 206.196411,187.908569 217.470322,192.731125 
	C227.024368,196.817978 235.201324,204.124146 244.286987,210.609619 
M248.878418,147.853516 
	C254.679626,146.619858 260.507782,149.608002 262.883942,155.256470 
	C264.652100,159.459686 266.161224,163.771851 267.799591,168.071838 
	C275.525787,164.226212 278.782654,148.955200 273.549561,143.059616 
	C273.109863,142.564285 272.637299,142.058151 272.083832,141.709808 
	C264.485321,136.927505 256.234344,135.566849 247.908966,138.805496 
	C244.254288,140.227219 240.028259,142.407776 239.306885,147.948166 
	C242.437668,147.948166 245.231171,147.948166 248.878418,147.853516 
z"/>
<path fill="#BC272A" opacity="1.000000" stroke="none" 
	d="
M202.008667,60.963356 
	C200.379807,60.250534 198.750931,59.537712 197.077377,58.466286 
	C204.276077,55.007141 211.372498,51.483414 218.797180,48.904968 
	C230.010315,45.010864 240.964050,40.827049 250.046219,32.218849 
	C259.710175,41.610161 271.882080,45.542824 283.968170,49.796890 
	C290.367279,52.049248 296.455505,55.184818 302.907379,58.150513 
	C302.196259,60.825592 300.813354,61.259190 297.918060,61.342010 
	C287.230255,61.647720 276.517639,62.579105 266.511505,66.988365 
	C261.250458,69.306671 256.003540,71.657013 250.374725,73.527435 
	C249.999207,61.265385 249.999207,49.468788 249.999207,37.074821 
	C249.097900,37.391750 247.410797,37.676334 246.076736,38.519512 
	C243.446365,40.182014 241.256241,42.761826 238.452576,43.890106 
	C227.911530,48.132172 217.293671,52.242779 206.487518,55.729977 
	C203.298767,56.759007 201.983734,57.898064 202.008667,60.963356 
z"/>
<path fill="#B43C3E" opacity="1.000000" stroke="none" 
	d="
M84.926193,273.082245 
	C77.683144,267.865112 70.440094,262.647980 62.753208,257.111176 
	C72.416290,238.988373 71.321678,218.203186 74.983803,198.377365 
	C77.641678,183.988312 82.708626,170.786530 94.239044,161.035919 
	C97.504944,158.274124 101.343918,156.190033 105.376595,153.826050 
	C105.833115,153.856964 106.054619,154.072220 105.897583,154.316528 
	C104.700592,155.576172 103.678520,156.610687 102.615952,157.601776 
	C101.399757,158.736145 100.147591,159.831940 98.568855,161.000977 
	C95.209312,163.585739 91.420273,165.597305 89.317383,168.737900 
	C82.649002,178.696823 76.653793,189.089523 77.781845,201.856903 
	C77.821548,202.306259 77.427750,202.777588 77.330948,203.257812 
	C76.208778,208.825027 75.106987,214.396317 73.995789,219.965729 
	C71.807999,230.931168 70.199654,242.062698 67.132195,252.776398 
	C65.961105,256.866669 66.944626,257.597321 69.744865,259.530609 
	C75.327614,263.384918 81.962822,266.159271 85.135750,272.858459 
	C85.065712,272.932892 84.926193,273.082245 84.926193,273.082245 
z"/>
<path fill="#B43C3E" opacity="1.000000" stroke="none" 
	d="
M345.984619,323.899506 
	C346.169495,323.124634 346.145752,321.824005 346.571136,321.655182 
	C351.480896,319.707001 356.458771,317.930328 361.839111,316.194336 
	C358.583954,318.129242 354.852661,319.878265 351.262329,321.880157 
	C349.992065,322.588440 348.349731,323.760162 348.088593,324.979645 
	C343.473755,346.532288 328.475647,358.640808 309.664520,367.042603 
	C300.423920,371.169861 290.620331,374.043488 281.408905,378.227203 
	C273.282379,381.918152 265.624603,386.641266 257.347534,390.922729 
	C256.935181,390.936829 256.771912,390.769958 256.859863,390.425171 
	C257.733429,388.877808 258.241028,387.085999 259.347748,386.563751 
	C270.430084,381.334351 281.570648,376.222717 292.778198,371.266388 
	C300.241180,367.966064 308.055878,365.396576 315.307404,361.703308 
	C320.965546,358.821594 326.318878,355.095581 331.195862,351.013794 
	C334.369781,348.357422 336.446442,344.389984 339.008331,341.004333 
	C339.001984,340.998779 339.005737,341.011932 339.217926,340.913300 
	C339.701050,340.636261 339.886078,340.392639 340.057892,339.737244 
	C343.241180,334.665070 346.450073,329.976532 345.984619,323.899506 
z"/>
<path fill="#B43C3E" opacity="1.000000" stroke="none" 
	d="
M175.429367,358.561066 
	C164.106949,351.034485 156.003067,341.109314 152.900040,327.649353 
	C152.124786,324.286652 150.365311,322.719513 147.354980,320.992432 
	C136.345154,314.675720 125.713188,307.700409 114.875275,300.577881 
	C114.811638,300.182648 115.056358,299.929688 115.399803,299.994324 
	C119.684822,302.408630 123.653145,304.714844 127.561188,307.119049 
	C132.388840,310.088989 137.177078,313.123505 141.962357,316.161621 
	C145.989502,318.718414 149.988022,321.320282 154.022247,324.304993 
	C154.795212,330.806061 156.788162,336.374908 161.120758,341.318054 
	C164.816055,345.383270 168.415146,349.099792 171.919586,352.903503 
	C173.390320,354.499847 174.660675,356.280792 175.870026,358.119629 
	C175.717926,358.261475 175.429367,358.561066 175.429367,358.561066 
z"/>
<path fill="#B43C3E" opacity="1.000000" stroke="none" 
	d="
M105.719269,153.752609 
	C105.981018,151.743179 106.668320,149.840652 106.683830,147.932648 
	C106.833389,129.527145 108.737427,111.043022 104.023247,93.303566 
	C115.428780,89.069565 126.307503,85.031128 137.629013,81.035507 
	C138.071793,81.078316 138.210403,81.231697 138.066559,81.543671 
	C128.912811,85.412407 120.000412,89.255775 110.840660,92.372154 
	C107.587677,93.478905 106.569756,94.842827 106.969498,97.919518 
	C107.671043,103.318985 108.755234,108.714050 108.897331,114.131470 
	C109.193703,125.430183 109.071480,136.743744 108.890244,148.047501 
	C108.858383,150.034851 107.701851,152.004166 106.811325,153.994766 
	C106.390160,154.029236 106.222389,154.050735 106.054619,154.072220 
	C106.054619,154.072220 105.833115,153.856964 105.719269,153.752609 
z"/>
<path fill="#B43C3E" opacity="1.000000" stroke="none" 
	d="
M426.484070,264.112061 
	C427.345245,262.520782 428.222870,260.030182 429.826080,259.407379 
	C433.579468,257.949280 434.079895,256.921417 432.745789,252.592316 
	C429.694611,242.691330 427.950317,232.360748 426.075378,222.131317 
	C424.007965,210.851654 422.376617,199.491760 420.594513,188.160660 
	C420.451050,187.248474 420.610931,186.288589 420.945587,185.147644 
	C423.480896,196.763687 426.044647,208.531372 427.826263,220.416290 
	C429.721680,233.060287 431.227997,245.727753 437.560913,257.652466 
	C433.863586,259.860718 430.346924,261.961121 426.484070,264.112061 
z"/>
<path fill="#B43C3E" opacity="1.000000" stroke="none" 
	d="
M242.883331,391.124939 
	C230.527634,385.134888 218.229614,379.021515 205.792526,373.205505 
	C199.339767,370.188019 192.640961,367.696655 185.937637,364.584991 
	C185.821960,364.202393 186.041550,363.945007 186.416138,363.976715 
	C189.405472,365.022034 192.024399,366.025024 194.634232,367.051086 
	C206.236893,371.612732 218.014282,375.789368 229.357224,380.925232 
	C234.422211,383.218567 238.612228,387.444366 243.120209,390.875977 
	C243.041107,390.958832 242.883331,391.124939 242.883331,391.124939 
z"/>
<path fill="#B43C3E" opacity="1.000000" stroke="none" 
	d="
M186.613953,66.101486 
	C187.234024,66.444336 187.498474,66.935059 187.578156,67.835037 
	C186.845886,68.617081 186.318115,69.281342 185.748001,69.319939 
	C172.153183,70.240295 159.523712,75.046982 146.663437,78.930595 
	C143.868973,79.774490 141.029266,80.468597 138.210403,81.231697 
	C138.210403,81.231697 138.071793,81.078316 138.002701,81.001450 
	C151.577377,74.627846 165.768921,70.153908 180.658279,67.929176 
	C182.566025,67.644127 184.393616,66.822441 186.613953,66.101486 
z"/>
<path fill="#B43C3E" opacity="1.000000" stroke="none" 
	d="
M112.495789,298.665375 
	C103.413399,290.331024 94.331017,281.996674 85.087410,273.372284 
	C84.926193,273.082245 85.065712,272.932892 85.484848,272.932617 
	C87.262436,273.515594 88.901199,273.791260 89.933701,274.732147 
	C96.474831,280.693115 102.933395,286.747925 109.294823,292.900391 
	C110.783379,294.340057 111.792908,296.274963 112.883194,298.146790 
	C112.743546,298.311554 112.495789,298.665375 112.495789,298.665375 
z"/>
<path fill="#B43C3E" opacity="1.000000" stroke="none" 
	d="
M399.993958,287.392212 
	C401.084290,285.271973 402.066071,282.592224 403.929626,280.862488 
	C407.090637,277.928375 410.807831,275.593536 414.687103,273.030518 
	C410.149292,277.789429 405.215668,282.524658 399.993958,287.392212 
z"/>
<path fill="#B43C3E" opacity="1.000000" stroke="none" 
	d="
M257.016541,391.020569 
	C254.825073,393.239563 252.552277,395.374786 250.248779,397.538849 
	C247.741013,395.490356 245.447159,393.616577 243.018311,391.433868 
	C242.883331,391.124939 243.041107,390.958832 243.468475,390.946808 
	C246.594223,391.630371 249.292587,392.325928 252.295441,392.872681 
	C253.990601,392.072540 255.381256,391.421265 256.771912,390.769958 
	C256.771912,390.769958 256.935181,390.936829 257.016541,391.020569 
z"/>
<path fill="#B43C3E" opacity="1.000000" stroke="none" 
	d="
M420.555847,182.403702 
	C418.080475,178.740204 415.558746,174.698608 413.062103,170.279373 
	C415.561279,173.943024 418.035400,177.984314 420.555847,182.403702 
z"/>
<path fill="#B43C3E" opacity="1.000000" stroke="none" 
	d="
M379.610413,305.225433 
	C380.327637,300.339813 384.562897,298.901245 388.792786,297.091492 
	C386.092896,299.810669 383.016785,302.479126 379.610413,305.225433 
z"/>
<path fill="#B43C3E" opacity="1.000000" stroke="none" 
	d="
M408.976990,164.617630 
	C406.673981,163.946503 404.259308,162.957336 401.453491,161.575562 
	C400.981049,160.182495 400.899780,159.182068 400.899658,158.098328 
	C400.980774,158.015015 401.142181,157.847580 401.142181,157.847580 
	C403.716553,159.998245 406.290955,162.148911 408.976990,164.617630 
z"/>
<path fill="#B43C3E" opacity="1.000000" stroke="none" 
	d="
M185.712021,364.330963 
	C182.362183,362.656128 179.122284,360.852722 175.655884,358.805176 
	C175.429367,358.561066 175.717926,358.261475 176.225159,358.165222 
	C179.835449,360.027649 182.938492,361.986328 186.041550,363.945007 
	C186.041550,363.945007 185.821960,364.202393 185.712021,364.330963 
z"/>
<path fill="#B43C3E" opacity="1.000000" stroke="none" 
	d="
M362.610504,316.266296 
	C365.100250,314.343414 367.938721,312.380859 371.107483,310.646912 
	C368.611572,312.659180 365.785400,314.442932 362.610504,316.266296 
z"/>
<path fill="#B43C3E" opacity="1.000000" stroke="none" 
	d="
M372.236572,310.496460 
	C371.240112,305.322113 375.190918,305.619019 378.870087,305.202820 
	C377.025726,307.001526 374.778381,308.708191 372.236572,310.496460 
z"/>
<path fill="#B43C3E" opacity="1.000000" stroke="none" 
	d="
M390.543030,296.152100 
	C392.399750,293.941925 394.573700,291.627899 397.092438,289.478363 
	C395.244904,291.777985 393.052551,293.913116 390.543030,296.152100 
z"/>
<path fill="#B43C3E" opacity="1.000000" stroke="none" 
	d="
M394.041901,156.836594 
	C394.452667,156.259186 394.863403,155.681793 395.554077,154.882599 
	C397.500488,155.527451 399.166931,156.394058 400.987793,157.554138 
	C401.142181,157.847580 400.980774,158.015015 400.525787,158.013977 
	C398.061157,157.620834 396.051544,157.228714 394.041901,156.836594 
z"/>
<path fill="#B43C3E" opacity="1.000000" stroke="none" 
	d="
M422.515076,267.166260 
	C421.649597,264.616272 422.956665,263.806641 425.735962,264.090393 
	C425.038757,265.127167 423.933960,266.109802 422.515076,267.166260 
z"/>
<path fill="#B43C3E" opacity="1.000000" stroke="none" 
	d="
M418.593353,270.227020 
	C419.336700,269.231262 420.390198,268.156616 421.833679,267.147461 
	C421.116974,268.191345 420.010254,269.169769 418.593353,270.227020 
z"/>
<path fill="#B43C3E" opacity="1.000000" stroke="none" 
	d="
M413.061951,169.600952 
	C412.409363,169.172882 411.712219,168.426300 411.021332,167.317535 
	C411.690857,167.731033 412.354095,168.506729 413.061951,169.600952 
z"/>
<path fill="black" opacity="1.0" stroke="none" 
	d="
M394.194244,154.913422 
	C393.706635,154.349167 393.219025,153.784912 392.999939,153.055634 
	C393.596130,152.948425 393.806122,153.137207 394.000458,153.924637 
	C394.133118,154.565994 394.163696,154.739700 394.194244,154.913422 
z"/>
<path fill="#B43C3E" opacity="1.000000" stroke="none" 
	d="
M415.344666,273.015259 
	C415.537262,272.431610 416.025024,271.779877 416.857605,271.150879 
	C416.681549,271.764740 416.160675,272.355957 415.344666,273.015259 
z"/>
<path fill="#B43C3E" opacity="1.000000" stroke="none" 
	d="
M114.686600,300.306458 
	C114.280746,300.257629 113.999931,300.084991 113.730499,299.575867 
	C113.741882,299.239441 114.020027,298.980133 114.232529,299.090759 
	C114.707359,299.394989 114.911133,299.637756 115.056358,299.929688 
	C115.056358,299.929688 114.811638,300.182648 114.686600,300.306458 
z"/>
<path fill="#B43C3E" opacity="1.000000" stroke="none" 
	d="
M113.597786,299.363525 
	C113.170258,299.400909 112.930580,299.246368 112.615219,298.844666 
	C112.495789,298.665375 112.743546,298.311554 113.096626,298.260925 
	C113.715500,298.410797 113.905609,298.667419 114.020027,298.980133 
	C114.020027,298.980133 113.741882,299.239441 113.597786,299.363525 
z"/>
<path fill="#B43C3E" opacity="1.000000" stroke="none" 
	d="
M389.381226,297.131958 
	C389.303284,296.880737 389.500336,296.572998 389.981354,296.226868 
	C390.062317,296.484161 389.859283,296.779816 389.381226,297.131958 
z"/>
<path fill="#B43C3E" opacity="1.000000" stroke="none" 
	d="
M410.979614,166.724319 
	C410.764923,166.797104 410.479797,166.614365 410.112061,166.184448 
	C410.322693,166.114441 410.615967,166.291611 410.979614,166.724319 
z"/>
<path fill="#B43C3E" opacity="1.000000" stroke="none" 
	d="
M397.811584,289.354004 
	C397.719543,289.103241 397.799622,288.798737 398.137085,288.611145 
	C398.339386,288.977539 398.202454,289.168274 397.811584,289.354004 
z"/>
<path fill="#B43C3E" opacity="1.000000" stroke="none" 
	d="
M410.001373,165.708023 
	C409.778290,165.781235 409.496002,165.589996 409.129761,165.150452 
	C409.344604,165.082642 409.643402,165.263107 410.001373,165.708023 
z"/>
<path fill="#B43C3E" opacity="1.000000" stroke="none" 
	d="
M398.903442,288.316040 
	C398.803436,288.083893 398.849121,287.790924 399.144165,287.618958 
	C399.345032,287.955994 399.230225,288.127808 398.903442,288.316040 
z"/>
<path fill="#B43C3E" opacity="1.000000" stroke="none" 
	d="
M394.461853,154.787476 
	C394.163696,154.739700 394.133118,154.565994 394.090088,154.128052 
	C394.329376,153.849167 394.576233,153.877396 394.956116,154.072159 
	C394.972534,154.351044 394.851013,154.506287 394.461853,154.787476 
z"/>
<path fill="#B43C3E" opacity="1.000000" stroke="none" 
	d="
M417.410858,271.163239 
	C417.338379,270.911682 417.535156,270.602661 418.020416,270.273407 
	C418.099335,270.537354 417.889709,270.821564 417.410858,271.163239 
z"/>
<path fill="black" opacity="1.0" stroke="none" 
	d="
M393.759399,157.125610 
	C396.051544,157.228714 398.061157,157.620834 400.444641,158.097290 
	C400.899780,159.182068 400.981049,160.182495 401.082611,161.559509 
	C401.399841,173.430862 400.230804,184.759888 396.960693,195.804489 
	C392.929108,209.420761 386.683655,221.793579 377.110596,232.509781 
	C366.320221,244.588654 353.193481,253.520447 339.441467,261.666290 
	C335.889343,263.770355 332.038513,265.623474 328.084686,266.744690 
	C319.045319,269.308075 312.230408,274.993622 305.362274,281.008240 
	C294.602081,290.431244 282.140503,296.703003 267.873688,299.067200 
	C265.967377,299.383087 264.123627,300.076630 260.910095,300.966644 
	C272.564911,312.684052 285.076538,320.777344 300.161133,325.076874 
	C315.350464,329.406219 330.283905,328.419708 345.590515,323.942963 
	C346.450073,329.976532 343.241180,334.665070 339.836365,339.819061 
	C339.269257,340.436218 339.090454,340.691071 339.005737,341.011932 
	C339.005737,341.011932 339.001984,340.998779 338.585083,341.009399 
	C323.750824,342.832825 309.587219,343.133301 295.478729,338.091370 
	C279.363495,332.332275 266.403625,322.583832 255.220291,309.960663 
	C253.645264,308.182861 251.083786,307.278961 248.680496,306.123779 
	C247.000244,307.705933 245.445877,309.005768 244.264786,310.584839 
	C236.945023,320.371124 227.122543,327.325104 216.657898,332.930328 
	C199.262177,342.247986 180.429230,344.404358 160.986328,341.004547 
	C156.788162,336.374908 154.795212,330.806061 154.428101,324.350220 
	C167.588882,326.989471 180.360046,329.235504 193.590546,326.714996 
	C209.524902,323.679321 222.925049,315.933960 234.956451,305.460419 
	C236.291290,304.298431 237.145340,302.584198 238.681641,300.504303 
	C220.468857,297.115540 204.748047,290.733551 191.671585,278.817749 
	C189.110596,276.484039 187.010895,273.401489 184.082962,271.766541 
	C178.919708,268.883423 173.295227,266.819702 167.841522,264.464600 
	C148.698944,256.198151 132.364685,244.281937 119.307648,227.878815 
	C110.253464,216.504364 104.624496,203.425354 101.388107,189.592819 
	C99.226936,180.355835 99.646439,170.515060 98.911041,160.944489 
	C100.147591,159.831940 101.399757,158.736145 102.615952,157.601776 
	C103.678520,156.610687 104.700592,155.576172 105.897583,154.316528 
	C106.222389,154.050735 106.390160,154.029236 106.790428,154.445541 
	C108.435265,177.415588 113.116173,198.785309 126.682869,217.659531 
	C140.072937,236.288025 157.939133,249.203384 177.872284,261.236206 
	C175.042786,254.591064 171.968597,249.171539 170.411865,243.346481 
	C167.005005,230.598404 164.360580,217.646301 161.419937,204.774063 
	C159.919281,198.205154 158.451477,191.628769 156.942383,184.732300 
	C156.296661,183.938583 155.677414,183.468353 155.043320,182.664764 
	C155.020248,181.886536 155.012024,181.441696 155.326782,180.857193 
	C156.782730,180.470367 157.915695,180.223175 159.343872,180.134186 
	C162.251953,183.198532 165.047104,185.964081 167.426758,189.050018 
	C169.847031,192.188629 171.857925,195.642929 174.029541,199.430695 
	C175.100449,212.717392 174.932129,225.798904 177.577698,238.284164 
	C181.429443,256.461731 191.362320,271.074097 207.923309,280.922943 
	C218.089752,286.968964 228.908875,290.233337 240.369568,292.065948 
	C242.063919,292.336884 243.752670,292.642792 245.913055,293.012878 
	C245.526138,290.516266 245.254013,288.760345 245.303894,286.978943 
	C246.420441,286.634033 247.214996,286.314606 248.314590,286.157288 
	C251.482269,288.469635 254.498825,292.638672 257.181946,292.434113 
	C271.832642,291.317108 285.515656,286.155029 297.419556,277.743134 
	C309.947723,268.890106 318.477844,256.136322 321.596771,241.284683 
	C324.496704,227.476059 324.591156,213.078293 325.937286,198.571075 
	C326.615753,196.718460 326.980957,194.982635 327.990479,193.794174 
	C332.541229,188.436996 337.274628,183.234955 342.273865,178.025604 
	C343.408783,179.050766 344.212006,180.027344 345.015198,181.003922 
	C341.321991,197.118912 338.016724,213.336609 333.788239,229.309906 
	C331.299652,238.710693 327.345856,247.723618 324.049469,256.910431 
	C323.782532,257.654388 323.503571,258.394043 322.680267,260.627686 
	C326.978882,258.081757 330.277252,256.469543 333.193939,254.335602 
	C341.346252,248.371078 349.718933,242.624100 357.311523,235.997162 
	C369.715149,225.171127 379.119019,211.755966 384.906891,196.465027 
	C388.599091,186.710526 389.744965,175.988525 391.981812,165.689285 
	C392.576294,162.951935 392.983612,160.173935 393.759399,157.125610 
z"/>
<path fill="black" opacity="1.0" stroke="none" 
	d="
M345.295227,180.750275 
	C344.212006,180.027344 343.408783,179.050766 342.299316,177.621552 
	C345.636505,165.406906 343.216187,155.324890 333.178711,147.819321 
	C329.852478,145.332123 325.752258,143.880066 322.005890,141.954742 
	C322.004700,140.249756 322.003540,138.544785 322.005249,136.412903 
	C326.163452,138.644928 330.426514,141.151062 334.454315,143.990829 
	C347.581055,153.245605 350.735809,165.626190 345.295227,180.750275 
z"/>
<path fill="black" opacity="0.7" stroke="none" 
	d="
M156.968842,185.055756 
	C158.451477,191.628769 159.919281,198.205154 161.419937,204.774063 
	C164.360580,217.646301 167.005005,230.598404 170.411865,243.346481 
	C171.968597,249.171539 175.042786,254.591064 177.872284,261.236206 
	C157.939133,249.203384 140.072937,236.288025 126.682869,217.659531 
	C113.116173,198.785309 108.435265,177.415588 107.043823,154.432587 
	C107.701851,152.004166 108.858383,150.034851 108.890244,148.047501 
	C109.071480,136.743744 109.193703,125.430183 108.897331,114.131470 
	C108.755234,108.714050 107.671043,103.318985 106.969498,97.919518 
	C106.569756,94.842827 107.587677,93.478905 110.840660,92.372154 
	C120.000412,89.255775 128.912811,85.412407 138.066559,81.543671 
	C141.029266,80.468597 143.868973,79.774490 146.663437,78.930595 
	C159.523712,75.046982 172.153183,70.240295 185.748001,69.319939 
	C186.318115,69.281342 186.845886,68.617081 187.681976,68.094193 
	C202.946625,66.701797 217.539322,68.051704 231.199356,74.843567 
	C235.576874,77.020096 239.680893,79.746696 243.910049,82.221619 
	C243.813873,82.652145 243.717697,83.082672 243.621536,83.513199 
	C239.510498,84.336922 235.429245,85.630394 231.282654,85.893166 
	C220.390427,86.583397 212.059616,92.469833 203.835358,98.668892 
	C192.829742,106.964401 187.769699,119.473434 181.115784,130.864746 
	C179.756561,133.191742 177.749557,135.140366 175.624481,137.624161 
	C173.301071,138.915298 171.315033,139.712875 169.500229,140.797119 
	C155.312668,149.273376 146.868317,165.282120 155.003784,180.996841 
	C155.012024,181.441696 155.020248,181.886536 155.068054,182.984146 
	C155.728043,184.109848 156.348450,184.582809 156.968842,185.055756 
z"/>
<path fill="#BF2224" opacity="1.000000" stroke="none" 
	d="
M205.990417,141.001251 
	C200.115967,142.695541 194.827408,150.546539 195.132446,158.675568 
	C195.402191,165.864212 196.749084,173.012451 197.714325,180.950775 
	C192.213821,176.874725 191.153748,171.166824 190.219406,165.772812 
	C186.099350,141.987808 194.870117,122.117561 210.691238,105.283768 
	C215.290344,100.390289 222.616425,97.785927 229.064865,94.991623 
	C234.158768,92.784294 239.752518,91.404945 245.261749,90.607285 
	C248.417343,90.150391 252.018967,91.122414 255.121719,92.262352 
	C264.360748,95.656731 273.528503,99.275658 282.567078,103.171173 
	C286.646057,104.929153 290.352997,107.550278 293.968842,110.755196 
	C272.776489,108.397545 252.482681,108.713135 233.927307,122.007805 
	C220.765610,123.453186 211.109222,128.846909 205.990417,141.001251 
z"/>
<path fill="black" opacity="0.5" stroke="none" 
	d="
M174.048080,198.958984 
	C171.857925,195.642929 169.847031,192.188629 167.426758,189.050018 
	C165.047104,185.964081 162.251953,183.198532 159.323944,179.744904 
	C158.866776,178.551773 158.813950,177.870071 158.569550,177.265869 
	C154.055328,166.106277 156.480988,156.004547 165.997437,148.503616 
	C169.308563,145.893768 173.316635,144.168121 177.006393,142.038635 
	C178.102661,142.128860 179.198929,142.219086 180.971680,142.364990 
	C175.695343,149.442993 176.007477,157.047745 177.060776,164.621201 
	C178.226288,173.001434 183.926132,178.633835 190.403625,183.028900 
	C197.506821,187.848526 205.091812,192.085419 212.838745,195.800797 
	C226.389694,202.299759 235.815750,213.019638 244.161285,224.939514 
	C245.608139,227.006058 246.052063,229.774811 246.724640,232.775665 
	C246.322876,233.882950 246.155701,234.433777 245.654388,234.939270 
	C242.027145,231.911438 239.054535,228.431442 235.369431,226.057419 
	C229.066864,221.997192 222.644882,217.718674 215.668854,215.215897 
	C208.002029,212.465271 199.632919,211.705338 191.607117,209.911163 
	C185.565536,208.560562 179.944382,206.455490 176.834732,200.381073 
	C176.449570,199.628693 175.002884,199.419754 174.048080,198.958984 
z"/>
<path fill="black" opacity="0.5" stroke="none" 
	d="
M321.657043,142.021301 
	C325.752258,143.880066 329.852478,145.332123 333.178711,147.819321 
	C343.216187,155.324890 345.636505,165.406906 341.967590,177.572952 
	C337.274628,183.234955 332.541229,188.436996 327.990479,193.794174 
	C326.980957,194.982635 326.615753,196.718460 325.599640,198.626053 
	C324.444489,199.606812 323.314819,199.983566 322.894989,200.749451 
	C319.731842,206.519974 314.292206,208.684219 308.373016,209.912766 
	C303.386475,210.947723 298.309937,211.541428 293.287231,212.411179 
	C278.737488,214.930679 266.941376,222.324936 256.757751,232.810928 
	C255.985168,231.392395 255.474380,230.170105 254.963608,228.947800 
	C260.747650,214.574966 271.598480,204.881165 284.562012,197.264313 
	C291.565399,193.149414 298.881836,189.569992 305.922943,185.516068 
	C315.905670,179.768524 323.281250,171.861755 323.680511,159.725754 
	C323.832825,155.095627 322.004883,150.411301 321.199524,145.731018 
	C320.997589,144.557617 321.259491,143.304398 321.657043,142.021301 
z"/>
<path fill="#BE2225" opacity="1.000000" stroke="none" 
	d="
M250.000000,181.003662 
	C266.666931,180.251923 281.203552,174.574844 293.557983,161.806534 
	C294.250061,163.681686 294.959564,165.180664 295.360474,166.758087 
	C298.234985,178.068527 296.238678,182.450027 286.924194,189.132080 
	C274.757782,197.860077 262.948303,207.085632 250.496902,216.464966 
	C248.792938,214.858307 246.539963,212.733963 244.494629,210.267883 
	C246.801331,206.054382 250.097458,202.361115 250.707870,198.267365 
	C251.542145,192.672379 250.333130,186.772720 250.000000,181.003662 
z"/>
<path fill="#C42222" opacity="1.000000" stroke="none" 
	d="
M252.007675,123.051758 
	C261.219177,117.137581 271.562378,117.624405 281.753540,118.255974 
	C288.306610,118.662086 294.787720,120.215622 301.303558,121.239296 
	C306.132812,121.998009 308.595184,125.504585 310.212433,129.510742 
	C313.914001,138.680176 313.558044,148.383682 312.685455,157.923462 
	C312.181671,163.431320 310.358704,168.862671 308.707977,174.198044 
	C308.111633,176.125565 306.285980,177.672745 305.021271,179.393478 
	C304.593567,179.218658 304.165894,179.043823 303.738190,178.869003 
	C303.511627,177.844940 303.019684,176.799973 303.098389,175.799927 
	C304.264954,160.978104 299.826294,147.962524 290.865601,136.236435 
	C285.488464,129.199860 277.766602,128.635406 270.003113,128.028229 
	C266.211334,127.731667 262.396057,127.735725 258.099609,127.033691 
	C255.741104,125.326363 253.874390,124.189064 252.007675,123.051758 
z"/>
<path fill="#C42223" opacity="1.000000" stroke="none" 
	d="
M249.573486,181.000244 
	C250.333130,186.772720 251.542145,192.672379 250.707870,198.267365 
	C250.097458,202.361115 246.801331,206.054382 244.344971,209.965927 
	C235.201324,204.124146 227.024368,196.817978 217.470322,192.731125 
	C206.196411,187.908569 204.963882,179.591568 205.027054,169.693054 
	C205.049149,166.230621 205.332397,162.769852 206.328476,158.915176 
	C218.099838,171.950912 232.124130,179.422882 249.573486,181.000244 
z"/>
<path fill="#DB2A2A" opacity="1.000000" stroke="none" 
	d="
M251.557526,123.038757 
	C253.874390,124.189064 255.741104,125.326363 257.804962,126.739136 
	C250.738876,128.275909 243.355728,129.072372 236.240738,130.908188 
	C225.751373,133.614639 222.707474,146.300217 228.823593,154.219238 
	C234.473877,161.535110 241.590714,167.718307 248.072021,174.411072 
	C241.729721,172.523727 234.652191,170.733444 227.820129,168.264008 
	C223.833054,166.822891 220.095993,164.517975 216.497299,162.210480 
	C209.163773,157.508163 204.562698,151.221085 205.987366,141.453064 
	C211.109222,128.846909 220.765610,123.453186 233.725418,122.282265 
	C239.703003,122.337624 245.405197,122.681686 251.557526,123.038757 
z"/>
<path fill="black" opacity="0.6" stroke="none" 
	d="
M202.454712,60.975105 
	C201.983734,57.898064 203.298767,56.759007 206.487518,55.729977 
	C217.293671,52.242779 227.911530,48.132172 238.452576,43.890106 
	C241.256241,42.761826 243.446365,40.182014 246.076736,38.519512 
	C247.410797,37.676334 249.097900,37.391750 249.999207,37.074821 
	C249.999207,49.468788 249.999207,61.265385 249.998383,73.530533 
	C244.570099,71.771904 239.097900,69.646927 233.724899,67.295334 
	C223.886414,62.989349 213.430222,61.841335 202.454712,60.975105 
z"/>
<path fill="#DA2929" opacity="1.000000" stroke="none" 
	d="
M248.451538,147.900848 
	C245.231171,147.948166 242.437668,147.948166 239.306885,147.948166 
	C240.028259,142.407776 244.254288,140.227219 247.908966,138.805496 
	C256.234344,135.566849 264.485321,136.927505 272.083832,141.709808 
	C272.637299,142.058151 273.109863,142.564285 273.549561,143.059616 
	C278.782654,148.955200 275.525787,164.226212 267.799591,168.071838 
	C266.161224,163.771851 264.652100,159.459686 262.883942,155.256470 
	C260.507782,149.608002 254.679626,146.619858 248.451538,147.900848 
z"/>
<path fill="black" opacity="1.0" stroke="none" 
	d="
M177.004456,141.664062 
	C173.316635,144.168121 169.308563,145.893768 165.997437,148.503616 
	C156.480988,156.004547 154.055328,166.106277 158.569550,177.265869 
	C158.813950,177.870071 158.866776,178.551773 159.028702,179.586700 
	C157.915695,180.223175 156.782730,180.470367 155.326782,180.857193 
	C146.868317,165.282120 155.312668,149.273376 169.500229,140.797119 
	C171.315033,139.712875 173.301071,138.915298 175.571869,137.970764 
	C176.291489,139.067581 176.647003,140.178528 177.004456,141.664062 
z"/>
<path fill="#AD1818" opacity="1.000000" stroke="none" 
	d="
M245.988510,234.984619 
	C246.155701,234.433777 246.322876,233.882950 246.722961,233.154541 
	C247.488068,234.194855 248.020279,235.412735 248.804840,237.237213 
	C247.716690,243.219055 246.376175,248.594254 244.860046,254.353668 
	C242.875122,265.467346 244.079865,275.876190 248.009552,285.995148 
	C247.214996,286.314606 246.420441,286.634033 244.984802,286.808350 
	C243.557556,284.900116 242.340790,283.204346 242.052887,281.363312 
	C239.587891,265.600983 240.872192,250.121353 245.988510,234.984619 
z"/>
<path fill="#DA2929" opacity="1.000000" stroke="none" 
	d="
M245.035675,253.969452 
	C246.376175,248.594254 247.716690,243.219055 249.082977,237.440506 
	C250.855515,234.444244 252.602295,231.851334 254.656342,229.103119 
	C255.474380,230.170105 255.985168,231.392395 256.615601,233.124771 
	C253.460678,239.981491 250.211472,246.341583 246.870255,252.652954 
	C246.554916,253.248596 245.660965,253.537918 245.035675,253.969452 
z"/>
<path fill="#CF2527" opacity="1.000000" stroke="none" 
	d="
M98.568848,161.000977 
	C99.646439,170.515060 99.226936,180.355835 101.388107,189.592819 
	C104.624496,203.425354 110.253464,216.504364 119.307648,227.878815 
	C132.364685,244.281937 148.698944,256.198151 167.841522,264.464600 
	C173.295227,266.819702 178.919708,268.883423 184.082962,271.766541 
	C187.010895,273.401489 189.110596,276.484039 191.671585,278.817749 
	C204.748047,290.733551 220.468857,297.115540 238.681641,300.504303 
	C237.145340,302.584198 236.291290,304.298431 234.956451,305.460419 
	C222.925049,315.933960 209.524902,323.679321 193.590546,326.714996 
	C180.360046,329.235504 167.588882,326.989471 154.405090,323.947449 
	C149.988022,321.320282 145.989502,318.718414 141.962357,316.161621 
	C137.177078,313.123505 132.388840,310.088989 127.561188,307.119049 
	C123.653145,304.714844 119.684822,302.408630 115.399803,299.994324 
	C114.911133,299.637756 114.707359,299.394989 114.232529,299.090759 
	C113.905609,298.667419 113.715500,298.410797 113.236267,298.096130 
	C111.792908,296.274963 110.783379,294.340057 109.294823,292.900391 
	C102.933395,286.747925 96.474831,280.693115 89.933701,274.732147 
	C88.901199,273.791260 87.262436,273.515594 85.554886,272.858215 
	C81.962822,266.159271 75.327614,263.384918 69.744865,259.530609 
	C66.944626,257.597321 65.961105,256.866669 67.132195,252.776398 
	C70.199654,242.062698 71.807999,230.931168 73.995789,219.965729 
	C75.106987,214.396317 76.208778,208.825027 77.330948,203.257812 
	C77.427750,202.777588 77.821548,202.306259 77.781845,201.856903 
	C76.653793,189.089523 82.649002,178.696823 89.317383,168.737900 
	C91.420273,165.597305 95.209312,163.585739 98.568848,161.000977 
z"/>
<path fill="#BF2326" opacity="1.000000" stroke="none" 
	d="
M248.978912,305.970551 
	C251.083786,307.278961 253.645264,308.182861 255.220291,309.960663 
	C266.403625,322.583832 279.363495,332.332275 295.478729,338.091370 
	C309.587219,343.133301 323.750824,342.832825 338.591431,341.014954 
	C336.446442,344.389984 334.369781,348.357422 331.195862,351.013794 
	C326.318878,355.095581 320.965546,358.821594 315.307404,361.703308 
	C308.055878,365.396576 300.241180,367.966064 292.778198,371.266388 
	C281.570648,376.222717 270.430084,381.334351 259.347748,386.563751 
	C258.241028,387.085999 257.733429,388.877808 256.859863,390.425171 
	C255.381256,391.421265 253.990601,392.072540 252.228943,392.489685 
	C251.238632,390.123230 250.091522,387.993622 250.080704,385.858276 
	C249.955200,361.115784 250.023697,336.372375 249.957932,311.629425 
	C249.952927,309.742279 249.319977,307.856812 248.978912,305.970551 
z"/>
<path fill="#BF2326" opacity="1.000000" stroke="none" 
	d="
M339.217926,340.913300 
	C339.090454,340.691071 339.269257,340.436218 339.763672,340.165558 
	C339.886078,340.392639 339.701050,340.636261 339.217926,340.913300 
z"/>
<path fill="#CF2727" opacity="1.000000" stroke="none" 
	d="
M248.680496,306.123779 
	C249.319977,307.856812 249.952927,309.742279 249.957932,311.629425 
	C250.023697,336.372375 249.955200,361.115784 250.080704,385.858276 
	C250.091522,387.993622 251.238632,390.123230 251.924438,392.638489 
	C249.292587,392.325928 246.594223,391.630371 243.547592,390.863953 
	C238.612228,387.444366 234.422211,383.218567 229.357224,380.925232 
	C218.014282,375.789368 206.236893,371.612732 194.634232,367.051086 
	C192.024399,366.025024 189.405472,365.022034 186.416138,363.976715 
	C182.938492,361.986328 179.835449,360.027649 176.377258,358.023376 
	C174.660675,356.280792 173.390320,354.499847 171.919586,352.903503 
	C168.415146,349.099792 164.816055,345.383270 161.120758,341.318054 
	C180.429230,344.404358 199.262177,342.247986 216.657898,332.930328 
	C227.122543,327.325104 236.945023,320.371124 244.264786,310.584839 
	C245.445877,309.005768 247.000244,307.705933 248.680496,306.123779 
z"/>
<path fill="#C02225" opacity="1.000000" stroke="none" 
	d="
M244.860046,254.353668 
	C245.660965,253.537918 246.554916,253.248596 246.870255,252.652954 
	C250.211472,246.341583 253.460678,239.981491 256.877441,233.320999 
	C266.941376,222.324936 278.737488,214.930679 293.287231,212.411179 
	C298.309937,211.541428 303.386475,210.947723 308.373016,209.912766 
	C314.292206,208.684219 319.731842,206.519974 322.894989,200.749451 
	C323.314819,199.983566 324.444489,199.606812 325.583069,198.994873 
	C324.591156,213.078293 324.496704,227.476059 321.596771,241.284683 
	C318.477844,256.136322 309.947723,268.890106 297.419556,277.743134 
	C285.515656,286.155029 271.832642,291.317108 257.181946,292.434113 
	C254.498825,292.638672 251.482269,288.469635 248.314590,286.157288 
	C244.079865,275.876190 242.875122,265.467346 244.860046,254.353668 
z"/>
<path fill="#C02225" opacity="1.000000" stroke="none" 
	d="
M245.654388,234.939270 
	C240.872192,250.121353 239.587891,265.600983 242.052887,281.363312 
	C242.340790,283.204346 243.557556,284.900116 244.662811,286.833801 
	C245.254013,288.760345 245.526138,290.516266 245.913055,293.012878 
	C243.752670,292.642792 242.063919,292.336884 240.369568,292.065948 
	C228.908875,290.233337 218.089752,286.968964 207.923309,280.922943 
	C191.362320,271.074097 181.429443,256.461731 177.577698,238.284164 
	C174.932129,225.798904 175.100449,212.717392 174.029541,199.430695 
	C175.002884,199.419754 176.449570,199.628693 176.834732,200.381073 
	C179.944382,206.455490 185.565536,208.560562 191.607117,209.911163 
	C199.632919,211.705338 208.002029,212.465271 215.668854,215.215897 
	C222.644882,217.718674 229.066864,221.997192 235.369431,226.057419 
	C239.054535,228.431442 242.027145,231.911438 245.654388,234.939270 
z"/>
<path fill="black" opacity="1.0" stroke="none" 
	d="
M156.942383,184.732300 
	C156.348450,184.582809 155.728043,184.109848 155.082916,183.317505 
	C155.677414,183.468353 156.296661,183.938583 156.942383,184.732300 
z"/>
</svg>