<svg xmlns="http://www.w3.org/2000/svg" viewBox="0 0 200 200">
  <g fill="black">
    <!-- Stock: Clustered 4-petal florets in circular pattern (top view) -->
    <!-- Layer 1: Outer florets -->
    <g transform="translate(100 100)" opacity="0.55">
      <g transform="rotate(0) translate(0 -70)">
        <path d="M0,-14 C5,-12 8,-6 8,0 C8,6 5,12 0,14 C-5,12 -8,6 -8,0 C-8,-6 -5,-12 0,-14Z" fill="black" />
      </g>
      <g transform="rotate(30) translate(0 -70)">
        <path d="M0,-14 C5,-12 8,-6 8,0 C8,6 5,12 0,14 C-5,12 -8,6 -8,0 C-8,-6 -5,-12 0,-14Z" fill="black" />
      </g>
      <g transform="rotate(60) translate(0 -70)">
        <path d="M0,-14 C5,-12 8,-6 8,0 C8,6 5,12 0,14 C-5,12 -8,6 -8,0 C-8,-6 -5,-12 0,-14Z" fill="black" />
      </g>
      <g transform="rotate(90) translate(0 -70)">
        <path d="M0,-14 C5,-12 8,-6 8,0 C8,6 5,12 0,14 C-5,12 -8,6 -8,0 C-8,-6 -5,-12 0,-14Z" fill="black" />
      </g>
      <g transform="rotate(120) translate(0 -70)">
        <path d="M0,-14 C5,-12 8,-6 8,0 C8,6 5,12 0,14 C-5,12 -8,6 -8,0 C-8,-6 -5,-12 0,-14Z" fill="black" />
      </g>
      <g transform="rotate(150) translate(0 -70)">
        <path d="M0,-14 C5,-12 8,-6 8,0 C8,6 5,12 0,14 C-5,12 -8,6 -8,0 C-8,-6 -5,-12 0,-14Z" fill="black" />
      </g>
      <g transform="rotate(180) translate(0 -70)">
        <path d="M0,-14 C5,-12 8,-6 8,0 C8,6 5,12 0,14 C-5,12 -8,6 -8,0 C-8,-6 -5,-12 0,-14Z" fill="black" />
      </g>
      <g transform="rotate(210) translate(0 -70)">
        <path d="M0,-14 C5,-12 8,-6 8,0 C8,6 5,12 0,14 C-5,12 -8,6 -8,0 C-8,-6 -5,-12 0,-14Z" fill="black" />
      </g>
      <g transform="rotate(240) translate(0 -70)">
        <path d="M0,-14 C5,-12 8,-6 8,0 C8,6 5,12 0,14 C-5,12 -8,6 -8,0 C-8,-6 -5,-12 0,-14Z" fill="black" />
      </g>
      <g transform="rotate(270) translate(0 -70)">
        <path d="M0,-14 C5,-12 8,-6 8,0 C8,6 5,12 0,14 C-5,12 -8,6 -8,0 C-8,-6 -5,-12 0,-14Z" fill="black" />
      </g>
      <g transform="rotate(300) translate(0 -70)">
        <path d="M0,-14 C5,-12 8,-6 8,0 C8,6 5,12 0,14 C-5,12 -8,6 -8,0 C-8,-6 -5,-12 0,-14Z" fill="black" />
      </g>
      <g transform="rotate(330) translate(0 -70)">
        <path d="M0,-14 C5,-12 8,-6 8,0 C8,6 5,12 0,14 C-5,12 -8,6 -8,0 C-8,-6 -5,-12 0,-14Z" fill="black" />
      </g>
    </g>
    <!-- Layer 2: Middle ring -->
    <g transform="translate(100 100)" opacity="0.75">
      <g transform="rotate(15) translate(0 -48)">
        <path d="M0,-12 C4,-10 7,-5 7,0 C7,5 4,10 0,12 C-4,10 -7,5 -7,0 C-7,-5 -4,-10 0,-12Z" fill="black" />
      </g>
      <g transform="rotate(45) translate(0 -48)">
        <path d="M0,-12 C4,-10 7,-5 7,0 C7,5 4,10 0,12 C-4,10 -7,5 -7,0 C-7,-5 -4,-10 0,-12Z" fill="black" />
      </g>
      <g transform="rotate(75) translate(0 -48)">
        <path d="M0,-12 C4,-10 7,-5 7,0 C7,5 4,10 0,12 C-4,10 -7,5 -7,0 C-7,-5 -4,-10 0,-12Z" fill="black" />
      </g>
      <g transform="rotate(105) translate(0 -48)">
        <path d="M0,-12 C4,-10 7,-5 7,0 C7,5 4,10 0,12 C-4,10 -7,5 -7,0 C-7,-5 -4,-10 0,-12Z" fill="black" />
      </g>
      <g transform="rotate(135) translate(0 -48)">
        <path d="M0,-12 C4,-10 7,-5 7,0 C7,5 4,10 0,12 C-4,10 -7,5 -7,0 C-7,-5 -4,-10 0,-12Z" fill="black" />
      </g>
      <g transform="rotate(165) translate(0 -48)">
        <path d="M0,-12 C4,-10 7,-5 7,0 C7,5 4,10 0,12 C-4,10 -7,5 -7,0 C-7,-5 -4,-10 0,-12Z" fill="black" />
      </g>
      <g transform="rotate(195) translate(0 -48)">
        <path d="M0,-12 C4,-10 7,-5 7,0 C7,5 4,10 0,12 C-4,10 -7,5 -7,0 C-7,-5 -4,-10 0,-12Z" fill="black" />
      </g>
      <g transform="rotate(225) translate(0 -48)">
        <path d="M0,-12 C4,-10 7,-5 7,0 C7,5 4,10 0,12 C-4,10 -7,5 -7,0 C-7,-5 -4,-10 0,-12Z" fill="black" />
      </g>
      <g transform="rotate(255) translate(0 -48)">
        <path d="M0,-12 C4,-10 7,-5 7,0 C7,5 4,10 0,12 C-4,10 -7,5 -7,0 C-7,-5 -4,-10 0,-12Z" fill="black" />
      </g>
      <g transform="rotate(285) translate(0 -48)">
        <path d="M0,-12 C4,-10 7,-5 7,0 C7,5 4,10 0,12 C-4,10 -7,5 -7,0 C-7,-5 -4,-10 0,-12Z" fill="black" />
      </g>
      <g transform="rotate(315) translate(0 -48)">
        <path d="M0,-12 C4,-10 7,-5 7,0 C7,5 4,10 0,12 C-4,10 -7,5 -7,0 C-7,-5 -4,-10 0,-12Z" fill="black" />
      </g>
      <g transform="rotate(345) translate(0 -48)">
        <path d="M0,-12 C4,-10 7,-5 7,0 C7,5 4,10 0,12 C-4,10 -7,5 -7,0 C-7,-5 -4,-10 0,-12Z" fill="black" />
      </g>
    </g>
    <!-- Layer 3: Inner ring -->
    <g transform="translate(100 100)" opacity="0.9">
      <g transform="rotate(0) translate(0 -28)">
        <path d="M0,-10 C3,-8 5,-4 5,0 C5,4 3,8 0,10 C-3,8 -5,4 -5,0 C-5,-4 -3,-8 0,-10Z" fill="black" />
      </g>
      <g transform="rotate(45) translate(0 -28)">
        <path d="M0,-10 C3,-8 5,-4 5,0 C5,4 3,8 0,10 C-3,8 -5,4 -5,0 C-5,-4 -3,-8 0,-10Z" fill="black" />
      </g>
      <g transform="rotate(90) translate(0 -28)">
        <path d="M0,-10 C3,-8 5,-4 5,0 C5,4 3,8 0,10 C-3,8 -5,4 -5,0 C-5,-4 -3,-8 0,-10Z" fill="black" />
      </g>
      <g transform="rotate(135) translate(0 -28)">
        <path d="M0,-10 C3,-8 5,-4 5,0 C5,4 3,8 0,10 C-3,8 -5,4 -5,0 C-5,-4 -3,-8 0,-10Z" fill="black" />
      </g>
      <g transform="rotate(180) translate(0 -28)">
        <path d="M0,-10 C3,-8 5,-4 5,0 C5,4 3,8 0,10 C-3,8 -5,4 -5,0 C-5,-4 -3,-8 0,-10Z" fill="black" />
      </g>
      <g transform="rotate(225) translate(0 -28)">
        <path d="M0,-10 C3,-8 5,-4 5,0 C5,4 3,8 0,10 C-3,8 -5,4 -5,0 C-5,-4 -3,-8 0,-10Z" fill="black" />
      </g>
      <g transform="rotate(270) translate(0 -28)">
        <path d="M0,-10 C3,-8 5,-4 5,0 C5,4 3,8 0,10 C-3,8 -5,4 -5,0 C-5,-4 -3,-8 0,-10Z" fill="black" />
      </g>
      <g transform="rotate(315) translate(0 -28)">
        <path d="M0,-10 C3,-8 5,-4 5,0 C5,4 3,8 0,10 C-3,8 -5,4 -5,0 C-5,-4 -3,-8 0,-10Z" fill="black" />
      </g>
    </g>
    <!-- Center -->
    <circle cx="100" cy="100" r="12" fill="black" opacity="1.0" />
    <circle cx="100" cy="100" r="6" fill="white" opacity="0.28" />
  </g>
</svg>
