<svg xmlns="http://www.w3.org/2000/svg" viewBox="0 0 200 200">
  <g fill="black">
    <!-- Outer 16 ray petals (22.5° intervals) -->
    <g transform="translate(100 100)" opacity="0.68">
      <path d="M-11,0 C-13,-12 -9,-55 0,-72 C9,-55 13,-12 11,0Z" transform="rotate(0)" />
      <path d="M-11,0 C-13,-12 -9,-55 0,-72 C9,-55 13,-12 11,0Z" transform="rotate(22.5)" />
      <path d="M-11,0 C-13,-12 -9,-55 0,-72 C9,-55 13,-12 11,0Z" transform="rotate(45)" />
      <path d="M-11,0 C-13,-12 -9,-55 0,-72 C9,-55 13,-12 11,0Z" transform="rotate(67.5)" />
      <path d="M-11,0 C-13,-12 -9,-55 0,-72 C9,-55 13,-12 11,0Z" transform="rotate(90)" />
      <path d="M-11,0 C-13,-12 -9,-55 0,-72 C9,-55 13,-12 11,0Z" transform="rotate(112.5)" />
      <path d="M-11,0 C-13,-12 -9,-55 0,-72 C9,-55 13,-12 11,0Z" transform="rotate(135)" />
      <path d="M-11,0 C-13,-12 -9,-55 0,-72 C9,-55 13,-12 11,0Z" transform="rotate(157.5)" />
      <path d="M-11,0 C-13,-12 -9,-55 0,-72 C9,-55 13,-12 11,0Z" transform="rotate(180)" />
      <path d="M-11,0 C-13,-12 -9,-55 0,-72 C9,-55 13,-12 11,0Z" transform="rotate(202.5)" />
      <path d="M-11,0 C-13,-12 -9,-55 0,-72 C9,-55 13,-12 11,0Z" transform="rotate(225)" />
      <path d="M-11,0 C-13,-12 -9,-55 0,-72 C9,-55 13,-12 11,0Z" transform="rotate(247.5)" />
      <path d="M-11,0 C-13,-12 -9,-55 0,-72 C9,-55 13,-12 11,0Z" transform="rotate(270)" />
      <path d="M-11,0 C-13,-12 -9,-55 0,-72 C9,-55 13,-12 11,0Z" transform="rotate(292.5)" />
      <path d="M-11,0 C-13,-12 -9,-55 0,-72 C9,-55 13,-12 11,0Z" transform="rotate(315)" />
      <path d="M-11,0 C-13,-12 -9,-55 0,-72 C9,-55 13,-12 11,0Z" transform="rotate(337.5)" />
    </g>
    <!-- Inner 12 petals (30° intervals, offset 15°) -->
    <g transform="translate(100 100)" opacity="0.85">
      <path d="M-9,0 C-10,-10 -7,-44 0,-58 C7,-44 10,-10 9,0Z" transform="rotate(15)" />
      <path d="M-9,0 C-10,-10 -7,-44 0,-58 C7,-44 10,-10 9,0Z" transform="rotate(45)" />
      <path d="M-9,0 C-10,-10 -7,-44 0,-58 C7,-44 10,-10 9,0Z" transform="rotate(75)" />
      <path d="M-9,0 C-10,-10 -7,-44 0,-58 C7,-44 10,-10 9,0Z" transform="rotate(105)" />
      <path d="M-9,0 C-10,-10 -7,-44 0,-58 C7,-44 10,-10 9,0Z" transform="rotate(135)" />
      <path d="M-9,0 C-10,-10 -7,-44 0,-58 C7,-44 10,-10 9,0Z" transform="rotate(165)" />
      <path d="M-9,0 C-10,-10 -7,-44 0,-58 C7,-44 10,-10 9,0Z" transform="rotate(195)" />
      <path d="M-9,0 C-10,-10 -7,-44 0,-58 C7,-44 10,-10 9,0Z" transform="rotate(225)" />
      <path d="M-9,0 C-10,-10 -7,-44 0,-58 C7,-44 10,-10 9,0Z" transform="rotate(255)" />
      <path d="M-9,0 C-10,-10 -7,-44 0,-58 C7,-44 10,-10 9,0Z" transform="rotate(285)" />
      <path d="M-9,0 C-10,-10 -7,-44 0,-58 C7,-44 10,-10 9,0Z" transform="rotate(315)" />
      <path d="M-9,0 C-10,-10 -7,-44 0,-58 C7,-44 10,-10 9,0Z" transform="rotate(345)" />
    </g>
    <!-- Large center disk -->
    <circle cx="100" cy="100" r="38" fill="black" opacity="1.0" />
    <circle cx="100" cy="100" r="22" fill="white" opacity="0.12" />
  </g>
</svg>
