<svg xmlns="http://www.w3.org/2000/svg" viewBox="0 0 200 200">
  <g fill="black">
    <!-- Sweet Pea: Ruffled butterfly-like petals -->
    <!-- Layer 1: Outer wing petals -->
    <g transform="translate(100 100)" opacity="0.58">
      <path d="M-30,0 C-35,-15 -30,-45 -18,-65 C-8,-78 5,-80 15,-75 C25,-70 32,-55 30,-40 C28,-25 18,-10 5,-5 C-8,0 -22,5 -30,0Z" transform="rotate(0)" />
      <path d="M-30,0 C-35,-15 -30,-45 -18,-65 C-8,-78 5,-80 15,-75 C25,-70 32,-55 30,-40 C28,-25 18,-10 5,-5 C-8,0 -22,5 -30,0Z" transform="rotate(72)" />
      <path d="M-30,0 C-35,-15 -30,-45 -18,-65 C-8,-78 5,-80 15,-75 C25,-70 32,-55 30,-40 C28,-25 18,-10 5,-5 C-8,0 -22,5 -30,0Z" transform="rotate(144)" />
      <path d="M-30,0 C-35,-15 -30,-45 -18,-65 C-8,-78 5,-80 15,-75 C25,-70 32,-55 30,-40 C28,-25 18,-10 5,-5 C-8,0 -22,5 -30,0Z" transform="rotate(216)" />
      <path d="M-30,0 C-35,-15 -30,-45 -18,-65 C-8,-78 5,-80 15,-75 C25,-70 32,-55 30,-40 C28,-25 18,-10 5,-5 C-8,0 -22,5 -30,0Z" transform="rotate(288)" />
    </g>
    <!-- Layer 2: Middle ruffled petals -->
    <g transform="translate(100 100)" opacity="0.75">
      <path d="M-22,0 C-26,-12 -22,-35 -12,-52 C-4,-62 6,-64 14,-58 C22,-52 26,-38 24,-26 C22,-14 14,-5 4,-2 C-6,1 -16,4 -22,0Z" transform="rotate(36)" />
      <path d="M-22,0 C-26,-12 -22,-35 -12,-52 C-4,-62 6,-64 14,-58 C22,-52 26,-38 24,-26 C22,-14 14,-5 4,-2 C-6,1 -16,4 -22,0Z" transform="rotate(108)" />
      <path d="M-22,0 C-26,-12 -22,-35 -12,-52 C-4,-62 6,-64 14,-58 C22,-52 26,-38 24,-26 C22,-14 14,-5 4,-2 C-6,1 -16,4 -22,0Z" transform="rotate(180)" />
      <path d="M-22,0 C-26,-12 -22,-35 -12,-52 C-4,-62 6,-64 14,-58 C22,-52 26,-38 24,-26 C22,-14 14,-5 4,-2 C-6,1 -16,4 -22,0Z" transform="rotate(252)" />
      <path d="M-22,0 C-26,-12 -22,-35 -12,-52 C-4,-62 6,-64 14,-58 C22,-52 26,-38 24,-26 C22,-14 14,-5 4,-2 C-6,1 -16,4 -22,0Z" transform="rotate(324)" />
    </g>
    <!-- Layer 3: Inner petals -->
    <g transform="translate(100 100)" opacity="0.9">
      <path d="M-14,0 C-16,-8 -14,-24 -8,-36 C-2,-44 5,-45 10,-40 C15,-35 17,-25 16,-16 C15,-8 10,-2 4,0 C-2,2 -10,3 -14,0Z" transform="rotate(18)" />
      <path d="M-14,0 C-16,-8 -14,-24 -8,-36 C-2,-44 5,-45 10,-40 C15,-35 17,-25 16,-16 C15,-8 10,-2 4,0 C-2,2 -10,3 -14,0Z" transform="rotate(90)" />
      <path d="M-14,0 C-16,-8 -14,-24 -8,-36 C-2,-44 5,-45 10,-40 C15,-35 17,-25 16,-16 C15,-8 10,-2 4,0 C-2,2 -10,3 -14,0Z" transform="rotate(162)" />
      <path d="M-14,0 C-16,-8 -14,-24 -8,-36 C-2,-44 5,-45 10,-40 C15,-35 17,-25 16,-16 C15,-8 10,-2 4,0 C-2,2 -10,3 -14,0Z" transform="rotate(234)" />
      <path d="M-14,0 C-16,-8 -14,-24 -8,-36 C-2,-44 5,-45 10,-40 C15,-35 17,-25 16,-16 C15,-8 10,-2 4,0 C-2,2 -10,3 -14,0Z" transform="rotate(306)" />
    </g>
    <!-- Center -->
    <circle cx="100" cy="100" r="12" fill="black" opacity="1.0" />
    <circle cx="100" cy="100" r="6" fill="white" opacity="0.3" />
  </g>
</svg>
