<svg xmlns="http://www.w3.org/2000/svg" viewBox="0 0 200 200">
  <g fill="black">
    <!-- Outer 12 broad petals -->
    <g transform="translate(100 100)" opacity="0.58">
      <path d="M-13,0 C-16,-15 -11,-55 0,-68 C11,-55 16,-15 13,0Z" transform="rotate(0)" />
      <path d="M-13,0 C-16,-15 -11,-55 0,-68 C11,-55 16,-15 13,0Z" transform="rotate(30)" />
      <path d="M-13,0 C-16,-15 -11,-55 0,-68 C11,-55 16,-15 13,0Z" transform="rotate(60)" />
      <path d="M-13,0 C-16,-15 -11,-55 0,-68 C11,-55 16,-15 13,0Z" transform="rotate(90)" />
      <path d="M-13,0 C-16,-15 -11,-55 0,-68 C11,-55 16,-15 13,0Z" transform="rotate(120)" />
      <path d="M-13,0 C-16,-15 -11,-55 0,-68 C11,-55 16,-15 13,0Z" transform="rotate(150)" />
      <path d="M-13,0 C-16,-15 -11,-55 0,-68 C11,-55 16,-15 13,0Z" transform="rotate(180)" />
      <path d="M-13,0 C-16,-15 -11,-55 0,-68 C11,-55 16,-15 13,0Z" transform="rotate(210)" />
      <path d="M-13,0 C-16,-15 -11,-55 0,-68 C11,-55 16,-15 13,0Z" transform="rotate(240)" />
      <path d="M-13,0 C-16,-15 -11,-55 0,-68 C11,-55 16,-15 13,0Z" transform="rotate(270)" />
      <path d="M-13,0 C-16,-15 -11,-55 0,-68 C11,-55 16,-15 13,0Z" transform="rotate(300)" />
      <path d="M-13,0 C-16,-15 -11,-55 0,-68 C11,-55 16,-15 13,0Z" transform="rotate(330)" />
    </g>
    <!-- Middle 9 petals, 15° offset -->
    <g transform="translate(100 100)" opacity="0.74">
      <path d="M-10,0 C-12,-12 -8,-44 0,-56 C8,-44 12,-12 10,0Z" transform="rotate(15)" />
      <path d="M-10,0 C-12,-12 -8,-44 0,-56 C8,-44 12,-12 10,0Z" transform="rotate(55)" />
      <path d="M-10,0 C-12,-12 -8,-44 0,-56 C8,-44 12,-12 10,0Z" transform="rotate(95)" />
      <path d="M-10,0 C-12,-12 -8,-44 0,-56 C8,-44 12,-12 10,0Z" transform="rotate(135)" />
      <path d="M-10,0 C-12,-12 -8,-44 0,-56 C8,-44 12,-12 10,0Z" transform="rotate(175)" />
      <path d="M-10,0 C-12,-12 -8,-44 0,-56 C8,-44 12,-12 10,0Z" transform="rotate(215)" />
      <path d="M-10,0 C-12,-12 -8,-44 0,-56 C8,-44 12,-12 10,0Z" transform="rotate(255)" />
      <path d="M-10,0 C-12,-12 -8,-44 0,-56 C8,-44 12,-12 10,0Z" transform="rotate(295)" />
      <path d="M-10,0 C-12,-12 -8,-44 0,-56 C8,-44 12,-12 10,0Z" transform="rotate(335)" />
    </g>
    <!-- Inner 8 petals -->
    <g transform="translate(100 100)" opacity="0.90">
      <path d="M-7,0 C-8,-10 -5,-30 0,-40 C5,-30 8,-10 7,0Z" transform="rotate(0)" />
      <path d="M-7,0 C-8,-10 -5,-30 0,-40 C5,-30 8,-10 7,0Z" transform="rotate(45)" />
      <path d="M-7,0 C-8,-10 -5,-30 0,-40 C5,-30 8,-10 7,0Z" transform="rotate(90)" />
      <path d="M-7,0 C-8,-10 -5,-30 0,-40 C5,-30 8,-10 7,0Z" transform="rotate(135)" />
      <path d="M-7,0 C-8,-10 -5,-30 0,-40 C5,-30 8,-10 7,0Z" transform="rotate(180)" />
      <path d="M-7,0 C-8,-10 -5,-30 0,-40 C5,-30 8,-10 7,0Z" transform="rotate(225)" />
      <path d="M-7,0 C-8,-10 -5,-30 0,-40 C5,-30 8,-10 7,0Z" transform="rotate(270)" />
      <path d="M-7,0 C-8,-10 -5,-30 0,-40 C5,-30 8,-10 7,0Z" transform="rotate(315)" />
    </g>
    <!-- Center stamens -->
    <circle cx="100" cy="100" r="18" fill="black" opacity="1.0" />
    <circle cx="100" cy="100" r="9" fill="white" opacity="0.25" />
  </g>
</svg>
