<svg xmlns="http://www.w3.org/2000/svg" viewBox="0 0 200 200">
  <g fill="black">
    <!-- Layer 1: Outer feathery spikes -->
    <g transform="translate(100 100)" opacity="0.55">
      <path d="M-2,0 C-3,-30 -4,-60 -2,-85 C0,-88 0,-88 2,-85 C4,-60 3,-30 2,0Z" transform="rotate(0)" />
      <path d="M-2,0 C-3,-30 -4,-60 -2,-85 C0,-88 0,-88 2,-85 C4,-60 3,-30 2,0Z" transform="rotate(20)" />
      <path d="M-2,0 C-3,-30 -4,-60 -2,-85 C0,-88 0,-88 2,-85 C4,-60 3,-30 2,0Z" transform="rotate(40)" />
      <path d="M-2,0 C-3,-30 -4,-60 -2,-85 C0,-88 0,-88 2,-85 C4,-60 3,-30 2,0Z" transform="rotate(60)" />
      <path d="M-2,0 C-3,-30 -4,-60 -2,-85 C0,-88 0,-88 2,-85 C4,-60 3,-30 2,0Z" transform="rotate(80)" />
      <path d="M-2,0 C-3,-30 -4,-60 -2,-85 C0,-88 0,-88 2,-85 C4,-60 3,-30 2,0Z" transform="rotate(100)" />
      <path d="M-2,0 C-3,-30 -4,-60 -2,-85 C0,-88 0,-88 2,-85 C4,-60 3,-30 2,0Z" transform="rotate(120)" />
      <path d="M-2,0 C-3,-30 -4,-60 -2,-85 C0,-88 0,-88 2,-85 C4,-60 3,-30 2,0Z" transform="rotate(140)" />
      <path d="M-2,0 C-3,-30 -4,-60 -2,-85 C0,-88 0,-88 2,-85 C4,-60 3,-30 2,0Z" transform="rotate(160)" />
      <path d="M-2,0 C-3,-30 -4,-60 -2,-85 C0,-88 0,-88 2,-85 C4,-60 3,-30 2,0Z" transform="rotate(180)" />
      <path d="M-2,0 C-3,-30 -4,-60 -2,-85 C0,-88 0,-88 2,-85 C4,-60 3,-30 2,0Z" transform="rotate(200)" />
      <path d="M-2,0 C-3,-30 -4,-60 -2,-85 C0,-88 0,-88 2,-85 C4,-60 3,-30 2,0Z" transform="rotate(220)" />
      <path d="M-2,0 C-3,-30 -4,-60 -2,-85 C0,-88 0,-88 2,-85 C4,-60 3,-30 2,0Z" transform="rotate(240)" />
      <path d="M-2,0 C-3,-30 -4,-60 -2,-85 C0,-88 0,-88 2,-85 C4,-60 3,-30 2,0Z" transform="rotate(260)" />
      <path d="M-2,0 C-3,-30 -4,-60 -2,-85 C0,-88 0,-88 2,-85 C4,-60 3,-30 2,0Z" transform="rotate(280)" />
      <path d="M-2,0 C-3,-30 -4,-60 -2,-85 C0,-88 0,-88 2,-85 C4,-60 3,-30 2,0Z" transform="rotate(300)" />
      <path d="M-2,0 C-3,-30 -4,-60 -2,-85 C0,-88 0,-88 2,-85 C4,-60 3,-30 2,0Z" transform="rotate(320)" />
      <path d="M-2,0 C-3,-30 -4,-60 -2,-85 C0,-88 0,-88 2,-85 C4,-60 3,-30 2,0Z" transform="rotate(340)" />
    </g>
    <!-- Layer 2: Medium spikes -->
    <g transform="translate(100 100)" opacity="0.75">
      <path d="M-3,0 C-4,-20 -4,-40 -2,-58 C0,-62 0,-62 2,-58 C4,-40 4,-20 3,0Z" transform="rotate(10)" />
      <path d="M-3,0 C-4,-20 -4,-40 -2,-58 C0,-62 0,-62 2,-58 C4,-40 4,-20 3,0Z" transform="rotate(40)" />
      <path d="M-3,0 C-4,-20 -4,-40 -2,-58 C0,-62 0,-62 2,-58 C4,-40 4,-20 3,0Z" transform="rotate(70)" />
      <path d="M-3,0 C-4,-20 -4,-40 -2,-58 C0,-62 0,-62 2,-58 C4,-40 4,-20 3,0Z" transform="rotate(100)" />
      <path d="M-3,0 C-4,-20 -4,-40 -2,-58 C0,-62 0,-62 2,-58 C4,-40 4,-20 3,0Z" transform="rotate(130)" />
      <path d="M-3,0 C-4,-20 -4,-40 -2,-58 C0,-62 0,-62 2,-58 C4,-40 4,-20 3,0Z" transform="rotate(160)" />
      <path d="M-3,0 C-4,-20 -4,-40 -2,-58 C0,-62 0,-62 2,-58 C4,-40 4,-20 3,0Z" transform="rotate(190)" />
      <path d="M-3,0 C-4,-20 -4,-40 -2,-58 C0,-62 0,-62 2,-58 C4,-40 4,-20 3,0Z" transform="rotate(220)" />
      <path d="M-3,0 C-4,-20 -4,-40 -2,-58 C0,-62 0,-62 2,-58 C4,-40 4,-20 3,0Z" transform="rotate(250)" />
      <path d="M-3,0 C-4,-20 -4,-40 -2,-58 C0,-62 0,-62 2,-58 C4,-40 4,-20 3,0Z" transform="rotate(280)" />
      <path d="M-3,0 C-4,-20 -4,-40 -2,-58 C0,-62 0,-62 2,-58 C4,-40 4,-20 3,0Z" transform="rotate(310)" />
      <path d="M-3,0 C-4,-20 -4,-40 -2,-58 C0,-62 0,-62 2,-58 C4,-40 4,-20 3,0Z" transform="rotate(340)" />
    </g>
    <!-- Layer 3: Inner short spikes -->
    <g transform="translate(100 100)" opacity="0.9">
      <path d="M-4,0 C-5,-12 -5,-25 -3,-35 C0,-38 0,-38 3,-35 C5,-25 5,-12 4,0Z" transform="rotate(0)" />
      <path d="M-4,0 C-5,-12 -5,-25 -3,-35 C0,-38 0,-38 3,-35 C5,-25 5,-12 4,0Z" transform="rotate(45)" />
      <path d="M-4,0 C-5,-12 -5,-25 -3,-35 C0,-38 0,-38 3,-35 C5,-25 5,-12 4,0Z" transform="rotate(90)" />
      <path d="M-4,0 C-5,-12 -5,-25 -3,-35 C0,-38 0,-38 3,-35 C5,-25 5,-12 4,0Z" transform="rotate(135)" />
      <path d="M-4,0 C-5,-12 -5,-25 -3,-35 C0,-38 0,-38 3,-35 C5,-25 5,-12 4,0Z" transform="rotate(180)" />
      <path d="M-4,0 C-5,-12 -5,-25 -3,-35 C0,-38 0,-38 3,-35 C5,-25 5,-12 4,0Z" transform="rotate(225)" />
      <path d="M-4,0 C-5,-12 -5,-25 -3,-35 C0,-38 0,-38 3,-35 C5,-25 5,-12 4,0Z" transform="rotate(270)" />
      <path d="M-4,0 C-5,-12 -5,-25 -3,-35 C0,-38 0,-38 3,-35 C5,-25 5,-12 4,0Z" transform="rotate(315)" />
    </g>
    <!-- Center -->
    <circle cx="100" cy="100" r="12" fill="black" opacity="1.0" />
    <circle cx="100" cy="100" r="6" fill="white" opacity="0.3" />
  </g>
</svg>
