<?xml version="1.0" encoding="UTF-8"?>
<svg id="_레이어_2" data-name="레이어 2" xmlns="http://www.w3.org/2000/svg" viewBox="0 0 102.13 103.39">
  <defs>
    <style>
      .cls-1 {
        fill: #b2465b;
      }

      .cls-2 {
        fill: #d1d667;
      }

      .cls-3 {
        fill: #f74b6c;
      }

      .cls-4 {
        fill: #c1c146;
      }
    </style>
  </defs>
  <g id="_시안" data-name="시안">
    <g id="_안스리움" data-name="안스리움">
      <path class="cls-1" d="M45.24,68.64c.38,11.56.69,22.35.76,28.87.04,3.76,2.33,5.87,5.04,5.87h0c2.71,0,5-2.11,5.04-5.87.06-5.46.41-17.04.8-28.87h-11.65Z"/>
      <path class="cls-3" d="M57.35,7.45c-4.56-3.86-4.98-7.45-6.29-7.45s-1.72,3.59-6.29,7.45C5.91,40.3,0,56.66,0,75.05c0,14.76,11.22,28.34,26.9,28.34,12.37,0,21.44-6.74,23.81-13.95.05-.16.21-.25.36-.25s.3.08.36.25c2.37,7.21,11.44,13.95,23.81,13.95,15.68,0,26.9-13.59,26.9-28.34,0-18.38-5.91-34.74-44.78-67.59Z"/>
      <path class="cls-2" d="M55.34,76.46c.18-.26.28-.57.26-.88-.15-4.05-1.21-32.74-1.29-40.77-.03-2.42-1.5-3.78-3.25-3.78h0c-1.74,0-3.22,1.36-3.25,3.78-.09,8.55-.82,28.5-1.3,40.81-.01.31.08.61.26.87,2.34,3.41,3.3,6.61,4.27,6.61s1.94-3.22,4.29-6.64Z"/>
      <path class="cls-4" d="M51.05,74.13c-.96,0-1.92-3.16-4.23-6.55-.11,2.88-.21,5.6-.3,8.03-.01.31.08.61.26.87,2.34,3.41,3.3,6.61,4.27,6.61.97,0,1.94-3.22,4.29-6.64.18-.26.28-.57.26-.88-.04-1.12-.15-4.12-.29-8.04-2.33,3.41-3.3,6.59-4.26,6.6Z"/>
    </g>
  </g>
</svg>