<?xml version="1.0" encoding="UTF-8"?>
<svg id="_레이어_2" data-name="레이어 2" xmlns="http://www.w3.org/2000/svg" viewBox="0 0 102.05 112.57">
  <defs>
    <style>
      .cls-1 {
        fill: #f487c3;
      }

      .cls-2 {
        fill: #f2d64c;
      }

      .cls-3 {
        fill: #fc8bca;
      }

      .cls-4 {
        fill: #ffee50;
      }

      .cls-5 {
        fill: #ffe36c;
      }
    </style>
  </defs>
  <g id="_시안" data-name="시안">
    <g id="_수선화" data-name="수선화">
      <g>
        <g>
          <path class="cls-3" d="M97.81,25.63c1.53,1.48,2.64,3.4,3.15,5.46,2.55,10.25,1.14,22.3-9.9,28.68-4.62,2.67-11.4,3.37-20.45-.63-6.88-3.05-10.66-2.3-13.39-2.99-2.21-.56-3.6-2.98-2.98-5.17.77-2.71,3.3-5.61,4.1-13.09,1.05-9.83,5.06-15.36,9.67-18.02,11.04-6.38,22.18-1.57,29.79,5.76Z"/>
          <path class="cls-3" d="M54.18,112.12c-2.05.59-4.26.59-6.31,0-10.15-2.92-19.88-10.16-19.88-22.91,0-5.33,2.78-11.56,10.77-17.39,6.08-4.43,7.32-8.08,9.28-10.1,1.59-1.63,4.38-1.63,5.96,0,1.96,2.02,3.21,5.67,9.28,10.1,7.99,5.83,10.77,12.06,10.77,17.39,0,12.75-9.73,19.99-19.88,22.91Z"/>
          <path class="cls-3" d="M4.24,25.63c-1.53,1.48-2.64,3.4-3.15,5.46C-1.46,41.35-.06,53.39,10.99,59.77c4.62,2.67,11.4,3.37,20.45-.63,6.88-3.05,10.66-2.3,13.39-2.99,2.21-.56,3.6-2.98,2.98-5.17-.77-2.71-3.3-5.61-4.1-13.09-1.05-9.83-5.06-15.36-9.67-18.02-11.04-6.38-22.18-1.57-29.79,5.76Z"/>
        </g>
        <path class="cls-1" d="M54.18.44c-2.05-.59-4.26-.59-6.31,0-10.15,2.92-19.88,10.16-19.88,22.91,0,5.33,2.78,11.56,10.77,17.39,6.08,4.43,7.32,8.08,9.28,10.1,1.59,1.63,4.38,1.63,5.96,0,1.96-2.02,3.21-5.67,9.28-10.1,7.99-5.83,10.77-12.06,10.77-17.39,0-12.75-9.73-19.99-19.88-22.91Z"/>
        <path class="cls-1" d="M100.96,81.47c-.51,2.07-1.62,3.98-3.15,5.46-7.6,7.33-18.74,12.14-29.79,5.76-4.62-2.67-8.62-8.19-9.67-18.02-.8-7.48-3.34-10.38-4.1-13.09-.62-2.19.78-4.61,2.98-5.17,2.73-.69,6.51.06,13.39-2.99,9.04-4,15.83-3.3,20.45-.63,11.04,6.38,12.45,18.43,9.9,28.68Z"/>
        <path class="cls-1" d="M1.09,81.47c.51,2.07,1.62,3.98,3.15,5.46,7.6,7.33,18.74,12.14,29.79,5.76,4.62-2.67,8.62-8.19,9.67-18.02.8-7.48,3.34-10.38,4.1-13.09.62-2.19-.78-4.61-2.98-5.17-2.73-.69-6.51.06-13.39-2.99-9.04-4-15.83-3.3-20.45-.63C-.06,59.17-1.46,71.22,1.09,81.47Z"/>
      </g>
      <path class="cls-5" d="M52.43,49.41h-2.81c-1.59,0-3.05.85-3.84,2.22l-1.41,2.44c-.79,1.37-.79,3.06,0,4.44l1.41,2.44c.79,1.37,2.26,2.22,3.84,2.22h2.81c1.59,0,3.05-.85,3.84-2.22l1.41-2.44c.79-1.37.79-3.06,0-4.44l-1.41-2.44c-.79-1.37-2.26-2.22-3.84-2.22Z"/>
      <path class="cls-4" d="M54.01,61.72c-1.59-1.63-4.38-1.63-5.96,0-.15.16-.3.33-.45.51.08-.22.15-.43.21-.64.62-2.19-.78-4.61-2.98-5.17-.21-.05-.44-.1-.67-.14.23-.04.45-.08.67-.14,2.21-.56,3.6-2.98,2.98-5.17-.06-.21-.13-.43-.21-.64.15.18.3.35.45.51,1.59,1.63,4.38,1.63,5.96,0,.15-.16.3-.33.45-.51-.08.22-.15.43-.21.64-.62,2.19.78,4.61,2.98,5.17.21.05.44.1.67.14-.23.04-.45.08-.67.14-2.21.56-3.6,2.98-2.98,5.17.06.21.13.43.21.64-.15-.18-.3-.35-.45-.51Z"/>
      <g>
        <g>
          <g>
            <circle class="cls-2" cx="45.92" cy="47.44" r="1.07"/>
            <circle class="cls-2" cx="56.13" cy="65.13" r="1.07"/>
          </g>
          <g>
            <circle class="cls-2" cx="40.81" cy="56.28" r="1.07"/>
            <circle class="cls-2" cx="61.24" cy="56.28" r="1.07"/>
          </g>
          <g>
            <circle class="cls-2" cx="45.92" cy="65.13" r="1.07"/>
            <circle class="cls-2" cx="56.13" cy="47.44" r="1.07"/>
          </g>
        </g>
        <circle class="cls-2" cx="51.02" cy="56.28" r="1.07"/>
        <g>
          <circle class="cls-2" cx="51.02" cy="50.49" r="1.07"/>
          <circle class="cls-2" cx="51.02" cy="62.07" r="1.07"/>
        </g>
        <g>
          <circle class="cls-2" cx="56.04" cy="53.39" r="1.07"/>
          <circle class="cls-2" cx="46.01" cy="59.18" r="1.07"/>
        </g>
        <g>
          <circle class="cls-2" cx="56.04" cy="59.18" r="1.07"/>
          <circle class="cls-2" cx="46.01" cy="53.39" r="1.07"/>
        </g>
      </g>
    </g>
  </g>
</svg>