<?xml version="1.0" encoding="UTF-8"?>
<svg id="_레이어_2" data-name="레이어 2" xmlns="http://www.w3.org/2000/svg" xmlns:xlink="http://www.w3.org/1999/xlink" viewBox="0 0 113.96 123.01">
  <defs>
    <style>
      .cls-1 {
        fill: #f2f4f7;
      }

      .cls-2 {
        fill: #eac31b;
      }

      .cls-3 {
        fill: #d1d7e0;
      }

      .cls-4 {
        fill: #efd226;
      }

      .cls-5 {
        clip-path: url(#clippath);
      }
    </style>
    <clipPath id="clippath">
      <path class="cls-4" d="M56.98,32.47h0c-1.5,0-2.76,1.24-2.78,3.45-.08,7.88-.72,37.62-1.12,56.15.5.18.94.35,1.33.49,1.67.62,3.5.62,5.16,0,.39-.14.82-.31,1.33-.49-.41-18.54-1.04-48.28-1.12-56.15-.02-2.21-1.29-3.45-2.78-3.45Z"/>
    </clipPath>
  </defs>
  <g id="_시안" data-name="시안">
    <g id="_칼라" data-name="칼라">
      <path class="cls-3" d="M56.98,70.55H19.7c5.02,5.85,10.63,9.02,18.92,25.25,4.47,8.76,8.18,24.37,15.98,26.83.77.24,1.58.37,2.38.37.8,0,1.61-.13,2.38-.37,7.8-2.46,11.51-18.08,15.98-26.83,8.29-16.23,13.9-19.41,18.92-25.25h-37.28Z"/>
      <path class="cls-1" d="M66.03,6.67c-3.22-3.94-5.07-5.97-7.82-6.55-.81-.17-1.66-.17-2.47,0-2.74.58-4.6,2.61-7.82,6.55C21.42,39.11-4.42,46.4.64,64.23c2.75,9.7,16.71,18.28,46.25,25.95,3.94,1.02,6.06,1.84,7.51,2.38,1.67.62,3.5.62,5.16,0,1.45-.54,3.57-1.35,7.51-2.38,29.54-7.67,43.5-16.25,46.25-25.95,5.05-17.83-20.78-25.11-47.29-57.55Z"/>
      <g>
        <path class="cls-4" d="M56.98,32.47h0c-1.5,0-2.76,1.24-2.78,3.45-.08,7.88-.72,37.62-1.12,56.15.5.18.94.35,1.33.49,1.67.62,3.5.62,5.16,0,.39-.14.82-.31,1.33-.49-.41-18.54-1.04-48.28-1.12-56.15-.02-2.21-1.29-3.45-2.78-3.45Z"/>
        <g class="cls-5">
          <path class="cls-2" d="M53.24,84.55l1.79.46c1.28.33,2.62.33,3.9,0l1.8-.46.16,8.47h-7.81s.16-8.47.16-8.47"/>
        </g>
      </g>
    </g>
  </g>
</svg>