<?xml version="1.0" encoding="UTF-8"?>
<svg id="_레이어_2" data-name="레이어 2" xmlns="http://www.w3.org/2000/svg" viewBox="0 0 179.74 125.94">
  <defs>
    <style>
      .cls-1 {
        fill: #b0d69f;
      }

      .cls-2 {
        fill: #96a88e;
      }

      .cls-3 {
        fill: #ffa1cc;
      }

      .cls-4 {
        fill: #96bd86;
      }

      .cls-5 {
        fill: none;
        stroke: #96bd86;
        stroke-miterlimit: 10;
        stroke-width: 8px;
      }

      .cls-6 {
        fill: #bfe288;
      }

      .cls-7 {
        fill: #f286b1;
      }

      .cls-8 {
        fill: #f78bb4;
      }

      .cls-9 {
        fill: #ff94c0;
      }

      .cls-10 {
        fill: #ffa6d3;
      }
    </style>
  </defs>
  <g id="_시안" data-name="시안">
    <g id="_라이스플라워" data-name="라이스플라워">
      <g id="_흰" data-name="흰">
        <g>
          <line class="cls-5" x1="75.3" y1="99.48" x2="89.87" y2="120.7"/>
          <line class="cls-5" x1="104.44" y1="99.48" x2="89.87" y2="120.7"/>
          <polygon class="cls-1" points="108.14 109.12 92.71 117.81 92.71 101.63 87.03 101.63 87.03 117.81 71.61 109.12 68.81 114.07 89.87 125.94 110.93 114.07 108.14 109.12"/>
        </g>
        <g>
          <rect class="cls-2" x="38.31" y="43.9" width="103.12" height="46.93"/>
          <g>
            <g>
              <path class="cls-9" d="M43.21,16.25c-2.5-.68-4.67-.5-6.01-.04-1.32.51-3.1,1.77-4.58,3.9-4.86,7-.77,12.2-.77,12.2l3.6,9.89,19.8-7.21-3.6-9.89s-.2-6.61-8.43-8.85Z"/>
              <path class="cls-8" d="M56.92,18.91c-1.36-.63-2.59-.93-3.63-1-1.44-.1-2.83.41-3.87,1.41-.75.72-1.51,1.74-2.14,3.1-.05.12-.1.23-.15.35h0s-2.79,5.73-2.73,11.51c0,.26.04.81-.28.93s-.64-.32-.81-.53c-3.67-4.46-9.49-7.06-9.49-7.06h0c-.11-.06-.22-.11-.34-.17-1.36-.63-2.59-.93-3.63-1-1.44-.1-2.83.41-3.87,1.41-.75.72-1.51,1.74-2.14,3.1-3.79,8.12.74,15.07.74,15.07,0,0,5.52,10.68,23.61,9.33,1.04-.08,2.06-.3,3.03-.65.97-.35,1.9-.84,2.74-1.45,14.73-10.6,12.09-22.32,12.09-22.32,0,0-1-8.24-9.12-12.03Z"/>
              <path class="cls-9" d="M48.96,32.05c-2.54-.79-4.73-.64-6.07-.19-1.32.52-3.09,1.81-4.53,4.05-4.73,7.36-.48,12.99-.48,12.99l1.21,3.3,19.8-7.21-1.21-3.3s-.37-7.05-8.72-9.65Z"/>
              <path class="cls-7" d="M61.02,34.56c-1.13-.27-2.18-.33-3.09-.27-1.25.08-2.53.55-3.54,1.29-.73.54-1.5,1.26-2.19,2.19-.06.08-.11.16-.17.24h0s-3.03,3.93-3.56,7.61c-.02.17-.04.51-.34.62s-.53-.14-.66-.25c-2.77-2.47-7.62-3.54-7.62-3.54h0c-.09-.02-.19-.05-.28-.07-1.13-.27-2.18-.33-3.09-.27-1.25.08-2.53.55-3.54,1.29-.73.54-1.5,1.26-2.19,2.19-4.15,5.56-.87,9.53-.87,9.53,0,0,3.77,6.24,19.79,3.56.92-.15,1.84-.4,2.73-.72.89-.32,1.75-.73,2.55-1.2,14-8.24,12.88-15.45,12.88-15.45,0,0-.04-5.15-6.79-6.74Z"/>
              <path class="cls-4" d="M52.21,57.46c-6.51.23-14.98,1.45-14.98,1.45,5.17,3.39,13.19,1.3,15.65.4,2.46-.89,9.95-4.44,11.73-10.37,0,0-7.27,4.5-12.4,8.52Z"/>
            </g>
            <g>
              <path class="cls-9" d="M136.53,16.25c2.5-.68,4.67-.5,6.01-.04,1.32.51,3.1,1.77,4.58,3.9,4.86,7,.77,12.2.77,12.2l-3.6,9.89-19.8-7.21,3.6-9.89s.2-6.61,8.43-8.85Z"/>
              <path class="cls-8" d="M122.82,18.91c1.36-.63,2.59-.93,3.63-1,1.44-.1,2.83.41,3.87,1.41.75.72,1.51,1.74,2.14,3.1.05.12.1.23.15.35h0s2.79,5.73,2.73,11.51c0,.26-.04.81.28.93s.64-.32.81-.53c3.67-4.46,9.49-7.06,9.49-7.06h0c.11-.06.22-.11.34-.17,1.36-.63,2.59-.93,3.63-1,1.44-.1,2.83.41,3.87,1.41.75.72,1.51,1.74,2.14,3.1,3.79,8.12-.74,15.07-.74,15.07,0,0-5.52,10.68-23.61,9.33-1.04-.08-2.06-.3-3.03-.65-.97-.35-1.9-.84-2.74-1.45-14.73-10.6-12.09-22.32-12.09-22.32,0,0,1-8.24,9.12-12.03Z"/>
              <path class="cls-9" d="M130.78,32.05c2.54-.79,4.73-.64,6.07-.19,1.32.52,3.09,1.81,4.53,4.05,4.73,7.36.48,12.99.48,12.99l-1.21,3.3-19.8-7.21,1.21-3.3s.37-7.05,8.72-9.65Z"/>
              <path class="cls-7" d="M118.72,34.56c1.13-.27,2.18-.33,3.09-.27,1.25.08,2.53.55,3.54,1.29.73.54,1.5,1.26,2.19,2.19.06.08.11.16.17.24h0s3.03,3.93,3.56,7.61c.02.17.04.51.34.62s.53-.14.66-.25c2.77-2.47,7.62-3.54,7.62-3.54h0c.09-.02.19-.05.28-.07,1.13-.27,2.18-.33,3.09-.27,1.25.08,2.53.55,3.54,1.29.73.54,1.5,1.26,2.19,2.19,4.15,5.56.87,9.53.87,9.53,0,0-3.77,6.24-19.79,3.56-.92-.15-1.84-.4-2.73-.72-.89-.32-1.75-.73-2.55-1.2-14-8.24-12.88-15.45-12.88-15.45,0,0,.04-5.15,6.79-6.74Z"/>
              <path class="cls-4" d="M127.53,57.46c6.51.23,14.98,1.45,14.98,1.45-5.17,3.39-13.19,1.3-15.65.4-2.46-.89-9.95-4.44-11.73-10.37,0,0,7.27,4.5,12.4,8.52Z"/>
            </g>
          </g>
          <g>
            <path class="cls-9" d="M95.51,2.1c-2.12-1.5-4.22-2.07-5.64-2.1-1.42.03-3.52.6-5.64,2.1-6.96,4.92-4.9,11.2-4.9,11.2v10.53h21.07v-10.53s2.07-6.28-4.9-11.2Z"/>
            <path class="cls-8" d="M107.48,9.29c-1.06-1.06-2.12-1.76-3.07-2.18-1.32-.58-2.8-.58-4.12,0-.95.42-2.01,1.12-3.07,2.18-.09.09-.17.18-.26.28h0s-4.58,4.43-6.5,9.88c-.09.25-.24.77-.58.77s-.5-.52-.58-.77c-1.92-5.45-6.5-9.88-6.5-9.88h0c-.09-.09-.17-.18-.26-.28-1.06-1.06-2.12-1.76-3.07-2.18-1.32-.58-2.8-.58-4.12,0-.95.42-2.01,1.12-3.07,2.18-6.34,6.34-4.46,14.42-4.46,14.42,0,0,1.53,11.92,19,16.84,1,.28,2.04.42,3.07.42,1.03,0,2.07-.14,3.07-.42,17.46-4.92,19-16.84,19-16.84,0,0,1.88-8.08-4.46-14.42Z"/>
            <path class="cls-9" d="M95.51,18.92c-2.12-1.61-4.22-2.22-5.64-2.26-1.42.03-3.52.65-5.64,2.26-6.96,5.29-4.9,12.05-4.9,12.05v3.52s21.08,0,21.08,0v-3.52s2.06-6.75-4.91-12.05Z"/>
            <path class="cls-7" d="M105.99,25.4c-.97-.64-1.94-1.06-2.81-1.31-1.2-.35-2.56-.35-3.77,0-.87.25-1.84.67-2.81,1.31-.08.05-.16.11-.24.17h0s-4.19,2.66-5.95,5.93c-.08.15-.22.46-.53.46s-.45-.32-.53-.46c-1.76-3.27-5.95-5.93-5.95-5.93h0c-.08-.06-.16-.11-.24-.17-.97-.64-1.94-1.06-2.81-1.31-1.2-.35-2.56-.35-3.77,0-.87.25-1.84.67-2.81,1.31-5.8,3.8-4.08,8.66-4.08,8.66,0,0,1.4,7.16,17.38,10.11.92.17,1.86.25,2.81.25s1.89-.08,2.81-.25c15.98-2.95,17.38-10.11,17.38-10.11,0,0,1.72-4.85-4.08-8.66Z"/>
            <path class="cls-4" d="M89.87,43.9c-6.2-2.01-14.57-3.76-14.57-3.76,3.7,4.96,11.95,5.73,14.57,5.73s10.87-.77,14.57-5.73c0,0-8.37,1.75-14.57,3.76Z"/>
          </g>
          <g>
            <g>
              <path class="cls-9" d="M13.25,52.15c-2.58.21-4.56,1.13-5.67,2.02-1.06.93-2.31,2.72-2.97,5.23-2.17,8.24,3.45,11.72,3.45,11.72l6.77,8.06,16.14-13.54-6.77-8.06s-2.45-6.14-10.95-5.43Z"/>
              <path class="cls-8" d="M27.05,49.96c-1.5-.13-2.76.01-3.76.3-1.38.4-2.52,1.36-3.16,2.65-.46.93-.82,2.15-.95,3.65-.01.13-.02.25-.02.38h0s-.66,6.34,1.37,11.75c.09.25.32.74.05.97s-.72-.08-.94-.22c-4.98-2.94-11.33-3.39-11.33-3.39h0c-.13-.01-.25-.03-.38-.04-1.5-.13-2.76.01-3.76.3-1.38.4-2.52,1.36-3.16,2.65-.46.93-.82,2.15-.95,3.65-.78,8.93,5.85,13.91,5.85,13.91,0,0,8.84,8.15,25.38.69.95-.43,1.83-.98,2.63-1.65.79-.66,1.49-1.44,2.08-2.3,10.21-14.99,3.73-25.11,3.73-25.11,0,0-3.75-7.4-12.68-8.18Z"/>
              <path class="cls-9" d="M24.06,65.03c-2.66.13-4.66,1.01-5.77,1.9-1.06.94-2.28,2.76-2.87,5.35-1.93,8.53,3.99,12.38,3.99,12.38l2.27,2.69,16.14-13.54-2.27-2.69s-2.76-6.5-11.49-6.08Z"/>
              <path class="cls-7" d="M36.25,63.26c-1.15.14-2.17.44-3,.8-1.15.51-2.19,1.38-2.89,2.42-.5.75-.98,1.7-1.31,2.81-.03.1-.05.19-.08.28h0s-1.5,4.73-.74,8.37c.03.17.13.5-.11.7s-.55.05-.71-.01c-3.45-1.38-8.37-.72-8.37-.72h0c-.1,0-.19.02-.29.03-1.15.14-2.17.44-3,.8-1.15.51-2.19,1.38-2.89,2.42-.5.75-.98,1.7-1.31,2.81-2,6.64,2.44,9.25,2.44,9.25,0,0,5.68,4.58,19.81-3.43.81-.46,1.59-1,2.32-1.61.72-.61,1.4-1.28,1.99-2,10.34-12.53,6.82-18.92,6.82-18.92,0,0-1.8-4.82-8.69-4.01Z"/>
              <path class="cls-6" d="M35.8,87.79c-6.04,2.44-13.58,6.48-13.58,6.48,6.02,1.42,12.84-3.29,14.84-4.97,2-1.68,7.83-7.58,7.48-13.76,0,0-5.29,6.72-8.74,12.24Z"/>
            </g>
            <g>
              <path class="cls-9" d="M166.49,52.15c2.58.21,4.56,1.13,5.67,2.02,1.06.93,2.31,2.72,2.97,5.23,2.17,8.24-3.45,11.72-3.45,11.72l-6.77,8.06-16.14-13.54,6.77-8.06s2.45-6.14,10.95-5.43Z"/>
              <path class="cls-8" d="M152.7,49.96c1.5-.13,2.76.01,3.76.3,1.38.4,2.52,1.36,3.16,2.65.46.93.82,2.15.95,3.65.01.13.02.25.02.38h0s.66,6.34-1.37,11.75c-.09.25-.32.74-.05.97s.72-.08.94-.22c4.98-2.94,11.33-3.39,11.33-3.39h0c.13-.01.25-.03.38-.04,1.5-.13,2.76.01,3.76.3,1.38.4,2.52,1.36,3.16,2.65.46.93.82,2.15.95,3.65.78,8.93-5.85,13.91-5.85,13.91,0,0-8.84,8.15-25.38.69-.95-.43-1.83-.98-2.63-1.65-.79-.66-1.49-1.44-2.08-2.3-10.21-14.99-3.73-25.11-3.73-25.11,0,0,3.75-7.4,12.68-8.18Z"/>
              <path class="cls-9" d="M155.68,65.03c2.66.13,4.66,1.01,5.77,1.9,1.06.94,2.28,2.76,2.87,5.35,1.93,8.53-3.99,12.38-3.99,12.38l-2.27,2.69-16.14-13.54,2.27-2.69s2.76-6.5,11.49-6.08Z"/>
              <path class="cls-7" d="M143.49,63.26c1.15.14,2.17.44,3,.8,1.15.51,2.19,1.38,2.89,2.42.5.75.98,1.7,1.31,2.81.03.1.05.19.08.28h0s1.5,4.73.74,8.37c-.03.17-.13.5.11.7s.55.05.71-.01c3.45-1.38,8.37-.72,8.37-.72h0c.1,0,.19.02.29.03,1.15.14,2.17.44,3,.8,1.15.51,2.19,1.38,2.89,2.42.5.75.98,1.7,1.31,2.81,2,6.64-2.44,9.25-2.44,9.25,0,0-5.68,4.58-19.81-3.43-.81-.46-1.59-1-2.32-1.61-.72-.61-1.4-1.28-1.99-2-10.34-12.53-6.82-18.92-6.82-18.92,0,0,1.8-4.82,8.69-4.01Z"/>
              <path class="cls-6" d="M143.94,87.79c6.04,2.44,13.58,6.48,13.58,6.48-6.02,1.42-12.84-3.29-14.84-4.97-2-1.68-7.83-7.58-7.48-13.76,0,0,5.29,6.72,8.74,12.24Z"/>
            </g>
          </g>
          <g>
            <g>
              <path class="cls-3" d="M64.28,32.91c-2.5-.68-4.67-.5-6.01-.04-1.32.51-3.1,1.77-4.58,3.9-4.86,7-.77,12.2-.77,12.2l3.6,9.89,19.8-7.21-3.6-9.89s-.2-6.61-8.43-8.85Z"/>
              <path class="cls-9" d="M77.99,35.57c-1.36-.63-2.59-.93-3.63-1-1.44-.1-2.83.41-3.87,1.41-.75.72-1.51,1.74-2.14,3.1-.05.12-.1.23-.15.35h0s-2.79,5.73-2.73,11.51c0,.26.04.81-.28.93s-.64-.32-.81-.53c-3.67-4.46-9.49-7.06-9.49-7.06h0c-.11-.06-.22-.11-.34-.17-1.36-.63-2.59-.93-3.63-1-1.44-.1-2.83.41-3.87,1.41-.75.72-1.51,1.74-2.14,3.1-3.79,8.12.74,15.07.74,15.07,0,0,5.52,10.68,23.61,9.33,1.04-.08,2.06-.3,3.03-.65s1.9-.84,2.74-1.45c14.73-10.6,12.09-22.32,12.09-22.32,0,0-1-8.24-9.12-12.03Z"/>
              <path class="cls-10" d="M70.04,48.71c-2.54-.79-4.73-.64-6.07-.19-1.32.52-3.09,1.81-4.53,4.05-4.73,7.36-.48,12.99-.48,12.99l1.21,3.3,19.8-7.21-1.21-3.3s-.37-7.05-8.72-9.65Z"/>
              <path class="cls-8" d="M82.1,51.22c-1.13-.27-2.18-.33-3.09-.27-1.25.08-2.53.55-3.54,1.29-.73.54-1.5,1.26-2.19,2.19-.06.08-.11.16-.17.24h0s-3.03,3.93-3.56,7.61c-.02.17-.04.51-.34.62s-.53-.14-.66-.25c-2.77-2.47-7.62-3.54-7.62-3.54h0c-.09-.02-.19-.05-.28-.07-1.13-.27-2.18-.33-3.09-.27-1.25.08-2.53.55-3.54,1.29-.73.54-1.5,1.26-2.19,2.19-4.15,5.56-.87,9.53-.87,9.53,0,0,3.77,6.24,19.79,3.56.92-.15,1.84-.4,2.73-.72.89-.32,1.75-.73,2.55-1.2,14-8.24,12.88-15.45,12.88-15.45,0,0-.04-5.15-6.79-6.74Z"/>
              <path class="cls-6" d="M73.28,74.12c-6.51.23-14.98,1.45-14.98,1.45,5.17,3.39,13.19,1.3,15.65.4s9.95-4.44,11.73-10.37c0,0-7.27,4.5-12.4,8.52Z"/>
            </g>
            <g>
              <path class="cls-3" d="M115.46,32.91c2.5-.68,4.67-.5,6.01-.04,1.32.51,3.1,1.77,4.58,3.9,4.86,7,.77,12.2.77,12.2l-3.6,9.89-19.8-7.21,3.6-9.89s.2-6.61,8.43-8.85Z"/>
              <path class="cls-9" d="M101.75,35.57c1.36-.63,2.59-.93,3.63-1,1.44-.1,2.83.41,3.87,1.41.75.72,1.51,1.74,2.14,3.1.05.12.1.23.15.35h0s2.79,5.73,2.73,11.51c0,.26-.04.81.28.93s.64-.32.81-.53c3.67-4.46,9.49-7.06,9.49-7.06h0c.11-.06.22-.11.34-.17,1.36-.63,2.59-.93,3.63-1,1.44-.1,2.83.41,3.87,1.41.75.72,1.51,1.74,2.14,3.1,3.79,8.12-.74,15.07-.74,15.07,0,0-5.52,10.68-23.61,9.33-1.04-.08-2.06-.3-3.03-.65-.97-.35-1.9-.84-2.74-1.45-14.73-10.6-12.09-22.32-12.09-22.32,0,0,1-8.24,9.12-12.03Z"/>
              <path class="cls-10" d="M109.7,48.71c2.54-.79,4.73-.64,6.07-.19,1.32.52,3.09,1.81,4.53,4.05,4.73,7.36.48,12.99.48,12.99l-1.21,3.3-19.8-7.21,1.21-3.3s.37-7.05,8.72-9.65Z"/>
              <path class="cls-8" d="M97.64,51.22c1.13-.27,2.18-.33,3.09-.27,1.25.08,2.53.55,3.54,1.29.73.54,1.5,1.26,2.19,2.19.06.08.11.16.17.24h0s3.03,3.93,3.56,7.61c.02.17.04.51.34.62s.53-.14.66-.25c2.77-2.47,7.62-3.54,7.62-3.54h0c.09-.02.19-.05.28-.07,1.13-.27,2.18-.33,3.09-.27,1.25.08,2.53.55,3.54,1.29.73.54,1.5,1.26,2.19,2.19,4.15,5.56.87,9.53.87,9.53,0,0-3.77,6.24-19.79,3.56-.92-.15-1.84-.4-2.73-.72-.89-.32-1.75-.73-2.55-1.2-14-8.24-12.88-15.45-12.88-15.45,0,0,.04-5.15,6.79-6.74Z"/>
              <path class="cls-6" d="M106.46,74.12c6.51.23,14.98,1.45,14.98,1.45-5.17,3.39-13.19,1.3-15.65.4-2.46-.89-9.95-4.44-11.73-10.37,0,0,7.27,4.5,12.4,8.52Z"/>
            </g>
          </g>
          <g>
            <g>
              <path class="cls-3" d="M37.44,86.16c-2.35,1.09-3.9,2.62-4.63,3.83-.68,1.24-1.24,3.35-1,5.93.78,8.49,7.25,9.84,7.25,9.84l9.12,5.26,10.53-18.24-9.12-5.26s-4.4-4.93-12.15-1.36Z"/>
              <path class="cls-9" d="M49.66,79.38c-1.45.39-2.58.96-3.42,1.57-1.16.85-1.91,2.14-2.06,3.57-.11,1.03-.04,2.3.35,3.75.03.12.07.24.11.37h0s1.55,6.18,5.3,10.57c.17.2.55.59.38.89s-.7.17-.96.12c-5.68-1.06-11.81.69-11.81.69h0c-.12.03-.25.06-.37.09-1.45.39-2.58.96-3.42,1.57-1.16.85-1.91,2.14-2.06,3.57-.11,1.03-.04,2.3.35,3.75,2.32,8.66,10.26,11.07,10.26,11.07,0,0,11.09,4.63,24.08-8.03.75-.73,1.39-1.55,1.9-2.45s.91-1.86,1.17-2.87c4.47-17.58-5.09-24.87-5.09-24.87,0,0-6.06-5.67-14.72-3.35Z"/>
              <path class="cls-10" d="M52.01,94.57c-2.45,1.03-4.04,2.55-4.77,3.75-.68,1.24-1.2,3.37-.86,6.01,1.1,8.68,7.98,10.26,7.98,10.26l3.05,1.75,10.53-18.24-3.05-1.75s-4.82-5.17-12.88-1.78Z"/>
              <path class="cls-8" d="M62.86,88.73c-1.04.52-1.89,1.15-2.54,1.78-.9.87-1.58,2.05-1.88,3.26-.22.88-.34,1.93-.27,3.09,0,.1.02.19.02.29h0s.21,4.96,2.16,8.12c.09.14.29.42.14.69s-.5.23-.67.23c-3.71-.11-8.11,2.19-8.11,2.19h0c-.09.04-.17.08-.26.13-1.04.52-1.89,1.15-2.54,1.78-.9.87-1.58,2.05-1.88,3.26-.22.88-.34,1.93-.27,3.09.39,6.92,5.46,7.86,5.46,7.86,0,0,6.9,2.36,17.45-10,.61-.71,1.15-1.49,1.63-2.31s.87-1.68,1.18-2.56c5.43-15.31-.06-20.11-.06-20.11,0,0-3.34-3.92-9.54-.8Z"/>
              <path class="cls-6" d="M70.83,111.94c-4.84,4.36-10.54,10.74-10.54,10.74,6.15-.73,10.94-7.49,12.25-9.75,1.31-2.26,4.76-9.8,2.32-15.48,0,0-2.67,8.12-4.03,14.5Z"/>
            </g>
            <g>
              <path class="cls-3" d="M142.3,86.16c2.35,1.09,3.9,2.62,4.63,3.83.68,1.24,1.24,3.35,1,5.93-.78,8.49-7.25,9.84-7.25,9.84l-9.12,5.26-10.53-18.24,9.12-5.26s4.4-4.93,12.15-1.36Z"/>
              <path class="cls-9" d="M130.08,79.38c1.45.39,2.58.96,3.42,1.57,1.16.85,1.91,2.14,2.06,3.57.11,1.03.04,2.3-.35,3.75-.03.12-.07.24-.11.37h0s-1.55,6.18-5.3,10.57c-.17.2-.55.59-.38.89s.7.17.96.12c5.68-1.06,11.81.69,11.81.69h0c.12.03.25.06.37.09,1.45.39,2.58.96,3.42,1.57,1.16.85,1.91,2.14,2.06,3.57.11,1.03.04,2.3-.35,3.75-2.32,8.66-10.26,11.07-10.26,11.07,0,0-11.09,4.63-24.08-8.03-.75-.73-1.39-1.55-1.9-2.45s-.91-1.86-1.17-2.87c-4.47-17.58,5.09-24.87,5.09-24.87,0,0,6.06-5.67,14.72-3.35Z"/>
              <path class="cls-10" d="M127.73,94.57c2.45,1.03,4.04,2.55,4.77,3.75.68,1.24,1.2,3.37.86,6.01-1.1,8.68-7.98,10.26-7.98,10.26l-3.05,1.75-10.53-18.24,3.05-1.75s4.82-5.17,12.88-1.78Z"/>
              <path class="cls-8" d="M116.88,88.73c1.04.52,1.89,1.15,2.54,1.78.9.87,1.58,2.05,1.88,3.26.22.88.34,1.93.27,3.09,0,.1-.02.19-.02.29h0s-.21,4.96-2.16,8.12c-.09.14-.29.42-.14.69s.5.23.67.23c3.71-.11,8.11,2.19,8.11,2.19h0c.09.04.17.08.26.13,1.04.52,1.89,1.15,2.54,1.78.9.87,1.58,2.05,1.88,3.26.22.88.34,1.93.27,3.09-.39,6.92-5.46,7.86-5.46,7.86,0,0-6.9,2.36-17.45-10-.61-.71-1.15-1.49-1.63-2.31s-.87-1.68-1.18-2.56c-5.43-15.31.06-20.11.06-20.11,0,0,3.34-3.92,9.54-.8Z"/>
              <path class="cls-6" d="M108.91,111.94c4.84,4.36,10.54,10.74,10.54,10.74-6.15-.73-10.94-7.49-12.25-9.75-1.31-2.26-4.76-9.8-2.32-15.48,0,0,2.67,8.12,4.03,14.5Z"/>
            </g>
          </g>
          <g>
            <path class="cls-3" d="M95.51,61.44c-2.12-1.5-4.22-2.07-5.64-2.1-1.42.03-3.52.6-5.64,2.1-6.96,4.92-4.9,11.2-4.9,11.2v10.53h21.07v-10.53s2.07-6.28-4.9-11.2Z"/>
            <path class="cls-9" d="M107.48,68.63c-1.06-1.06-2.12-1.76-3.07-2.18-1.32-.58-2.8-.58-4.12,0-.95.42-2.01,1.12-3.07,2.18-.09.09-.17.18-.26.28h0s-4.58,4.43-6.5,9.88c-.09.25-.24.77-.58.77s-.5-.52-.58-.77c-1.92-5.45-6.5-9.88-6.5-9.88h0c-.09-.09-.17-.18-.26-.28-1.06-1.06-2.12-1.76-3.07-2.18-1.32-.58-2.8-.58-4.12,0-.95.42-2.01,1.12-3.07,2.18-6.34,6.34-4.46,14.42-4.46,14.42,0,0,1.53,11.92,19,16.84,1,.28,2.04.42,3.07.42,1.03,0,2.07-.14,3.07-.42,17.46-4.92,19-16.84,19-16.84,0,0,1.88-8.08-4.46-14.42Z"/>
            <path class="cls-10" d="M95.51,78.26c-2.12-1.61-4.22-2.22-5.64-2.26-1.42.03-3.52.65-5.64,2.26-6.96,5.29-4.9,12.05-4.9,12.05v3.52s21.08,0,21.08,0v-3.52s2.06-6.75-4.91-12.05Z"/>
            <path class="cls-8" d="M105.99,84.74c-.97-.64-1.94-1.06-2.81-1.31-1.2-.35-2.56-.35-3.77,0-.87.25-1.84.67-2.81,1.31-.08.05-.16.11-.24.17h0s-4.19,2.66-5.95,5.93c-.08.15-.22.46-.53.46s-.45-.32-.53-.46c-1.76-3.27-5.95-5.93-5.95-5.93h0c-.08-.06-.16-.11-.24-.17-.97-.64-1.94-1.06-2.81-1.31-1.2-.35-2.56-.35-3.77,0-.87.25-1.84.67-2.81,1.31-5.8,3.8-4.08,8.66-4.08,8.66,0,0,1.4,7.16,17.38,10.11.92.17,1.86.25,2.81.25.95,0,1.89-.08,2.81-.25,15.98-2.95,17.38-10.11,17.38-10.11,0,0,1.72-4.85-4.08-8.66Z"/>
            <path class="cls-6" d="M89.87,103.24c-6.2-2.01-14.57-3.76-14.57-3.76,3.7,4.96,11.95,5.73,14.57,5.73s10.87-.77,14.57-5.73c0,0-8.37,1.75-14.57,3.76Z"/>
          </g>
        </g>
      </g>
    </g>
  </g>
</svg>