<?xml version="1.0" encoding="UTF-8"?>
<svg id="_레이어_2" data-name="레이어 2" xmlns="http://www.w3.org/2000/svg" viewBox="0 0 101.54 86.42">
  <defs>
    <style>
      .cls-1 {
        fill: #a678ff;
      }

      .cls-2 {
        fill: #b78aff;
      }

      .cls-3 {
        fill: #c094ff;
      }
    </style>
  </defs>
  <g id="_시안" data-name="시안">
    <g id="_튤립" data-name="튤립">
      <path class="cls-1" d="M50.77,3.55C28.03-7.49,17.38,10.74,17.38,10.74v14.94h66.78v-14.94s-10.65-18.23-33.39-7.19Z"/>
      <g>
        <path class="cls-2" d="M37.84,11.19c-2.25-1.78-26.34-13.34-35.23-.56-7.69,11.05,2.87,29.82,15.53,58.45,6.75,15.27,18.38,17.33,31.49,17.33,9.53,0-1.98-5.38-1.98-21.69,0-58.87,1.11-44.91-9.8-53.53Z"/>
        <path class="cls-2" d="M63.7,11.19c2.25-1.78,26.34-13.34,35.23-.56,7.69,11.05-2.87,29.82-15.53,58.45-6.75,15.27-18.38,17.33-31.49,17.33-9.53,0,1.98-5.38,1.98-21.69,0-58.87-1.11-44.91,9.8-53.53Z"/>
      </g>
      <path class="cls-3" d="M65.3,8.23c-3.2-1.73-5.89-3.03-8.05-4-2.07-.93-4.28-1.4-6.48-1.4s-4.41.47-6.48,1.4c-2.16.97-4.85,2.27-8.05,4-15.49,8.35-29.24-4-10.87,54.75,4.74,15.14,11.87,23.43,25.4,23.43s20.66-8.29,25.4-23.43c18.38-58.75,4.63-46.4-10.87-54.75Z"/>
    </g>
  </g>
</svg>