<?xml version="1.0" encoding="UTF-8"?>
<svg id="_레이어_2" data-name="레이어 2" xmlns="http://www.w3.org/2000/svg" xmlns:xlink="http://www.w3.org/1999/xlink" viewBox="0 0 136.39 145.95">
  <defs>
    <style>
      .cls-1 {
        fill: #dcfc97;
      }

      .cls-2 {
        fill: #cae04b;
      }

      .cls-3 {
        fill: #96bd86;
      }

      .cls-4 {
        fill: #d1ef62;
      }

      .cls-5 {
        fill: #d8f784;
      }

      .cls-6 {
        fill: #cbe852;
      }

      .cls-7 {
        fill: #9dc287;
      }

      .cls-8 {
        clip-path: url(#clippath);
      }
    </style>
    <clipPath id="clippath">
      <path class="cls-3" d="M126.87,96.99l-.64-1.82c-2.07.72-45.84,16.21-56.66,33.75l-.1-25.56c12.84-20.09,32.59-41.47,32.79-41.69l-1.41-1.31c-.19.21-18.49,20.01-31.39,39.49l-.31-80.81h-1.93l-.31,80.81c-12.91-19.48-31.2-39.28-31.39-39.49l-1.41,1.31c.2.22,19.95,21.6,32.79,41.69l-.1,25.56c-10.82-17.54-54.59-33.02-56.66-33.75l-.64,1.82c.54.19,51.68,18.28,57.28,36.38l-.05,12.59h2.89l-.05-12.59c5.6-18.1,56.75-36.19,57.28-36.38Z"/>
    </clipPath>
  </defs>
  <g id="_시안" data-name="시안">
    <g id="_아스틸베" data-name="아스틸베">
      <g id="_흰" data-name="흰">
        <g>
          <path class="cls-3" d="M126.87,96.99l-.64-1.82c-2.07.72-45.84,16.21-56.66,33.75l-.1-25.56c12.84-20.09,32.59-41.47,32.79-41.69l-1.41-1.31c-.19.21-18.49,20.01-31.39,39.49l-.31-80.81h-1.93l-.31,80.81c-12.91-19.48-31.2-39.28-31.39-39.49l-1.41,1.31c.2.22,19.95,21.6,32.79,41.69l-.1,25.56c-10.82-17.54-54.59-33.02-56.66-33.75l-.64,1.82c.54.19,51.68,18.28,57.28,36.38l-.05,12.59h2.89l-.05-12.59c5.6-18.1,56.75-36.19,57.28-36.38Z"/>
          <g class="cls-8">
            <polyline class="cls-7" points="69.64 145.95 66.75 145.95 67.23 19.04 69.16 19.04 69.64 145.95"/>
          </g>
        </g>
        <g>
          <g>
            <path class="cls-5" d="M43.37,64.94c.24,1.31.27,2.36.16,3.17-.1.72-.42,1.3-.89,1.7s-1.1.61-1.82.58c-.82-.03-1.85-.24-3.1-.71-7.32-2.74-6.9-10.45-7.15-13.45-.04-.49.32-.8.8-.67,2.91.76,10.57,1.69,12,9.37Z"/>
            <g>
              <path class="cls-4" d="M38.86,65.86c1.22.55,2.09,1.13,2.69,1.69.53.49.83,1.09.88,1.7s-.13,1.25-.57,1.83c-.49.65-1.25,1.38-2.35,2.14-6.44,4.43-12.52-.33-15.12-1.84-.43-.25-.47-.72-.09-1.04,2.29-1.95,7.44-7.7,14.56-4.47Z"/>
              <path class="cls-4" d="M39.4,65.4c.33,1.29.75,2.26,1.2,2.94.39.61.93,1,1.52,1.16s1.25.09,1.9-.24c.73-.37,1.57-.99,2.51-1.95,5.48-5.57,1.85-12.38.81-15.21-.17-.47-.63-.59-1.01-.27-2.32,1.92-8.87,5.99-6.93,13.56Z"/>
            </g>
            <g>
              <path class="cls-6" d="M42.31,72.46c1.15-.43,2.1-.62,2.85-.65.67-.02,1.24.17,1.68.53s.73.9.82,1.56c.1.74.08,1.71-.14,2.92-1.31,7.07-8.36,7.93-11.04,8.63-.44.12-.78-.16-.74-.62.22-2.76-.16-9.85,6.58-12.37Z"/>
              <path class="cls-6" d="M45.3,69.95c-.62,1.06-.98,1.96-1.13,2.7-.14.65-.05,1.25.23,1.75s.76.87,1.39,1.08c.72.23,1.67.38,2.9.36,7.19-.07,9.26-6.86,10.41-9.38.19-.41-.03-.79-.48-.83-2.76-.26-9.68-1.87-13.33,4.33Z"/>
            </g>
          </g>
          <g>
            <path class="cls-5" d="M93.02,64.94c-.24,1.31-.27,2.36-.16,3.17.1.72.42,1.3.89,1.7s1.1.61,1.82.58c.82-.03,1.85-.24,3.1-.71,7.32-2.74,6.9-10.45,7.15-13.45.04-.49-.32-.8-.8-.67-2.91.76-10.57,1.69-12,9.37Z"/>
            <g>
              <path class="cls-4" d="M97.53,65.86c-1.22.55-2.09,1.13-2.69,1.69-.53.49-.83,1.09-.88,1.7s.13,1.25.57,1.83c.49.65,1.25,1.38,2.35,2.14,6.44,4.43,12.52-.33,15.12-1.84.43-.25.47-.72.09-1.04-2.29-1.95-7.44-7.7-14.56-4.47Z"/>
              <path class="cls-4" d="M96.98,65.4c-.33,1.29-.75,2.26-1.2,2.94-.39.61-.93,1-1.52,1.16s-1.25.09-1.9-.24c-.73-.37-1.57-.99-2.51-1.95-5.48-5.57-1.85-12.38-.81-15.21.17-.47.63-.59,1.01-.27,2.32,1.92,8.87,5.99,6.93,13.56Z"/>
            </g>
            <g>
              <path class="cls-6" d="M94.07,72.46c-1.15-.43-2.1-.62-2.85-.65-.67-.02-1.24.17-1.68.53s-.73.9-.82,1.56c-.1.74-.08,1.71.14,2.92,1.31,7.07,8.36,7.93,11.04,8.63.44.12.78-.16.74-.62-.22-2.76.16-9.85-6.58-12.37Z"/>
              <path class="cls-6" d="M91.08,69.95c.62,1.06.98,1.96,1.13,2.7.14.65.05,1.25-.23,1.75s-.76.87-1.39,1.08c-.72.23-1.67.38-2.9.36-7.19-.07-9.26-6.86-10.41-9.38-.19-.41.03-.79.48-.83,2.76-.26,9.68-1.87,13.33,4.33Z"/>
            </g>
          </g>
        </g>
        <g>
          <g>
            <g>
              <path class="cls-2" d="M50.16,114.94c-.98-1.19-1.89-2-2.69-2.5-.71-.45-1.46-.6-2.16-.48s-1.36.52-1.87,1.18c-.58.75-1.16,1.81-1.68,3.27-3.02,8.52,4.11,13.89,6.58,16.33.41.4.95.31,1.19-.21,1.49-3.14,6.37-10.62.63-17.6Z"/>
              <path class="cls-2" d="M50.51,114.2c-1.55.02-2.75-.17-3.65-.46-.8-.26-1.4-.73-1.75-1.35s-.47-1.37-.3-2.19c.2-.92.64-2.06,1.42-3.39,4.58-7.79,13.28-5.78,16.75-5.46.57.05.85.53.61,1.05-1.45,3.16-4.04,11.71-13.08,11.8Z"/>
            </g>
            <path class="cls-1" d="M17.79,94.69c.9,1.26,1.44,2.35,1.72,3.25.25.8.2,1.57-.1,2.21s-.86,1.17-1.63,1.5c-.87.37-2.05.65-3.59.77-9.01.71-12.34-7.57-14.07-10.6-.28-.5-.05-.99.51-1.1,3.42-.63,11.91-3.4,17.16,3.96Z"/>
            <g>
              <path class="cls-5" d="M22.31,101.95c1.55-.02,2.75.17,3.65.46.8.26,1.4.73,1.75,1.35s.47,1.37.3,2.19c-.2.92-.64,2.06-1.42,3.39-4.58,7.79-13.28,5.78-16.75,5.46-.57-.05-.85-.53-.61-1.05,1.45-3.16,4.04-11.71,13.08-11.8Z"/>
              <path class="cls-5" d="M22.66,101.21c.98,1.19,1.89,2,2.69,2.5.71.45,1.46.6,2.16.48s1.36-.52,1.87-1.18c.58-.75,1.16-1.81,1.68-3.27,3.02-8.52-4.11-13.89-6.58-16.33-.41-.4-.95-.31-1.19.21-1.49,3.14-6.37,10.62-.63,17.6Z"/>
            </g>
            <g>
              <path class="cls-4" d="M30.98,107.94c1.45-.54,2.64-.78,3.58-.82.84-.03,1.56.21,2.11.67s.91,1.13,1.03,1.96c.13.94.1,2.15-.18,3.67-1.65,8.89-10.51,9.96-13.88,10.84-.56.15-.97-.21-.93-.78.28-3.47-.2-12.38,8.27-15.55Z"/>
              <path class="cls-4" d="M32.82,104c.52,1.46,1.1,2.52,1.68,3.27.51.66,1.17,1.06,1.87,1.18s1.45-.03,2.16-.47c.8-.5,1.71-1.31,2.7-2.5,5.75-6.98.87-14.46-.62-17.6-.25-.52-.78-.61-1.19-.21-2.48,2.45-9.61,7.81-6.6,16.33Z"/>
            </g>
            <g>
              <path class="cls-6" d="M47.13,115.47c-.52-1.46-1.1-2.52-1.68-3.27-.51-.66-1.17-1.06-1.87-1.18s-1.45.03-2.16.47c-.8.5-1.71,1.31-2.7,2.5-5.75,6.98-.87,14.46.62,17.6.25.52.78.61,1.19.21,2.48-2.45,9.61-7.81,6.6-16.33Z"/>
              <path class="cls-6" d="M48.97,111.54c-1.45.54-2.64.78-3.58.82-.84.03-1.56-.21-2.11-.67s-.91-1.13-1.03-1.96c-.13-.94-.1-2.15.18-3.67,1.65-8.89,10.51-9.96,13.88-10.84.56-.15.97.21.93.78-.28,3.47.2,12.38-8.27,15.55Z"/>
            </g>
          </g>
          <g>
            <g>
              <path class="cls-2" d="M86.23,114.94c.98-1.19,1.89-2,2.69-2.5.71-.45,1.46-.6,2.16-.48s1.36.52,1.87,1.18c.58.75,1.16,1.81,1.68,3.27,3.02,8.52-4.11,13.89-6.58,16.33-.41.4-.95.31-1.19-.21-1.49-3.14-6.37-10.62-.63-17.6Z"/>
              <path class="cls-2" d="M85.88,114.2c1.55.02,2.75-.17,3.65-.46.8-.26,1.4-.73,1.75-1.35s.47-1.37.3-2.19c-.2-.92-.64-2.06-1.42-3.39-4.58-7.79-13.28-5.78-16.75-5.46-.57.05-.85.53-.61,1.05,1.45,3.16,4.04,11.71,13.08,11.8Z"/>
            </g>
            <path class="cls-1" d="M118.59,94.69c-.9,1.26-1.44,2.35-1.72,3.25-.25.8-.2,1.57.1,2.21s.86,1.17,1.63,1.5c.87.37,2.05.65,3.59.77,9.01.71,12.34-7.57,14.07-10.6.28-.5.05-.99-.51-1.1-3.42-.63-11.91-3.4-17.16,3.96Z"/>
            <g>
              <path class="cls-5" d="M114.08,101.95c-1.55-.02-2.75.17-3.65.46-.8.26-1.4.73-1.75,1.35s-.47,1.37-.3,2.19c.2.92.64,2.06,1.42,3.39,4.58,7.79,13.28,5.78,16.75,5.46.57-.05.85-.53.61-1.05-1.45-3.16-4.04-11.71-13.08-11.8Z"/>
              <path class="cls-5" d="M113.73,101.21c-.98,1.19-1.89,2-2.69,2.5-.71.45-1.46.6-2.16.48s-1.36-.52-1.87-1.18c-.58-.75-1.16-1.81-1.68-3.27-3.02-8.52,4.11-13.89,6.58-16.33.41-.4.95-.31,1.19.21,1.49,3.14,6.37,10.62.63,17.6Z"/>
            </g>
            <g>
              <path class="cls-4" d="M105.41,107.94c-1.45-.54-2.64-.78-3.58-.82-.84-.03-1.56.21-2.11.67s-.91,1.13-1.03,1.96c-.13.94-.1,2.15.18,3.67,1.65,8.89,10.51,9.96,13.88,10.84.56.15.97-.21.93-.78-.28-3.47.2-12.38-8.27-15.55Z"/>
              <path class="cls-4" d="M103.57,104c-.52,1.46-1.1,2.52-1.68,3.27-.51.66-1.17,1.06-1.87,1.18s-1.45-.03-2.16-.47c-.8-.5-1.71-1.31-2.7-2.5-5.75-6.98-.87-14.46.62-17.6.25-.52.78-.61,1.19-.21,2.48,2.45,9.61,7.81,6.6,16.33Z"/>
            </g>
            <g>
              <path class="cls-6" d="M89.25,115.47c.52-1.46,1.1-2.52,1.68-3.27.51-.66,1.17-1.06,1.87-1.18s1.45.03,2.16.47c.8.5,1.71,1.31,2.7,2.5,5.75,6.98.87,14.46-.62,17.6-.25.52-.78.61-1.19.21-2.48-2.45-9.61-7.81-6.6-16.33Z"/>
              <path class="cls-6" d="M87.42,111.54c1.45.54,2.64.78,3.58.82.84.03,1.56-.21,2.11-.67s.91-1.13,1.03-1.96c.13-.94.1-2.15-.18-3.67-1.65-8.89-10.51-9.96-13.88-10.84-.56-.15-.97.21-.93.78.28,3.47-.2,12.38,8.27,15.55Z"/>
            </g>
          </g>
        </g>
        <g>
          <g>
            <path class="cls-6" d="M62.62,39.51c1.55-.01,2.75.17,3.65.46.8.26,1.4.73,1.75,1.35s.47,1.38.29,2.19c-.2.92-.64,2.06-1.43,3.39-4.59,7.79-13.28,5.77-16.75,5.44-.57-.05-.85-.53-.61-1.05,1.45-3.16,4.05-11.7,13.09-11.79Z"/>
            <path class="cls-6" d="M73.77,39.51c-1.55-.01-2.75.17-3.65.46-.8.26-1.4.73-1.75,1.35s-.47,1.38-.29,2.19c.2.92.64,2.06,1.43,3.39,4.59,7.79,13.28,5.77,16.75,5.44.57-.05.85-.53.61-1.05-1.45-3.16-4.05-11.7-13.09-11.79Z"/>
          </g>
          <path class="cls-1" d="M72.46,17.58c-.76,1.35-1.52,2.3-2.22,2.93-.62.56-1.33.84-2.05.84s-1.43-.28-2.05-.84c-.7-.63-1.46-1.58-2.22-2.93-4.45-7.87,1.65-14.39,3.66-17.23.33-.47.88-.47,1.21,0,2.01,2.84,8.11,9.36,3.66,17.23Z"/>
          <g>
            <path class="cls-5" d="M67.78,25.99c.67,1.39,1.01,2.56,1.13,3.5.1.83-.07,1.58-.48,2.16s-1.05,1.01-1.86,1.2c-.92.21-2.13.29-3.67.14-9-.86-10.85-9.59-12.02-12.87-.19-.54.12-.99.69-.99,3.48-.02,12.32-1.29,16.22,6.87Z"/>
            <path class="cls-5" d="M68.61,25.99c-.67,1.39-1.01,2.56-1.13,3.5-.1.83.07,1.58.48,2.16s1.05,1.01,1.86,1.2c.92.21,2.13.29,3.67.14,9-.86,10.85-9.59,12.02-12.87.19-.54-.12-.99-.69-.99-3.48-.02-12.32-1.29-16.22,6.87Z"/>
          </g>
          <g>
            <path class="cls-4" d="M64.8,35.8c1.35.76,2.3,1.52,2.93,2.22.56.62.84,1.33.84,2.05s-.28,1.43-.84,2.05c-.63.7-1.58,1.46-2.93,2.22-7.87,4.45-14.39-1.65-17.23-3.66-.47-.33-.47-.88,0-1.21,2.84-2.01,9.36-8.11,17.23-3.66Z"/>
            <path class="cls-4" d="M71.59,35.8c-1.35.76-2.3,1.52-2.93,2.22-.56.62-.84,1.33-.84,2.05s.28,1.43.84,2.05c.63.7,1.58,1.46,2.93,2.22,7.87,4.45,14.39-1.65,17.23-3.66.47-.33.47-.88,0-1.21-2.84-2.01-9.36-8.11-17.23-3.66Z"/>
          </g>
        </g>
      </g>
    </g>
  </g>
</svg>