<?xml version="1.0" encoding="UTF-8"?>
<svg id="_레이어_2" data-name="레이어 2" xmlns="http://www.w3.org/2000/svg" viewBox="0 0 107.58 158.7">
  <defs>
    <style>
      .cls-1 {
        fill: #f48cbc;
      }

      .cls-2 {
        fill: #f27eb2;
      }

      .cls-3 {
        fill: #ef7dac;
      }

      .cls-4 {
        fill: #f78bb4;
      }

      .cls-5 {
        fill: #ff94c0;
      }

      .cls-6 {
        fill: #e06c9b;
      }

      .cls-7 {
        fill: #e26d9d;
      }
    </style>
  </defs>
  <g id="_시안" data-name="시안">
    <g id="_라일락" data-name="라일락">
      <g id="_보라" data-name="보라">
        <g>
          <path class="cls-1" d="M19.99,85.07c-.85-.78-2.09-1.68-3.54-4.19-2.35-4.08-4.87-5.51-7.02-5.51-5.15,0-8.07,4.98-9.25,10.17-.24,1.05-.24,2.18,0,3.23,1.18,5.19,4.1,10.17,9.25,10.17,2.15,0,4.67-1.42,7.02-5.51,1.45-2.51,2.69-3.41,3.54-4.19v-4.16Z"/>
          <path class="cls-1" d="M87.59,85.07c.85-.78,2.09-1.68,3.54-4.19,2.35-4.08,4.87-5.51,7.02-5.51,5.15,0,8.07,4.98,9.25,10.17.24,1.05.24,2.18,0,3.23-1.18,5.19-4.1,10.17-9.25,10.17-2.15,0-4.67-1.42-7.02-5.51-1.45-2.51-2.69-3.41-3.54-4.19v-4.16Z"/>
        </g>
        <path class="cls-6" d="M87.28,111.99c-.12-.13-.26-.25-.39-.38-.13-.13-.25-.26-.38-.39-.58-.56-1.21-1.06-1.85-1.49,7.38-4.76,8.81-15.41,2.62-21.85-.12-.13-.26-.25-.39-.38-.13-.13-.25-.26-.38-.39-.58-.56-1.21-1.06-1.85-1.49,7.38-4.76,8.81-15.41,2.62-21.85-.12-.13-.26-.25-.39-.38-.13-.13-.25-.26-.38-.39-.58-.56-1.21-1.06-1.85-1.49,7.38-4.76,8.81-15.41,2.62-21.85-.12-.13-.26-.25-.39-.38-.13-.13-.25-.26-.38-.39-5.64-5.42-14.48-5.01-19.8.11.38-1.22.71-2.3.96-3.16,2.64-8.92-4.04-18.15-13.34-18.33-.18,0-.36,0-.54,0-.18,0-.36,0-.54,0-9.3.19-15.98,9.42-13.34,18.33.25.86.58,1.94.96,3.16-5.32-5.12-14.16-5.53-19.8-.11-.13.12-.25.26-.38.39-.13.13-.26.25-.39.38-6.2,6.45-4.77,17.1,2.62,21.85-.65.44-1.27.93-1.85,1.49-.13.12-.25.26-.38.39-.13.13-.26.25-.39.38-6.2,6.45-4.77,17.1,2.62,21.85-.65.44-1.27.93-1.85,1.49-.13.12-.25.26-.38.39-.13.13-.26.25-.39.38-6.2,6.45-4.77,17.1,2.62,21.85-.65.44-1.27.93-1.85,1.49-.13.12-.25.26-.38.39-.13.13-.26.25-.39.38-6.44,6.71-4.64,17.96,3.53,22.4.18.1.38.2.58.31,0,0,4.82,12.12,29.37,12.12h0c24.55,0,29.37-12.12,29.37-12.12h0c.2-.11.4-.22.58-.31,8.17-4.44,9.97-15.69,3.53-22.4ZM66.94,62.35h.62c-.29.24-.58.49-.85.75.08-.26.16-.51.23-.75ZM66.94,86.47h.62c-.29.24-.58.49-.85.75.08-.26.16-.51.23-.75ZM66.94,110.58h.62c-.29.24-.58.49-.85.75.08-.26.16-.51.23-.75ZM40.64,62.35c.08.24.15.49.23.75-.27-.26-.56-.51-.85-.75h.62ZM40.64,86.47c.08.24.15.49.23.75-.27-.26-.56-.51-.85-.75h.62ZM40.64,110.58c.08.24.15.49.23.75-.27-.26-.56-.51-.85-.75h.62Z"/>
        <g>
          <g>
            <g>
              <g>
                <path class="cls-2" d="M51.6,109.46c-1.91-4.37-6.25-8.25-13.47-7.38-3.02.36-6.48,2.04-9.58,6.03-1.91,2.45-3.6,3.45-4.76,4.28.62-1.28,1.31-3.13,3.39-5.43,3.39-3.75,4.44-7.45,4.27-10.48-.4-7.26-4.98-10.86-9.61-11.98-.93-.23-1.92-.11-2.82.34-4.45,2.21-8.57,6.85-8.17,14.12.17,3.04,1.61,6.44,5.36,9.33,2.31,1.78,3.19,3.43,3.94,4.55-1.23-.54-3.02-1.12-5.17-3.09-3.5-3.2-3.31-4.02-6.33-3.66-7.22.87-7.04,5.74-8.44,10.5-.28.96-.23,1.96.16,2.84,1.91,4.37,2.2,8.25,9.42,7.38,3.02-.36,2.69-2.04,5.79-6.03,1.91-2.45,3.6-3.45,4.76-4.28-.62,1.28-1.31,3.13-3.39,5.43-3.39,3.75-4.44,7.45-4.27,10.48.4,7.26,4.98,10.86,9.61,11.98.93.23,1.92.11,2.82-.34,4.45-2.21,8.57-6.85,8.17-14.12-.17-3.04-1.61-6.44-5.36-9.33-2.31-1.78-3.19-3.43-3.94-4.55,1.23.54,3.02,1.12,5.17,3.09,3.5,3.2,7.1,4.02,10.11,3.66,7.22-.87,11.08-5.74,12.48-10.5.28-.96.23-1.96-.16-2.84Z"/>
                <path class="cls-7" d="M20.4,116.42c.28-1.21.21-2.42-.2-3.55,1.18.21,2.39.06,3.53-.42-.28,1.21-.21,2.42.2,3.55-1.18-.21-2.39-.06-3.53.42Z"/>
              </g>
              <g>
                <path class="cls-3" d="M55.98,109.46c1.91-4.37,6.25-8.25,13.47-7.38,3.02.36,6.48,2.04,9.58,6.03,1.91,2.45,3.6,3.45,4.76,4.28-.62-1.28-1.31-3.13-3.39-5.43-3.39-3.75-4.44-7.45-4.27-10.48.4-7.26,4.98-10.86,9.61-11.98.93-.23,1.92-.11,2.82.34,4.45,2.21,8.57,6.85,8.17,14.12-.17,3.04-1.61,6.44-5.36,9.33-2.31,1.78-3.19,3.43-3.94,4.55,1.23-.54,3.02-1.12,5.17-3.09,3.5-3.2,3.31-4.02,6.33-3.66,7.22.87,7.04,5.74,8.44,10.5.28.96.23,1.96-.16,2.84-1.91,4.37-2.2,8.25-9.42,7.38-3.02-.36-2.69-2.04-5.79-6.03-1.91-2.45-3.6-3.45-4.76-4.28.62,1.28,1.31,3.13,3.39,5.43,3.39,3.75,4.44,7.45,4.27,10.48-.4,7.26-4.98,10.86-9.61,11.98-.93.23-1.92.11-2.82-.34-4.45-2.21-8.57-6.85-8.17-14.12.17-3.04,1.61-6.44,5.36-9.33,2.31-1.78,3.19-3.43,3.94-4.55-1.23.54-3.02,1.12-5.17,3.09-3.5,3.2-7.1,4.02-10.11,3.66-7.22-.87-11.08-5.74-12.48-10.5-.28-.96-.23-1.96.16-2.84Z"/>
                <path class="cls-7" d="M87.18,116.42c-.28-1.21-.21-2.42.2-3.55-1.18.21-2.39.06-3.53-.42.28,1.21.21,2.42-.2,3.55,1.18-.21,2.39-.06,3.53.42Z"/>
              </g>
            </g>
            <g>
              <g>
                <path class="cls-3" d="M51.6,51.28c-1.91-4.37-6.25-8.25-13.47-7.38-3.02.36-6.48,2.04-9.58,6.03-1.91,2.45-3.6,3.45-4.76,4.28.62-1.28,1.31-3.13,3.39-5.43,3.39-3.75,4.44-7.45,4.27-10.48-.4-7.26-4.98-10.86-9.61-11.98-.93-.23-1.92-.11-2.82.34-4.45,2.21-8.57,6.85-8.17,14.12.17,3.04,1.61,6.44,5.36,9.33,2.31,1.78,3.19,3.43,3.94,4.55-1.23-.54-3.02-1.12-5.17-3.09-3.5-3.2-3.31-4.02-6.33-3.66-7.22.87-7.04,5.74-8.44,10.5-.28.96-.23,1.96.16,2.84,1.91,4.37,2.2,8.25,9.42,7.38,3.02-.36,2.69-2.04,5.79-6.03,1.91-2.45,3.6-3.45,4.76-4.28-.62,1.28-1.31,3.13-3.39,5.43-3.39,3.75-4.44,7.45-4.27,10.48.4,7.26,4.98,10.86,9.61,11.98.93.23,1.92.11,2.82-.34,4.45-2.21,8.57-6.85,8.17-14.12-.17-3.04-1.61-6.44-5.36-9.33-2.31-1.78-3.19-3.43-3.94-4.55,1.23.54,3.02,1.12,5.17,3.09,3.5,3.2,7.1,4.02,10.11,3.66,7.22-.87,11.08-5.74,12.48-10.5.28-.96.23-1.96-.16-2.84Z"/>
                <path class="cls-7" d="M20.4,58.24c.28-1.21.21-2.42-.2-3.55,1.18.21,2.39.06,3.53-.42-.28,1.21-.21,2.42.2,3.55-1.18-.21-2.39-.06-3.53.42Z"/>
              </g>
              <g>
                <path class="cls-2" d="M55.98,51.28c1.91-4.37,6.25-8.25,13.47-7.38,3.02.36,6.48,2.04,9.58,6.03,1.91,2.45,3.6,3.45,4.76,4.28-.62-1.28-1.31-3.13-3.39-5.43-3.39-3.75-4.44-7.45-4.27-10.48.4-7.26,4.98-10.86,9.61-11.98.93-.23,1.92-.11,2.82.34,4.45,2.21,8.57,6.85,8.17,14.12-.17,3.04-1.61,6.44-5.36,9.33-2.31,1.78-3.19,3.43-3.94,4.55,1.23-.54,3.02-1.12,5.17-3.09,3.5-3.2,3.31-4.02,6.33-3.66,7.22.87,7.04,5.74,8.44,10.5.28.96.23,1.96-.16,2.84-1.91,4.37-2.2,8.25-9.42,7.38-3.02-.36-2.69-2.04-5.79-6.03-1.91-2.45-3.6-3.45-4.76-4.28.62,1.28,1.31,3.13,3.39,5.43,3.39,3.75,4.44,7.45,4.27,10.48-.4,7.26-4.98,10.86-9.61,11.98-.93.23-1.92.11-2.82-.34-4.45-2.21-8.57-6.85-8.17-14.12.17-3.04,1.61-6.44,5.36-9.33,2.31-1.78,3.19-3.43,3.94-4.55-1.23.54-3.02,1.12-5.17,3.09-3.5,3.2-7.1,4.02-10.11,3.66-7.22-.87-11.08-5.74-12.48-10.5-.28-.96-.23-1.96.16-2.84Z"/>
                <path class="cls-7" d="M87.18,58.24c-.28-1.21-.21-2.42.2-3.55-1.18.21-2.39.06-3.53-.42.28,1.21.21,2.42-.2,3.55,1.18-.21,2.39-.06,3.53.42Z"/>
              </g>
            </g>
          </g>
          <g>
            <path class="cls-5" d="M52.3,47.99c-4.81,1.75-9.42,6.1-9.42,13.75,0,3.2,1.32,6.94,5.1,10.43,2.33,2.15,3.16,3.99,3.88,5.26-1.27-.72-3.11-1.55-5.26-3.88-3.5-3.78-7.23-5.1-10.43-5.1-7.65,0-11.99,4.61-13.75,9.42-.35.97-.35,2.02,0,2.99,1.75,4.81,6.1,9.42,13.75,9.42,3.2,0,6.94-1.32,10.43-5.1,2.15-2.33,3.99-3.16,5.26-3.88-.72,1.27-1.55,3.11-3.88,5.26-3.78,3.5-5.1,7.23-5.1,10.43,0,7.65,4.61,11.99,9.42,13.75.97.35,2.02.35,2.99,0,4.81-1.75,9.42-6.1,9.42-13.75,0-3.2-1.32-6.94-5.1-10.43-2.33-2.15-3.16-3.99-3.88-5.26,1.27.72,3.11,1.55,5.26,3.88,3.5,3.78,7.23,5.1,10.43,5.1,7.65,0,11.99-4.61,13.75-9.42.35-.97.35-2.02,0-2.99-1.75-4.81-6.1-9.42-13.75-9.42-3.2,0-6.94,1.32-10.43,5.1-2.15,2.33-3.99,3.16-5.26,3.88.72-1.27,1.55-3.11,3.88-5.26,3.78-3.5,5.1-7.23,5.1-10.43,0-7.65-4.61-11.99-9.42-13.75-.97-.35-2.02-.35-2.99,0Z"/>
            <path class="cls-7" d="M55.66,81.22c-1.23-.36-2.51-.36-3.74,0,.36-1.23.36-2.51,0-3.74,1.23.36,2.51.36,3.74,0-.36,1.23-.36,2.51,0,3.74Z"/>
          </g>
          <g>
            <path class="cls-4" d="M32.67,157.29c4.64,2.16,10.97,2.35,16.38-3.06,2.26-2.26,3.97-5.84,3.77-10.98-.12-3.17.59-5.06.97-6.46.38,1.41,1.1,3.3.97,6.46-.2,5.15,1.51,8.72,3.77,10.98,5.41,5.41,11.74,5.22,16.38,3.06.94-.44,1.68-1.18,2.11-2.11,2.16-4.64,2.35-10.97-3.06-16.38-2.26-2.26-5.84-3.97-10.98-3.77-3.17.12-5.06-.59-6.46-.97,1.41-.38,3.3-1.1,6.46-.97,5.15.2,8.72-1.51,10.98-3.77,5.41-5.41,5.22-11.74,3.06-16.38-.44-.94-1.18-1.68-2.11-2.11-4.64-2.16-10.97-2.35-16.38,3.06-2.26,2.26-3.97,5.84-3.77,10.98.12,3.17-.59,5.06-.97,6.46-.38-1.41-1.1-3.3-.97-6.46.2-5.15-1.51-8.72-3.77-10.98-5.41-5.41-11.74-5.22-16.38-3.06-.94.44-1.68,1.18-2.11,2.11-2.16,4.64-2.35,10.97,3.06,16.38,2.26,2.26,5.84,3.97,10.98,3.77,3.17-.12,5.06.59,6.46.97-1.41.38-3.3,1.1-6.46.97-5.15-.2-8.72,1.51-10.98,3.77-5.41,5.41-5.22,11.74-3.06,16.38.44.94,1.18,1.68,2.11,2.11Z"/>
            <path class="cls-7" d="M53.79,131.41c.61,1.13,1.52,2.03,2.64,2.64-1.13.61-2.03,1.52-2.64,2.64-.61-1.13-1.52-2.03-2.64-2.64,1.13-.61,2.03-1.52,2.64-2.64Z"/>
          </g>
          <g>
            <path class="cls-4" d="M32.67,47.88c4.64,2.16,10.97,2.35,16.38-3.06,2.26-2.26,3.97-5.84,3.77-10.98-.12-3.17.59-5.06.97-6.46.38,1.41,1.1,3.3.97,6.46-.2,5.15,1.51,8.72,3.77,10.98,5.41,5.41,11.74,5.22,16.38,3.06.94-.44,1.68-1.18,2.11-2.11,2.16-4.64,2.35-10.97-3.06-16.38-2.26-2.26-5.84-3.97-10.98-3.77-3.17.12-5.06-.59-6.46-.97,1.41-.38,3.3-1.1,6.46-.97,5.15.2,8.72-1.51,10.98-3.77,5.41-5.41,5.22-11.74,3.06-16.38-.44-.94-1.18-1.68-2.11-2.11-4.64-2.16-10.97-2.35-16.38,3.06-2.26,2.26-3.97,5.84-3.77,10.98.12,3.17-.59,5.06-.97,6.46-.38-1.41-1.1-3.3-.97-6.46.2-5.15-1.51-8.72-3.77-10.98C43.64-.93,37.31-.75,32.67,1.41c-.94.44-1.68,1.18-2.11,2.11-2.16,4.64-2.35,10.97,3.06,16.38,2.26,2.26,5.84,3.97,10.98,3.77,3.17-.12,5.06.59,6.46.97-1.41.38-3.3,1.1-6.46.97-5.15-.2-8.72,1.51-10.98,3.77-5.41,5.41-5.22,11.74-3.06,16.38.44.94,1.18,1.68,2.11,2.11Z"/>
            <path class="cls-7" d="M53.79,22.01c.61,1.13,1.52,2.03,2.64,2.64-1.13.61-2.03,1.52-2.64,2.64-.61-1.13-1.52-2.03-2.64-2.64,1.13-.61,2.03-1.52,2.64-2.64Z"/>
          </g>
        </g>
      </g>
    </g>
  </g>
</svg>