<?xml version="1.0" encoding="UTF-8"?>
<svg id="_레이어_2" data-name="레이어 2" xmlns="http://www.w3.org/2000/svg" viewBox="0 0 84.9 99.35">
  <defs>
    <style>
      .cls-1 {
        fill: #974d99;
      }

      .cls-2 {
        fill: #ad57b2;
      }

      .cls-3 {
        fill: #b85dba;
      }
    </style>
  </defs>
  <g id="_시안" data-name="시안">
    <g id="_튤립" data-name="튤립">
      <path class="cls-1" d="M42.45,2.97c-9.32-9.32-20.74,6.23-20.74,6.23v12.94h41.48v-12.94s-11.42-15.55-20.74-6.23Z"/>
      <g>
        <path class="cls-2" d="M30.74,9.18c-2.06-1.54-7.66-15.85-18.71,0C1.58,24.18-5.66,59.52,5.91,84.33c6.17,13.24,23.62,15.02,35.6,15.02,8.71,0-1.81-4.67-1.81-18.8,0-51.02,1.01-63.9-8.96-71.37Z"/>
        <path class="cls-2" d="M54.17,9.18c2.06-1.54,7.66-15.85,18.71,0,10.45,14.99,17.69,50.33,6.12,75.15-6.17,13.24-23.62,15.02-35.6,15.02-8.71,0,1.81-4.67,1.81-18.8,0-51.02-1.01-63.9,8.96-71.37Z"/>
      </g>
      <path class="cls-3" d="M55.04,6.61c-2.77-1.5-5.11-2.63-6.98-3.47-1.8-.81-3.71-1.21-5.62-1.21s-3.82.4-5.62,1.21c-1.87.84-4.2,1.97-6.98,3.47-13.43,7.24-18.27,24.9-12.06,72.83,1.77,13.64,12.93,19.9,24.65,19.9s22.89-6.27,24.65-19.9c6.21-47.93,1.37-65.59-12.06-72.83Z"/>
    </g>
  </g>
</svg>