<?xml version="1.0" encoding="UTF-8"?>
<svg id="_레이어_2" data-name="레이어 2" xmlns="http://www.w3.org/2000/svg" viewBox="0 0 121.2 121.2">
  <defs>
    <style>
      .cls-1 {
        fill: #ffa757;
      }

      .cls-2 {
        fill: #fc943f;
      }

      .cls-3 {
        fill: #ef8333;
      }

      .cls-4 {
        fill: #cebf51;
      }

      .cls-5 {
        fill: #ffb164;
      }
    </style>
  </defs>
  <g id="_시안" data-name="시안">
    <g id="_거베라" data-name="거베라">
      <g>
        <g>
          <g>
            <path class="cls-1" d="M37.41,4.61c-5.03,2.09-8.44,9.57-2,23.6,4.4,9.59,9.62,14.49,13.34,18.17,3.88,3.82,5.59,6.86,8.33,5.73s1.81-4.5,1.84-9.94c.04-5.23.26-12.38-3.41-22.28-5.37-14.47-13.07-17.35-18.1-15.27Z"/>
            <path class="cls-1" d="M83.79,116.59c-5.03,2.09-12.73-.8-18.1-15.27-3.67-9.9-3.45-17.05-3.41-22.28.04-5.44-.9-8.81,1.84-9.94,2.74-1.13,4.46,1.9,8.33,5.73,3.72,3.67,8.94,8.57,13.34,18.17,6.44,14.03,3.03,21.51-2,23.6Z"/>
          </g>
          <g>
            <path class="cls-1" d="M4.61,83.79c2.09,5.03,9.57,8.44,23.6,2,9.59-4.4,14.49-9.62,18.17-13.34,3.82-3.88,6.86-5.59,5.73-8.33s-4.5-1.81-9.94-1.84c-5.23-.04-12.38-.26-22.28,3.41-14.47,5.37-17.35,13.07-15.27,18.1Z"/>
            <path class="cls-1" d="M116.59,37.41c2.09,5.03-.8,12.73-15.27,18.1-9.9,3.67-17.05,3.45-22.28,3.41-5.44-.04-8.81.9-9.94-1.84s1.9-4.46,5.73-8.33c3.67-3.72,8.57-8.94,18.17-13.34,14.03-6.44,21.51-3.03,23.6,2Z"/>
          </g>
          <g>
            <path class="cls-1" d="M4.61,37.41c-2.09,5.03.8,12.73,15.27,18.1,9.9,3.67,17.05,3.45,22.28,3.41,5.44-.04,8.81.9,9.94-1.84,1.13-2.74-1.9-4.46-5.73-8.33-3.67-3.72-8.57-8.94-18.17-13.34-14.03-6.44-21.51-3.03-23.6,2Z"/>
            <path class="cls-1" d="M116.59,83.79c-2.09,5.03-9.57,8.44-23.6,2-9.59-4.4-14.49-9.62-18.17-13.34-3.82-3.88-6.86-5.59-5.73-8.33,1.13-2.74,4.5-1.81,9.94-1.84,5.23-.04,12.38-.26,22.28,3.41,14.47,5.37,17.35,13.07,15.27,18.1Z"/>
          </g>
          <g>
            <path class="cls-1" d="M83.79,4.61c5.03,2.09,8.44,9.57,2,23.6-4.4,9.59-9.62,14.49-13.34,18.17-3.88,3.82-5.59,6.86-8.33,5.73s-1.81-4.5-1.84-9.94c-.04-5.23-.26-12.38,3.41-22.28,5.37-14.47,13.07-17.35,18.1-15.27Z"/>
            <path class="cls-1" d="M37.41,116.59c5.03,2.09,12.73-.8,18.1-15.27,3.67-9.9,3.45-17.05,3.41-22.28-.04-5.44.9-8.81-1.84-9.94s-4.46,1.9-8.33,5.73c-3.72,3.67-8.94,8.57-13.34,18.17-6.44,14.03-3.03,21.51,2,23.6Z"/>
          </g>
        </g>
        <g>
          <g>
            <path class="cls-5" d="M60.6,0c-5.45,0-11.46,5.61-10.88,21.03.4,10.55,3.34,17.07,5.37,21.89,2.12,5.02,2.54,8.48,5.51,8.48s3.39-3.46,5.51-8.48c2.04-4.82,4.98-11.34,5.37-21.89.58-15.42-5.43-21.03-10.88-21.03Z"/>
            <path class="cls-5" d="M60.6,121.2c-5.45,0-11.46-5.61-10.88-21.03.4-10.55,3.34-17.07,5.37-21.89,2.12-5.02,2.54-8.48,5.51-8.48s3.39,3.46,5.51,8.48c2.04,4.82,4.98,11.34,5.37,21.89.58,15.42-5.43,21.03-10.88,21.03Z"/>
          </g>
          <g>
            <path class="cls-5" d="M103.45,17.75c-3.85-3.85-12.07-4.13-22.57,7.18-7.18,7.74-9.71,14.43-11.68,19.28-2.05,5.04-4.2,7.79-2.1,9.89s4.85-.05,9.89-2.1c4.85-1.97,11.54-4.5,19.28-11.68,11.31-10.5,11.03-18.71,7.18-22.57Z"/>
            <path class="cls-5" d="M17.75,103.45c-3.85-3.85-4.13-12.07,7.18-22.57,7.74-7.18,14.43-9.71,19.28-11.68,5.04-2.05,7.79-4.2,9.89-2.1s-.05,4.85-2.1,9.89c-1.97,4.85-4.5,11.54-11.68,19.28-10.5,11.31-18.71,11.03-22.57,7.18Z"/>
          </g>
          <g>
            <path class="cls-5" d="M121.2,60.6c0-5.45-5.61-11.46-21.03-10.88-10.55.4-17.07,3.34-21.89,5.37-5.02,2.12-8.48,2.54-8.48,5.51,0,2.97,3.46,3.39,8.48,5.51,4.82,2.04,11.34,4.98,21.89,5.37,15.42.58,21.03-5.43,21.03-10.88Z"/>
            <path class="cls-5" d="M0,60.6c0-5.45,5.61-11.46,21.03-10.88,10.55.4,17.07,3.34,21.89,5.37,5.02,2.12,8.48,2.54,8.48,5.51s-3.46,3.39-8.48,5.51c-4.82,2.04-11.34,4.98-21.89,5.37C5.61,72.06,0,66.05,0,60.6Z"/>
          </g>
          <g>
            <path class="cls-5" d="M103.45,103.45c3.85-3.85,4.13-12.07-7.18-22.57-7.74-7.18-14.43-9.71-19.28-11.68-5.04-2.05-7.79-4.2-9.89-2.1s.05,4.85,2.1,9.89c1.97,4.85,4.5,11.54,11.68,19.28,10.5,11.31,18.71,11.03,22.57,7.18Z"/>
            <path class="cls-5" d="M17.75,17.75c3.85-3.85,12.07-4.13,22.57,7.18,7.18,7.74,9.71,14.43,11.68,19.28,2.05,5.04,4.2,7.79,2.1,9.89s-4.85-.05-9.89-2.1c-4.85-1.97-11.54-4.5-19.28-11.68-11.31-10.5-11.03-18.71-7.18-22.57Z"/>
          </g>
        </g>
      </g>
      <g>
        <path class="cls-2" d="M60.6,79.68c-.76,0-1.47-.79-2.21-.88s-1.63.51-2.36.33-1.24-1.12-1.94-1.38-1.7.1-2.37-.25-.93-1.38-1.55-1.81-1.68-.31-2.24-.81-.57-1.56-1.07-2.13-1.55-.7-1.98-1.32-.18-1.65-.53-2.32-1.34-1.04-1.61-1.75.22-1.64.04-2.38-1.05-1.33-1.14-2.09.61-1.54.61-2.3-.7-1.56-.61-2.3.96-1.36,1.14-2.09-.31-1.68-.04-2.38,1.26-1.09,1.61-1.75.1-1.7.53-2.32,1.48-.75,1.98-1.32.51-1.63,1.07-2.13,1.62-.38,2.24-.81.88-1.46,1.55-1.81,1.66.02,2.37-.25,1.2-1.2,1.93-1.38,1.6.42,2.36.33,1.45-.88,2.21-.88,1.47.79,2.21.88,1.63-.51,2.36-.33,1.24,1.12,1.94,1.38,1.7-.1,2.37.25.93,1.38,1.55,1.81,1.68.31,2.24.81.57,1.56,1.07,2.13,1.55.7,1.98,1.32.18,1.65.53,2.32,1.34,1.04,1.61,1.75-.22,1.64-.04,2.38,1.05,1.33,1.14,2.09-.61,1.54-.61,2.3.7,1.56.61,2.3-.96,1.36-1.14,2.09.31,1.68.04,2.38-1.26,1.09-1.61,1.75-.1,1.7-.53,2.32-1.48.75-1.98,1.32-.51,1.63-1.07,2.13-1.62.38-2.24.81-.88,1.46-1.55,1.81-1.66-.02-2.37.25-1.2,1.2-1.93,1.38-1.6-.42-2.36-.33-1.45.88-2.21.88Z"/>
        <path class="cls-3" d="M60.6,73.96c-.53,0-1.03-.55-1.55-.62s-1.14.36-1.65.23-.86-.78-1.35-.97-1.19.07-1.66-.17-.65-.97-1.08-1.27-1.17-.22-1.57-.56-.4-1.09-.75-1.49-1.09-.49-1.39-.92-.13-1.16-.37-1.62-.94-.73-1.13-1.23.16-1.15.03-1.67-.73-.93-.8-1.46.43-1.08.43-1.61-.49-1.09-.43-1.61.67-.95.8-1.46-.21-1.18-.03-1.67.88-.76,1.13-1.23.07-1.19.37-1.62,1.04-.53,1.39-.92.35-1.14.75-1.49,1.13-.26,1.57-.56.61-1.02,1.08-1.27,1.16.01,1.66-.17.84-.84,1.35-.97,1.12.29,1.65.23,1.01-.62,1.55-.62,1.03.55,1.55.62,1.14-.36,1.65-.23.86.78,1.35.97,1.19-.07,1.66.17.65.97,1.08,1.27,1.17.22,1.57.56.4,1.09.75,1.49,1.09.49,1.39.92.13,1.16.37,1.62.94.73,1.13,1.23-.16,1.15-.03,1.67.73.93.8,1.46-.43,1.08-.43,1.61.49,1.09.43,1.61-.67.95-.8,1.46.21,1.18.03,1.67-.88.76-1.13,1.23-.07,1.19-.37,1.62-1.04.53-1.39.92-.35,1.14-.75,1.49-1.13.26-1.57.56-.61,1.02-1.08,1.27-1.16-.01-1.66.17-.84.84-1.35.97-1.12-.29-1.65-.23-1.01.62-1.55.62Z"/>
        <path class="cls-4" d="M60.6,72.05c-.46,0-.88-.47-1.33-.53s-.98.3-1.41.2-.74-.67-1.16-.83-1.02.06-1.42-.15-.56-.83-.93-1.09-1.01-.18-1.34-.48-.34-.94-.64-1.28-.93-.42-1.19-.79-.11-.99-.32-1.39-.8-.63-.97-1.05.13-.99.03-1.43-.63-.8-.68-1.25.37-.92.37-1.38-.42-.94-.37-1.38.58-.82.68-1.25-.18-1.01-.02-1.43.76-.65.97-1.05.06-1.02.32-1.39.89-.45,1.19-.79.3-.98.64-1.28.97-.23,1.34-.48.53-.87.93-1.09,1,.01,1.42-.15.72-.72,1.16-.83.96.25,1.41.2.87-.53,1.33-.53.88.47,1.33.53.98-.3,1.41-.2.74.67,1.16.83,1.02-.06,1.42.15.56.83.93,1.09,1.01.18,1.34.48.34.94.64,1.28.93.42,1.19.79.11.99.32,1.39.8.63.97,1.05-.13.99-.03,1.43.63.8.68,1.25-.37.92-.37,1.38.42.94.37,1.38-.58.82-.68,1.25.18,1.01.02,1.43-.76.65-.97,1.05-.06,1.02-.32,1.39-.89.45-1.19.79-.3.98-.64,1.28-.97.23-1.34.48-.53.87-.93,1.09-1-.01-1.42.15-.72.72-1.16.83-.96-.25-1.41-.2-.87.53-1.33.53Z"/>
      </g>
    </g>
  </g>
</svg>