<?xml version="1.0" encoding="UTF-8"?>
<svg id="_레이어_2" data-name="레이어 2" xmlns="http://www.w3.org/2000/svg" viewBox="0 0 130.85 115.61">
  <defs>
    <style>
      .cls-1 {
        fill: #78d169;
      }

      .cls-2 {
        fill: #f2d64c;
      }

      .cls-3 {
        fill: #ffe36c;
      }

      .cls-4 {
        fill: #80d873;
      }
    </style>
  </defs>
  <g id="_시안" data-name="시안">
    <g id="_백합" data-name="백합">
      <g>
        <path class="cls-1" d="M30.8,90.81c-.6,11.32-2.5,15.54-1.08,20.41.58,1.97,1.45,2.36,2.99,3.24s2.31,1.45,4.3.97c4.93-1.2,7.63-4.96,17.14-11.14,21.8-14.17,16.94-33.23,14.86-38.43-.68-1.69-2.55-6.84-2.55-6.84-.2-.53-.57-.96-1.04-1.22s-1.02-.38-1.58-.29c0,0-5.39.95-7.2,1.21-5.54.79-24.47,6.12-25.85,32.08Z"/>
        <path class="cls-1" d="M111.32,71.29c10.1-5.14,14.71-5.6,18.22-9.27,1.42-1.49,1.31-2.44,1.31-4.21s.11-2.73-1.31-4.21c-3.51-3.67-8.11-4.13-18.22-9.27-23.17-11.79-37.25,1.94-40.71,6.34-1.13,1.43-4.64,5.63-4.64,5.63-.36.44-.54.97-.54,1.51,0,.54.18,1.07.54,1.51,0,0,3.52,4.19,4.64,5.63,3.46,4.4,17.54,18.13,40.71,6.34Z"/>
        <path class="cls-1" d="M54.15,11.32C44.65,5.14,41.95,1.38,37.02.18c-2-.49-2.77.08-4.3.97s-2.41,1.27-2.99,3.24c-1.42,4.87.48,9.09,1.08,20.41,1.37,25.96,20.31,31.29,25.85,32.08,1.81.26,7.2,1.21,7.2,1.21.56.09,1.11-.02,1.58-.29s.84-.69,1.04-1.22c0,0,1.88-5.14,2.55-6.84,2.08-5.19,6.93-24.25-14.86-38.43Z"/>
        <path class="cls-4" d="M19.53,44.32c-10.1,5.14-14.71,5.6-18.22,9.27C-.1,55.08,0,56.03,0,57.81s-.11,2.73,1.31,4.21c3.51,3.67,8.11,4.13,18.22,9.27,23.17,11.79,37.25-1.94,40.71-6.34,1.13-1.43,4.64-5.63,4.64-5.63.36-.44.54-.97.54-1.51s-.18-1.07-.54-1.51c0,0-3.52-4.19-4.64-5.63-3.46-4.4-17.54-18.13-40.71-6.34Z"/>
        <path class="cls-4" d="M76.7,104.29c9.5,6.18,12.21,9.94,17.14,11.14,2,.49,2.77-.08,4.3-.97s2.41-1.27,2.99-3.24c1.42-4.87-.48-9.09-1.08-20.41-1.37-25.96-20.31-31.29-25.85-32.08-1.81-.26-7.2-1.21-7.2-1.21-.56-.09-1.11.02-1.58.29s-.84.69-1.04,1.22c0,0-1.88,5.14-2.55,6.84-2.08,5.19-6.93,24.25,14.86,38.43Z"/>
        <path class="cls-4" d="M100.05,24.8c.6-11.32,2.5-15.54,1.08-20.41-.58-1.97-1.45-2.36-2.99-3.24s-2.31-1.45-4.3-.97c-4.93,1.2-7.63,4.96-17.14,11.14-21.8,14.17-16.94,33.23-14.86,38.43.68,1.69,2.55,6.84,2.55,6.84.2.53.57.96,1.04,1.22s1.02.38,1.58.29c0,0,5.39-.95,7.2-1.21,5.54-.79,24.47-6.12,25.85-32.08Z"/>
      </g>
      <path class="cls-3" d="M66.83,50.93h-2.81c-1.59,0-3.05.85-3.84,2.22l-1.41,2.44c-.79,1.37-.79,3.06,0,4.44l1.41,2.44c.79,1.37,2.26,2.22,3.84,2.22h2.81c1.59,0,3.05-.85,3.84-2.22l1.41-2.44c.79-1.37.79-3.06,0-4.44l-1.41-2.44c-.79-1.37-2.26-2.22-3.84-2.22Z"/>
      <g>
        <g>
          <g>
            <circle class="cls-2" cx="60.32" cy="48.96" r="1.07"/>
            <circle class="cls-2" cx="70.53" cy="66.65" r="1.07"/>
          </g>
          <g>
            <circle class="cls-2" cx="55.21" cy="57.81" r="1.07"/>
            <circle class="cls-2" cx="75.64" cy="57.81" r="1.07"/>
          </g>
          <g>
            <circle class="cls-2" cx="60.32" cy="66.65" r="1.07"/>
            <circle class="cls-2" cx="70.53" cy="48.96" r="1.07"/>
          </g>
        </g>
        <circle class="cls-2" cx="65.43" cy="57.81" r="1.07"/>
        <g>
          <circle class="cls-2" cx="65.43" cy="52.02" r="1.07"/>
          <circle class="cls-2" cx="65.43" cy="63.59" r="1.07"/>
        </g>
        <g>
          <circle class="cls-2" cx="70.44" cy="54.91" r="1.07"/>
          <circle class="cls-2" cx="60.41" cy="60.7" r="1.07"/>
        </g>
        <g>
          <circle class="cls-2" cx="70.44" cy="60.7" r="1.07"/>
          <circle class="cls-2" cx="60.41" cy="54.91" r="1.07"/>
        </g>
      </g>
    </g>
  </g>
</svg>